%TF.GenerationSoftware,KiCad,Pcbnew,7.0.8-7.0.8~ubuntu22.04.1*%
%TF.CreationDate,2023-12-12T19:51:11+11:00*%
%TF.ProjectId,Boost-Converter,426f6f73-742d-4436-9f6e-766572746572,rev?*%
%TF.SameCoordinates,Original*%
%TF.FileFunction,Copper,L3,Inr*%
%TF.FilePolarity,Positive*%
%FSLAX46Y46*%
G04 Gerber Fmt 4.6, Leading zero omitted, Abs format (unit mm)*
G04 Created by KiCad (PCBNEW 7.0.8-7.0.8~ubuntu22.04.1) date 2023-12-12 19:51:11*
%MOMM*%
%LPD*%
G01*
G04 APERTURE LIST*
G04 Aperture macros list*
%AMRoundRect*
0 Rectangle with rounded corners*
0 $1 Rounding radius*
0 $2 $3 $4 $5 $6 $7 $8 $9 X,Y pos of 4 corners*
0 Add a 4 corners polygon primitive as box body*
4,1,4,$2,$3,$4,$5,$6,$7,$8,$9,$2,$3,0*
0 Add four circle primitives for the rounded corners*
1,1,$1+$1,$2,$3*
1,1,$1+$1,$4,$5*
1,1,$1+$1,$6,$7*
1,1,$1+$1,$8,$9*
0 Add four rect primitives between the rounded corners*
20,1,$1+$1,$2,$3,$4,$5,0*
20,1,$1+$1,$4,$5,$6,$7,0*
20,1,$1+$1,$6,$7,$8,$9,0*
20,1,$1+$1,$8,$9,$2,$3,0*%
G04 Aperture macros list end*
%TA.AperFunction,ComponentPad*%
%ADD10C,2.000000*%
%TD*%
%TA.AperFunction,ComponentPad*%
%ADD11R,1.500000X1.500000*%
%TD*%
%TA.AperFunction,ComponentPad*%
%ADD12C,3.000000*%
%TD*%
%TA.AperFunction,ComponentPad*%
%ADD13R,1.700000X1.700000*%
%TD*%
%TA.AperFunction,ComponentPad*%
%ADD14O,1.700000X1.700000*%
%TD*%
%TA.AperFunction,ComponentPad*%
%ADD15C,0.600000*%
%TD*%
%TA.AperFunction,ComponentPad*%
%ADD16O,2.500000X2.000000*%
%TD*%
%TA.AperFunction,ComponentPad*%
%ADD17RoundRect,0.375000X-0.875000X0.375000X-0.875000X-0.375000X0.875000X-0.375000X0.875000X0.375000X0*%
%TD*%
%TA.AperFunction,ComponentPad*%
%ADD18O,2.500000X1.500000*%
%TD*%
%TA.AperFunction,ComponentPad*%
%ADD19O,1.000000X2.100000*%
%TD*%
%TA.AperFunction,ComponentPad*%
%ADD20O,1.000000X1.600000*%
%TD*%
%TA.AperFunction,ComponentPad*%
%ADD21R,1.350000X1.350000*%
%TD*%
%TA.AperFunction,ComponentPad*%
%ADD22O,1.350000X1.350000*%
%TD*%
%TA.AperFunction,ViaPad*%
%ADD23C,0.600000*%
%TD*%
%TA.AperFunction,ViaPad*%
%ADD24C,0.800000*%
%TD*%
%TA.AperFunction,ViaPad*%
%ADD25C,1.000000*%
%TD*%
%TA.AperFunction,Conductor*%
%ADD26C,0.800000*%
%TD*%
G04 APERTURE END LIST*
D10*
%TO.N,+3.3V*%
%TO.C,TP4*%
X165049200Y-88290400D03*
%TD*%
D11*
%TO.N,GND*%
%TO.C,TP8*%
X132918200Y-67614800D03*
%TD*%
D10*
%TO.N,VBUS*%
%TO.C,TP6*%
X128508800Y-70866000D03*
%TD*%
D12*
%TO.N,N/C*%
%TO.C,H1*%
X129413000Y-67564000D03*
%TD*%
D13*
%TO.N,GND*%
%TO.C,Brd1*%
X167513000Y-78105000D03*
D14*
%TO.N,+3.3V*%
X167513000Y-80645000D03*
%TO.N,/SCL_1*%
X167513000Y-83185000D03*
%TO.N,/SDA_1*%
X167513000Y-85725000D03*
%TD*%
D15*
%TO.N,GND*%
%TO.C,U5*%
X151841300Y-85600000D03*
X151841300Y-86875000D03*
X151841300Y-88150000D03*
X153116300Y-85600000D03*
X153116300Y-86875000D03*
X153116300Y-88150000D03*
X154391300Y-85600000D03*
X154391300Y-86875000D03*
X154391300Y-88150000D03*
%TD*%
D16*
%TO.N,*%
%TO.C,SW1*%
X139319000Y-80482000D03*
X139319000Y-88682000D03*
D17*
%TO.N,/24V*%
X139319000Y-82582000D03*
D18*
%TO.N,/FB*%
X139319000Y-84582000D03*
%TO.N,/18V*%
X139319000Y-86582000D03*
%TD*%
D12*
%TO.N,N/C*%
%TO.C,H3*%
X128651000Y-93980000D03*
%TD*%
D19*
%TO.N,GND*%
%TO.C,J6*%
X159480000Y-70827000D03*
D20*
X159480000Y-66647000D03*
D19*
X150840000Y-70827000D03*
D20*
X150840000Y-66647000D03*
%TD*%
D10*
%TO.N,/V_{OUT}*%
%TO.C,TP2*%
X134493000Y-91948000D03*
%TD*%
D11*
%TO.N,GND*%
%TO.C,TP9*%
X168046400Y-88874600D03*
%TD*%
D12*
%TO.N,N/C*%
%TO.C,H2*%
X166243000Y-67564000D03*
%TD*%
D11*
%TO.N,GND*%
%TO.C,TP5*%
X137668000Y-91948000D03*
%TD*%
D21*
%TO.N,GND*%
%TO.C,SW2*%
X144145000Y-83074000D03*
D22*
%TO.N,/BOOT*%
X144145000Y-85074000D03*
%TD*%
D10*
%TO.N,/V_{S}*%
%TO.C,TP1*%
X128524000Y-88392000D03*
%TD*%
D11*
%TO.N,GND*%
%TO.C,TP7*%
X130606800Y-91084400D03*
%TD*%
D13*
%TO.N,/TX*%
%TO.C,J3*%
X163210000Y-91719000D03*
D14*
%TO.N,GND*%
X165750000Y-91719000D03*
%TO.N,/RX*%
X168290000Y-91719000D03*
%TD*%
D23*
%TO.N,GND*%
X154940000Y-77978000D03*
X127558800Y-69138800D03*
X164211000Y-72009000D03*
X138811000Y-96774000D03*
X135128000Y-98806000D03*
X147447000Y-97155000D03*
X156972000Y-90424000D03*
X154051000Y-70231000D03*
X151892000Y-75057000D03*
X133096000Y-77089000D03*
X136271000Y-70231000D03*
X157861000Y-80391000D03*
X136906000Y-84937600D03*
X164592000Y-74295000D03*
X160020000Y-93726000D03*
X130606800Y-89458800D03*
X141605000Y-92964000D03*
X128867800Y-82992000D03*
X141859000Y-77724000D03*
X137795000Y-97663000D03*
X127101600Y-82753200D03*
X152400000Y-97536000D03*
X147955000Y-75184000D03*
X140589000Y-91313000D03*
X127127000Y-84582000D03*
X158750000Y-72644000D03*
X163322000Y-87630000D03*
X128270000Y-99060000D03*
X156921200Y-64770000D03*
X165570800Y-77988200D03*
X162433000Y-72771000D03*
X159131000Y-73660000D03*
X128905000Y-76962000D03*
X129032000Y-90982800D03*
X143383000Y-84074000D03*
X130937000Y-85725000D03*
X141605000Y-96647000D03*
X152654000Y-77470000D03*
X141478000Y-89662000D03*
X148844000Y-73660000D03*
X150584800Y-80071000D03*
X136779000Y-90424000D03*
X138557000Y-70231000D03*
X166254777Y-79630500D03*
X163068000Y-81788000D03*
X159639000Y-72517000D03*
X159766000Y-95250000D03*
X147447000Y-64516000D03*
X139446000Y-73152000D03*
X142621000Y-79502000D03*
X149225000Y-93853000D03*
X130937000Y-86741000D03*
X167894000Y-92583000D03*
X159893000Y-97663000D03*
X136398000Y-71755000D03*
X160020000Y-65125600D03*
X133858000Y-77089000D03*
X150495000Y-77089000D03*
X149860000Y-74549000D03*
X164973000Y-83820000D03*
X133439800Y-79436000D03*
X137414000Y-81788000D03*
X127863600Y-90728800D03*
X144653000Y-70231000D03*
X156299800Y-79817000D03*
X146939000Y-94234000D03*
X150495000Y-75946000D03*
X156083000Y-93599000D03*
X137541000Y-84937600D03*
X144615800Y-95438000D03*
X159258000Y-100711000D03*
X148171800Y-82788800D03*
X137414000Y-80772000D03*
X132588000Y-98679000D03*
X141605000Y-98933000D03*
X155664800Y-80706000D03*
X138176000Y-93980000D03*
X151257000Y-91440000D03*
X145923000Y-75692000D03*
X143002000Y-72136000D03*
X140589000Y-70231000D03*
X130657600Y-92506800D03*
X159385000Y-86995000D03*
X143713200Y-91948000D03*
X136906000Y-87884000D03*
X159131000Y-81153000D03*
X127889000Y-96774000D03*
X159893000Y-83566000D03*
X147955000Y-93345000D03*
X149568800Y-80071000D03*
X130694777Y-81281500D03*
X143764000Y-90982800D03*
X165912800Y-86614000D03*
X140462000Y-77343000D03*
X151892000Y-91440000D03*
X143637000Y-73533000D03*
X127127000Y-81534000D03*
X144399000Y-81407000D03*
X135890000Y-72644000D03*
X168529000Y-98298000D03*
X155498800Y-66040000D03*
X132334000Y-85090000D03*
X161036000Y-73660000D03*
X137541000Y-66548000D03*
X157988000Y-92964000D03*
X148031200Y-95504000D03*
X168021000Y-95885000D03*
X127127000Y-83693000D03*
X164592000Y-91059000D03*
X150241000Y-99822000D03*
X163195000Y-69215000D03*
X162179000Y-97917000D03*
X149225000Y-92837000D03*
X130175000Y-82550000D03*
X131873470Y-79436998D03*
X127889000Y-83058000D03*
X167386000Y-71247000D03*
X148463000Y-64516000D03*
X167640000Y-74676000D03*
X129667000Y-97536000D03*
X143891000Y-79629000D03*
X151928000Y-72614000D03*
X154140800Y-80071000D03*
X131318000Y-69799200D03*
X127101600Y-80467200D03*
X141224000Y-73660000D03*
X127203200Y-86207600D03*
X132334000Y-77089000D03*
X136652000Y-65278000D03*
X135128000Y-84963000D03*
X145923000Y-85344000D03*
X152400000Y-66141600D03*
X146304000Y-99314000D03*
X141605000Y-85725000D03*
X135890000Y-74041000D03*
X160147000Y-76962000D03*
X140589000Y-66040000D03*
X147523200Y-91948000D03*
X130937000Y-84709000D03*
X161036000Y-96139000D03*
X164592000Y-92837000D03*
X151638000Y-77470000D03*
X136017000Y-75819000D03*
X133985000Y-82804000D03*
X156210000Y-70231000D03*
X152908000Y-94742000D03*
X167284400Y-88747600D03*
X149695800Y-83627000D03*
X135763000Y-81280000D03*
X137795000Y-79502000D03*
X156972000Y-98933000D03*
D24*
%TO.N,+3.3V*%
X157861000Y-82804000D03*
D23*
X165354000Y-82677000D03*
D24*
X159893000Y-81788000D03*
D23*
X147955000Y-78105000D03*
X147320000Y-87122000D03*
D24*
X160782000Y-82804000D03*
D23*
X151892000Y-93726000D03*
X162435000Y-89487224D03*
X152273000Y-79212500D03*
X145288000Y-88317605D03*
X161417000Y-87503000D03*
X145034000Y-90932000D03*
X145415000Y-80899000D03*
%TO.N,/V_{S}*%
X135001000Y-81026000D03*
D25*
%TO.N,/18V*%
X136906000Y-85979000D03*
D23*
%TO.N,+1V1*%
X158750000Y-78613000D03*
X153797000Y-93853000D03*
X150876000Y-79248000D03*
D25*
%TO.N,/FB*%
X137668000Y-78486000D03*
D23*
%TO.N,/RUN*%
X145758800Y-91374000D03*
X155321000Y-92329000D03*
X145758800Y-93406000D03*
%TO.N,/SWC*%
X154051000Y-92964000D03*
%TO.N,/SWD*%
X154813000Y-92964000D03*
%TO.N,/TX*%
X159258000Y-89408000D03*
%TO.N,/RX*%
X160020000Y-89281000D03*
%TO.N,/EN*%
X142875000Y-81026000D03*
X149314800Y-90485000D03*
%TO.N,/FLASH_CS*%
X144145000Y-89662000D03*
X146647800Y-84836000D03*
%TO.N,Net-(D4-K)*%
X134493000Y-75118000D03*
X136525000Y-75118000D03*
D25*
%TO.N,/24V*%
X136906000Y-83820000D03*
%TO.N,/V_{OUT}*%
X132715000Y-89154000D03*
X133350000Y-96393000D03*
X131953000Y-89154000D03*
X132461000Y-95631000D03*
D23*
%TO.N,/V_{G}*%
X138684000Y-75946000D03*
X136906000Y-79469103D03*
%TO.N,/SCL_1*%
X164901941Y-85386252D03*
X150622000Y-87757000D03*
%TO.N,/SDA_1*%
X150495000Y-86995000D03*
D24*
%TO.N,VBUS*%
X158115000Y-74041000D03*
D25*
X147447000Y-73279000D03*
D23*
X137287000Y-75819000D03*
D25*
X129159000Y-72898000D03*
X130175000Y-72898000D03*
X132715000Y-71755000D03*
X141986000Y-75946000D03*
X128143000Y-72898000D03*
D23*
%TO.N,/CC1*%
X138811000Y-68326000D03*
X156930000Y-74168000D03*
X149098000Y-67945000D03*
%TO.N,/CC2*%
X152781000Y-74676000D03*
X147574000Y-68072000D03*
X139446000Y-68961000D03*
%TO.N,/SDA_0*%
X146304000Y-67818000D03*
X148590000Y-86106000D03*
%TO.N,/SCL_0*%
X148590000Y-86868000D03*
X145796000Y-67056000D03*
%TO.N,/PD_INT*%
X145034000Y-65913000D03*
X148590000Y-89027000D03*
%TD*%
D26*
%TO.N,/18V*%
X137541000Y-86487000D02*
X137122803Y-86068803D01*
X139319000Y-86582000D02*
X137770350Y-86582000D01*
X137541015Y-86486985D02*
G75*
G03*
X137770350Y-86582000I229385J229385D01*
G01*
X137122802Y-86068804D02*
G75*
G03*
X136906000Y-85979000I-216802J-216796D01*
G01*
%TO.N,/FB*%
X140229790Y-84582000D02*
X139319000Y-84582000D01*
X139065000Y-78613000D02*
X140050185Y-78613000D01*
X141351000Y-79913815D02*
X141351000Y-82931000D01*
X141351000Y-82931000D02*
X141351000Y-83101580D01*
X137691493Y-78486000D02*
X137769191Y-78563698D01*
X137668000Y-78486000D02*
X137691493Y-78486000D01*
X137974605Y-78613000D02*
X139065000Y-78613000D01*
X140229790Y-84581995D02*
G75*
G03*
X140842999Y-84327999I10J867195D01*
G01*
X137769189Y-78563702D02*
G75*
G03*
X137974605Y-78613000I210211J423302D01*
G01*
X141350993Y-79913815D02*
G75*
G03*
X140970000Y-78994000I-1300793J15D01*
G01*
X140843006Y-84328006D02*
G75*
G03*
X141351000Y-83101580I-1226406J1226406D01*
G01*
X140970005Y-78993995D02*
G75*
G03*
X140050185Y-78613000I-919805J-919805D01*
G01*
%TO.N,/24V*%
X137795000Y-82931000D02*
X136906000Y-83820000D01*
X139319000Y-82582000D02*
X138637560Y-82582000D01*
X138637560Y-82581984D02*
G75*
G03*
X137795000Y-82931000I40J-1191616D01*
G01*
%TD*%
%TA.AperFunction,Conductor*%
%TO.N,+3.3V*%
G36*
X151272573Y-77744002D02*
G01*
X151299676Y-77767488D01*
X151339948Y-77813965D01*
X151339952Y-77813968D01*
X151411539Y-77859974D01*
X151448931Y-77884004D01*
X151573228Y-77920500D01*
X151573232Y-77920500D01*
X151702768Y-77920500D01*
X151702772Y-77920500D01*
X151827069Y-77884004D01*
X151936049Y-77813967D01*
X151943448Y-77805428D01*
X151976324Y-77767488D01*
X152036050Y-77729104D01*
X152071548Y-77724000D01*
X152220452Y-77724000D01*
X152288573Y-77744002D01*
X152315676Y-77767488D01*
X152355948Y-77813965D01*
X152355952Y-77813968D01*
X152427539Y-77859974D01*
X152464931Y-77884004D01*
X152589228Y-77920500D01*
X152589232Y-77920500D01*
X152718768Y-77920500D01*
X152718772Y-77920500D01*
X152843069Y-77884004D01*
X152952049Y-77813967D01*
X152959448Y-77805428D01*
X152992324Y-77767488D01*
X153052050Y-77729104D01*
X153087548Y-77724000D01*
X154375975Y-77724000D01*
X154444096Y-77744002D01*
X154490589Y-77797658D01*
X154500692Y-77867929D01*
X154500692Y-77867932D01*
X154484867Y-77977996D01*
X154484867Y-77977998D01*
X154484867Y-77978000D01*
X154503303Y-78106226D01*
X154557118Y-78224063D01*
X154641951Y-78321967D01*
X154750931Y-78392004D01*
X154875228Y-78428500D01*
X154875232Y-78428500D01*
X155004768Y-78428500D01*
X155004772Y-78428500D01*
X155129069Y-78392004D01*
X155238049Y-78321967D01*
X155322882Y-78224063D01*
X155376697Y-78106226D01*
X155395133Y-77978000D01*
X155395132Y-77977997D01*
X155395133Y-77977996D01*
X155379308Y-77867932D01*
X155389411Y-77797658D01*
X155435904Y-77744002D01*
X155504025Y-77724000D01*
X158429406Y-77724000D01*
X158435585Y-77724304D01*
X158469012Y-77727596D01*
X158605980Y-77741086D01*
X158630194Y-77745902D01*
X158785129Y-77792902D01*
X158807948Y-77802353D01*
X158950737Y-77878675D01*
X158971273Y-77892397D01*
X159096426Y-77995108D01*
X159113886Y-78012567D01*
X159125125Y-78026261D01*
X159152879Y-78091606D01*
X159140900Y-78161584D01*
X159092989Y-78213978D01*
X159024358Y-78232151D01*
X158959609Y-78212196D01*
X158939072Y-78198998D01*
X158939069Y-78198996D01*
X158862746Y-78176586D01*
X158814776Y-78162501D01*
X158814774Y-78162500D01*
X158814772Y-78162500D01*
X158685228Y-78162500D01*
X158685225Y-78162500D01*
X158685223Y-78162501D01*
X158560933Y-78198995D01*
X158560926Y-78198998D01*
X158451951Y-78269032D01*
X158406084Y-78321967D01*
X158367118Y-78366937D01*
X158313303Y-78484774D01*
X158294867Y-78613000D01*
X158313303Y-78741226D01*
X158367118Y-78859063D01*
X158451951Y-78956967D01*
X158540263Y-79013722D01*
X158560931Y-79027004D01*
X158685228Y-79063500D01*
X158685232Y-79063500D01*
X158814768Y-79063500D01*
X158814772Y-79063500D01*
X158939069Y-79027004D01*
X159048049Y-78956967D01*
X159132882Y-78859063D01*
X159160975Y-78797547D01*
X159207468Y-78743892D01*
X159275589Y-78723890D01*
X159343710Y-78743892D01*
X159390203Y-78797548D01*
X159400973Y-78837446D01*
X159403359Y-78861494D01*
X159453968Y-79027001D01*
X159457723Y-79039279D01*
X159545968Y-79202907D01*
X159664653Y-79345998D01*
X159809147Y-79462972D01*
X159917747Y-79519882D01*
X159956826Y-79540361D01*
X159973810Y-79549261D01*
X159973811Y-79549261D01*
X159973814Y-79549263D01*
X160152229Y-79601505D01*
X160337428Y-79617661D01*
X160337432Y-79617660D01*
X160337433Y-79617661D01*
X165677979Y-79554083D01*
X165746329Y-79573272D01*
X165793457Y-79626370D01*
X165804192Y-79662141D01*
X165818078Y-79758719D01*
X165818079Y-79758723D01*
X165818079Y-79758724D01*
X165818080Y-79758726D01*
X165871895Y-79876563D01*
X165956728Y-79974467D01*
X166065708Y-80044504D01*
X166190005Y-80081000D01*
X166190009Y-80081000D01*
X166319545Y-80081000D01*
X166319549Y-80081000D01*
X166443846Y-80044504D01*
X166552826Y-79974467D01*
X166637659Y-79876563D01*
X166691474Y-79758726D01*
X166707333Y-79648416D01*
X166736825Y-79583840D01*
X166796551Y-79545456D01*
X166830540Y-79540362D01*
X168547780Y-79519919D01*
X168553999Y-79520152D01*
X168735206Y-79535960D01*
X168759658Y-79540559D01*
X168925222Y-79589037D01*
X168948297Y-79598356D01*
X168980249Y-79615100D01*
X169076450Y-79665513D01*
X169101092Y-79678426D01*
X169121887Y-79692098D01*
X169255967Y-79800641D01*
X169273668Y-79818133D01*
X169383797Y-79950908D01*
X169397716Y-79971539D01*
X169479599Y-80123369D01*
X169489192Y-80146333D01*
X169539638Y-80311305D01*
X169544529Y-80335706D01*
X169551992Y-80410902D01*
X169552300Y-80417127D01*
X169552300Y-99619940D01*
X169552165Y-99624061D01*
X169535550Y-99877554D01*
X169534474Y-99885733D01*
X169485314Y-100132869D01*
X169483179Y-100140837D01*
X169402187Y-100379433D01*
X169399030Y-100387055D01*
X169287587Y-100613042D01*
X169283462Y-100620186D01*
X169143471Y-100829695D01*
X169138449Y-100836239D01*
X168972314Y-101025681D01*
X168966481Y-101031514D01*
X168777039Y-101197649D01*
X168770495Y-101202671D01*
X168560986Y-101342662D01*
X168553847Y-101346784D01*
X168439003Y-101403418D01*
X168327855Y-101458230D01*
X168320233Y-101461387D01*
X168081637Y-101542379D01*
X168073669Y-101544514D01*
X167826533Y-101593674D01*
X167818354Y-101594750D01*
X167617853Y-101607891D01*
X167564857Y-101611365D01*
X167560741Y-101611500D01*
X145683984Y-101611500D01*
X145677784Y-101611194D01*
X145603789Y-101603881D01*
X145579489Y-101599031D01*
X145415149Y-101549004D01*
X145392266Y-101539491D01*
X145240893Y-101458261D01*
X145220326Y-101444460D01*
X145087776Y-101335170D01*
X145070304Y-101317606D01*
X145024653Y-101261645D01*
X144961713Y-101184491D01*
X144948017Y-101163848D01*
X144867580Y-101012047D01*
X144858192Y-100989128D01*
X144809023Y-100824521D01*
X144804301Y-100800197D01*
X144795957Y-100711000D01*
X158802867Y-100711000D01*
X158821303Y-100839226D01*
X158875118Y-100957063D01*
X158959951Y-101054967D01*
X159068931Y-101125004D01*
X159193228Y-101161500D01*
X159193232Y-101161500D01*
X159322768Y-101161500D01*
X159322772Y-101161500D01*
X159447069Y-101125004D01*
X159556049Y-101054967D01*
X159640882Y-100957063D01*
X159694697Y-100839226D01*
X159713133Y-100711000D01*
X159694697Y-100582774D01*
X159640882Y-100464937D01*
X159556049Y-100367033D01*
X159556048Y-100367032D01*
X159447073Y-100296998D01*
X159447070Y-100296996D01*
X159447069Y-100296996D01*
X159447066Y-100296995D01*
X159322776Y-100260501D01*
X159322774Y-100260500D01*
X159322772Y-100260500D01*
X159193228Y-100260500D01*
X159193225Y-100260500D01*
X159193223Y-100260501D01*
X159068933Y-100296995D01*
X159068926Y-100296998D01*
X158959951Y-100367032D01*
X158875118Y-100464937D01*
X158821303Y-100582774D01*
X158802867Y-100711000D01*
X144795957Y-100711000D01*
X144787431Y-100619849D01*
X144787159Y-100613682D01*
X144791304Y-99822000D01*
X149785867Y-99822000D01*
X149804303Y-99950226D01*
X149858118Y-100068063D01*
X149942951Y-100165967D01*
X150051931Y-100236004D01*
X150176228Y-100272500D01*
X150176232Y-100272500D01*
X150305768Y-100272500D01*
X150305772Y-100272500D01*
X150430069Y-100236004D01*
X150539049Y-100165967D01*
X150623882Y-100068063D01*
X150677697Y-99950226D01*
X150696133Y-99822000D01*
X150677697Y-99693774D01*
X150623882Y-99575937D01*
X150539049Y-99478033D01*
X150539048Y-99478032D01*
X150430073Y-99407998D01*
X150430070Y-99407996D01*
X150430069Y-99407996D01*
X150430066Y-99407995D01*
X150305776Y-99371501D01*
X150305774Y-99371500D01*
X150305772Y-99371500D01*
X150176228Y-99371500D01*
X150176225Y-99371500D01*
X150176223Y-99371501D01*
X150051933Y-99407995D01*
X150051926Y-99407998D01*
X149942951Y-99478032D01*
X149871873Y-99560063D01*
X149858118Y-99575937D01*
X149804303Y-99693774D01*
X149785867Y-99822000D01*
X144791304Y-99822000D01*
X144793963Y-99314000D01*
X145848867Y-99314000D01*
X145867303Y-99442226D01*
X145921118Y-99560063D01*
X146005951Y-99657967D01*
X146114931Y-99728004D01*
X146239228Y-99764500D01*
X146239232Y-99764500D01*
X146368768Y-99764500D01*
X146368772Y-99764500D01*
X146493069Y-99728004D01*
X146602049Y-99657967D01*
X146686882Y-99560063D01*
X146740697Y-99442226D01*
X146759133Y-99314000D01*
X146740697Y-99185774D01*
X146686882Y-99067937D01*
X146602049Y-98970033D01*
X146602048Y-98970032D01*
X146544425Y-98933000D01*
X156516867Y-98933000D01*
X156535303Y-99061226D01*
X156589118Y-99179063D01*
X156673951Y-99276967D01*
X156731575Y-99314000D01*
X156782931Y-99347004D01*
X156907228Y-99383500D01*
X156907232Y-99383500D01*
X157036768Y-99383500D01*
X157036772Y-99383500D01*
X157161069Y-99347004D01*
X157270049Y-99276967D01*
X157354882Y-99179063D01*
X157408697Y-99061226D01*
X157427133Y-98933000D01*
X157408697Y-98804774D01*
X157354882Y-98686937D01*
X157270049Y-98589033D01*
X157270048Y-98589032D01*
X157161073Y-98518998D01*
X157161070Y-98518996D01*
X157161069Y-98518996D01*
X157161066Y-98518995D01*
X157036776Y-98482501D01*
X157036774Y-98482500D01*
X157036772Y-98482500D01*
X156907228Y-98482500D01*
X156907225Y-98482500D01*
X156907223Y-98482501D01*
X156782933Y-98518995D01*
X156782926Y-98518998D01*
X156673951Y-98589032D01*
X156628084Y-98641967D01*
X156589118Y-98686937D01*
X156535303Y-98804774D01*
X156516867Y-98933000D01*
X146544425Y-98933000D01*
X146493073Y-98899998D01*
X146493070Y-98899996D01*
X146493069Y-98899996D01*
X146493066Y-98899995D01*
X146368776Y-98863501D01*
X146368774Y-98863500D01*
X146368772Y-98863500D01*
X146239228Y-98863500D01*
X146239225Y-98863500D01*
X146239223Y-98863501D01*
X146114933Y-98899995D01*
X146114926Y-98899998D01*
X146005951Y-98970032D01*
X145926935Y-99061224D01*
X145921118Y-99067937D01*
X145867303Y-99185774D01*
X145848867Y-99314000D01*
X144793963Y-99314000D01*
X144805267Y-97155000D01*
X146991867Y-97155000D01*
X147010303Y-97283226D01*
X147064118Y-97401063D01*
X147148951Y-97498967D01*
X147206575Y-97536000D01*
X147257931Y-97569004D01*
X147382228Y-97605500D01*
X147382232Y-97605500D01*
X147511768Y-97605500D01*
X147511772Y-97605500D01*
X147636069Y-97569004D01*
X147687424Y-97536000D01*
X151944867Y-97536000D01*
X151963303Y-97664226D01*
X152017118Y-97782063D01*
X152101951Y-97879967D01*
X152159575Y-97917000D01*
X152210931Y-97950004D01*
X152335228Y-97986500D01*
X152335232Y-97986500D01*
X152464768Y-97986500D01*
X152464772Y-97986500D01*
X152589069Y-97950004D01*
X152698049Y-97879967D01*
X152782882Y-97782063D01*
X152836697Y-97664226D01*
X152836873Y-97663000D01*
X159437867Y-97663000D01*
X159456303Y-97791226D01*
X159510118Y-97909063D01*
X159594951Y-98006967D01*
X159703931Y-98077004D01*
X159828228Y-98113500D01*
X159828232Y-98113500D01*
X159957768Y-98113500D01*
X159957772Y-98113500D01*
X160082069Y-98077004D01*
X160191049Y-98006967D01*
X160269005Y-97917000D01*
X161723867Y-97917000D01*
X161742303Y-98045226D01*
X161796118Y-98163063D01*
X161880951Y-98260967D01*
X161938575Y-98298000D01*
X161989931Y-98331004D01*
X162114228Y-98367500D01*
X162114232Y-98367500D01*
X162243768Y-98367500D01*
X162243772Y-98367500D01*
X162368069Y-98331004D01*
X162419424Y-98298000D01*
X168073867Y-98298000D01*
X168092303Y-98426226D01*
X168146118Y-98544063D01*
X168230951Y-98641967D01*
X168339931Y-98712004D01*
X168464228Y-98748500D01*
X168464232Y-98748500D01*
X168593768Y-98748500D01*
X168593772Y-98748500D01*
X168718069Y-98712004D01*
X168827049Y-98641967D01*
X168911882Y-98544063D01*
X168965697Y-98426226D01*
X168984133Y-98298000D01*
X168965697Y-98169774D01*
X168911882Y-98051937D01*
X168827049Y-97954033D01*
X168827048Y-97954032D01*
X168718073Y-97883998D01*
X168718070Y-97883996D01*
X168718069Y-97883996D01*
X168718066Y-97883995D01*
X168593776Y-97847501D01*
X168593774Y-97847500D01*
X168593772Y-97847500D01*
X168464228Y-97847500D01*
X168464225Y-97847500D01*
X168464223Y-97847501D01*
X168339933Y-97883995D01*
X168339926Y-97883998D01*
X168230951Y-97954032D01*
X168185084Y-98006967D01*
X168146118Y-98051937D01*
X168092303Y-98169774D01*
X168073867Y-98298000D01*
X162419424Y-98298000D01*
X162477049Y-98260967D01*
X162561882Y-98163063D01*
X162615697Y-98045226D01*
X162634133Y-97917000D01*
X162615697Y-97788774D01*
X162561882Y-97670937D01*
X162477049Y-97573033D01*
X162477048Y-97573032D01*
X162368073Y-97502998D01*
X162368070Y-97502996D01*
X162368069Y-97502996D01*
X162368066Y-97502995D01*
X162243776Y-97466501D01*
X162243774Y-97466500D01*
X162243772Y-97466500D01*
X162114228Y-97466500D01*
X162114225Y-97466500D01*
X162114223Y-97466501D01*
X161989933Y-97502995D01*
X161989926Y-97502998D01*
X161880951Y-97573032D01*
X161802995Y-97663000D01*
X161796118Y-97670937D01*
X161742303Y-97788774D01*
X161723867Y-97917000D01*
X160269005Y-97917000D01*
X160275882Y-97909063D01*
X160329697Y-97791226D01*
X160348133Y-97663000D01*
X160329697Y-97534774D01*
X160275882Y-97416937D01*
X160191049Y-97319033D01*
X160191048Y-97319032D01*
X160082073Y-97248998D01*
X160082070Y-97248996D01*
X160082069Y-97248996D01*
X160082066Y-97248995D01*
X159957776Y-97212501D01*
X159957774Y-97212500D01*
X159957772Y-97212500D01*
X159828228Y-97212500D01*
X159828225Y-97212500D01*
X159828223Y-97212501D01*
X159703933Y-97248995D01*
X159703926Y-97248998D01*
X159594951Y-97319032D01*
X159523873Y-97401063D01*
X159510118Y-97416937D01*
X159456303Y-97534774D01*
X159437867Y-97663000D01*
X152836873Y-97663000D01*
X152855133Y-97536000D01*
X152836697Y-97407774D01*
X152782882Y-97289937D01*
X152698049Y-97192033D01*
X152698048Y-97192032D01*
X152589073Y-97121998D01*
X152589070Y-97121996D01*
X152589069Y-97121996D01*
X152589066Y-97121995D01*
X152464776Y-97085501D01*
X152464774Y-97085500D01*
X152464772Y-97085500D01*
X152335228Y-97085500D01*
X152335225Y-97085500D01*
X152335223Y-97085501D01*
X152210933Y-97121995D01*
X152210926Y-97121998D01*
X152101951Y-97192032D01*
X152052594Y-97248995D01*
X152017118Y-97289937D01*
X151963303Y-97407774D01*
X151944867Y-97536000D01*
X147687424Y-97536000D01*
X147745049Y-97498967D01*
X147829882Y-97401063D01*
X147883697Y-97283226D01*
X147902133Y-97155000D01*
X147883697Y-97026774D01*
X147829882Y-96908937D01*
X147745049Y-96811033D01*
X147745048Y-96811032D01*
X147636073Y-96740998D01*
X147636070Y-96740996D01*
X147636069Y-96740996D01*
X147636066Y-96740995D01*
X147511776Y-96704501D01*
X147511774Y-96704500D01*
X147511772Y-96704500D01*
X147382228Y-96704500D01*
X147382225Y-96704500D01*
X147382223Y-96704501D01*
X147257933Y-96740995D01*
X147257926Y-96740998D01*
X147148951Y-96811032D01*
X147064118Y-96908937D01*
X147010303Y-97026774D01*
X146991867Y-97155000D01*
X144805267Y-97155000D01*
X144810586Y-96139000D01*
X160580867Y-96139000D01*
X160599303Y-96267226D01*
X160653118Y-96385063D01*
X160737951Y-96482967D01*
X160846931Y-96553004D01*
X160971228Y-96589500D01*
X160971232Y-96589500D01*
X161100768Y-96589500D01*
X161100772Y-96589500D01*
X161225069Y-96553004D01*
X161334049Y-96482967D01*
X161418882Y-96385063D01*
X161472697Y-96267226D01*
X161491133Y-96139000D01*
X161472697Y-96010774D01*
X161418882Y-95892937D01*
X161412005Y-95885000D01*
X167565867Y-95885000D01*
X167584303Y-96013226D01*
X167638118Y-96131063D01*
X167722951Y-96228967D01*
X167831931Y-96299004D01*
X167956228Y-96335500D01*
X167956232Y-96335500D01*
X168085768Y-96335500D01*
X168085772Y-96335500D01*
X168210069Y-96299004D01*
X168319049Y-96228967D01*
X168403882Y-96131063D01*
X168457697Y-96013226D01*
X168476133Y-95885000D01*
X168457697Y-95756774D01*
X168403882Y-95638937D01*
X168319049Y-95541033D01*
X168319048Y-95541032D01*
X168210073Y-95470998D01*
X168210070Y-95470996D01*
X168210069Y-95470996D01*
X168210066Y-95470995D01*
X168085776Y-95434501D01*
X168085774Y-95434500D01*
X168085772Y-95434500D01*
X167956228Y-95434500D01*
X167956225Y-95434500D01*
X167956223Y-95434501D01*
X167831933Y-95470995D01*
X167831926Y-95470998D01*
X167722951Y-95541032D01*
X167701123Y-95566224D01*
X167638118Y-95638937D01*
X167584303Y-95756774D01*
X167565867Y-95885000D01*
X161412005Y-95885000D01*
X161334049Y-95795033D01*
X161334048Y-95795032D01*
X161225073Y-95724998D01*
X161225070Y-95724996D01*
X161225069Y-95724996D01*
X161225066Y-95724995D01*
X161100776Y-95688501D01*
X161100774Y-95688500D01*
X161100772Y-95688500D01*
X160971228Y-95688500D01*
X160971225Y-95688500D01*
X160971223Y-95688501D01*
X160846933Y-95724995D01*
X160846926Y-95724998D01*
X160737951Y-95795032D01*
X160692311Y-95847705D01*
X160653118Y-95892937D01*
X160599303Y-96010774D01*
X160580867Y-96139000D01*
X144810586Y-96139000D01*
X144811755Y-95915717D01*
X144832113Y-95847705D01*
X144869633Y-95810382D01*
X144913849Y-95781967D01*
X144998682Y-95684063D01*
X145052497Y-95566226D01*
X145061444Y-95504000D01*
X147576067Y-95504000D01*
X147594503Y-95632226D01*
X147648318Y-95750063D01*
X147700583Y-95810381D01*
X147733151Y-95847967D01*
X147790775Y-95885000D01*
X147842131Y-95918004D01*
X147966428Y-95954500D01*
X147966432Y-95954500D01*
X148095968Y-95954500D01*
X148095972Y-95954500D01*
X148220269Y-95918004D01*
X148329249Y-95847967D01*
X148414082Y-95750063D01*
X148467897Y-95632226D01*
X148486333Y-95504000D01*
X148467897Y-95375774D01*
X148414082Y-95257937D01*
X148407205Y-95250000D01*
X159310867Y-95250000D01*
X159329303Y-95378226D01*
X159383118Y-95496063D01*
X159467951Y-95593967D01*
X159576931Y-95664004D01*
X159701228Y-95700500D01*
X159701232Y-95700500D01*
X159830768Y-95700500D01*
X159830772Y-95700500D01*
X159955069Y-95664004D01*
X160064049Y-95593967D01*
X160148882Y-95496063D01*
X160202697Y-95378226D01*
X160221133Y-95250000D01*
X160202697Y-95121774D01*
X160148882Y-95003937D01*
X160064049Y-94906033D01*
X160064048Y-94906032D01*
X159955073Y-94835998D01*
X159955070Y-94835996D01*
X159955069Y-94835996D01*
X159955066Y-94835995D01*
X159830776Y-94799501D01*
X159830774Y-94799500D01*
X159830772Y-94799500D01*
X159701228Y-94799500D01*
X159701225Y-94799500D01*
X159701223Y-94799501D01*
X159576933Y-94835995D01*
X159576926Y-94835998D01*
X159467951Y-94906032D01*
X159396873Y-94988063D01*
X159383118Y-95003937D01*
X159329303Y-95121774D01*
X159310867Y-95250000D01*
X148407205Y-95250000D01*
X148329249Y-95160033D01*
X148329248Y-95160032D01*
X148220273Y-95089998D01*
X148220270Y-95089996D01*
X148220269Y-95089996D01*
X148220266Y-95089995D01*
X148095976Y-95053501D01*
X148095974Y-95053500D01*
X148095972Y-95053500D01*
X147966428Y-95053500D01*
X147966425Y-95053500D01*
X147966423Y-95053501D01*
X147842133Y-95089995D01*
X147842126Y-95089998D01*
X147733151Y-95160032D01*
X147655195Y-95250000D01*
X147648318Y-95257937D01*
X147594503Y-95375774D01*
X147576067Y-95504000D01*
X145061444Y-95504000D01*
X145070933Y-95438000D01*
X145052497Y-95309774D01*
X144998682Y-95191937D01*
X144913849Y-95094033D01*
X144913848Y-95094032D01*
X144874625Y-95068825D01*
X144828132Y-95015170D01*
X144816748Y-94962172D01*
X144817901Y-94742000D01*
X152452867Y-94742000D01*
X152471303Y-94870226D01*
X152525118Y-94988063D01*
X152609951Y-95085967D01*
X152718931Y-95156004D01*
X152843228Y-95192500D01*
X152843232Y-95192500D01*
X152972768Y-95192500D01*
X152972772Y-95192500D01*
X153097069Y-95156004D01*
X153206049Y-95085967D01*
X153290882Y-94988063D01*
X153344697Y-94870226D01*
X153363133Y-94742000D01*
X153344697Y-94613774D01*
X153290882Y-94495937D01*
X153206049Y-94398033D01*
X153206048Y-94398032D01*
X153097073Y-94327998D01*
X153097070Y-94327996D01*
X153097069Y-94327996D01*
X153097066Y-94327995D01*
X152972776Y-94291501D01*
X152972774Y-94291500D01*
X152972772Y-94291500D01*
X152843228Y-94291500D01*
X152843225Y-94291500D01*
X152843223Y-94291501D01*
X152718933Y-94327995D01*
X152718926Y-94327998D01*
X152609951Y-94398032D01*
X152538873Y-94480063D01*
X152525118Y-94495937D01*
X152471303Y-94613774D01*
X152452867Y-94742000D01*
X144817901Y-94742000D01*
X144820560Y-94234000D01*
X146483867Y-94234000D01*
X146502303Y-94362226D01*
X146556118Y-94480063D01*
X146640951Y-94577967D01*
X146749931Y-94648004D01*
X146874228Y-94684500D01*
X146874232Y-94684500D01*
X147003768Y-94684500D01*
X147003772Y-94684500D01*
X147128069Y-94648004D01*
X147237049Y-94577967D01*
X147321882Y-94480063D01*
X147375697Y-94362226D01*
X147394133Y-94234000D01*
X147375697Y-94105774D01*
X147321882Y-93987937D01*
X147237049Y-93890033D01*
X147237048Y-93890032D01*
X147179425Y-93853000D01*
X148769867Y-93853000D01*
X148788303Y-93981226D01*
X148842118Y-94099063D01*
X148909215Y-94176498D01*
X148926951Y-94196967D01*
X148984575Y-94234000D01*
X149035931Y-94267004D01*
X149160228Y-94303500D01*
X149160232Y-94303500D01*
X149289768Y-94303500D01*
X149289772Y-94303500D01*
X149414069Y-94267004D01*
X149523049Y-94196967D01*
X149607882Y-94099063D01*
X149661697Y-93981226D01*
X149680133Y-93853000D01*
X153341867Y-93853000D01*
X153360303Y-93981226D01*
X153414118Y-94099063D01*
X153481215Y-94176498D01*
X153498951Y-94196967D01*
X153556575Y-94234000D01*
X153607931Y-94267004D01*
X153732228Y-94303500D01*
X153732232Y-94303500D01*
X153861768Y-94303500D01*
X153861772Y-94303500D01*
X153986069Y-94267004D01*
X154095049Y-94196967D01*
X154179882Y-94099063D01*
X154233697Y-93981226D01*
X154252133Y-93853000D01*
X154233697Y-93724774D01*
X154179882Y-93606937D01*
X154173005Y-93599000D01*
X155627867Y-93599000D01*
X155646303Y-93727226D01*
X155700118Y-93845063D01*
X155784951Y-93942967D01*
X155893931Y-94013004D01*
X156018228Y-94049500D01*
X156018232Y-94049500D01*
X156147768Y-94049500D01*
X156147772Y-94049500D01*
X156272069Y-94013004D01*
X156381049Y-93942967D01*
X156465882Y-93845063D01*
X156519697Y-93727226D01*
X156519873Y-93726000D01*
X159564867Y-93726000D01*
X159583303Y-93854226D01*
X159637118Y-93972063D01*
X159721951Y-94069967D01*
X159830931Y-94140004D01*
X159955228Y-94176500D01*
X159955232Y-94176500D01*
X160084768Y-94176500D01*
X160084772Y-94176500D01*
X160209069Y-94140004D01*
X160318049Y-94069967D01*
X160402882Y-93972063D01*
X160456697Y-93854226D01*
X160475133Y-93726000D01*
X160456697Y-93597774D01*
X160402882Y-93479937D01*
X160318049Y-93382033D01*
X160318048Y-93382032D01*
X160209073Y-93311998D01*
X160209070Y-93311996D01*
X160209069Y-93311996D01*
X160195361Y-93307971D01*
X160084776Y-93275501D01*
X160084774Y-93275500D01*
X160084772Y-93275500D01*
X159955228Y-93275500D01*
X159955225Y-93275500D01*
X159955223Y-93275501D01*
X159830933Y-93311995D01*
X159830926Y-93311998D01*
X159721951Y-93382032D01*
X159661464Y-93451840D01*
X159637118Y-93479937D01*
X159583303Y-93597774D01*
X159564867Y-93726000D01*
X156519873Y-93726000D01*
X156538133Y-93599000D01*
X156519697Y-93470774D01*
X156465882Y-93352937D01*
X156381049Y-93255033D01*
X156381048Y-93255032D01*
X156272073Y-93184998D01*
X156272070Y-93184996D01*
X156272069Y-93184996D01*
X156272066Y-93184995D01*
X156147776Y-93148501D01*
X156147774Y-93148500D01*
X156147772Y-93148500D01*
X156018228Y-93148500D01*
X156018225Y-93148500D01*
X156018223Y-93148501D01*
X155893933Y-93184995D01*
X155893926Y-93184998D01*
X155784951Y-93255032D01*
X155735594Y-93311995D01*
X155700118Y-93352937D01*
X155646303Y-93470774D01*
X155627867Y-93599000D01*
X154173005Y-93599000D01*
X154162341Y-93586693D01*
X154132850Y-93522114D01*
X154142955Y-93451840D01*
X154189449Y-93398185D01*
X154222067Y-93383289D01*
X154240069Y-93378004D01*
X154349049Y-93307967D01*
X154349056Y-93307958D01*
X154349482Y-93307591D01*
X154350010Y-93307349D01*
X154356631Y-93303095D01*
X154357242Y-93304046D01*
X154414061Y-93278094D01*
X154484336Y-93288194D01*
X154514518Y-93307591D01*
X154514946Y-93307962D01*
X154514951Y-93307967D01*
X154514956Y-93307970D01*
X154514957Y-93307971D01*
X154603943Y-93365159D01*
X154623931Y-93378004D01*
X154748228Y-93414500D01*
X154748232Y-93414500D01*
X154877768Y-93414500D01*
X154877772Y-93414500D01*
X155002069Y-93378004D01*
X155111049Y-93307967D01*
X155195882Y-93210063D01*
X155249697Y-93092226D01*
X155268133Y-92964000D01*
X157532867Y-92964000D01*
X157551303Y-93092226D01*
X157605118Y-93210063D01*
X157689416Y-93307349D01*
X157689951Y-93307967D01*
X157778943Y-93365159D01*
X157798931Y-93378004D01*
X157923228Y-93414500D01*
X157923232Y-93414500D01*
X158052768Y-93414500D01*
X158052772Y-93414500D01*
X158177069Y-93378004D01*
X158286049Y-93307967D01*
X158370882Y-93210063D01*
X158424697Y-93092226D01*
X158443133Y-92964000D01*
X158424697Y-92835774D01*
X158370882Y-92717937D01*
X158286049Y-92620033D01*
X158286048Y-92620032D01*
X158229701Y-92583820D01*
X162209500Y-92583820D01*
X162218232Y-92627721D01*
X162218234Y-92627725D01*
X162251495Y-92677504D01*
X162301274Y-92710765D01*
X162301278Y-92710767D01*
X162345180Y-92719500D01*
X162345185Y-92719500D01*
X164010867Y-92719500D01*
X164078988Y-92739502D01*
X164125481Y-92793158D01*
X164133153Y-92828429D01*
X164135585Y-92828080D01*
X164136867Y-92836998D01*
X164136867Y-92837000D01*
X164155303Y-92965226D01*
X164209118Y-93083063D01*
X164275729Y-93159937D01*
X164293951Y-93180967D01*
X164342603Y-93212234D01*
X164402931Y-93251004D01*
X164527228Y-93287500D01*
X164527232Y-93287500D01*
X164656768Y-93287500D01*
X164656772Y-93287500D01*
X164781069Y-93251004D01*
X164890049Y-93180967D01*
X164974882Y-93083063D01*
X165028697Y-92965226D01*
X165047133Y-92837000D01*
X165028697Y-92708774D01*
X165028696Y-92708772D01*
X165027414Y-92699854D01*
X165029437Y-92699563D01*
X165029437Y-92640296D01*
X165067821Y-92580570D01*
X165132402Y-92551077D01*
X165202676Y-92561182D01*
X165209693Y-92564654D01*
X165365273Y-92647814D01*
X165553868Y-92705024D01*
X165553872Y-92705024D01*
X165553874Y-92705025D01*
X165749997Y-92724341D01*
X165750000Y-92724341D01*
X165750003Y-92724341D01*
X165946124Y-92705025D01*
X165946126Y-92705025D01*
X165946127Y-92705024D01*
X165946132Y-92705024D01*
X166134727Y-92647814D01*
X166308538Y-92554910D01*
X166460883Y-92429883D01*
X166585910Y-92277538D01*
X166678814Y-92103727D01*
X166736024Y-91915132D01*
X166736037Y-91914998D01*
X166755341Y-91719003D01*
X167284659Y-91719003D01*
X167303974Y-91915124D01*
X167303974Y-91915126D01*
X167361186Y-92103728D01*
X167454089Y-92277537D01*
X167458287Y-92282652D01*
X167486039Y-92348000D01*
X167475501Y-92414923D01*
X167457304Y-92454770D01*
X167457303Y-92454773D01*
X167448859Y-92513501D01*
X167438867Y-92583000D01*
X167457303Y-92711226D01*
X167511118Y-92829063D01*
X167592887Y-92923431D01*
X167595951Y-92926967D01*
X167653575Y-92964000D01*
X167704931Y-92997004D01*
X167829228Y-93033500D01*
X167829232Y-93033500D01*
X167958768Y-93033500D01*
X167958772Y-93033500D01*
X168083069Y-92997004D01*
X168192049Y-92926967D01*
X168276882Y-92829063D01*
X168296226Y-92786703D01*
X168342718Y-92733050D01*
X168398485Y-92713655D01*
X168486132Y-92705024D01*
X168674727Y-92647814D01*
X168848538Y-92554910D01*
X169000883Y-92429883D01*
X169125910Y-92277538D01*
X169218814Y-92103727D01*
X169276024Y-91915132D01*
X169276037Y-91914998D01*
X169295341Y-91719003D01*
X169295341Y-91718996D01*
X169276025Y-91522875D01*
X169276025Y-91522873D01*
X169276024Y-91522870D01*
X169276024Y-91522868D01*
X169218814Y-91334273D01*
X169125910Y-91160462D01*
X169000883Y-91008117D01*
X168848538Y-90883090D01*
X168800204Y-90857255D01*
X168674728Y-90790186D01*
X168486125Y-90732974D01*
X168290003Y-90713659D01*
X168289997Y-90713659D01*
X168093875Y-90732974D01*
X168093873Y-90732974D01*
X167905271Y-90790186D01*
X167731461Y-90883090D01*
X167579117Y-91008117D01*
X167454090Y-91160461D01*
X167361186Y-91334271D01*
X167303974Y-91522873D01*
X167303974Y-91522875D01*
X167284659Y-91718996D01*
X167284659Y-91719003D01*
X166755341Y-91719003D01*
X166755341Y-91718996D01*
X166736025Y-91522875D01*
X166736025Y-91522873D01*
X166736024Y-91522870D01*
X166736024Y-91522868D01*
X166678814Y-91334273D01*
X166585910Y-91160462D01*
X166460883Y-91008117D01*
X166308538Y-90883090D01*
X166260204Y-90857255D01*
X166134728Y-90790186D01*
X165946125Y-90732974D01*
X165750003Y-90713659D01*
X165749997Y-90713659D01*
X165553875Y-90732974D01*
X165553873Y-90732974D01*
X165365271Y-90790186D01*
X165191459Y-90883091D01*
X165183767Y-90889404D01*
X165118419Y-90917155D01*
X165048441Y-90905170D01*
X164996051Y-90857255D01*
X164989224Y-90844342D01*
X164974883Y-90812939D01*
X164974882Y-90812938D01*
X164974882Y-90812937D01*
X164890049Y-90715033D01*
X164890048Y-90715032D01*
X164781073Y-90644998D01*
X164781070Y-90644996D01*
X164781069Y-90644996D01*
X164672861Y-90613224D01*
X164656776Y-90608501D01*
X164656774Y-90608500D01*
X164656772Y-90608500D01*
X164527228Y-90608500D01*
X164527225Y-90608500D01*
X164527223Y-90608501D01*
X164402933Y-90644995D01*
X164402926Y-90644998D01*
X164293948Y-90715033D01*
X164287137Y-90720936D01*
X164285764Y-90719351D01*
X164236054Y-90751287D01*
X164165058Y-90751277D01*
X164130572Y-90735151D01*
X164118721Y-90727232D01*
X164074820Y-90718500D01*
X162345180Y-90718500D01*
X162345179Y-90718500D01*
X162301278Y-90727232D01*
X162301274Y-90727234D01*
X162251495Y-90760495D01*
X162218234Y-90810274D01*
X162218232Y-90810278D01*
X162209500Y-90854179D01*
X162209500Y-92583820D01*
X158229701Y-92583820D01*
X158177073Y-92549998D01*
X158177070Y-92549996D01*
X158177069Y-92549996D01*
X158089994Y-92524429D01*
X158052776Y-92513501D01*
X158052774Y-92513500D01*
X158052772Y-92513500D01*
X157923228Y-92513500D01*
X157923225Y-92513500D01*
X157923223Y-92513501D01*
X157798933Y-92549995D01*
X157798926Y-92549998D01*
X157689951Y-92620032D01*
X157621039Y-92699563D01*
X157605118Y-92717937D01*
X157551303Y-92835774D01*
X157532867Y-92964000D01*
X155268133Y-92964000D01*
X155262300Y-92923430D01*
X155272405Y-92853157D01*
X155318898Y-92799502D01*
X155377085Y-92782416D01*
X155376851Y-92780782D01*
X155385762Y-92779500D01*
X155385772Y-92779500D01*
X155510069Y-92743004D01*
X155619049Y-92672967D01*
X155703882Y-92575063D01*
X155757697Y-92457226D01*
X155776133Y-92329000D01*
X155757697Y-92200774D01*
X155703882Y-92082937D01*
X155619049Y-91985033D01*
X155619048Y-91985032D01*
X155510073Y-91914998D01*
X155510070Y-91914996D01*
X155510069Y-91914996D01*
X155510066Y-91914995D01*
X155385776Y-91878501D01*
X155385774Y-91878500D01*
X155385772Y-91878500D01*
X155256228Y-91878500D01*
X155256225Y-91878500D01*
X155256223Y-91878501D01*
X155131933Y-91914995D01*
X155131926Y-91914998D01*
X155022951Y-91985032D01*
X154943935Y-92076224D01*
X154938118Y-92082937D01*
X154887369Y-92194062D01*
X154884303Y-92200775D01*
X154865867Y-92329000D01*
X154871700Y-92369569D01*
X154861595Y-92439843D01*
X154815102Y-92493498D01*
X154756914Y-92510583D01*
X154757149Y-92512218D01*
X154748230Y-92513500D01*
X154748228Y-92513500D01*
X154748226Y-92513500D01*
X154748223Y-92513501D01*
X154623933Y-92549995D01*
X154623926Y-92549998D01*
X154514948Y-92620033D01*
X154514510Y-92620414D01*
X154513982Y-92620655D01*
X154507369Y-92624905D01*
X154506757Y-92623954D01*
X154449929Y-92649906D01*
X154379655Y-92639800D01*
X154349490Y-92620414D01*
X154349051Y-92620033D01*
X154240073Y-92549998D01*
X154240070Y-92549996D01*
X154240069Y-92549996D01*
X154152994Y-92524429D01*
X154115776Y-92513501D01*
X154115774Y-92513500D01*
X154115772Y-92513500D01*
X153986228Y-92513500D01*
X153986225Y-92513500D01*
X153986223Y-92513501D01*
X153861933Y-92549995D01*
X153861926Y-92549998D01*
X153752951Y-92620032D01*
X153684039Y-92699563D01*
X153668118Y-92717937D01*
X153614303Y-92835774D01*
X153595867Y-92964000D01*
X153614303Y-93092226D01*
X153668118Y-93210063D01*
X153685657Y-93230304D01*
X153715149Y-93294886D01*
X153705044Y-93365159D01*
X153658550Y-93418814D01*
X153625932Y-93433710D01*
X153607936Y-93438994D01*
X153607926Y-93438998D01*
X153498951Y-93509032D01*
X153427873Y-93591063D01*
X153414118Y-93606937D01*
X153360303Y-93724774D01*
X153341867Y-93853000D01*
X149680133Y-93853000D01*
X149661697Y-93724774D01*
X149607882Y-93606937D01*
X149523049Y-93509033D01*
X149432741Y-93450995D01*
X149386251Y-93397343D01*
X149376146Y-93327069D01*
X149405639Y-93262488D01*
X149432738Y-93239006D01*
X149523049Y-93180967D01*
X149607882Y-93083063D01*
X149661697Y-92965226D01*
X149680133Y-92837000D01*
X149661697Y-92708774D01*
X149607882Y-92590937D01*
X149523049Y-92493033D01*
X149523048Y-92493032D01*
X149414073Y-92422998D01*
X149414070Y-92422996D01*
X149414069Y-92422996D01*
X149414066Y-92422995D01*
X149289776Y-92386501D01*
X149289774Y-92386500D01*
X149289772Y-92386500D01*
X149160228Y-92386500D01*
X149160225Y-92386500D01*
X149160223Y-92386501D01*
X149035933Y-92422995D01*
X149035926Y-92422998D01*
X148926951Y-92493032D01*
X148855873Y-92575063D01*
X148842118Y-92590937D01*
X148788303Y-92708774D01*
X148769867Y-92837000D01*
X148788303Y-92965226D01*
X148842118Y-93083063D01*
X148908729Y-93159937D01*
X148926951Y-93180967D01*
X149017255Y-93239002D01*
X149063748Y-93292657D01*
X149073853Y-93362931D01*
X149044360Y-93427512D01*
X149017255Y-93450998D01*
X148926951Y-93509032D01*
X148855873Y-93591063D01*
X148842118Y-93606937D01*
X148788303Y-93724774D01*
X148769867Y-93853000D01*
X147179425Y-93853000D01*
X147128073Y-93819998D01*
X147128070Y-93819996D01*
X147128069Y-93819996D01*
X147128066Y-93819995D01*
X147003776Y-93783501D01*
X147003774Y-93783500D01*
X147003772Y-93783500D01*
X146874228Y-93783500D01*
X146874225Y-93783500D01*
X146874223Y-93783501D01*
X146749933Y-93819995D01*
X146749926Y-93819998D01*
X146640951Y-93890032D01*
X146569873Y-93972063D01*
X146556118Y-93987937D01*
X146502303Y-94105774D01*
X146483867Y-94234000D01*
X144820560Y-94234000D01*
X144824895Y-93406000D01*
X145303667Y-93406000D01*
X145322103Y-93534226D01*
X145375918Y-93652063D01*
X145441046Y-93727226D01*
X145460751Y-93749967D01*
X145569721Y-93819998D01*
X145569731Y-93820004D01*
X145694028Y-93856500D01*
X145694032Y-93856500D01*
X145823568Y-93856500D01*
X145823572Y-93856500D01*
X145947869Y-93820004D01*
X146056849Y-93749967D01*
X146141682Y-93652063D01*
X146195497Y-93534226D01*
X146213933Y-93406000D01*
X146205163Y-93345000D01*
X147499867Y-93345000D01*
X147518303Y-93473226D01*
X147572118Y-93591063D01*
X147585873Y-93606937D01*
X147656951Y-93688967D01*
X147714575Y-93726000D01*
X147765931Y-93759004D01*
X147890228Y-93795500D01*
X147890232Y-93795500D01*
X148019768Y-93795500D01*
X148019772Y-93795500D01*
X148144069Y-93759004D01*
X148253049Y-93688967D01*
X148337882Y-93591063D01*
X148391697Y-93473226D01*
X148410133Y-93345000D01*
X148391697Y-93216774D01*
X148337882Y-93098937D01*
X148253049Y-93001033D01*
X148253048Y-93001032D01*
X148144073Y-92930998D01*
X148144070Y-92930996D01*
X148144069Y-92930996D01*
X148144066Y-92930995D01*
X148019776Y-92894501D01*
X148019774Y-92894500D01*
X148019772Y-92894500D01*
X147890228Y-92894500D01*
X147890225Y-92894500D01*
X147890223Y-92894501D01*
X147765933Y-92930995D01*
X147765926Y-92930998D01*
X147656951Y-93001032D01*
X147585873Y-93083063D01*
X147572118Y-93098937D01*
X147518303Y-93216774D01*
X147499867Y-93345000D01*
X146205163Y-93345000D01*
X146195497Y-93277774D01*
X146141682Y-93159937D01*
X146056849Y-93062033D01*
X146056848Y-93062032D01*
X145947873Y-92991998D01*
X145947870Y-92991996D01*
X145947869Y-92991996D01*
X145856690Y-92965224D01*
X145823576Y-92955501D01*
X145823574Y-92955500D01*
X145823572Y-92955500D01*
X145694028Y-92955500D01*
X145694025Y-92955500D01*
X145694023Y-92955501D01*
X145569733Y-92991995D01*
X145569726Y-92991998D01*
X145460751Y-93062032D01*
X145385828Y-93148500D01*
X145375918Y-93159937D01*
X145322103Y-93277774D01*
X145303667Y-93406000D01*
X144824895Y-93406000D01*
X144832529Y-91948000D01*
X147068067Y-91948000D01*
X147086503Y-92076226D01*
X147140318Y-92194063D01*
X147217080Y-92282652D01*
X147225151Y-92291967D01*
X147282775Y-92329000D01*
X147334131Y-92362004D01*
X147458428Y-92398500D01*
X147458432Y-92398500D01*
X147587968Y-92398500D01*
X147587972Y-92398500D01*
X147712269Y-92362004D01*
X147821249Y-92291967D01*
X147906082Y-92194063D01*
X147959897Y-92076226D01*
X147978333Y-91948000D01*
X147959897Y-91819774D01*
X147906082Y-91701937D01*
X147821249Y-91604033D01*
X147821248Y-91604032D01*
X147712273Y-91533998D01*
X147712270Y-91533996D01*
X147712269Y-91533996D01*
X147712266Y-91533995D01*
X147587976Y-91497501D01*
X147587974Y-91497500D01*
X147587972Y-91497500D01*
X147458428Y-91497500D01*
X147458425Y-91497500D01*
X147458423Y-91497501D01*
X147334133Y-91533995D01*
X147334126Y-91533998D01*
X147225151Y-91604032D01*
X147154073Y-91686063D01*
X147140318Y-91701937D01*
X147086503Y-91819774D01*
X147068067Y-91948000D01*
X144832529Y-91948000D01*
X144835534Y-91374000D01*
X145303667Y-91374000D01*
X145322103Y-91502226D01*
X145375918Y-91620063D01*
X145460751Y-91717967D01*
X145569731Y-91788004D01*
X145694028Y-91824500D01*
X145694032Y-91824500D01*
X145823568Y-91824500D01*
X145823572Y-91824500D01*
X145947869Y-91788004D01*
X146056849Y-91717967D01*
X146141682Y-91620063D01*
X146195497Y-91502226D01*
X146204444Y-91440000D01*
X150801867Y-91440000D01*
X150820303Y-91568226D01*
X150874118Y-91686063D01*
X150939500Y-91761519D01*
X150958951Y-91783967D01*
X151022018Y-91824498D01*
X151067931Y-91854004D01*
X151192228Y-91890500D01*
X151192232Y-91890500D01*
X151321768Y-91890500D01*
X151321772Y-91890500D01*
X151446069Y-91854004D01*
X151506382Y-91815242D01*
X151574499Y-91795242D01*
X151642618Y-91815243D01*
X151702931Y-91854004D01*
X151827228Y-91890500D01*
X151827232Y-91890500D01*
X151956768Y-91890500D01*
X151956772Y-91890500D01*
X152081069Y-91854004D01*
X152190049Y-91783967D01*
X152274882Y-91686063D01*
X152328697Y-91568226D01*
X152347133Y-91440000D01*
X152328697Y-91311774D01*
X152274882Y-91193937D01*
X152190049Y-91096033D01*
X152190048Y-91096032D01*
X152081073Y-91025998D01*
X152081070Y-91025996D01*
X152081069Y-91025996D01*
X152081066Y-91025995D01*
X151956776Y-90989501D01*
X151956774Y-90989500D01*
X151956772Y-90989500D01*
X151827228Y-90989500D01*
X151827225Y-90989500D01*
X151827223Y-90989501D01*
X151702933Y-91025995D01*
X151702926Y-91025998D01*
X151642620Y-91064755D01*
X151574499Y-91084757D01*
X151506380Y-91064755D01*
X151446073Y-91025998D01*
X151446070Y-91025996D01*
X151446069Y-91025996D01*
X151446066Y-91025995D01*
X151321776Y-90989501D01*
X151321774Y-90989500D01*
X151321772Y-90989500D01*
X151192228Y-90989500D01*
X151192225Y-90989500D01*
X151192223Y-90989501D01*
X151067933Y-91025995D01*
X151067926Y-91025998D01*
X150958951Y-91096032D01*
X150903124Y-91160462D01*
X150874118Y-91193937D01*
X150820303Y-91311774D01*
X150801867Y-91440000D01*
X146204444Y-91440000D01*
X146213933Y-91374000D01*
X146195497Y-91245774D01*
X146141682Y-91127937D01*
X146056849Y-91030033D01*
X146056848Y-91030032D01*
X145947873Y-90959998D01*
X145947870Y-90959996D01*
X145947869Y-90959996D01*
X145947866Y-90959995D01*
X145823576Y-90923501D01*
X145823574Y-90923500D01*
X145823572Y-90923500D01*
X145694028Y-90923500D01*
X145694025Y-90923500D01*
X145694023Y-90923501D01*
X145569733Y-90959995D01*
X145569726Y-90959998D01*
X145460751Y-91030032D01*
X145384112Y-91118480D01*
X145375918Y-91127937D01*
X145322103Y-91245774D01*
X145303667Y-91374000D01*
X144835534Y-91374000D01*
X144840188Y-90485000D01*
X148859667Y-90485000D01*
X148878103Y-90613226D01*
X148931918Y-90731063D01*
X149016751Y-90828967D01*
X149125731Y-90899004D01*
X149250028Y-90935500D01*
X149250032Y-90935500D01*
X149379568Y-90935500D01*
X149379572Y-90935500D01*
X149503869Y-90899004D01*
X149612849Y-90828967D01*
X149697682Y-90731063D01*
X149751497Y-90613226D01*
X149769933Y-90485000D01*
X149761163Y-90424000D01*
X156516867Y-90424000D01*
X156535303Y-90552226D01*
X156589118Y-90670063D01*
X156673951Y-90767967D01*
X156708524Y-90790186D01*
X156782931Y-90838004D01*
X156907228Y-90874500D01*
X156907232Y-90874500D01*
X157036768Y-90874500D01*
X157036772Y-90874500D01*
X157161069Y-90838004D01*
X157270049Y-90767967D01*
X157354882Y-90670063D01*
X157408697Y-90552226D01*
X157427133Y-90424000D01*
X157408697Y-90295774D01*
X157354882Y-90177937D01*
X157270049Y-90080033D01*
X157270048Y-90080032D01*
X157161073Y-90009998D01*
X157161070Y-90009996D01*
X157161069Y-90009996D01*
X157161066Y-90009995D01*
X157036776Y-89973501D01*
X157036774Y-89973500D01*
X157036772Y-89973500D01*
X156907228Y-89973500D01*
X156907225Y-89973500D01*
X156907223Y-89973501D01*
X156782933Y-90009995D01*
X156782926Y-90009998D01*
X156673951Y-90080032D01*
X156621096Y-90141032D01*
X156589118Y-90177937D01*
X156535303Y-90295774D01*
X156516867Y-90424000D01*
X149761163Y-90424000D01*
X149751497Y-90356774D01*
X149697682Y-90238937D01*
X149612849Y-90141033D01*
X149612848Y-90141032D01*
X149503873Y-90070998D01*
X149503870Y-90070996D01*
X149503869Y-90070996D01*
X149503866Y-90070995D01*
X149379576Y-90034501D01*
X149379574Y-90034500D01*
X149379572Y-90034500D01*
X149250028Y-90034500D01*
X149250025Y-90034500D01*
X149250023Y-90034501D01*
X149125733Y-90070995D01*
X149125726Y-90070998D01*
X149016751Y-90141032D01*
X148931918Y-90238937D01*
X148878103Y-90356774D01*
X148859667Y-90485000D01*
X144840188Y-90485000D01*
X144847822Y-89027000D01*
X148134867Y-89027000D01*
X148153303Y-89155226D01*
X148207118Y-89273063D01*
X148291951Y-89370967D01*
X148349575Y-89408000D01*
X148400931Y-89441004D01*
X148525228Y-89477500D01*
X148525232Y-89477500D01*
X148654768Y-89477500D01*
X148654772Y-89477500D01*
X148779069Y-89441004D01*
X148830424Y-89408000D01*
X158802867Y-89408000D01*
X158821303Y-89536226D01*
X158875118Y-89654063D01*
X158959951Y-89751967D01*
X159068931Y-89822004D01*
X159193228Y-89858500D01*
X159193232Y-89858500D01*
X159322768Y-89858500D01*
X159322772Y-89858500D01*
X159447069Y-89822004D01*
X159556049Y-89751967D01*
X159614575Y-89684423D01*
X159674299Y-89646039D01*
X159745296Y-89646037D01*
X159777917Y-89660934D01*
X159830931Y-89695004D01*
X159955228Y-89731500D01*
X159955232Y-89731500D01*
X160084768Y-89731500D01*
X160084772Y-89731500D01*
X160209069Y-89695004D01*
X160318049Y-89624967D01*
X160402882Y-89527063D01*
X160456697Y-89409226D01*
X160475133Y-89281000D01*
X160456697Y-89152774D01*
X160402882Y-89034937D01*
X160318049Y-88937033D01*
X160318048Y-88937032D01*
X160209073Y-88866998D01*
X160209070Y-88866996D01*
X160209069Y-88866996D01*
X160209066Y-88866995D01*
X160084776Y-88830501D01*
X160084774Y-88830500D01*
X160084772Y-88830500D01*
X159955228Y-88830500D01*
X159955225Y-88830500D01*
X159955223Y-88830501D01*
X159830933Y-88866995D01*
X159830926Y-88866998D01*
X159721950Y-88937032D01*
X159663424Y-89004577D01*
X159603698Y-89042961D01*
X159532702Y-89042961D01*
X159500079Y-89028063D01*
X159447073Y-88993998D01*
X159447070Y-88993996D01*
X159447069Y-88993996D01*
X159445935Y-88993663D01*
X159322776Y-88957501D01*
X159322774Y-88957500D01*
X159322772Y-88957500D01*
X159193228Y-88957500D01*
X159193225Y-88957500D01*
X159193223Y-88957501D01*
X159068933Y-88993995D01*
X159068926Y-88993998D01*
X158959951Y-89064032D01*
X158915565Y-89115258D01*
X158875118Y-89161937D01*
X158821303Y-89279774D01*
X158802867Y-89408000D01*
X148830424Y-89408000D01*
X148888049Y-89370967D01*
X148972882Y-89273063D01*
X149026697Y-89155226D01*
X149045133Y-89027000D01*
X149026697Y-88898774D01*
X148972882Y-88780937D01*
X148943996Y-88747600D01*
X166829267Y-88747600D01*
X166847703Y-88875826D01*
X166901518Y-88993663D01*
X166986351Y-89091567D01*
X167088022Y-89156907D01*
X167134513Y-89210560D01*
X167145900Y-89262903D01*
X167145900Y-89639420D01*
X167154632Y-89683321D01*
X167154634Y-89683325D01*
X167187895Y-89733104D01*
X167237674Y-89766365D01*
X167237678Y-89766367D01*
X167281580Y-89775100D01*
X167281585Y-89775100D01*
X168811215Y-89775100D01*
X168811220Y-89775100D01*
X168855122Y-89766367D01*
X168904904Y-89733104D01*
X168938167Y-89683322D01*
X168946900Y-89639420D01*
X168946900Y-88109780D01*
X168938167Y-88065878D01*
X168938165Y-88065874D01*
X168904904Y-88016095D01*
X168855125Y-87982834D01*
X168855121Y-87982832D01*
X168811220Y-87974100D01*
X167281580Y-87974100D01*
X167281579Y-87974100D01*
X167237678Y-87982832D01*
X167237674Y-87982834D01*
X167187895Y-88016095D01*
X167154634Y-88065874D01*
X167154632Y-88065878D01*
X167145900Y-88109779D01*
X167145900Y-88232295D01*
X167125898Y-88300416D01*
X167088021Y-88338293D01*
X166986350Y-88403633D01*
X166908077Y-88493967D01*
X166901518Y-88501537D01*
X166847703Y-88619374D01*
X166829267Y-88747600D01*
X148943996Y-88747600D01*
X148888049Y-88683033D01*
X148888048Y-88683032D01*
X148779073Y-88612998D01*
X148779070Y-88612996D01*
X148779069Y-88612996D01*
X148779066Y-88612995D01*
X148654776Y-88576501D01*
X148654774Y-88576500D01*
X148654772Y-88576500D01*
X148525228Y-88576500D01*
X148525225Y-88576500D01*
X148525223Y-88576501D01*
X148400933Y-88612995D01*
X148400926Y-88612998D01*
X148291951Y-88683032D01*
X148236004Y-88747600D01*
X148207118Y-88780937D01*
X148153303Y-88898774D01*
X148134867Y-89027000D01*
X144847822Y-89027000D01*
X144859125Y-86868000D01*
X148134867Y-86868000D01*
X148153303Y-86996226D01*
X148207118Y-87114063D01*
X148291951Y-87211967D01*
X148400931Y-87282004D01*
X148525228Y-87318500D01*
X148525232Y-87318500D01*
X148654768Y-87318500D01*
X148654772Y-87318500D01*
X148779069Y-87282004D01*
X148888049Y-87211967D01*
X148972882Y-87114063D01*
X149026697Y-86996226D01*
X149026873Y-86995000D01*
X150039867Y-86995000D01*
X150058303Y-87123226D01*
X150112118Y-87241063D01*
X150147593Y-87282004D01*
X150196950Y-87338967D01*
X150199012Y-87340292D01*
X150200617Y-87342145D01*
X150203759Y-87344867D01*
X150203367Y-87345318D01*
X150245503Y-87393949D01*
X150255605Y-87464223D01*
X150241476Y-87502107D01*
X150242862Y-87502740D01*
X150239119Y-87510935D01*
X150239118Y-87510937D01*
X150185303Y-87628774D01*
X150166867Y-87757000D01*
X150185303Y-87885226D01*
X150239118Y-88003063D01*
X150323951Y-88100967D01*
X150432931Y-88171004D01*
X150557228Y-88207500D01*
X150557232Y-88207500D01*
X150686768Y-88207500D01*
X150686772Y-88207500D01*
X150811069Y-88171004D01*
X150843752Y-88150000D01*
X151386167Y-88150000D01*
X151404603Y-88278226D01*
X151458418Y-88396063D01*
X151543251Y-88493967D01*
X151652231Y-88564004D01*
X151776528Y-88600500D01*
X151776532Y-88600500D01*
X151906068Y-88600500D01*
X151906072Y-88600500D01*
X152030369Y-88564004D01*
X152139349Y-88493967D01*
X152224182Y-88396063D01*
X152277997Y-88278226D01*
X152296433Y-88150000D01*
X152661167Y-88150000D01*
X152679603Y-88278226D01*
X152733418Y-88396063D01*
X152818251Y-88493967D01*
X152927231Y-88564004D01*
X153051528Y-88600500D01*
X153051532Y-88600500D01*
X153181068Y-88600500D01*
X153181072Y-88600500D01*
X153305369Y-88564004D01*
X153414349Y-88493967D01*
X153499182Y-88396063D01*
X153552997Y-88278226D01*
X153571433Y-88150000D01*
X153936167Y-88150000D01*
X153954603Y-88278226D01*
X154008418Y-88396063D01*
X154093251Y-88493967D01*
X154202231Y-88564004D01*
X154326528Y-88600500D01*
X154326532Y-88600500D01*
X154456068Y-88600500D01*
X154456072Y-88600500D01*
X154580369Y-88564004D01*
X154689349Y-88493967D01*
X154774182Y-88396063D01*
X154827997Y-88278226D01*
X154846433Y-88150000D01*
X154827997Y-88021774D01*
X154774182Y-87903937D01*
X154689349Y-87806033D01*
X154689348Y-87806032D01*
X154580373Y-87735998D01*
X154580370Y-87735996D01*
X154580369Y-87735996D01*
X154580366Y-87735995D01*
X154456076Y-87699501D01*
X154456074Y-87699500D01*
X154456072Y-87699500D01*
X154326528Y-87699500D01*
X154326525Y-87699500D01*
X154326523Y-87699501D01*
X154202233Y-87735995D01*
X154202226Y-87735998D01*
X154093251Y-87806032D01*
X154024631Y-87885226D01*
X154008418Y-87903937D01*
X153954603Y-88021774D01*
X153936167Y-88150000D01*
X153571433Y-88150000D01*
X153552997Y-88021774D01*
X153499182Y-87903937D01*
X153414349Y-87806033D01*
X153414348Y-87806032D01*
X153305373Y-87735998D01*
X153305370Y-87735996D01*
X153305369Y-87735996D01*
X153305366Y-87735995D01*
X153181076Y-87699501D01*
X153181074Y-87699500D01*
X153181072Y-87699500D01*
X153051528Y-87699500D01*
X153051525Y-87699500D01*
X153051523Y-87699501D01*
X152927233Y-87735995D01*
X152927226Y-87735998D01*
X152818251Y-87806032D01*
X152749631Y-87885226D01*
X152733418Y-87903937D01*
X152679603Y-88021774D01*
X152661167Y-88150000D01*
X152296433Y-88150000D01*
X152277997Y-88021774D01*
X152224182Y-87903937D01*
X152139349Y-87806033D01*
X152139348Y-87806032D01*
X152030373Y-87735998D01*
X152030370Y-87735996D01*
X152030369Y-87735996D01*
X152030366Y-87735995D01*
X151906076Y-87699501D01*
X151906074Y-87699500D01*
X151906072Y-87699500D01*
X151776528Y-87699500D01*
X151776525Y-87699500D01*
X151776523Y-87699501D01*
X151652233Y-87735995D01*
X151652226Y-87735998D01*
X151543251Y-87806032D01*
X151474631Y-87885226D01*
X151458418Y-87903937D01*
X151404603Y-88021774D01*
X151386167Y-88150000D01*
X150843752Y-88150000D01*
X150920049Y-88100967D01*
X151004882Y-88003063D01*
X151058697Y-87885226D01*
X151077133Y-87757000D01*
X151058873Y-87630000D01*
X162866867Y-87630000D01*
X162885303Y-87758226D01*
X162939118Y-87876063D01*
X162947058Y-87885226D01*
X163023951Y-87973967D01*
X163089503Y-88016095D01*
X163132931Y-88044004D01*
X163257228Y-88080500D01*
X163257232Y-88080500D01*
X163386768Y-88080500D01*
X163386772Y-88080500D01*
X163511069Y-88044004D01*
X163620049Y-87973967D01*
X163704882Y-87876063D01*
X163758697Y-87758226D01*
X163777133Y-87630000D01*
X163758697Y-87501774D01*
X163704882Y-87383937D01*
X163620049Y-87286033D01*
X163620048Y-87286032D01*
X163511073Y-87215998D01*
X163511070Y-87215996D01*
X163511069Y-87215996D01*
X163511066Y-87215995D01*
X163386776Y-87179501D01*
X163386774Y-87179500D01*
X163386772Y-87179500D01*
X163257228Y-87179500D01*
X163257225Y-87179500D01*
X163257223Y-87179501D01*
X163132933Y-87215995D01*
X163132926Y-87215998D01*
X163023951Y-87286032D01*
X162972581Y-87345318D01*
X162939118Y-87383937D01*
X162885303Y-87501774D01*
X162866867Y-87630000D01*
X151058873Y-87630000D01*
X151058697Y-87628774D01*
X151004882Y-87510937D01*
X150955929Y-87454441D01*
X150920048Y-87413031D01*
X150917984Y-87411705D01*
X150916377Y-87409850D01*
X150913241Y-87407133D01*
X150913631Y-87406681D01*
X150871494Y-87358047D01*
X150861394Y-87287772D01*
X150875526Y-87249894D01*
X150874138Y-87249260D01*
X150877880Y-87241064D01*
X150877882Y-87241063D01*
X150931697Y-87123226D01*
X150950133Y-86995000D01*
X150932880Y-86875000D01*
X151386167Y-86875000D01*
X151404603Y-87003226D01*
X151458418Y-87121063D01*
X151509054Y-87179501D01*
X151543251Y-87218967D01*
X151641338Y-87282004D01*
X151652231Y-87289004D01*
X151776528Y-87325500D01*
X151776532Y-87325500D01*
X151906068Y-87325500D01*
X151906072Y-87325500D01*
X152030369Y-87289004D01*
X152139349Y-87218967D01*
X152224182Y-87121063D01*
X152277997Y-87003226D01*
X152296433Y-86875000D01*
X152661167Y-86875000D01*
X152679603Y-87003226D01*
X152733418Y-87121063D01*
X152784054Y-87179501D01*
X152818251Y-87218967D01*
X152916338Y-87282004D01*
X152927231Y-87289004D01*
X153051528Y-87325500D01*
X153051532Y-87325500D01*
X153181068Y-87325500D01*
X153181072Y-87325500D01*
X153305369Y-87289004D01*
X153414349Y-87218967D01*
X153499182Y-87121063D01*
X153552997Y-87003226D01*
X153571433Y-86875000D01*
X153936167Y-86875000D01*
X153954603Y-87003226D01*
X154008418Y-87121063D01*
X154059054Y-87179501D01*
X154093251Y-87218967D01*
X154191338Y-87282004D01*
X154202231Y-87289004D01*
X154326528Y-87325500D01*
X154326532Y-87325500D01*
X154456068Y-87325500D01*
X154456072Y-87325500D01*
X154580369Y-87289004D01*
X154689349Y-87218967D01*
X154774182Y-87121063D01*
X154827997Y-87003226D01*
X154829180Y-86995000D01*
X158929867Y-86995000D01*
X158948303Y-87123226D01*
X159002118Y-87241063D01*
X159069215Y-87318498D01*
X159086951Y-87338967D01*
X159193019Y-87407133D01*
X159195931Y-87409004D01*
X159320228Y-87445500D01*
X159320232Y-87445500D01*
X159449768Y-87445500D01*
X159449772Y-87445500D01*
X159574069Y-87409004D01*
X159683049Y-87338967D01*
X159767882Y-87241063D01*
X159821697Y-87123226D01*
X159840133Y-86995000D01*
X159821697Y-86866774D01*
X159767882Y-86748937D01*
X159683049Y-86651033D01*
X159683048Y-86651032D01*
X159625425Y-86614000D01*
X165457667Y-86614000D01*
X165476103Y-86742226D01*
X165529918Y-86860063D01*
X165614751Y-86957967D01*
X165685175Y-87003226D01*
X165723731Y-87028004D01*
X165848028Y-87064500D01*
X165848032Y-87064500D01*
X165977568Y-87064500D01*
X165977572Y-87064500D01*
X166101869Y-87028004D01*
X166210849Y-86957967D01*
X166295682Y-86860063D01*
X166349497Y-86742226D01*
X166367933Y-86614000D01*
X166349497Y-86485774D01*
X166295682Y-86367937D01*
X166210849Y-86270033D01*
X166210848Y-86270032D01*
X166101873Y-86199998D01*
X166101870Y-86199996D01*
X166101869Y-86199996D01*
X166101866Y-86199995D01*
X165977576Y-86163501D01*
X165977574Y-86163500D01*
X165977572Y-86163500D01*
X165848028Y-86163500D01*
X165848025Y-86163500D01*
X165848023Y-86163501D01*
X165723733Y-86199995D01*
X165723726Y-86199998D01*
X165614751Y-86270032D01*
X165543673Y-86352063D01*
X165529918Y-86367937D01*
X165476103Y-86485774D01*
X165457667Y-86614000D01*
X159625425Y-86614000D01*
X159574073Y-86580998D01*
X159574070Y-86580996D01*
X159574069Y-86580996D01*
X159574066Y-86580995D01*
X159449776Y-86544501D01*
X159449774Y-86544500D01*
X159449772Y-86544500D01*
X159320228Y-86544500D01*
X159320225Y-86544500D01*
X159320223Y-86544501D01*
X159195933Y-86580995D01*
X159195926Y-86580998D01*
X159086951Y-86651032D01*
X159034969Y-86711024D01*
X159002118Y-86748937D01*
X158948303Y-86866774D01*
X158929867Y-86995000D01*
X154829180Y-86995000D01*
X154846433Y-86875000D01*
X154827997Y-86746774D01*
X154774182Y-86628937D01*
X154689349Y-86531033D01*
X154689348Y-86531032D01*
X154580373Y-86460998D01*
X154580370Y-86460996D01*
X154580369Y-86460996D01*
X154494840Y-86435883D01*
X154456076Y-86424501D01*
X154456074Y-86424500D01*
X154456072Y-86424500D01*
X154326528Y-86424500D01*
X154326525Y-86424500D01*
X154326523Y-86424501D01*
X154202233Y-86460995D01*
X154202226Y-86460998D01*
X154093251Y-86531032D01*
X154021361Y-86614000D01*
X154008418Y-86628937D01*
X153954603Y-86746774D01*
X153936167Y-86875000D01*
X153571433Y-86875000D01*
X153552997Y-86746774D01*
X153499182Y-86628937D01*
X153414349Y-86531033D01*
X153414348Y-86531032D01*
X153305373Y-86460998D01*
X153305370Y-86460996D01*
X153305369Y-86460996D01*
X153219840Y-86435883D01*
X153181076Y-86424501D01*
X153181074Y-86424500D01*
X153181072Y-86424500D01*
X153051528Y-86424500D01*
X153051525Y-86424500D01*
X153051523Y-86424501D01*
X152927233Y-86460995D01*
X152927226Y-86460998D01*
X152818251Y-86531032D01*
X152746361Y-86614000D01*
X152733418Y-86628937D01*
X152679603Y-86746774D01*
X152661167Y-86875000D01*
X152296433Y-86875000D01*
X152277997Y-86746774D01*
X152224182Y-86628937D01*
X152139349Y-86531033D01*
X152139348Y-86531032D01*
X152030373Y-86460998D01*
X152030370Y-86460996D01*
X152030369Y-86460996D01*
X151944840Y-86435883D01*
X151906076Y-86424501D01*
X151906074Y-86424500D01*
X151906072Y-86424500D01*
X151776528Y-86424500D01*
X151776525Y-86424500D01*
X151776523Y-86424501D01*
X151652233Y-86460995D01*
X151652226Y-86460998D01*
X151543251Y-86531032D01*
X151471361Y-86614000D01*
X151458418Y-86628937D01*
X151404603Y-86746774D01*
X151386167Y-86875000D01*
X150932880Y-86875000D01*
X150931697Y-86866774D01*
X150877882Y-86748937D01*
X150793049Y-86651033D01*
X150793048Y-86651032D01*
X150684073Y-86580998D01*
X150684070Y-86580996D01*
X150684069Y-86580996D01*
X150684066Y-86580995D01*
X150559776Y-86544501D01*
X150559774Y-86544500D01*
X150559772Y-86544500D01*
X150430228Y-86544500D01*
X150430225Y-86544500D01*
X150430223Y-86544501D01*
X150305933Y-86580995D01*
X150305926Y-86580998D01*
X150196951Y-86651032D01*
X150144969Y-86711024D01*
X150112118Y-86748937D01*
X150058303Y-86866774D01*
X150039867Y-86995000D01*
X149026873Y-86995000D01*
X149045133Y-86868000D01*
X149026697Y-86739774D01*
X148972882Y-86621937D01*
X148927453Y-86569509D01*
X148897962Y-86504931D01*
X148908067Y-86434657D01*
X148927451Y-86404493D01*
X148972882Y-86352063D01*
X149026697Y-86234226D01*
X149045133Y-86106000D01*
X149026697Y-85977774D01*
X148972882Y-85859937D01*
X148888049Y-85762033D01*
X148888048Y-85762032D01*
X148779073Y-85691998D01*
X148779070Y-85691996D01*
X148779069Y-85691996D01*
X148775149Y-85690845D01*
X148654776Y-85655501D01*
X148654774Y-85655500D01*
X148654772Y-85655500D01*
X148525228Y-85655500D01*
X148525225Y-85655500D01*
X148525223Y-85655501D01*
X148400933Y-85691995D01*
X148400926Y-85691998D01*
X148291951Y-85762032D01*
X148219140Y-85846063D01*
X148207118Y-85859937D01*
X148153303Y-85977774D01*
X148134867Y-86106000D01*
X148153303Y-86234226D01*
X148207118Y-86352063D01*
X148207119Y-86352064D01*
X148207119Y-86352065D01*
X148252544Y-86404489D01*
X148282037Y-86469070D01*
X148271932Y-86539344D01*
X148252544Y-86569511D01*
X148207119Y-86621934D01*
X148207119Y-86621935D01*
X148207118Y-86621936D01*
X148207118Y-86621937D01*
X148153303Y-86739774D01*
X148134867Y-86868000D01*
X144859125Y-86868000D01*
X144866241Y-85508875D01*
X144883120Y-85446538D01*
X144903286Y-85411611D01*
X144925254Y-85344000D01*
X145467867Y-85344000D01*
X145486303Y-85472226D01*
X145540118Y-85590063D01*
X145624951Y-85687967D01*
X145690696Y-85730219D01*
X145733931Y-85758004D01*
X145858228Y-85794500D01*
X145858232Y-85794500D01*
X145987768Y-85794500D01*
X145987772Y-85794500D01*
X146112069Y-85758004D01*
X146221049Y-85687967D01*
X146297272Y-85600000D01*
X151386167Y-85600000D01*
X151404603Y-85728226D01*
X151458418Y-85846063D01*
X151543251Y-85943967D01*
X151652231Y-86014004D01*
X151776528Y-86050500D01*
X151776532Y-86050500D01*
X151906068Y-86050500D01*
X151906072Y-86050500D01*
X152030369Y-86014004D01*
X152139349Y-85943967D01*
X152224182Y-85846063D01*
X152277997Y-85728226D01*
X152296433Y-85600000D01*
X152661167Y-85600000D01*
X152679603Y-85728226D01*
X152733418Y-85846063D01*
X152818251Y-85943967D01*
X152927231Y-86014004D01*
X153051528Y-86050500D01*
X153051532Y-86050500D01*
X153181068Y-86050500D01*
X153181072Y-86050500D01*
X153305369Y-86014004D01*
X153414349Y-85943967D01*
X153499182Y-85846063D01*
X153552997Y-85728226D01*
X153571433Y-85600000D01*
X153936167Y-85600000D01*
X153954603Y-85728226D01*
X154008418Y-85846063D01*
X154093251Y-85943967D01*
X154202231Y-86014004D01*
X154326528Y-86050500D01*
X154326532Y-86050500D01*
X154456068Y-86050500D01*
X154456072Y-86050500D01*
X154580369Y-86014004D01*
X154689349Y-85943967D01*
X154774182Y-85846063D01*
X154827997Y-85728226D01*
X154846433Y-85600000D01*
X154827997Y-85471774D01*
X154788940Y-85386252D01*
X164446808Y-85386252D01*
X164465244Y-85514478D01*
X164519059Y-85632315D01*
X164570772Y-85691996D01*
X164603892Y-85730219D01*
X164701335Y-85792842D01*
X164712872Y-85800256D01*
X164837169Y-85836752D01*
X164837173Y-85836752D01*
X164966709Y-85836752D01*
X164966713Y-85836752D01*
X165091010Y-85800256D01*
X165199990Y-85730219D01*
X165204510Y-85725003D01*
X166507659Y-85725003D01*
X166526974Y-85921124D01*
X166526974Y-85921126D01*
X166584186Y-86109728D01*
X166632435Y-86199995D01*
X166677090Y-86283538D01*
X166802117Y-86435883D01*
X166954462Y-86560910D01*
X167128273Y-86653814D01*
X167316868Y-86711024D01*
X167316872Y-86711024D01*
X167316874Y-86711025D01*
X167512997Y-86730341D01*
X167513000Y-86730341D01*
X167513003Y-86730341D01*
X167709124Y-86711025D01*
X167709126Y-86711025D01*
X167709127Y-86711024D01*
X167709132Y-86711024D01*
X167897727Y-86653814D01*
X168071538Y-86560910D01*
X168223883Y-86435883D01*
X168348910Y-86283538D01*
X168441814Y-86109727D01*
X168499024Y-85921132D01*
X168510929Y-85800256D01*
X168518341Y-85725003D01*
X168518341Y-85724996D01*
X168499025Y-85528875D01*
X168499025Y-85528873D01*
X168499024Y-85528870D01*
X168499024Y-85528868D01*
X168441814Y-85340273D01*
X168348910Y-85166462D01*
X168223883Y-85014117D01*
X168071538Y-84889090D01*
X167972214Y-84836000D01*
X167897728Y-84796186D01*
X167709125Y-84738974D01*
X167513003Y-84719659D01*
X167512997Y-84719659D01*
X167316875Y-84738974D01*
X167316873Y-84738974D01*
X167128271Y-84796186D01*
X166954461Y-84889090D01*
X166802117Y-85014117D01*
X166677090Y-85166461D01*
X166584186Y-85340271D01*
X166526974Y-85528873D01*
X166526974Y-85528875D01*
X166507659Y-85724996D01*
X166507659Y-85725003D01*
X165204510Y-85725003D01*
X165284823Y-85632315D01*
X165338638Y-85514478D01*
X165357074Y-85386252D01*
X165338638Y-85258026D01*
X165284823Y-85140189D01*
X165199990Y-85042285D01*
X165199989Y-85042284D01*
X165091014Y-84972250D01*
X165091011Y-84972248D01*
X165091010Y-84972248D01*
X165063689Y-84964226D01*
X164966717Y-84935753D01*
X164966715Y-84935752D01*
X164966713Y-84935752D01*
X164837169Y-84935752D01*
X164837166Y-84935752D01*
X164837164Y-84935753D01*
X164712874Y-84972247D01*
X164712867Y-84972250D01*
X164603892Y-85042284D01*
X164555670Y-85097937D01*
X164519059Y-85140189D01*
X164465244Y-85258026D01*
X164446808Y-85386252D01*
X154788940Y-85386252D01*
X154774182Y-85353937D01*
X154689349Y-85256033D01*
X154689348Y-85256032D01*
X154580373Y-85185998D01*
X154580370Y-85185996D01*
X154580369Y-85185996D01*
X154513841Y-85166462D01*
X154456076Y-85149501D01*
X154456074Y-85149500D01*
X154456072Y-85149500D01*
X154326528Y-85149500D01*
X154326525Y-85149500D01*
X154326523Y-85149501D01*
X154202233Y-85185995D01*
X154202226Y-85185998D01*
X154093251Y-85256032D01*
X154020259Y-85340271D01*
X154008418Y-85353937D01*
X153954603Y-85471774D01*
X153936167Y-85600000D01*
X153571433Y-85600000D01*
X153552997Y-85471774D01*
X153499182Y-85353937D01*
X153414349Y-85256033D01*
X153414348Y-85256032D01*
X153305373Y-85185998D01*
X153305370Y-85185996D01*
X153305369Y-85185996D01*
X153238841Y-85166462D01*
X153181076Y-85149501D01*
X153181074Y-85149500D01*
X153181072Y-85149500D01*
X153051528Y-85149500D01*
X153051525Y-85149500D01*
X153051523Y-85149501D01*
X152927233Y-85185995D01*
X152927226Y-85185998D01*
X152818251Y-85256032D01*
X152745259Y-85340271D01*
X152733418Y-85353937D01*
X152679603Y-85471774D01*
X152661167Y-85600000D01*
X152296433Y-85600000D01*
X152277997Y-85471774D01*
X152224182Y-85353937D01*
X152139349Y-85256033D01*
X152139348Y-85256032D01*
X152030373Y-85185998D01*
X152030370Y-85185996D01*
X152030369Y-85185996D01*
X151963841Y-85166462D01*
X151906076Y-85149501D01*
X151906074Y-85149500D01*
X151906072Y-85149500D01*
X151776528Y-85149500D01*
X151776525Y-85149500D01*
X151776523Y-85149501D01*
X151652233Y-85185995D01*
X151652226Y-85185998D01*
X151543251Y-85256032D01*
X151470259Y-85340271D01*
X151458418Y-85353937D01*
X151404603Y-85471774D01*
X151386167Y-85600000D01*
X146297272Y-85600000D01*
X146305882Y-85590063D01*
X146359697Y-85472226D01*
X146373671Y-85375032D01*
X146403163Y-85310454D01*
X146462889Y-85272070D01*
X146533883Y-85272070D01*
X146583028Y-85286500D01*
X146583032Y-85286500D01*
X146712568Y-85286500D01*
X146712572Y-85286500D01*
X146836869Y-85250004D01*
X146945849Y-85179967D01*
X147030682Y-85082063D01*
X147084497Y-84964226D01*
X147102933Y-84836000D01*
X147084497Y-84707774D01*
X147030682Y-84589937D01*
X146945849Y-84492033D01*
X146945848Y-84492032D01*
X146836873Y-84421998D01*
X146836870Y-84421996D01*
X146836869Y-84421996D01*
X146836866Y-84421995D01*
X146712576Y-84385501D01*
X146712574Y-84385500D01*
X146712572Y-84385500D01*
X146583028Y-84385500D01*
X146583025Y-84385500D01*
X146583023Y-84385501D01*
X146458733Y-84421995D01*
X146458726Y-84421998D01*
X146349751Y-84492032D01*
X146264918Y-84589937D01*
X146211102Y-84707776D01*
X146211101Y-84707780D01*
X146197128Y-84804965D01*
X146167635Y-84869546D01*
X146107909Y-84907929D01*
X146036914Y-84907929D01*
X146007820Y-84899386D01*
X145987776Y-84893501D01*
X145987774Y-84893500D01*
X145987772Y-84893500D01*
X145858228Y-84893500D01*
X145858225Y-84893500D01*
X145858223Y-84893501D01*
X145733933Y-84929995D01*
X145733926Y-84929998D01*
X145624951Y-85000032D01*
X145553873Y-85082063D01*
X145540118Y-85097937D01*
X145486303Y-85215774D01*
X145467867Y-85344000D01*
X144925254Y-85344000D01*
X144956908Y-85246576D01*
X144975047Y-85074000D01*
X144956908Y-84901424D01*
X144903286Y-84736389D01*
X144887639Y-84709289D01*
X144870761Y-84645633D01*
X144874349Y-83960375D01*
X144894706Y-83892364D01*
X144920099Y-83866650D01*
X144919729Y-83866280D01*
X144928504Y-83857504D01*
X144961765Y-83807725D01*
X144961767Y-83807721D01*
X144970500Y-83763820D01*
X144970500Y-83627000D01*
X149240667Y-83627000D01*
X149259103Y-83755226D01*
X149312918Y-83873063D01*
X149397751Y-83970967D01*
X149506731Y-84041004D01*
X149631028Y-84077500D01*
X149631032Y-84077500D01*
X149760568Y-84077500D01*
X149760572Y-84077500D01*
X149884869Y-84041004D01*
X149993849Y-83970967D01*
X150078682Y-83873063D01*
X150132497Y-83755226D01*
X150150933Y-83627000D01*
X150142163Y-83566000D01*
X159437867Y-83566000D01*
X159456303Y-83694226D01*
X159510118Y-83812063D01*
X159594951Y-83909967D01*
X159673387Y-83960375D01*
X159703931Y-83980004D01*
X159828228Y-84016500D01*
X159828232Y-84016500D01*
X159957768Y-84016500D01*
X159957772Y-84016500D01*
X160082069Y-83980004D01*
X160191049Y-83909967D01*
X160269005Y-83820000D01*
X164517867Y-83820000D01*
X164536303Y-83948226D01*
X164590118Y-84066063D01*
X164674951Y-84163967D01*
X164783931Y-84234004D01*
X164908228Y-84270500D01*
X164908232Y-84270500D01*
X165037768Y-84270500D01*
X165037772Y-84270500D01*
X165162069Y-84234004D01*
X165271049Y-84163967D01*
X165355882Y-84066063D01*
X165409697Y-83948226D01*
X165428133Y-83820000D01*
X165409697Y-83691774D01*
X165355882Y-83573937D01*
X165271049Y-83476033D01*
X165271048Y-83476032D01*
X165162073Y-83405998D01*
X165162070Y-83405996D01*
X165162069Y-83405996D01*
X165077388Y-83381132D01*
X165037776Y-83369501D01*
X165037774Y-83369500D01*
X165037772Y-83369500D01*
X164908228Y-83369500D01*
X164908225Y-83369500D01*
X164908223Y-83369501D01*
X164783933Y-83405995D01*
X164783926Y-83405998D01*
X164674951Y-83476032D01*
X164655245Y-83498775D01*
X164590118Y-83573937D01*
X164536303Y-83691774D01*
X164517867Y-83820000D01*
X160269005Y-83820000D01*
X160275882Y-83812063D01*
X160329697Y-83694226D01*
X160348133Y-83566000D01*
X160329697Y-83437774D01*
X160275882Y-83319937D01*
X160191049Y-83222033D01*
X160191048Y-83222032D01*
X160133430Y-83185003D01*
X166507659Y-83185003D01*
X166526974Y-83381124D01*
X166526974Y-83381126D01*
X166584186Y-83569728D01*
X166649422Y-83691775D01*
X166677090Y-83743538D01*
X166802117Y-83895883D01*
X166954462Y-84020910D01*
X167128273Y-84113814D01*
X167316868Y-84171024D01*
X167316872Y-84171024D01*
X167316874Y-84171025D01*
X167512997Y-84190341D01*
X167513000Y-84190341D01*
X167513003Y-84190341D01*
X167709124Y-84171025D01*
X167709126Y-84171025D01*
X167709127Y-84171024D01*
X167709132Y-84171024D01*
X167897727Y-84113814D01*
X168071538Y-84020910D01*
X168223883Y-83895883D01*
X168348910Y-83743538D01*
X168441814Y-83569727D01*
X168499024Y-83381132D01*
X168514694Y-83222032D01*
X168518341Y-83185003D01*
X168518341Y-83184996D01*
X168499025Y-82988875D01*
X168499025Y-82988873D01*
X168499024Y-82988870D01*
X168499024Y-82988868D01*
X168441814Y-82800273D01*
X168348910Y-82626462D01*
X168223883Y-82474117D01*
X168071538Y-82349090D01*
X168055052Y-82340278D01*
X167897728Y-82256186D01*
X167709125Y-82198974D01*
X167513003Y-82179659D01*
X167512997Y-82179659D01*
X167316875Y-82198974D01*
X167316873Y-82198974D01*
X167128271Y-82256186D01*
X166954461Y-82349090D01*
X166802117Y-82474117D01*
X166677090Y-82626461D01*
X166584186Y-82800271D01*
X166526974Y-82988873D01*
X166526974Y-82988875D01*
X166507659Y-83184996D01*
X166507659Y-83185003D01*
X160133430Y-83185003D01*
X160082073Y-83151998D01*
X160082070Y-83151996D01*
X160082069Y-83151996D01*
X160082066Y-83151995D01*
X159957776Y-83115501D01*
X159957774Y-83115500D01*
X159957772Y-83115500D01*
X159828228Y-83115500D01*
X159828225Y-83115500D01*
X159828223Y-83115501D01*
X159703933Y-83151995D01*
X159703926Y-83151998D01*
X159594951Y-83222032D01*
X159579989Y-83239300D01*
X159510118Y-83319937D01*
X159456303Y-83437774D01*
X159437867Y-83566000D01*
X150142163Y-83566000D01*
X150132497Y-83498774D01*
X150078682Y-83380937D01*
X149993849Y-83283033D01*
X149993848Y-83283032D01*
X149884873Y-83212998D01*
X149884870Y-83212996D01*
X149884869Y-83212996D01*
X149884866Y-83212995D01*
X149760576Y-83176501D01*
X149760574Y-83176500D01*
X149760572Y-83176500D01*
X149631028Y-83176500D01*
X149631025Y-83176500D01*
X149631023Y-83176501D01*
X149506733Y-83212995D01*
X149506726Y-83212998D01*
X149397751Y-83283032D01*
X149322828Y-83369500D01*
X149312918Y-83380937D01*
X149259103Y-83498774D01*
X149240667Y-83627000D01*
X144970500Y-83627000D01*
X144970500Y-82788800D01*
X147716667Y-82788800D01*
X147735103Y-82917026D01*
X147788918Y-83034863D01*
X147858789Y-83115500D01*
X147873751Y-83132767D01*
X147941802Y-83176501D01*
X147982731Y-83202804D01*
X148107028Y-83239300D01*
X148107032Y-83239300D01*
X148236568Y-83239300D01*
X148236572Y-83239300D01*
X148360869Y-83202804D01*
X148469849Y-83132767D01*
X148554682Y-83034863D01*
X148608497Y-82917026D01*
X148626933Y-82788800D01*
X148608497Y-82660574D01*
X148554682Y-82542737D01*
X148469849Y-82444833D01*
X148469848Y-82444832D01*
X148360873Y-82374798D01*
X148360870Y-82374796D01*
X148360869Y-82374796D01*
X148360866Y-82374795D01*
X148236576Y-82338301D01*
X148236574Y-82338300D01*
X148236572Y-82338300D01*
X148107028Y-82338300D01*
X148107025Y-82338300D01*
X148107023Y-82338301D01*
X147982733Y-82374795D01*
X147982726Y-82374798D01*
X147873751Y-82444832D01*
X147788918Y-82542737D01*
X147735103Y-82660574D01*
X147716667Y-82788800D01*
X144970500Y-82788800D01*
X144970500Y-82384180D01*
X144961767Y-82340278D01*
X144961765Y-82340274D01*
X144928504Y-82290495D01*
X144920506Y-82282497D01*
X144886480Y-82220185D01*
X144883603Y-82192748D01*
X144885722Y-81788000D01*
X162612867Y-81788000D01*
X162631303Y-81916226D01*
X162685118Y-82034063D01*
X162769951Y-82131967D01*
X162878931Y-82202004D01*
X163003228Y-82238500D01*
X163003232Y-82238500D01*
X163132768Y-82238500D01*
X163132772Y-82238500D01*
X163257069Y-82202004D01*
X163366049Y-82131967D01*
X163450882Y-82034063D01*
X163504697Y-81916226D01*
X163523133Y-81788000D01*
X163504697Y-81659774D01*
X163450882Y-81541937D01*
X163366049Y-81444033D01*
X163366048Y-81444032D01*
X163257073Y-81373998D01*
X163257070Y-81373996D01*
X163257069Y-81373996D01*
X163257066Y-81373995D01*
X163132776Y-81337501D01*
X163132774Y-81337500D01*
X163132772Y-81337500D01*
X163003228Y-81337500D01*
X163003225Y-81337500D01*
X163003223Y-81337501D01*
X162878933Y-81373995D01*
X162878926Y-81373998D01*
X162769951Y-81444032D01*
X162724084Y-81496967D01*
X162685118Y-81541937D01*
X162631303Y-81659774D01*
X162612867Y-81788000D01*
X144885722Y-81788000D01*
X144891387Y-80706000D01*
X155209667Y-80706000D01*
X155228103Y-80834226D01*
X155281918Y-80952063D01*
X155366751Y-81049967D01*
X155475731Y-81120004D01*
X155600028Y-81156500D01*
X155600032Y-81156500D01*
X155729568Y-81156500D01*
X155729572Y-81156500D01*
X155741492Y-81153000D01*
X158675867Y-81153000D01*
X158694303Y-81281226D01*
X158748118Y-81399063D01*
X158832951Y-81496967D01*
X158941931Y-81567004D01*
X159066228Y-81603500D01*
X159066232Y-81603500D01*
X159195768Y-81603500D01*
X159195772Y-81603500D01*
X159320069Y-81567004D01*
X159429049Y-81496967D01*
X159513882Y-81399063D01*
X159567697Y-81281226D01*
X159586133Y-81153000D01*
X159567697Y-81024774D01*
X159513882Y-80906937D01*
X159429049Y-80809033D01*
X159429048Y-80809032D01*
X159320073Y-80738998D01*
X159320070Y-80738996D01*
X159320069Y-80738996D01*
X159320066Y-80738995D01*
X159195776Y-80702501D01*
X159195774Y-80702500D01*
X159195772Y-80702500D01*
X159066228Y-80702500D01*
X159066225Y-80702500D01*
X159066223Y-80702501D01*
X158941933Y-80738995D01*
X158941926Y-80738998D01*
X158832951Y-80809032D01*
X158748118Y-80906937D01*
X158694303Y-81024774D01*
X158675867Y-81153000D01*
X155741492Y-81153000D01*
X155853869Y-81120004D01*
X155962849Y-81049967D01*
X156047682Y-80952063D01*
X156101497Y-80834226D01*
X156119933Y-80706000D01*
X156101497Y-80577774D01*
X156047682Y-80459937D01*
X156041108Y-80452350D01*
X156013091Y-80391000D01*
X157405867Y-80391000D01*
X157424303Y-80519226D01*
X157478118Y-80637063D01*
X157562951Y-80734967D01*
X157671931Y-80805004D01*
X157796228Y-80841500D01*
X157796232Y-80841500D01*
X157925768Y-80841500D01*
X157925772Y-80841500D01*
X158050069Y-80805004D01*
X158159049Y-80734967D01*
X158243882Y-80637063D01*
X158297697Y-80519226D01*
X158316133Y-80391000D01*
X158297697Y-80262774D01*
X158243882Y-80144937D01*
X158159049Y-80047033D01*
X158159048Y-80047032D01*
X158050073Y-79976998D01*
X158050070Y-79976996D01*
X158050069Y-79976996D01*
X158031484Y-79971539D01*
X157925776Y-79940501D01*
X157925774Y-79940500D01*
X157925772Y-79940500D01*
X157796228Y-79940500D01*
X157796225Y-79940500D01*
X157796223Y-79940501D01*
X157671933Y-79976995D01*
X157671926Y-79976998D01*
X157562951Y-80047032D01*
X157496806Y-80123369D01*
X157478118Y-80144937D01*
X157424303Y-80262774D01*
X157405867Y-80391000D01*
X156013091Y-80391000D01*
X156011616Y-80387771D01*
X156021721Y-80317497D01*
X156068214Y-80263842D01*
X156136335Y-80243840D01*
X156171829Y-80248943D01*
X156235028Y-80267500D01*
X156235032Y-80267500D01*
X156364568Y-80267500D01*
X156364572Y-80267500D01*
X156488869Y-80231004D01*
X156597849Y-80160967D01*
X156682682Y-80063063D01*
X156736497Y-79945226D01*
X156754933Y-79817000D01*
X156736497Y-79688774D01*
X156682682Y-79570937D01*
X156597849Y-79473033D01*
X156597848Y-79473032D01*
X156488873Y-79402998D01*
X156488870Y-79402996D01*
X156488869Y-79402996D01*
X156488866Y-79402995D01*
X156364576Y-79366501D01*
X156364574Y-79366500D01*
X156364572Y-79366500D01*
X156235028Y-79366500D01*
X156235025Y-79366500D01*
X156235023Y-79366501D01*
X156110733Y-79402995D01*
X156110726Y-79402998D01*
X156001751Y-79473032D01*
X155947225Y-79535960D01*
X155916918Y-79570937D01*
X155863103Y-79688774D01*
X155844667Y-79817000D01*
X155863103Y-79945226D01*
X155916918Y-80063063D01*
X155923491Y-80070649D01*
X155952983Y-80135229D01*
X155942878Y-80205503D01*
X155896384Y-80259158D01*
X155828263Y-80279159D01*
X155792768Y-80274055D01*
X155729578Y-80255501D01*
X155729574Y-80255500D01*
X155729572Y-80255500D01*
X155600028Y-80255500D01*
X155600025Y-80255500D01*
X155600023Y-80255501D01*
X155475733Y-80291995D01*
X155475726Y-80291998D01*
X155366751Y-80362032D01*
X155288490Y-80452352D01*
X155281918Y-80459937D01*
X155228103Y-80577774D01*
X155209667Y-80706000D01*
X144891387Y-80706000D01*
X144894711Y-80071000D01*
X149113667Y-80071000D01*
X149132103Y-80199226D01*
X149185918Y-80317063D01*
X149270751Y-80414967D01*
X149379731Y-80485004D01*
X149504028Y-80521500D01*
X149504032Y-80521500D01*
X149633568Y-80521500D01*
X149633572Y-80521500D01*
X149757869Y-80485004D01*
X149866849Y-80414967D01*
X149951682Y-80317063D01*
X149962186Y-80294061D01*
X150008679Y-80240406D01*
X150076800Y-80220404D01*
X150144920Y-80240406D01*
X150191413Y-80294061D01*
X150201918Y-80317063D01*
X150286751Y-80414967D01*
X150395731Y-80485004D01*
X150520028Y-80521500D01*
X150520032Y-80521500D01*
X150649568Y-80521500D01*
X150649572Y-80521500D01*
X150773869Y-80485004D01*
X150882849Y-80414967D01*
X150967682Y-80317063D01*
X151021497Y-80199226D01*
X151039933Y-80071000D01*
X153685667Y-80071000D01*
X153704103Y-80199226D01*
X153757918Y-80317063D01*
X153842751Y-80414967D01*
X153951731Y-80485004D01*
X154076028Y-80521500D01*
X154076032Y-80521500D01*
X154205568Y-80521500D01*
X154205572Y-80521500D01*
X154329869Y-80485004D01*
X154438849Y-80414967D01*
X154523682Y-80317063D01*
X154577497Y-80199226D01*
X154595933Y-80071000D01*
X154577497Y-79942774D01*
X154523682Y-79824937D01*
X154438849Y-79727033D01*
X154438848Y-79727032D01*
X154329873Y-79656998D01*
X154329870Y-79656996D01*
X154329869Y-79656996D01*
X154225564Y-79626370D01*
X154205576Y-79620501D01*
X154205574Y-79620500D01*
X154205572Y-79620500D01*
X154076028Y-79620500D01*
X154076025Y-79620500D01*
X154076023Y-79620501D01*
X153951733Y-79656995D01*
X153951726Y-79656998D01*
X153842751Y-79727032D01*
X153778970Y-79800641D01*
X153757918Y-79824937D01*
X153704103Y-79942774D01*
X153685667Y-80071000D01*
X151039933Y-80071000D01*
X151021497Y-79942774D01*
X150973991Y-79838753D01*
X150963887Y-79768480D01*
X150993380Y-79703899D01*
X151053101Y-79665517D01*
X151065069Y-79662004D01*
X151174049Y-79591967D01*
X151258882Y-79494063D01*
X151312697Y-79376226D01*
X151331133Y-79248000D01*
X151312697Y-79119774D01*
X151258882Y-79001937D01*
X151174049Y-78904033D01*
X151174048Y-78904032D01*
X151065073Y-78833998D01*
X151065070Y-78833996D01*
X151065069Y-78833996D01*
X151065066Y-78833995D01*
X150940776Y-78797501D01*
X150940774Y-78797500D01*
X150940772Y-78797500D01*
X150811228Y-78797500D01*
X150811225Y-78797500D01*
X150811223Y-78797501D01*
X150686933Y-78833995D01*
X150686926Y-78833998D01*
X150577951Y-78904032D01*
X150493118Y-79001937D01*
X150439303Y-79119775D01*
X150420867Y-79248000D01*
X150439303Y-79376226D01*
X150486808Y-79480246D01*
X150496912Y-79550519D01*
X150467419Y-79615100D01*
X150407695Y-79653482D01*
X150395734Y-79656995D01*
X150395731Y-79656996D01*
X150395726Y-79656998D01*
X150286751Y-79727032D01*
X150201916Y-79824939D01*
X150201915Y-79824941D01*
X150191413Y-79847938D01*
X150144920Y-79901594D01*
X150076799Y-79921595D01*
X150008678Y-79901592D01*
X149962187Y-79847938D01*
X149951684Y-79824941D01*
X149951683Y-79824939D01*
X149951682Y-79824938D01*
X149951682Y-79824937D01*
X149866849Y-79727033D01*
X149866848Y-79727032D01*
X149757873Y-79656998D01*
X149757870Y-79656996D01*
X149757869Y-79656996D01*
X149653564Y-79626370D01*
X149633576Y-79620501D01*
X149633574Y-79620500D01*
X149633572Y-79620500D01*
X149504028Y-79620500D01*
X149504025Y-79620500D01*
X149504023Y-79620501D01*
X149379733Y-79656995D01*
X149379726Y-79656998D01*
X149270751Y-79727032D01*
X149206970Y-79800641D01*
X149185918Y-79824937D01*
X149132103Y-79942774D01*
X149113667Y-80071000D01*
X144894711Y-80071000D01*
X144901775Y-78721833D01*
X144902109Y-78715695D01*
X144920624Y-78536721D01*
X144925536Y-78512603D01*
X144975771Y-78349499D01*
X144985273Y-78326813D01*
X145066267Y-78176586D01*
X145079994Y-78156187D01*
X145188655Y-78024576D01*
X145206096Y-78007226D01*
X145338268Y-77899260D01*
X145358755Y-77885630D01*
X145509394Y-77805428D01*
X145532137Y-77796042D01*
X145695498Y-77746663D01*
X145719631Y-77741879D01*
X145898720Y-77724300D01*
X145904861Y-77724000D01*
X151204452Y-77724000D01*
X151272573Y-77744002D01*
G37*
%TD.AperFunction*%
%TD*%
%TA.AperFunction,Conductor*%
%TO.N,/V_{OUT}*%
G36*
X135833039Y-86760685D02*
G01*
X135878794Y-86813489D01*
X135890000Y-86865000D01*
X135890000Y-96777000D01*
X135870315Y-96844039D01*
X135817511Y-96889794D01*
X135766000Y-96901000D01*
X131442000Y-96901000D01*
X131374961Y-96881315D01*
X131329206Y-96828511D01*
X131318000Y-96777000D01*
X131318000Y-92097329D01*
X131337685Y-92030290D01*
X131390489Y-91984535D01*
X131412402Y-91977459D01*
X131415516Y-91976168D01*
X131415522Y-91976167D01*
X131465304Y-91942904D01*
X131498567Y-91893122D01*
X131507300Y-91849220D01*
X131507300Y-90319580D01*
X131507300Y-90319577D01*
X131498568Y-90275682D01*
X131498567Y-90275681D01*
X131498567Y-90275678D01*
X131465304Y-90225896D01*
X131465303Y-90225895D01*
X131415524Y-90192634D01*
X131404236Y-90187958D01*
X131404906Y-90186338D01*
X131355896Y-90160701D01*
X131321323Y-90099985D01*
X131318000Y-90071470D01*
X131318000Y-87018158D01*
X131329206Y-86966646D01*
X131373697Y-86869225D01*
X131376842Y-86847353D01*
X131405867Y-86783797D01*
X131464645Y-86746023D01*
X131499580Y-86741000D01*
X135766000Y-86741000D01*
X135833039Y-86760685D01*
G37*
%TD.AperFunction*%
%TD*%
%TA.AperFunction,Conductor*%
%TO.N,VBUS*%
G36*
X147147895Y-63960716D02*
G01*
X147194388Y-64014372D01*
X147204492Y-64084646D01*
X147174998Y-64149226D01*
X147155642Y-64165998D01*
X147155759Y-64166133D01*
X147148952Y-64172030D01*
X147077097Y-64254958D01*
X147064118Y-64269937D01*
X147010303Y-64387774D01*
X146991867Y-64516000D01*
X147010303Y-64644226D01*
X147064118Y-64762063D01*
X147148951Y-64859967D01*
X147257931Y-64930004D01*
X147382228Y-64966500D01*
X147382232Y-64966500D01*
X147511768Y-64966500D01*
X147511772Y-64966500D01*
X147636069Y-64930004D01*
X147745049Y-64859967D01*
X147829882Y-64762063D01*
X147840386Y-64739061D01*
X147886879Y-64685406D01*
X147955000Y-64665404D01*
X148023120Y-64685406D01*
X148069613Y-64739061D01*
X148080118Y-64762063D01*
X148164951Y-64859967D01*
X148273931Y-64930004D01*
X148398228Y-64966500D01*
X148398232Y-64966500D01*
X148527768Y-64966500D01*
X148527772Y-64966500D01*
X148652069Y-64930004D01*
X148761049Y-64859967D01*
X148839005Y-64770000D01*
X156466067Y-64770000D01*
X156484503Y-64898226D01*
X156538318Y-65016063D01*
X156623151Y-65113967D01*
X156714667Y-65172781D01*
X156732131Y-65184004D01*
X156856428Y-65220500D01*
X156856432Y-65220500D01*
X156985968Y-65220500D01*
X156985972Y-65220500D01*
X157110269Y-65184004D01*
X157201148Y-65125600D01*
X159564867Y-65125600D01*
X159583303Y-65253826D01*
X159637118Y-65371663D01*
X159667065Y-65406224D01*
X159721949Y-65469566D01*
X159753137Y-65489609D01*
X159799630Y-65543265D01*
X159809734Y-65613539D01*
X159791889Y-65652613D01*
X159823800Y-65600373D01*
X159887690Y-65569413D01*
X159943964Y-65572792D01*
X159955228Y-65576100D01*
X159955232Y-65576100D01*
X160084768Y-65576100D01*
X160084772Y-65576100D01*
X160209069Y-65539604D01*
X160318049Y-65469567D01*
X160402882Y-65371663D01*
X160456697Y-65253826D01*
X160475133Y-65125600D01*
X160456697Y-64997374D01*
X160402882Y-64879537D01*
X160318049Y-64781633D01*
X160318048Y-64781632D01*
X160209073Y-64711598D01*
X160209070Y-64711596D01*
X160209069Y-64711596D01*
X160119872Y-64685406D01*
X160084776Y-64675101D01*
X160084774Y-64675100D01*
X160084772Y-64675100D01*
X159955228Y-64675100D01*
X159955225Y-64675100D01*
X159955223Y-64675101D01*
X159830933Y-64711595D01*
X159830926Y-64711598D01*
X159721951Y-64781632D01*
X159654075Y-64859967D01*
X159637118Y-64879537D01*
X159583303Y-64997374D01*
X159564867Y-65125600D01*
X157201148Y-65125600D01*
X157219249Y-65113967D01*
X157304082Y-65016063D01*
X157357897Y-64898226D01*
X157376333Y-64770000D01*
X157357897Y-64641774D01*
X157304082Y-64523937D01*
X157219249Y-64426033D01*
X157219248Y-64426032D01*
X157110273Y-64355998D01*
X157110270Y-64355996D01*
X157110269Y-64355996D01*
X157105392Y-64354564D01*
X156985976Y-64319501D01*
X156985974Y-64319500D01*
X156985972Y-64319500D01*
X156856428Y-64319500D01*
X156856425Y-64319500D01*
X156856423Y-64319501D01*
X156732133Y-64355995D01*
X156732126Y-64355998D01*
X156623151Y-64426032D01*
X156545195Y-64516000D01*
X156538318Y-64523937D01*
X156484503Y-64641774D01*
X156466067Y-64770000D01*
X148839005Y-64770000D01*
X148845882Y-64762063D01*
X148899697Y-64644226D01*
X148918133Y-64516000D01*
X148899697Y-64387774D01*
X148845882Y-64269937D01*
X148789977Y-64205418D01*
X148761047Y-64172030D01*
X148754241Y-64166133D01*
X148755323Y-64164884D01*
X148715614Y-64119061D01*
X148705508Y-64048787D01*
X148734998Y-63984205D01*
X148794723Y-63945819D01*
X148830226Y-63940714D01*
X167559388Y-63940714D01*
X167560740Y-63940714D01*
X167564858Y-63940848D01*
X167818357Y-63957463D01*
X167826519Y-63958537D01*
X168073670Y-64007699D01*
X168081623Y-64009830D01*
X168320231Y-64090826D01*
X168327849Y-64093982D01*
X168553841Y-64205430D01*
X168560982Y-64209552D01*
X168766076Y-64346592D01*
X168770491Y-64349542D01*
X168777031Y-64354560D01*
X168966478Y-64520702D01*
X168972309Y-64526533D01*
X169138446Y-64715978D01*
X169143466Y-64722521D01*
X169248380Y-64879537D01*
X169283451Y-64932024D01*
X169287576Y-64939169D01*
X169399021Y-65165160D01*
X169402177Y-65172781D01*
X169439447Y-65282574D01*
X169483168Y-65411374D01*
X169483170Y-65411378D01*
X169485304Y-65419343D01*
X169534460Y-65666478D01*
X169534461Y-65666479D01*
X169535536Y-65674648D01*
X169551078Y-65911775D01*
X169552165Y-65928368D01*
X169552300Y-65932489D01*
X169552300Y-75684511D01*
X169551996Y-75690691D01*
X169544801Y-75763738D01*
X169539983Y-75787962D01*
X169490282Y-75951808D01*
X169480829Y-75974629D01*
X169400118Y-76125627D01*
X169386395Y-76146165D01*
X169277779Y-76278514D01*
X169260314Y-76295979D01*
X169127965Y-76404595D01*
X169107427Y-76418318D01*
X168956429Y-76499029D01*
X168933608Y-76508482D01*
X168769762Y-76558183D01*
X168745538Y-76563001D01*
X168565885Y-76580696D01*
X168559706Y-76581000D01*
X160424421Y-76581000D01*
X160356301Y-76560998D01*
X160356227Y-76560950D01*
X160336074Y-76547998D01*
X160336066Y-76547995D01*
X160211776Y-76511501D01*
X160211774Y-76511500D01*
X160211772Y-76511500D01*
X160082228Y-76511500D01*
X160082225Y-76511500D01*
X160082223Y-76511501D01*
X159957933Y-76547995D01*
X159957925Y-76547998D01*
X159937701Y-76560997D01*
X159869580Y-76581000D01*
X150769309Y-76581000D01*
X150701188Y-76560998D01*
X150654695Y-76507342D01*
X150644591Y-76437068D01*
X150674085Y-76372488D01*
X150701189Y-76349002D01*
X150732076Y-76329151D01*
X150793049Y-76289967D01*
X150877882Y-76192063D01*
X150931697Y-76074226D01*
X150950133Y-75946000D01*
X150931697Y-75817774D01*
X150877882Y-75699937D01*
X150793049Y-75602033D01*
X150793048Y-75602032D01*
X150684073Y-75531998D01*
X150684070Y-75531996D01*
X150684069Y-75531996D01*
X150684066Y-75531995D01*
X150559776Y-75495501D01*
X150559774Y-75495500D01*
X150559772Y-75495500D01*
X150430228Y-75495500D01*
X150430225Y-75495500D01*
X150430223Y-75495501D01*
X150305933Y-75531995D01*
X150305926Y-75531998D01*
X150196951Y-75602032D01*
X150120131Y-75690689D01*
X150112118Y-75699937D01*
X150058303Y-75817774D01*
X150039867Y-75946000D01*
X150058303Y-76074226D01*
X150112118Y-76192063D01*
X150179215Y-76269498D01*
X150196951Y-76289967D01*
X150288811Y-76349002D01*
X150335304Y-76402657D01*
X150345409Y-76472931D01*
X150315916Y-76537512D01*
X150256190Y-76575896D01*
X150220691Y-76581000D01*
X138958309Y-76581000D01*
X138890188Y-76560998D01*
X138843695Y-76507342D01*
X138833591Y-76437068D01*
X138863085Y-76372488D01*
X138890189Y-76349002D01*
X138921076Y-76329151D01*
X138982049Y-76289967D01*
X139066882Y-76192063D01*
X139120697Y-76074226D01*
X139139133Y-75946000D01*
X139120697Y-75817774D01*
X139066882Y-75699937D01*
X139060005Y-75692000D01*
X145467867Y-75692000D01*
X145486303Y-75820226D01*
X145540118Y-75938063D01*
X145624951Y-76035967D01*
X145733931Y-76106004D01*
X145858228Y-76142500D01*
X145858232Y-76142500D01*
X145987768Y-76142500D01*
X145987772Y-76142500D01*
X146112069Y-76106004D01*
X146221049Y-76035967D01*
X146305882Y-75938063D01*
X146359697Y-75820226D01*
X146378133Y-75692000D01*
X146359697Y-75563774D01*
X146305882Y-75445937D01*
X146221049Y-75348033D01*
X146221048Y-75348032D01*
X146112073Y-75277998D01*
X146112070Y-75277996D01*
X146112069Y-75277996D01*
X146003861Y-75246224D01*
X145987776Y-75241501D01*
X145987774Y-75241500D01*
X145987772Y-75241500D01*
X145858228Y-75241500D01*
X145858225Y-75241500D01*
X145858223Y-75241501D01*
X145733933Y-75277995D01*
X145733926Y-75277998D01*
X145624951Y-75348032D01*
X145553873Y-75430063D01*
X145540118Y-75445937D01*
X145486303Y-75563774D01*
X145467867Y-75692000D01*
X139060005Y-75692000D01*
X138982049Y-75602033D01*
X138982048Y-75602032D01*
X138873073Y-75531998D01*
X138873070Y-75531996D01*
X138873069Y-75531996D01*
X138873066Y-75531995D01*
X138748776Y-75495501D01*
X138748774Y-75495500D01*
X138748772Y-75495500D01*
X138619228Y-75495500D01*
X138619225Y-75495500D01*
X138619223Y-75495501D01*
X138494933Y-75531995D01*
X138494926Y-75531998D01*
X138385951Y-75602032D01*
X138309131Y-75690689D01*
X138301118Y-75699937D01*
X138247303Y-75817774D01*
X138228867Y-75946000D01*
X138247303Y-76074226D01*
X138301118Y-76192063D01*
X138368215Y-76269498D01*
X138385951Y-76289967D01*
X138477811Y-76349002D01*
X138524304Y-76402657D01*
X138534409Y-76472931D01*
X138504916Y-76537512D01*
X138445190Y-76575896D01*
X138409691Y-76581000D01*
X129182421Y-76581000D01*
X129114301Y-76560998D01*
X129114227Y-76560950D01*
X129094074Y-76547998D01*
X129094066Y-76547995D01*
X128969776Y-76511501D01*
X128969774Y-76511500D01*
X128969772Y-76511500D01*
X128840228Y-76511500D01*
X128840225Y-76511500D01*
X128840223Y-76511501D01*
X128715933Y-76547995D01*
X128715925Y-76547998D01*
X128695701Y-76560997D01*
X128627580Y-76581000D01*
X127457894Y-76581000D01*
X127451715Y-76580696D01*
X127272061Y-76563001D01*
X127247837Y-76558183D01*
X127083991Y-76508482D01*
X127061172Y-76499030D01*
X126945250Y-76437068D01*
X126910172Y-76418318D01*
X126889634Y-76404595D01*
X126757285Y-76295979D01*
X126739820Y-76278514D01*
X126631202Y-76146162D01*
X126617481Y-76125627D01*
X126585108Y-76065062D01*
X126536767Y-75974622D01*
X126527320Y-75951815D01*
X126487031Y-75819000D01*
X135561867Y-75819000D01*
X135580303Y-75947226D01*
X135634118Y-76065063D01*
X135718951Y-76162967D01*
X135827931Y-76233004D01*
X135952228Y-76269500D01*
X135952232Y-76269500D01*
X136081768Y-76269500D01*
X136081772Y-76269500D01*
X136206069Y-76233004D01*
X136315049Y-76162967D01*
X136399882Y-76065063D01*
X136453697Y-75947226D01*
X136472133Y-75819000D01*
X136472132Y-75818997D01*
X136472133Y-75818996D01*
X136456811Y-75712432D01*
X136466914Y-75642158D01*
X136513407Y-75588502D01*
X136581528Y-75568500D01*
X136589768Y-75568500D01*
X136589772Y-75568500D01*
X136714069Y-75532004D01*
X136823049Y-75461967D01*
X136907882Y-75364063D01*
X136961697Y-75246226D01*
X136970644Y-75184000D01*
X147499867Y-75184000D01*
X147518303Y-75312226D01*
X147572118Y-75430063D01*
X147639215Y-75507498D01*
X147656951Y-75527967D01*
X147751145Y-75588502D01*
X147765931Y-75598004D01*
X147890228Y-75634500D01*
X147890232Y-75634500D01*
X148019768Y-75634500D01*
X148019772Y-75634500D01*
X148144069Y-75598004D01*
X148253049Y-75527967D01*
X148337882Y-75430063D01*
X148391697Y-75312226D01*
X148410133Y-75184000D01*
X148391873Y-75057000D01*
X151436867Y-75057000D01*
X151455303Y-75185226D01*
X151509118Y-75303063D01*
X151593951Y-75400967D01*
X151702931Y-75471004D01*
X151827228Y-75507500D01*
X151827232Y-75507500D01*
X151956768Y-75507500D01*
X151956772Y-75507500D01*
X152081069Y-75471004D01*
X152190049Y-75400967D01*
X152274882Y-75303063D01*
X152328697Y-75185226D01*
X152335593Y-75137259D01*
X152365084Y-75072682D01*
X152424810Y-75034297D01*
X152495807Y-75034296D01*
X152528430Y-75049195D01*
X152564977Y-75072682D01*
X152591931Y-75090004D01*
X152716228Y-75126500D01*
X152716232Y-75126500D01*
X152845768Y-75126500D01*
X152845772Y-75126500D01*
X152970069Y-75090004D01*
X153079049Y-75019967D01*
X153163882Y-74922063D01*
X153217697Y-74804226D01*
X153236133Y-74676000D01*
X153217697Y-74547774D01*
X153163882Y-74429937D01*
X153079049Y-74332033D01*
X153079048Y-74332032D01*
X152970073Y-74261998D01*
X152970070Y-74261996D01*
X152970069Y-74261996D01*
X152970066Y-74261995D01*
X152845776Y-74225501D01*
X152845774Y-74225500D01*
X152845772Y-74225500D01*
X152716228Y-74225500D01*
X152716225Y-74225500D01*
X152716223Y-74225501D01*
X152591933Y-74261995D01*
X152591926Y-74261998D01*
X152482951Y-74332032D01*
X152398118Y-74429937D01*
X152344302Y-74547776D01*
X152344301Y-74547780D01*
X152337406Y-74595738D01*
X152307913Y-74660319D01*
X152248187Y-74698702D01*
X152177190Y-74698702D01*
X152144569Y-74683805D01*
X152132424Y-74676000D01*
X152081069Y-74642996D01*
X152081066Y-74642995D01*
X151956776Y-74606501D01*
X151956774Y-74606500D01*
X151956772Y-74606500D01*
X151827228Y-74606500D01*
X151827225Y-74606500D01*
X151827223Y-74606501D01*
X151702933Y-74642995D01*
X151702926Y-74642998D01*
X151593951Y-74713032D01*
X151522873Y-74795063D01*
X151509118Y-74810937D01*
X151455303Y-74928774D01*
X151436867Y-75057000D01*
X148391873Y-75057000D01*
X148391697Y-75055774D01*
X148337882Y-74937937D01*
X148253049Y-74840033D01*
X148253048Y-74840032D01*
X148144073Y-74769998D01*
X148144070Y-74769996D01*
X148144069Y-74769996D01*
X148144066Y-74769995D01*
X148019776Y-74733501D01*
X148019774Y-74733500D01*
X148019772Y-74733500D01*
X147890228Y-74733500D01*
X147890225Y-74733500D01*
X147890223Y-74733501D01*
X147765933Y-74769995D01*
X147765926Y-74769998D01*
X147656951Y-74840032D01*
X147585873Y-74922063D01*
X147572118Y-74937937D01*
X147518303Y-75055774D01*
X147499867Y-75184000D01*
X136970644Y-75184000D01*
X136980133Y-75118000D01*
X136961697Y-74989774D01*
X136907882Y-74871937D01*
X136823049Y-74774033D01*
X136823048Y-74774032D01*
X136714073Y-74703998D01*
X136714070Y-74703996D01*
X136714069Y-74703996D01*
X136696039Y-74698702D01*
X136589776Y-74667501D01*
X136589774Y-74667500D01*
X136589772Y-74667500D01*
X136460228Y-74667500D01*
X136460225Y-74667500D01*
X136460223Y-74667501D01*
X136335933Y-74703995D01*
X136335926Y-74703998D01*
X136226951Y-74774032D01*
X136142118Y-74871937D01*
X136088303Y-74989774D01*
X136073893Y-75090004D01*
X136069867Y-75118003D01*
X136085189Y-75224568D01*
X136075086Y-75294842D01*
X136028593Y-75348498D01*
X135960472Y-75368500D01*
X135952228Y-75368500D01*
X135952225Y-75368500D01*
X135952223Y-75368501D01*
X135827933Y-75404995D01*
X135827926Y-75404998D01*
X135718951Y-75475032D01*
X135642058Y-75563774D01*
X135634118Y-75572937D01*
X135580303Y-75690774D01*
X135561867Y-75819000D01*
X126487031Y-75819000D01*
X126477615Y-75787959D01*
X126472798Y-75763737D01*
X126465604Y-75690689D01*
X126465300Y-75684511D01*
X126465300Y-75118000D01*
X134037867Y-75118000D01*
X134056303Y-75246226D01*
X134110118Y-75364063D01*
X134181061Y-75445937D01*
X134194951Y-75461967D01*
X134303921Y-75531998D01*
X134303931Y-75532004D01*
X134428228Y-75568500D01*
X134428232Y-75568500D01*
X134557768Y-75568500D01*
X134557772Y-75568500D01*
X134682069Y-75532004D01*
X134791049Y-75461967D01*
X134875882Y-75364063D01*
X134929697Y-75246226D01*
X134948133Y-75118000D01*
X134929697Y-74989774D01*
X134875882Y-74871937D01*
X134791049Y-74774033D01*
X134791048Y-74774032D01*
X134682073Y-74703998D01*
X134682070Y-74703996D01*
X134682069Y-74703996D01*
X134664039Y-74698702D01*
X134557776Y-74667501D01*
X134557774Y-74667500D01*
X134557772Y-74667500D01*
X134428228Y-74667500D01*
X134428225Y-74667500D01*
X134428223Y-74667501D01*
X134303933Y-74703995D01*
X134303926Y-74703998D01*
X134194951Y-74774032D01*
X134110118Y-74871937D01*
X134056303Y-74989774D01*
X134037867Y-75118000D01*
X126465300Y-75118000D01*
X126465300Y-74549000D01*
X149404867Y-74549000D01*
X149423303Y-74677226D01*
X149477118Y-74795063D01*
X149561951Y-74892967D01*
X149670931Y-74963004D01*
X149795228Y-74999500D01*
X149795232Y-74999500D01*
X149924768Y-74999500D01*
X149924772Y-74999500D01*
X150049069Y-74963004D01*
X150158049Y-74892967D01*
X150242882Y-74795063D01*
X150296697Y-74677226D01*
X150315133Y-74549000D01*
X150296697Y-74420774D01*
X150242882Y-74302937D01*
X150158049Y-74205033D01*
X150158048Y-74205032D01*
X150100425Y-74168000D01*
X156474867Y-74168000D01*
X156493303Y-74296226D01*
X156547118Y-74414063D01*
X156614215Y-74491498D01*
X156631951Y-74511967D01*
X156689575Y-74549000D01*
X156740931Y-74582004D01*
X156865228Y-74618500D01*
X156865232Y-74618500D01*
X156994768Y-74618500D01*
X156994772Y-74618500D01*
X157119069Y-74582004D01*
X157228049Y-74511967D01*
X157312882Y-74414063D01*
X157366697Y-74296226D01*
X157366873Y-74295000D01*
X164136867Y-74295000D01*
X164155303Y-74423226D01*
X164209118Y-74541063D01*
X164276215Y-74618498D01*
X164293951Y-74638967D01*
X164386900Y-74698702D01*
X164402931Y-74709004D01*
X164527228Y-74745500D01*
X164527232Y-74745500D01*
X164656768Y-74745500D01*
X164656772Y-74745500D01*
X164781069Y-74709004D01*
X164832424Y-74676000D01*
X167184867Y-74676000D01*
X167203303Y-74804226D01*
X167257118Y-74922063D01*
X167315789Y-74989774D01*
X167341951Y-75019967D01*
X167399575Y-75057000D01*
X167450931Y-75090004D01*
X167575228Y-75126500D01*
X167575232Y-75126500D01*
X167704768Y-75126500D01*
X167704772Y-75126500D01*
X167829069Y-75090004D01*
X167938049Y-75019967D01*
X168022882Y-74922063D01*
X168076697Y-74804226D01*
X168095133Y-74676000D01*
X168076697Y-74547774D01*
X168022882Y-74429937D01*
X167938049Y-74332033D01*
X167938048Y-74332032D01*
X167829073Y-74261998D01*
X167829070Y-74261996D01*
X167829069Y-74261996D01*
X167829066Y-74261995D01*
X167704776Y-74225501D01*
X167704774Y-74225500D01*
X167704772Y-74225500D01*
X167575228Y-74225500D01*
X167575225Y-74225500D01*
X167575223Y-74225501D01*
X167450933Y-74261995D01*
X167450926Y-74261998D01*
X167341951Y-74332032D01*
X167270873Y-74414063D01*
X167257118Y-74429937D01*
X167203303Y-74547774D01*
X167184867Y-74676000D01*
X164832424Y-74676000D01*
X164890049Y-74638967D01*
X164974882Y-74541063D01*
X165028697Y-74423226D01*
X165047133Y-74295000D01*
X165028697Y-74166774D01*
X164974882Y-74048937D01*
X164890049Y-73951033D01*
X164890048Y-73951032D01*
X164781073Y-73880998D01*
X164781070Y-73880996D01*
X164781069Y-73880996D01*
X164781066Y-73880995D01*
X164656776Y-73844501D01*
X164656774Y-73844500D01*
X164656772Y-73844500D01*
X164527228Y-73844500D01*
X164527225Y-73844500D01*
X164527223Y-73844501D01*
X164402933Y-73880995D01*
X164402926Y-73880998D01*
X164293951Y-73951032D01*
X164248084Y-74003967D01*
X164209118Y-74048937D01*
X164155303Y-74166774D01*
X164136867Y-74295000D01*
X157366873Y-74295000D01*
X157385133Y-74168000D01*
X157366697Y-74039774D01*
X157312882Y-73921937D01*
X157228049Y-73824033D01*
X157228048Y-73824032D01*
X157119073Y-73753998D01*
X157119070Y-73753996D01*
X157119069Y-73753996D01*
X157119066Y-73753995D01*
X156994776Y-73717501D01*
X156994774Y-73717500D01*
X156994772Y-73717500D01*
X156865228Y-73717500D01*
X156865225Y-73717500D01*
X156865223Y-73717501D01*
X156740933Y-73753995D01*
X156740926Y-73753998D01*
X156631951Y-73824032D01*
X156560873Y-73906063D01*
X156547118Y-73921937D01*
X156493303Y-74039774D01*
X156474867Y-74168000D01*
X150100425Y-74168000D01*
X150049073Y-74134998D01*
X150049070Y-74134996D01*
X150049069Y-74134996D01*
X150049066Y-74134995D01*
X149924776Y-74098501D01*
X149924774Y-74098500D01*
X149924772Y-74098500D01*
X149795228Y-74098500D01*
X149795225Y-74098500D01*
X149795223Y-74098501D01*
X149670933Y-74134995D01*
X149670926Y-74134998D01*
X149561951Y-74205032D01*
X149490873Y-74287063D01*
X149477118Y-74302937D01*
X149423303Y-74420774D01*
X149404867Y-74549000D01*
X126465300Y-74549000D01*
X126465300Y-74041000D01*
X135434867Y-74041000D01*
X135453303Y-74169226D01*
X135507118Y-74287063D01*
X135591951Y-74384967D01*
X135700931Y-74455004D01*
X135825228Y-74491500D01*
X135825232Y-74491500D01*
X135954768Y-74491500D01*
X135954772Y-74491500D01*
X136079069Y-74455004D01*
X136188049Y-74384967D01*
X136272882Y-74287063D01*
X136326697Y-74169226D01*
X136345133Y-74041000D01*
X136326697Y-73912774D01*
X136272882Y-73794937D01*
X136188049Y-73697033D01*
X136188048Y-73697032D01*
X136130425Y-73660000D01*
X140768867Y-73660000D01*
X140787303Y-73788226D01*
X140841118Y-73906063D01*
X140908215Y-73983498D01*
X140925951Y-74003967D01*
X140983575Y-74041000D01*
X141034931Y-74074004D01*
X141159228Y-74110500D01*
X141159232Y-74110500D01*
X141288768Y-74110500D01*
X141288772Y-74110500D01*
X141413069Y-74074004D01*
X141522049Y-74003967D01*
X141606882Y-73906063D01*
X141660697Y-73788226D01*
X141679133Y-73660000D01*
X141660873Y-73533000D01*
X143181867Y-73533000D01*
X143200303Y-73661226D01*
X143254118Y-73779063D01*
X143338951Y-73876967D01*
X143447931Y-73947004D01*
X143572228Y-73983500D01*
X143572232Y-73983500D01*
X143701768Y-73983500D01*
X143701772Y-73983500D01*
X143826069Y-73947004D01*
X143935049Y-73876967D01*
X144019882Y-73779063D01*
X144073697Y-73661226D01*
X144073873Y-73660000D01*
X148388867Y-73660000D01*
X148407303Y-73788226D01*
X148461118Y-73906063D01*
X148528215Y-73983498D01*
X148545951Y-74003967D01*
X148603575Y-74041000D01*
X148654931Y-74074004D01*
X148779228Y-74110500D01*
X148779232Y-74110500D01*
X148908768Y-74110500D01*
X148908772Y-74110500D01*
X149033069Y-74074004D01*
X149142049Y-74003967D01*
X149226882Y-73906063D01*
X149280697Y-73788226D01*
X149299133Y-73660000D01*
X149280697Y-73531774D01*
X149226882Y-73413937D01*
X149142049Y-73316033D01*
X149142048Y-73316032D01*
X149033073Y-73245998D01*
X149033070Y-73245996D01*
X149033069Y-73245996D01*
X149007308Y-73238432D01*
X148908776Y-73209501D01*
X148908774Y-73209500D01*
X148908772Y-73209500D01*
X148779228Y-73209500D01*
X148779225Y-73209500D01*
X148779223Y-73209501D01*
X148654933Y-73245995D01*
X148654926Y-73245998D01*
X148545951Y-73316032D01*
X148474873Y-73398063D01*
X148461118Y-73413937D01*
X148407303Y-73531774D01*
X148388867Y-73660000D01*
X144073873Y-73660000D01*
X144092133Y-73533000D01*
X144073697Y-73404774D01*
X144019882Y-73286937D01*
X143935049Y-73189033D01*
X143935048Y-73189032D01*
X143826073Y-73118998D01*
X143826070Y-73118996D01*
X143826069Y-73118996D01*
X143826066Y-73118995D01*
X143701776Y-73082501D01*
X143701774Y-73082500D01*
X143701772Y-73082500D01*
X143572228Y-73082500D01*
X143572225Y-73082500D01*
X143572223Y-73082501D01*
X143447933Y-73118995D01*
X143447926Y-73118998D01*
X143338951Y-73189032D01*
X143296147Y-73238432D01*
X143254118Y-73286937D01*
X143200303Y-73404774D01*
X143181867Y-73533000D01*
X141660873Y-73533000D01*
X141660697Y-73531774D01*
X141606882Y-73413937D01*
X141522049Y-73316033D01*
X141522048Y-73316032D01*
X141413073Y-73245998D01*
X141413070Y-73245996D01*
X141413069Y-73245996D01*
X141387308Y-73238432D01*
X141288776Y-73209501D01*
X141288774Y-73209500D01*
X141288772Y-73209500D01*
X141159228Y-73209500D01*
X141159225Y-73209500D01*
X141159223Y-73209501D01*
X141034933Y-73245995D01*
X141034926Y-73245998D01*
X140925951Y-73316032D01*
X140854873Y-73398063D01*
X140841118Y-73413937D01*
X140787303Y-73531774D01*
X140768867Y-73660000D01*
X136130425Y-73660000D01*
X136079073Y-73626998D01*
X136079070Y-73626996D01*
X136079069Y-73626996D01*
X136079066Y-73626995D01*
X135954776Y-73590501D01*
X135954774Y-73590500D01*
X135954772Y-73590500D01*
X135825228Y-73590500D01*
X135825225Y-73590500D01*
X135825223Y-73590501D01*
X135700933Y-73626995D01*
X135700926Y-73626998D01*
X135591951Y-73697032D01*
X135520873Y-73779063D01*
X135507118Y-73794937D01*
X135453303Y-73912774D01*
X135434867Y-74041000D01*
X126465300Y-74041000D01*
X126465300Y-73152000D01*
X138990867Y-73152000D01*
X139009303Y-73280226D01*
X139063118Y-73398063D01*
X139076873Y-73413937D01*
X139147951Y-73495967D01*
X139205575Y-73533000D01*
X139256931Y-73566004D01*
X139381228Y-73602500D01*
X139381232Y-73602500D01*
X139510768Y-73602500D01*
X139510772Y-73602500D01*
X139635069Y-73566004D01*
X139744049Y-73495967D01*
X139828882Y-73398063D01*
X139882697Y-73280226D01*
X139901133Y-73152000D01*
X139882697Y-73023774D01*
X139828882Y-72905937D01*
X139744049Y-72808033D01*
X139744048Y-72808032D01*
X139635073Y-72737998D01*
X139635070Y-72737996D01*
X139635069Y-72737996D01*
X139635066Y-72737995D01*
X139510776Y-72701501D01*
X139510774Y-72701500D01*
X139510772Y-72701500D01*
X139381228Y-72701500D01*
X139381225Y-72701500D01*
X139381223Y-72701501D01*
X139256933Y-72737995D01*
X139256926Y-72737998D01*
X139147951Y-72808032D01*
X139076873Y-72890063D01*
X139063118Y-72905937D01*
X139009303Y-73023774D01*
X138990867Y-73152000D01*
X126465300Y-73152000D01*
X126465300Y-72644000D01*
X135434867Y-72644000D01*
X135453303Y-72772226D01*
X135507118Y-72890063D01*
X135591951Y-72987967D01*
X135700931Y-73058004D01*
X135825228Y-73094500D01*
X135825232Y-73094500D01*
X135954768Y-73094500D01*
X135954772Y-73094500D01*
X136079069Y-73058004D01*
X136188049Y-72987967D01*
X136272882Y-72890063D01*
X136326697Y-72772226D01*
X136345133Y-72644000D01*
X136340820Y-72614000D01*
X151472867Y-72614000D01*
X151491303Y-72742226D01*
X151545118Y-72860063D01*
X151606585Y-72931001D01*
X151629951Y-72957967D01*
X151732350Y-73023775D01*
X151738931Y-73028004D01*
X151863228Y-73064500D01*
X151863232Y-73064500D01*
X151992768Y-73064500D01*
X151992772Y-73064500D01*
X152117069Y-73028004D01*
X152226049Y-72957967D01*
X152310882Y-72860063D01*
X152364697Y-72742226D01*
X152383133Y-72614000D01*
X152364697Y-72485774D01*
X152310882Y-72367937D01*
X152226049Y-72270033D01*
X152226048Y-72270032D01*
X152117073Y-72199998D01*
X152117070Y-72199996D01*
X152117069Y-72199996D01*
X152094949Y-72193501D01*
X151992776Y-72163501D01*
X151992774Y-72163500D01*
X151992772Y-72163500D01*
X151863228Y-72163500D01*
X151863225Y-72163500D01*
X151863223Y-72163501D01*
X151738933Y-72199995D01*
X151738926Y-72199998D01*
X151629951Y-72270032D01*
X151545118Y-72367937D01*
X151491303Y-72485774D01*
X151472867Y-72614000D01*
X136340820Y-72614000D01*
X136326697Y-72515774D01*
X136272882Y-72397937D01*
X136272880Y-72397935D01*
X136269138Y-72389740D01*
X136270835Y-72388964D01*
X136253962Y-72331503D01*
X136273962Y-72263382D01*
X136327617Y-72216888D01*
X136379962Y-72205500D01*
X136462768Y-72205500D01*
X136462772Y-72205500D01*
X136587069Y-72169004D01*
X136638424Y-72136000D01*
X142546867Y-72136000D01*
X142565303Y-72264226D01*
X142619118Y-72382063D01*
X142686215Y-72459498D01*
X142703951Y-72479967D01*
X142761575Y-72517000D01*
X142812931Y-72550004D01*
X142937228Y-72586500D01*
X142937232Y-72586500D01*
X143066768Y-72586500D01*
X143066772Y-72586500D01*
X143191069Y-72550004D01*
X143300049Y-72479967D01*
X143384882Y-72382063D01*
X143438697Y-72264226D01*
X143457133Y-72136000D01*
X143438697Y-72007774D01*
X143384882Y-71889937D01*
X143300049Y-71792033D01*
X143300048Y-71792032D01*
X143191073Y-71721998D01*
X143191070Y-71721996D01*
X143191069Y-71721996D01*
X143191066Y-71721995D01*
X143066776Y-71685501D01*
X143066774Y-71685500D01*
X143066772Y-71685500D01*
X142937228Y-71685500D01*
X142937225Y-71685500D01*
X142937223Y-71685501D01*
X142812933Y-71721995D01*
X142812926Y-71721998D01*
X142703951Y-71792032D01*
X142674660Y-71825837D01*
X142619118Y-71889937D01*
X142565303Y-72007774D01*
X142546867Y-72136000D01*
X136638424Y-72136000D01*
X136696049Y-72098967D01*
X136780882Y-72001063D01*
X136834697Y-71883226D01*
X136853133Y-71755000D01*
X136834697Y-71626774D01*
X136780882Y-71508937D01*
X136702018Y-71417922D01*
X150189500Y-71417922D01*
X150189501Y-71417940D01*
X150204927Y-71540053D01*
X150204929Y-71540058D01*
X150265429Y-71692866D01*
X150265433Y-71692873D01*
X150362035Y-71825835D01*
X150362036Y-71825836D01*
X150362037Y-71825837D01*
X150488674Y-71930600D01*
X150637387Y-72000579D01*
X150637389Y-72000579D01*
X150637390Y-72000580D01*
X150798823Y-72031375D01*
X150798826Y-72031375D01*
X150798830Y-72031376D01*
X150798832Y-72031375D01*
X150798834Y-72031376D01*
X150880845Y-72026216D01*
X150962860Y-72021056D01*
X150962861Y-72021056D01*
X151041015Y-71995662D01*
X151119171Y-71970268D01*
X151245752Y-71889937D01*
X151257939Y-71882203D01*
X151310872Y-71825835D01*
X151370448Y-71762393D01*
X151449627Y-71618368D01*
X151455628Y-71594998D01*
X151490498Y-71459184D01*
X151490500Y-71459177D01*
X151490500Y-70552418D01*
X151510502Y-70484297D01*
X151564158Y-70437804D01*
X151634432Y-70427700D01*
X151699012Y-70457194D01*
X151732907Y-70504198D01*
X151752881Y-70552418D01*
X151767301Y-70587231D01*
X151767306Y-70587239D01*
X151859548Y-70707451D01*
X151979760Y-70799693D01*
X151979767Y-70799698D01*
X152119764Y-70857687D01*
X152232280Y-70872500D01*
X152232287Y-70872500D01*
X152307713Y-70872500D01*
X152307720Y-70872500D01*
X152420236Y-70857687D01*
X152560233Y-70799698D01*
X152680451Y-70707451D01*
X152772698Y-70587233D01*
X152830687Y-70447236D01*
X152850466Y-70297000D01*
X152841777Y-70231000D01*
X153595867Y-70231000D01*
X153614303Y-70359226D01*
X153668118Y-70477063D01*
X153752951Y-70574967D01*
X153861931Y-70645004D01*
X153986228Y-70681500D01*
X153986232Y-70681500D01*
X154115768Y-70681500D01*
X154115772Y-70681500D01*
X154240069Y-70645004D01*
X154349049Y-70574967D01*
X154433882Y-70477063D01*
X154487697Y-70359226D01*
X154506133Y-70231000D01*
X155754867Y-70231000D01*
X155773303Y-70359226D01*
X155827118Y-70477063D01*
X155911951Y-70574967D01*
X156020931Y-70645004D01*
X156145228Y-70681500D01*
X156145232Y-70681500D01*
X156274768Y-70681500D01*
X156274772Y-70681500D01*
X156399069Y-70645004D01*
X156508049Y-70574967D01*
X156592882Y-70477063D01*
X156646697Y-70359226D01*
X156655644Y-70297000D01*
X157469534Y-70297000D01*
X157489312Y-70447234D01*
X157547301Y-70587231D01*
X157547306Y-70587239D01*
X157639548Y-70707451D01*
X157759760Y-70799693D01*
X157759767Y-70799698D01*
X157899764Y-70857687D01*
X158012280Y-70872500D01*
X158012287Y-70872500D01*
X158087713Y-70872500D01*
X158087720Y-70872500D01*
X158200236Y-70857687D01*
X158340233Y-70799698D01*
X158460451Y-70707451D01*
X158552698Y-70587233D01*
X158587092Y-70504198D01*
X158631639Y-70448919D01*
X158699003Y-70426498D01*
X158767794Y-70444056D01*
X158816172Y-70496018D01*
X158829500Y-70552418D01*
X158829500Y-71417922D01*
X158829501Y-71417940D01*
X158844927Y-71540053D01*
X158844929Y-71540058D01*
X158905429Y-71692866D01*
X158905433Y-71692873D01*
X159002035Y-71825835D01*
X159002036Y-71825836D01*
X159002037Y-71825837D01*
X159128674Y-71930600D01*
X159277387Y-72000579D01*
X159277391Y-72000579D01*
X159278191Y-72000956D01*
X159331313Y-72048059D01*
X159350536Y-72116404D01*
X159329757Y-72184292D01*
X159319770Y-72197475D01*
X159256119Y-72270934D01*
X159251244Y-72278521D01*
X159249617Y-72277475D01*
X159210547Y-72322557D01*
X159142425Y-72342553D01*
X159074306Y-72322545D01*
X159054981Y-72305799D01*
X159054863Y-72305936D01*
X159048051Y-72300033D01*
X158939073Y-72229998D01*
X158939070Y-72229996D01*
X158939069Y-72229996D01*
X158939066Y-72229995D01*
X158814776Y-72193501D01*
X158814774Y-72193500D01*
X158814772Y-72193500D01*
X158685228Y-72193500D01*
X158685225Y-72193500D01*
X158685223Y-72193501D01*
X158560933Y-72229995D01*
X158560926Y-72229998D01*
X158451951Y-72300032D01*
X158380873Y-72382063D01*
X158367118Y-72397937D01*
X158313303Y-72515774D01*
X158294867Y-72644000D01*
X158313303Y-72772226D01*
X158367118Y-72890063D01*
X158451951Y-72987967D01*
X158560931Y-73058004D01*
X158685228Y-73094500D01*
X158685232Y-73094500D01*
X158750794Y-73094500D01*
X158818915Y-73114502D01*
X158865408Y-73168158D01*
X158875512Y-73238432D01*
X158846018Y-73303012D01*
X158833305Y-73315726D01*
X158832950Y-73316033D01*
X158761873Y-73398063D01*
X158748118Y-73413937D01*
X158694303Y-73531774D01*
X158675867Y-73660000D01*
X158694303Y-73788226D01*
X158748118Y-73906063D01*
X158815215Y-73983498D01*
X158832951Y-74003967D01*
X158890575Y-74041000D01*
X158941931Y-74074004D01*
X159066228Y-74110500D01*
X159066232Y-74110500D01*
X159195768Y-74110500D01*
X159195772Y-74110500D01*
X159320069Y-74074004D01*
X159429049Y-74003967D01*
X159513882Y-73906063D01*
X159567697Y-73788226D01*
X159586133Y-73660000D01*
X160580867Y-73660000D01*
X160599303Y-73788226D01*
X160653118Y-73906063D01*
X160720215Y-73983498D01*
X160737951Y-74003967D01*
X160795575Y-74041000D01*
X160846931Y-74074004D01*
X160971228Y-74110500D01*
X160971232Y-74110500D01*
X161100768Y-74110500D01*
X161100772Y-74110500D01*
X161225069Y-74074004D01*
X161334049Y-74003967D01*
X161418882Y-73906063D01*
X161472697Y-73788226D01*
X161491133Y-73660000D01*
X161472697Y-73531774D01*
X161418882Y-73413937D01*
X161334049Y-73316033D01*
X161334048Y-73316032D01*
X161225073Y-73245998D01*
X161225070Y-73245996D01*
X161225069Y-73245996D01*
X161199308Y-73238432D01*
X161100776Y-73209501D01*
X161100774Y-73209500D01*
X161100772Y-73209500D01*
X160971228Y-73209500D01*
X160971225Y-73209500D01*
X160971223Y-73209501D01*
X160846933Y-73245995D01*
X160846926Y-73245998D01*
X160737951Y-73316032D01*
X160666873Y-73398063D01*
X160653118Y-73413937D01*
X160599303Y-73531774D01*
X160580867Y-73660000D01*
X159586133Y-73660000D01*
X159567697Y-73531774D01*
X159513882Y-73413937D01*
X159429049Y-73316033D01*
X159429048Y-73316032D01*
X159320073Y-73245998D01*
X159320070Y-73245996D01*
X159320069Y-73245996D01*
X159294308Y-73238432D01*
X159195776Y-73209501D01*
X159195774Y-73209500D01*
X159195772Y-73209500D01*
X159130206Y-73209500D01*
X159062085Y-73189498D01*
X159015592Y-73135842D01*
X159005488Y-73065568D01*
X159034982Y-73000988D01*
X159047695Y-72988274D01*
X159048044Y-72987969D01*
X159048049Y-72987967D01*
X159132882Y-72890063D01*
X159132884Y-72890058D01*
X159137756Y-72882479D01*
X159139385Y-72883526D01*
X159178431Y-72838455D01*
X159246549Y-72818446D01*
X159314672Y-72838441D01*
X159334017Y-72855201D01*
X159334137Y-72855064D01*
X159340948Y-72860966D01*
X159449926Y-72931001D01*
X159449931Y-72931004D01*
X159574228Y-72967500D01*
X159574232Y-72967500D01*
X159703768Y-72967500D01*
X159703772Y-72967500D01*
X159828069Y-72931004D01*
X159937049Y-72860967D01*
X160015005Y-72771000D01*
X161977867Y-72771000D01*
X161996303Y-72899226D01*
X162050118Y-73017063D01*
X162117215Y-73094498D01*
X162134951Y-73114967D01*
X162192575Y-73152000D01*
X162243931Y-73185004D01*
X162368228Y-73221500D01*
X162368232Y-73221500D01*
X162497768Y-73221500D01*
X162497772Y-73221500D01*
X162622069Y-73185004D01*
X162731049Y-73114967D01*
X162815882Y-73017063D01*
X162869697Y-72899226D01*
X162888133Y-72771000D01*
X162869697Y-72642774D01*
X162815882Y-72524937D01*
X162731049Y-72427033D01*
X162731048Y-72427032D01*
X162622073Y-72356998D01*
X162622070Y-72356996D01*
X162622069Y-72356996D01*
X162622066Y-72356995D01*
X162497776Y-72320501D01*
X162497774Y-72320500D01*
X162497772Y-72320500D01*
X162368228Y-72320500D01*
X162368225Y-72320500D01*
X162368223Y-72320501D01*
X162243933Y-72356995D01*
X162243926Y-72356998D01*
X162134951Y-72427032D01*
X162058058Y-72515774D01*
X162050118Y-72524937D01*
X161996303Y-72642774D01*
X161977867Y-72771000D01*
X160015005Y-72771000D01*
X160021882Y-72763063D01*
X160075697Y-72645226D01*
X160094133Y-72517000D01*
X160075697Y-72388774D01*
X160021882Y-72270937D01*
X159937049Y-72173033D01*
X159937048Y-72173032D01*
X159855899Y-72120881D01*
X159809406Y-72067226D01*
X159801033Y-72009000D01*
X163755867Y-72009000D01*
X163774303Y-72137226D01*
X163828118Y-72255063D01*
X163886591Y-72322545D01*
X163912951Y-72352967D01*
X163968963Y-72388964D01*
X164021931Y-72423004D01*
X164146228Y-72459500D01*
X164146232Y-72459500D01*
X164275768Y-72459500D01*
X164275772Y-72459500D01*
X164400069Y-72423004D01*
X164509049Y-72352967D01*
X164593882Y-72255063D01*
X164647697Y-72137226D01*
X164666133Y-72009000D01*
X164647697Y-71880774D01*
X164593882Y-71762937D01*
X164509049Y-71665033D01*
X164509048Y-71665032D01*
X164400073Y-71594998D01*
X164400070Y-71594996D01*
X164400069Y-71594996D01*
X164400066Y-71594995D01*
X164275776Y-71558501D01*
X164275774Y-71558500D01*
X164275772Y-71558500D01*
X164146228Y-71558500D01*
X164146225Y-71558500D01*
X164146223Y-71558501D01*
X164021933Y-71594995D01*
X164021926Y-71594998D01*
X163912951Y-71665032D01*
X163863594Y-71721995D01*
X163828118Y-71762937D01*
X163774303Y-71880774D01*
X163755867Y-72009000D01*
X159801033Y-72009000D01*
X159799301Y-71996952D01*
X159828794Y-71932371D01*
X159856506Y-71908497D01*
X159897940Y-71882202D01*
X159950872Y-71825835D01*
X160010448Y-71762393D01*
X160089627Y-71618368D01*
X160095628Y-71594998D01*
X160130498Y-71459184D01*
X160130500Y-71459177D01*
X160130500Y-71247000D01*
X166930867Y-71247000D01*
X166949303Y-71375226D01*
X167003118Y-71493063D01*
X167087951Y-71590967D01*
X167196931Y-71661004D01*
X167321228Y-71697500D01*
X167321232Y-71697500D01*
X167450768Y-71697500D01*
X167450772Y-71697500D01*
X167575069Y-71661004D01*
X167684049Y-71590967D01*
X167768882Y-71493063D01*
X167822697Y-71375226D01*
X167841133Y-71247000D01*
X167822697Y-71118774D01*
X167768882Y-71000937D01*
X167684049Y-70903033D01*
X167684048Y-70903032D01*
X167575073Y-70832998D01*
X167575070Y-70832996D01*
X167575069Y-70832996D01*
X167461647Y-70799693D01*
X167450776Y-70796501D01*
X167450774Y-70796500D01*
X167450772Y-70796500D01*
X167321228Y-70796500D01*
X167321225Y-70796500D01*
X167321223Y-70796501D01*
X167196933Y-70832995D01*
X167196926Y-70832998D01*
X167087951Y-70903032D01*
X167003118Y-71000937D01*
X166949303Y-71118774D01*
X166930867Y-71247000D01*
X160130500Y-71247000D01*
X160130500Y-70236075D01*
X160125288Y-70194815D01*
X160115072Y-70113946D01*
X160115071Y-70113944D01*
X160115071Y-70113942D01*
X160072635Y-70006760D01*
X160054570Y-69961133D01*
X160054566Y-69961126D01*
X159957964Y-69828164D01*
X159957963Y-69828163D01*
X159831325Y-69723399D01*
X159708282Y-69665500D01*
X159682613Y-69653421D01*
X159682611Y-69653420D01*
X159682610Y-69653420D01*
X159682609Y-69653419D01*
X159521176Y-69622624D01*
X159521165Y-69622623D01*
X159357143Y-69632943D01*
X159357138Y-69632943D01*
X159200829Y-69683731D01*
X159062060Y-69771796D01*
X158949552Y-69891606D01*
X158949551Y-69891607D01*
X158870372Y-70035632D01*
X158870371Y-70035635D01*
X158847307Y-70125465D01*
X158810993Y-70186472D01*
X158747460Y-70218160D01*
X158676881Y-70210470D01*
X158621664Y-70165842D01*
X158608860Y-70142354D01*
X158552698Y-70006767D01*
X158552693Y-70006760D01*
X158460451Y-69886548D01*
X158340239Y-69794306D01*
X158340231Y-69794301D01*
X158200234Y-69736312D01*
X158087722Y-69721500D01*
X158087720Y-69721500D01*
X158012280Y-69721500D01*
X158012277Y-69721500D01*
X157899765Y-69736312D01*
X157759768Y-69794301D01*
X157759760Y-69794306D01*
X157639548Y-69886548D01*
X157547306Y-70006760D01*
X157547301Y-70006768D01*
X157489312Y-70146765D01*
X157469534Y-70296999D01*
X157469534Y-70297000D01*
X156655644Y-70297000D01*
X156665133Y-70231000D01*
X156646697Y-70102774D01*
X156592882Y-69984937D01*
X156508049Y-69887033D01*
X156508048Y-69887032D01*
X156399073Y-69816998D01*
X156399070Y-69816996D01*
X156399069Y-69816996D01*
X156338460Y-69799200D01*
X156274776Y-69780501D01*
X156274774Y-69780500D01*
X156274772Y-69780500D01*
X156145228Y-69780500D01*
X156145225Y-69780500D01*
X156145223Y-69780501D01*
X156020933Y-69816995D01*
X156020926Y-69816998D01*
X155911951Y-69887032D01*
X155847750Y-69961126D01*
X155827118Y-69984937D01*
X155773303Y-70102774D01*
X155754867Y-70231000D01*
X154506133Y-70231000D01*
X154487697Y-70102774D01*
X154433882Y-69984937D01*
X154349049Y-69887033D01*
X154349048Y-69887032D01*
X154240073Y-69816998D01*
X154240070Y-69816996D01*
X154240069Y-69816996D01*
X154179460Y-69799200D01*
X154115776Y-69780501D01*
X154115774Y-69780500D01*
X154115772Y-69780500D01*
X153986228Y-69780500D01*
X153986225Y-69780500D01*
X153986223Y-69780501D01*
X153861933Y-69816995D01*
X153861926Y-69816998D01*
X153752951Y-69887032D01*
X153688750Y-69961126D01*
X153668118Y-69984937D01*
X153614303Y-70102774D01*
X153595867Y-70231000D01*
X152841777Y-70231000D01*
X152830687Y-70146764D01*
X152772698Y-70006767D01*
X152772693Y-70006760D01*
X152680451Y-69886548D01*
X152560239Y-69794306D01*
X152560231Y-69794301D01*
X152420234Y-69736312D01*
X152307722Y-69721500D01*
X152307720Y-69721500D01*
X152232280Y-69721500D01*
X152232277Y-69721500D01*
X152119765Y-69736312D01*
X151979768Y-69794301D01*
X151979760Y-69794306D01*
X151859548Y-69886548D01*
X151767306Y-70006760D01*
X151767299Y-70006772D01*
X151714436Y-70134394D01*
X151669888Y-70189675D01*
X151602524Y-70212095D01*
X151533733Y-70194536D01*
X151485355Y-70142574D01*
X151475985Y-70117505D01*
X151475071Y-70113947D01*
X151475071Y-70113942D01*
X151444066Y-70035632D01*
X151414570Y-69961133D01*
X151414566Y-69961126D01*
X151317964Y-69828164D01*
X151317963Y-69828163D01*
X151191325Y-69723399D01*
X151068282Y-69665500D01*
X151042613Y-69653421D01*
X151042611Y-69653420D01*
X151042610Y-69653420D01*
X151042609Y-69653419D01*
X150881176Y-69622624D01*
X150881165Y-69622623D01*
X150717143Y-69632943D01*
X150717138Y-69632943D01*
X150560829Y-69683731D01*
X150422060Y-69771796D01*
X150309552Y-69891606D01*
X150309551Y-69891607D01*
X150230372Y-70035632D01*
X150230371Y-70035634D01*
X150189501Y-70194815D01*
X150189500Y-70194825D01*
X150189500Y-71417922D01*
X136702018Y-71417922D01*
X136696049Y-71411033D01*
X136696048Y-71411032D01*
X136587073Y-71340998D01*
X136587070Y-71340996D01*
X136587069Y-71340996D01*
X136587066Y-71340995D01*
X136462776Y-71304501D01*
X136462774Y-71304500D01*
X136462772Y-71304500D01*
X136333228Y-71304500D01*
X136333225Y-71304500D01*
X136333223Y-71304501D01*
X136208933Y-71340995D01*
X136208926Y-71340998D01*
X136099951Y-71411032D01*
X136028873Y-71493063D01*
X136015118Y-71508937D01*
X135961303Y-71626774D01*
X135942867Y-71755000D01*
X135961303Y-71883226D01*
X136015118Y-72001063D01*
X136015119Y-72001064D01*
X136018862Y-72009260D01*
X136017164Y-72010035D01*
X136034038Y-72067497D01*
X136014038Y-72135618D01*
X135960383Y-72182112D01*
X135908038Y-72193500D01*
X135825228Y-72193500D01*
X135825225Y-72193500D01*
X135825223Y-72193501D01*
X135700933Y-72229995D01*
X135700926Y-72229998D01*
X135591951Y-72300032D01*
X135520873Y-72382063D01*
X135507118Y-72397937D01*
X135453303Y-72515774D01*
X135434867Y-72644000D01*
X126465300Y-72644000D01*
X126465300Y-69799200D01*
X130862867Y-69799200D01*
X130881303Y-69927426D01*
X130935118Y-70045263D01*
X131012349Y-70134394D01*
X131019951Y-70143167D01*
X131124676Y-70210470D01*
X131128931Y-70213204D01*
X131253228Y-70249700D01*
X131253232Y-70249700D01*
X131382768Y-70249700D01*
X131382772Y-70249700D01*
X131446460Y-70231000D01*
X135815867Y-70231000D01*
X135834303Y-70359226D01*
X135888118Y-70477063D01*
X135972951Y-70574967D01*
X136081931Y-70645004D01*
X136206228Y-70681500D01*
X136206232Y-70681500D01*
X136335768Y-70681500D01*
X136335772Y-70681500D01*
X136460069Y-70645004D01*
X136569049Y-70574967D01*
X136653882Y-70477063D01*
X136707697Y-70359226D01*
X136726133Y-70231000D01*
X138101867Y-70231000D01*
X138120303Y-70359226D01*
X138174118Y-70477063D01*
X138258951Y-70574967D01*
X138367931Y-70645004D01*
X138492228Y-70681500D01*
X138492232Y-70681500D01*
X138621768Y-70681500D01*
X138621772Y-70681500D01*
X138746069Y-70645004D01*
X138855049Y-70574967D01*
X138939882Y-70477063D01*
X138993697Y-70359226D01*
X139012133Y-70231000D01*
X140133867Y-70231000D01*
X140152303Y-70359226D01*
X140206118Y-70477063D01*
X140290951Y-70574967D01*
X140399931Y-70645004D01*
X140524228Y-70681500D01*
X140524232Y-70681500D01*
X140653768Y-70681500D01*
X140653772Y-70681500D01*
X140778069Y-70645004D01*
X140887049Y-70574967D01*
X140971882Y-70477063D01*
X141025697Y-70359226D01*
X141044133Y-70231000D01*
X144197867Y-70231000D01*
X144216303Y-70359226D01*
X144270118Y-70477063D01*
X144354951Y-70574967D01*
X144463931Y-70645004D01*
X144588228Y-70681500D01*
X144588232Y-70681500D01*
X144717768Y-70681500D01*
X144717772Y-70681500D01*
X144842069Y-70645004D01*
X144951049Y-70574967D01*
X145035882Y-70477063D01*
X145089697Y-70359226D01*
X145108133Y-70231000D01*
X145089697Y-70102774D01*
X145035882Y-69984937D01*
X144951049Y-69887033D01*
X144951048Y-69887032D01*
X144842073Y-69816998D01*
X144842070Y-69816996D01*
X144842069Y-69816996D01*
X144781460Y-69799200D01*
X144717776Y-69780501D01*
X144717774Y-69780500D01*
X144717772Y-69780500D01*
X144588228Y-69780500D01*
X144588225Y-69780500D01*
X144588223Y-69780501D01*
X144463933Y-69816995D01*
X144463926Y-69816998D01*
X144354951Y-69887032D01*
X144290750Y-69961126D01*
X144270118Y-69984937D01*
X144216303Y-70102774D01*
X144197867Y-70231000D01*
X141044133Y-70231000D01*
X141025697Y-70102774D01*
X140971882Y-69984937D01*
X140887049Y-69887033D01*
X140887048Y-69887032D01*
X140778073Y-69816998D01*
X140778070Y-69816996D01*
X140778069Y-69816996D01*
X140717460Y-69799200D01*
X140653776Y-69780501D01*
X140653774Y-69780500D01*
X140653772Y-69780500D01*
X140524228Y-69780500D01*
X140524225Y-69780500D01*
X140524223Y-69780501D01*
X140399933Y-69816995D01*
X140399926Y-69816998D01*
X140290951Y-69887032D01*
X140226750Y-69961126D01*
X140206118Y-69984937D01*
X140152303Y-70102774D01*
X140133867Y-70231000D01*
X139012133Y-70231000D01*
X138993697Y-70102774D01*
X138939882Y-69984937D01*
X138855049Y-69887033D01*
X138855048Y-69887032D01*
X138746073Y-69816998D01*
X138746070Y-69816996D01*
X138746069Y-69816996D01*
X138685460Y-69799200D01*
X138621776Y-69780501D01*
X138621774Y-69780500D01*
X138621772Y-69780500D01*
X138492228Y-69780500D01*
X138492225Y-69780500D01*
X138492223Y-69780501D01*
X138367933Y-69816995D01*
X138367926Y-69816998D01*
X138258951Y-69887032D01*
X138194750Y-69961126D01*
X138174118Y-69984937D01*
X138120303Y-70102774D01*
X138101867Y-70231000D01*
X136726133Y-70231000D01*
X136707697Y-70102774D01*
X136653882Y-69984937D01*
X136569049Y-69887033D01*
X136569048Y-69887032D01*
X136460073Y-69816998D01*
X136460070Y-69816996D01*
X136460069Y-69816996D01*
X136399460Y-69799200D01*
X136335776Y-69780501D01*
X136335774Y-69780500D01*
X136335772Y-69780500D01*
X136206228Y-69780500D01*
X136206225Y-69780500D01*
X136206223Y-69780501D01*
X136081933Y-69816995D01*
X136081926Y-69816998D01*
X135972951Y-69887032D01*
X135908750Y-69961126D01*
X135888118Y-69984937D01*
X135834303Y-70102774D01*
X135815867Y-70231000D01*
X131446460Y-70231000D01*
X131507069Y-70213204D01*
X131616049Y-70143167D01*
X131700882Y-70045263D01*
X131754697Y-69927426D01*
X131773133Y-69799200D01*
X131754697Y-69670974D01*
X131700882Y-69553137D01*
X131616049Y-69455233D01*
X131616048Y-69455232D01*
X131507073Y-69385198D01*
X131507070Y-69385196D01*
X131507069Y-69385196D01*
X131505935Y-69384863D01*
X131382776Y-69348701D01*
X131382774Y-69348700D01*
X131382772Y-69348700D01*
X131253228Y-69348700D01*
X131253225Y-69348700D01*
X131253223Y-69348701D01*
X131128933Y-69385195D01*
X131128926Y-69385198D01*
X131019951Y-69455232D01*
X130935409Y-69552801D01*
X130935118Y-69553137D01*
X130881303Y-69670974D01*
X130862867Y-69799200D01*
X126465300Y-69799200D01*
X126465300Y-69138800D01*
X127103667Y-69138800D01*
X127122103Y-69267026D01*
X127175918Y-69384863D01*
X127260751Y-69482767D01*
X127369731Y-69552804D01*
X127494028Y-69589300D01*
X127494032Y-69589300D01*
X127623568Y-69589300D01*
X127623572Y-69589300D01*
X127747869Y-69552804D01*
X127856849Y-69482767D01*
X127941682Y-69384863D01*
X127995497Y-69267026D01*
X128013933Y-69138800D01*
X127995497Y-69010574D01*
X127941682Y-68892737D01*
X127856849Y-68794833D01*
X127856848Y-68794832D01*
X127747873Y-68724798D01*
X127747870Y-68724796D01*
X127747869Y-68724796D01*
X127714292Y-68714937D01*
X127623576Y-68688301D01*
X127623574Y-68688300D01*
X127623572Y-68688300D01*
X127494028Y-68688300D01*
X127494025Y-68688300D01*
X127494023Y-68688301D01*
X127369733Y-68724795D01*
X127369726Y-68724798D01*
X127260751Y-68794832D01*
X127212812Y-68850158D01*
X127175918Y-68892737D01*
X127122103Y-69010574D01*
X127103667Y-69138800D01*
X126465300Y-69138800D01*
X126465300Y-67564000D01*
X127757396Y-67564000D01*
X127777779Y-67822994D01*
X127838427Y-68075610D01*
X127937846Y-68315628D01*
X127944202Y-68326000D01*
X128073585Y-68537136D01*
X128073590Y-68537143D01*
X128242310Y-68734689D01*
X128401949Y-68871033D01*
X128439860Y-68903412D01*
X128661372Y-69039154D01*
X128901390Y-69138573D01*
X129154006Y-69199221D01*
X129413000Y-69219604D01*
X129671994Y-69199221D01*
X129924610Y-69138573D01*
X130164628Y-69039154D01*
X130386140Y-68903412D01*
X130583689Y-68734689D01*
X130752412Y-68537140D01*
X130848940Y-68379620D01*
X132017700Y-68379620D01*
X132026432Y-68423521D01*
X132026434Y-68423525D01*
X132059695Y-68473304D01*
X132109474Y-68506565D01*
X132109478Y-68506567D01*
X132153380Y-68515300D01*
X132153385Y-68515300D01*
X133683015Y-68515300D01*
X133683020Y-68515300D01*
X133726922Y-68506567D01*
X133776704Y-68473304D01*
X133809967Y-68423522D01*
X133818700Y-68379620D01*
X133818700Y-68326000D01*
X138355867Y-68326000D01*
X138374303Y-68454226D01*
X138428118Y-68572063D01*
X138512951Y-68669967D01*
X138613660Y-68734689D01*
X138621931Y-68740004D01*
X138746228Y-68776500D01*
X138746232Y-68776500D01*
X138871982Y-68776500D01*
X138940103Y-68796502D01*
X138986596Y-68850158D01*
X138996699Y-68920430D01*
X138990867Y-68961000D01*
X139009303Y-69089226D01*
X139063118Y-69207063D01*
X139147951Y-69304967D01*
X139216002Y-69348701D01*
X139256931Y-69375004D01*
X139381228Y-69411500D01*
X139381232Y-69411500D01*
X139510768Y-69411500D01*
X139510772Y-69411500D01*
X139635069Y-69375004D01*
X139744049Y-69304967D01*
X139822005Y-69215000D01*
X162739867Y-69215000D01*
X162758303Y-69343226D01*
X162812118Y-69461063D01*
X162896951Y-69558967D01*
X163005931Y-69629004D01*
X163130228Y-69665500D01*
X163130232Y-69665500D01*
X163259768Y-69665500D01*
X163259772Y-69665500D01*
X163384069Y-69629004D01*
X163493049Y-69558967D01*
X163577882Y-69461063D01*
X163631697Y-69343226D01*
X163650133Y-69215000D01*
X163631697Y-69086774D01*
X163577882Y-68968937D01*
X163493049Y-68871033D01*
X163493048Y-68871032D01*
X163384073Y-68800998D01*
X163384070Y-68800996D01*
X163384069Y-68800996D01*
X163384066Y-68800995D01*
X163259776Y-68764501D01*
X163259774Y-68764500D01*
X163259772Y-68764500D01*
X163130228Y-68764500D01*
X163130225Y-68764500D01*
X163130223Y-68764501D01*
X163005933Y-68800995D01*
X163005926Y-68800998D01*
X162896951Y-68871032D01*
X162868893Y-68903414D01*
X162812118Y-68968937D01*
X162758303Y-69086774D01*
X162739867Y-69215000D01*
X139822005Y-69215000D01*
X139828882Y-69207063D01*
X139882697Y-69089226D01*
X139901133Y-68961000D01*
X139882697Y-68832774D01*
X139828882Y-68714937D01*
X139744049Y-68617033D01*
X139744048Y-68617032D01*
X139635073Y-68546998D01*
X139635070Y-68546996D01*
X139635069Y-68546996D01*
X139601502Y-68537140D01*
X139510776Y-68510501D01*
X139510774Y-68510500D01*
X139510772Y-68510500D01*
X139385018Y-68510500D01*
X139316897Y-68490498D01*
X139270404Y-68436842D01*
X139260300Y-68366569D01*
X139261388Y-68359001D01*
X139266133Y-68326000D01*
X139247697Y-68197774D01*
X139193882Y-68079937D01*
X139109049Y-67982033D01*
X139109048Y-67982032D01*
X139000073Y-67911998D01*
X139000070Y-67911996D01*
X139000069Y-67911996D01*
X139000066Y-67911995D01*
X138875776Y-67875501D01*
X138875774Y-67875500D01*
X138875772Y-67875500D01*
X138746228Y-67875500D01*
X138746225Y-67875500D01*
X138746223Y-67875501D01*
X138621933Y-67911995D01*
X138621926Y-67911998D01*
X138512951Y-67982032D01*
X138441873Y-68064063D01*
X138428118Y-68079937D01*
X138374303Y-68197774D01*
X138355867Y-68326000D01*
X133818700Y-68326000D01*
X133818700Y-67056000D01*
X145340867Y-67056000D01*
X145359303Y-67184226D01*
X145413118Y-67302063D01*
X145497951Y-67399967D01*
X145606931Y-67470004D01*
X145731228Y-67506500D01*
X145731232Y-67506500D01*
X145754942Y-67506500D01*
X145823063Y-67526502D01*
X145869556Y-67580158D01*
X145879660Y-67650432D01*
X145869555Y-67684840D01*
X145868358Y-67687462D01*
X145867303Y-67689773D01*
X145861802Y-67728032D01*
X145848867Y-67818000D01*
X145867303Y-67946226D01*
X145921118Y-68064063D01*
X146005951Y-68161967D01*
X146114931Y-68232004D01*
X146239228Y-68268500D01*
X146239232Y-68268500D01*
X146368768Y-68268500D01*
X146368772Y-68268500D01*
X146493069Y-68232004D01*
X146602049Y-68161967D01*
X146680005Y-68072000D01*
X147118867Y-68072000D01*
X147137303Y-68200226D01*
X147191118Y-68318063D01*
X147244457Y-68379620D01*
X147275951Y-68415967D01*
X147287711Y-68423525D01*
X147384931Y-68486004D01*
X147509228Y-68522500D01*
X147509232Y-68522500D01*
X147638768Y-68522500D01*
X147638772Y-68522500D01*
X147763069Y-68486004D01*
X147872049Y-68415967D01*
X147956882Y-68318063D01*
X148010697Y-68200226D01*
X148029133Y-68072000D01*
X148010873Y-67945000D01*
X148642867Y-67945000D01*
X148661303Y-68073226D01*
X148715118Y-68191063D01*
X148782215Y-68268498D01*
X148799951Y-68288967D01*
X148857575Y-68326000D01*
X148908931Y-68359004D01*
X149033228Y-68395500D01*
X149033232Y-68395500D01*
X149162768Y-68395500D01*
X149162772Y-68395500D01*
X149287069Y-68359004D01*
X149396049Y-68288967D01*
X149480882Y-68191063D01*
X149534697Y-68073226D01*
X149553133Y-67945000D01*
X149534697Y-67816774D01*
X149480882Y-67698937D01*
X149396049Y-67601033D01*
X149396048Y-67601032D01*
X149287073Y-67530998D01*
X149287070Y-67530996D01*
X149287069Y-67530996D01*
X149287066Y-67530995D01*
X149162776Y-67494501D01*
X149162774Y-67494500D01*
X149162772Y-67494500D01*
X149033228Y-67494500D01*
X149033225Y-67494500D01*
X149033223Y-67494501D01*
X148908933Y-67530995D01*
X148908926Y-67530998D01*
X148799951Y-67601032D01*
X148723058Y-67689774D01*
X148715118Y-67698937D01*
X148661303Y-67816774D01*
X148642867Y-67945000D01*
X148010873Y-67945000D01*
X148010697Y-67943774D01*
X147956882Y-67825937D01*
X147872049Y-67728033D01*
X147872048Y-67728032D01*
X147763073Y-67657998D01*
X147763070Y-67657996D01*
X147763069Y-67657996D01*
X147737308Y-67650432D01*
X147638776Y-67621501D01*
X147638774Y-67621500D01*
X147638772Y-67621500D01*
X147509228Y-67621500D01*
X147509225Y-67621500D01*
X147509223Y-67621501D01*
X147384933Y-67657995D01*
X147384926Y-67657998D01*
X147275951Y-67728032D01*
X147199058Y-67816774D01*
X147191118Y-67825937D01*
X147137303Y-67943774D01*
X147118867Y-68072000D01*
X146680005Y-68072000D01*
X146686882Y-68064063D01*
X146740697Y-67946226D01*
X146759133Y-67818000D01*
X146740697Y-67689774D01*
X146686882Y-67571937D01*
X146602049Y-67474033D01*
X146602048Y-67474032D01*
X146493073Y-67403998D01*
X146493070Y-67403996D01*
X146493069Y-67403996D01*
X146493066Y-67403995D01*
X146368776Y-67367501D01*
X146368774Y-67367500D01*
X146368772Y-67367500D01*
X146345058Y-67367500D01*
X146276937Y-67347498D01*
X146230444Y-67293842D01*
X146220340Y-67223568D01*
X146230444Y-67189159D01*
X146232697Y-67184226D01*
X146251133Y-67056000D01*
X146241345Y-66987922D01*
X150189500Y-66987922D01*
X150189501Y-66987940D01*
X150204927Y-67110053D01*
X150204929Y-67110058D01*
X150265429Y-67262866D01*
X150265433Y-67262873D01*
X150362035Y-67395835D01*
X150362036Y-67395836D01*
X150362037Y-67395837D01*
X150488674Y-67500600D01*
X150637387Y-67570579D01*
X150637389Y-67570579D01*
X150637390Y-67570580D01*
X150798823Y-67601375D01*
X150798826Y-67601375D01*
X150798830Y-67601376D01*
X150798832Y-67601375D01*
X150798834Y-67601376D01*
X150880845Y-67596216D01*
X150962860Y-67591056D01*
X150962861Y-67591056D01*
X151046131Y-67564000D01*
X151119171Y-67540268D01*
X151229889Y-67470004D01*
X151257939Y-67452203D01*
X151257940Y-67452202D01*
X151370448Y-67332393D01*
X151449627Y-67188368D01*
X151450691Y-67184226D01*
X151490498Y-67029184D01*
X151490500Y-67029177D01*
X151490500Y-66987922D01*
X158829500Y-66987922D01*
X158829501Y-66987940D01*
X158844927Y-67110053D01*
X158844929Y-67110058D01*
X158905429Y-67262866D01*
X158905433Y-67262873D01*
X159002035Y-67395835D01*
X159002036Y-67395836D01*
X159002037Y-67395837D01*
X159128674Y-67500600D01*
X159277387Y-67570579D01*
X159277389Y-67570579D01*
X159277390Y-67570580D01*
X159438823Y-67601375D01*
X159438826Y-67601375D01*
X159438830Y-67601376D01*
X159438832Y-67601375D01*
X159438834Y-67601376D01*
X159520845Y-67596216D01*
X159602860Y-67591056D01*
X159602861Y-67591056D01*
X159686131Y-67564000D01*
X164587396Y-67564000D01*
X164607779Y-67822994D01*
X164668427Y-68075610D01*
X164767846Y-68315628D01*
X164774202Y-68326000D01*
X164903585Y-68537136D01*
X164903590Y-68537143D01*
X165072310Y-68734689D01*
X165231949Y-68871033D01*
X165269860Y-68903412D01*
X165491372Y-69039154D01*
X165731390Y-69138573D01*
X165984006Y-69199221D01*
X166243000Y-69219604D01*
X166501994Y-69199221D01*
X166754610Y-69138573D01*
X166994628Y-69039154D01*
X167216140Y-68903412D01*
X167413689Y-68734689D01*
X167582412Y-68537140D01*
X167718154Y-68315628D01*
X167817573Y-68075610D01*
X167878221Y-67822994D01*
X167898604Y-67564000D01*
X167878221Y-67305006D01*
X167817573Y-67052390D01*
X167718154Y-66812372D01*
X167582412Y-66590860D01*
X167582409Y-66590856D01*
X167413689Y-66393310D01*
X167216143Y-66224590D01*
X167216136Y-66224585D01*
X167068305Y-66133995D01*
X166994628Y-66088846D01*
X166754610Y-65989427D01*
X166501994Y-65928779D01*
X166243000Y-65908396D01*
X165984006Y-65928779D01*
X165731389Y-65989427D01*
X165491370Y-66088847D01*
X165269863Y-66224585D01*
X165269856Y-66224590D01*
X165072310Y-66393310D01*
X164903590Y-66590856D01*
X164903585Y-66590863D01*
X164767847Y-66812370D01*
X164695131Y-66987922D01*
X164668427Y-67052390D01*
X164607779Y-67305006D01*
X164587396Y-67564000D01*
X159686131Y-67564000D01*
X159759171Y-67540268D01*
X159869889Y-67470004D01*
X159897939Y-67452203D01*
X159897940Y-67452202D01*
X160010448Y-67332393D01*
X160089627Y-67188368D01*
X160090691Y-67184226D01*
X160130498Y-67029184D01*
X160130500Y-67029177D01*
X160130500Y-66306075D01*
X160125921Y-66269826D01*
X160115072Y-66183946D01*
X160115071Y-66183944D01*
X160115071Y-66183942D01*
X160058565Y-66041224D01*
X160054570Y-66031133D01*
X160054566Y-66031126D01*
X159957965Y-65898165D01*
X159957963Y-65898163D01*
X159831326Y-65793400D01*
X159831324Y-65793399D01*
X159828150Y-65790773D01*
X159788412Y-65731939D01*
X159786851Y-65663644D01*
X159780241Y-65678119D01*
X159720514Y-65716503D01*
X159661406Y-65719375D01*
X159521176Y-65692624D01*
X159521165Y-65692623D01*
X159357143Y-65702943D01*
X159357138Y-65702943D01*
X159200829Y-65753731D01*
X159062060Y-65841796D01*
X158949552Y-65961606D01*
X158949551Y-65961607D01*
X158870372Y-66105632D01*
X158870371Y-66105634D01*
X158829501Y-66264815D01*
X158829500Y-66264825D01*
X158829500Y-66987922D01*
X151490500Y-66987922D01*
X151490500Y-66306075D01*
X151485921Y-66269826D01*
X151475072Y-66183946D01*
X151475071Y-66183944D01*
X151475071Y-66183942D01*
X151458307Y-66141600D01*
X151944867Y-66141600D01*
X151963303Y-66269826D01*
X152017118Y-66387663D01*
X152101951Y-66485567D01*
X152210931Y-66555604D01*
X152335228Y-66592100D01*
X152335232Y-66592100D01*
X152464768Y-66592100D01*
X152464772Y-66592100D01*
X152589069Y-66555604D01*
X152698049Y-66485567D01*
X152782882Y-66387663D01*
X152836697Y-66269826D01*
X152855133Y-66141600D01*
X152840525Y-66040000D01*
X155043667Y-66040000D01*
X155062103Y-66168226D01*
X155115918Y-66286063D01*
X155200751Y-66383967D01*
X155309731Y-66454004D01*
X155434028Y-66490500D01*
X155434032Y-66490500D01*
X155563568Y-66490500D01*
X155563572Y-66490500D01*
X155687869Y-66454004D01*
X155796849Y-66383967D01*
X155881682Y-66286063D01*
X155935497Y-66168226D01*
X155953933Y-66040000D01*
X155935497Y-65911774D01*
X155881682Y-65793937D01*
X155796849Y-65696033D01*
X155796848Y-65696032D01*
X155687873Y-65625998D01*
X155687870Y-65625996D01*
X155687869Y-65625996D01*
X155687866Y-65625995D01*
X155563576Y-65589501D01*
X155563574Y-65589500D01*
X155563572Y-65589500D01*
X155434028Y-65589500D01*
X155434025Y-65589500D01*
X155434023Y-65589501D01*
X155309733Y-65625995D01*
X155309726Y-65625998D01*
X155200751Y-65696032D01*
X155150756Y-65753731D01*
X155115918Y-65793937D01*
X155062103Y-65911774D01*
X155043667Y-66040000D01*
X152840525Y-66040000D01*
X152836697Y-66013374D01*
X152782882Y-65895537D01*
X152698049Y-65797633D01*
X152698048Y-65797632D01*
X152589073Y-65727598D01*
X152589070Y-65727596D01*
X152589069Y-65727596D01*
X152574847Y-65723420D01*
X152464776Y-65691101D01*
X152464774Y-65691100D01*
X152464772Y-65691100D01*
X152335228Y-65691100D01*
X152335225Y-65691100D01*
X152335223Y-65691101D01*
X152210933Y-65727595D01*
X152210926Y-65727598D01*
X152101951Y-65797632D01*
X152063684Y-65841796D01*
X152017118Y-65895537D01*
X151963303Y-66013374D01*
X151944867Y-66141600D01*
X151458307Y-66141600D01*
X151418565Y-66041224D01*
X151414570Y-66031133D01*
X151414566Y-66031126D01*
X151317964Y-65898164D01*
X151317963Y-65898163D01*
X151191325Y-65793399D01*
X151107025Y-65753731D01*
X151042613Y-65723421D01*
X151042611Y-65723420D01*
X151042610Y-65723420D01*
X151042609Y-65723419D01*
X150881176Y-65692624D01*
X150881165Y-65692623D01*
X150717143Y-65702943D01*
X150717138Y-65702943D01*
X150560829Y-65753731D01*
X150422060Y-65841796D01*
X150309552Y-65961606D01*
X150309551Y-65961607D01*
X150230372Y-66105632D01*
X150230371Y-66105634D01*
X150189501Y-66264815D01*
X150189500Y-66264825D01*
X150189500Y-66987922D01*
X146241345Y-66987922D01*
X146232697Y-66927774D01*
X146178882Y-66809937D01*
X146094049Y-66712033D01*
X146094048Y-66712032D01*
X145985073Y-66641998D01*
X145985070Y-66641996D01*
X145985069Y-66641996D01*
X145985066Y-66641995D01*
X145860776Y-66605501D01*
X145860774Y-66605500D01*
X145860772Y-66605500D01*
X145731228Y-66605500D01*
X145731225Y-66605500D01*
X145731223Y-66605501D01*
X145606933Y-66641995D01*
X145606926Y-66641998D01*
X145497951Y-66712032D01*
X145426873Y-66794063D01*
X145413118Y-66809937D01*
X145359303Y-66927774D01*
X145340867Y-67056000D01*
X133818700Y-67056000D01*
X133818700Y-66849980D01*
X133809967Y-66806078D01*
X133809965Y-66806074D01*
X133776704Y-66756295D01*
X133726925Y-66723034D01*
X133726921Y-66723032D01*
X133683020Y-66714300D01*
X132153380Y-66714300D01*
X132153379Y-66714300D01*
X132109478Y-66723032D01*
X132109474Y-66723034D01*
X132059695Y-66756295D01*
X132026434Y-66806074D01*
X132026432Y-66806078D01*
X132017700Y-66849979D01*
X132017700Y-68379620D01*
X130848940Y-68379620D01*
X130888154Y-68315628D01*
X130987573Y-68075610D01*
X131048221Y-67822994D01*
X131068604Y-67564000D01*
X131048221Y-67305006D01*
X130987573Y-67052390D01*
X130888154Y-66812372D01*
X130752412Y-66590860D01*
X130752409Y-66590856D01*
X130715807Y-66548000D01*
X137085867Y-66548000D01*
X137104303Y-66676226D01*
X137158118Y-66794063D01*
X137242951Y-66891967D01*
X137351931Y-66962004D01*
X137476228Y-66998500D01*
X137476232Y-66998500D01*
X137605768Y-66998500D01*
X137605772Y-66998500D01*
X137730069Y-66962004D01*
X137839049Y-66891967D01*
X137923882Y-66794063D01*
X137977697Y-66676226D01*
X137996133Y-66548000D01*
X137977697Y-66419774D01*
X137923882Y-66301937D01*
X137839049Y-66204033D01*
X137839048Y-66204032D01*
X137730073Y-66133998D01*
X137730070Y-66133996D01*
X137730069Y-66133996D01*
X137633468Y-66105632D01*
X137605776Y-66097501D01*
X137605774Y-66097500D01*
X137605772Y-66097500D01*
X137476228Y-66097500D01*
X137476225Y-66097500D01*
X137476223Y-66097501D01*
X137351933Y-66133995D01*
X137351926Y-66133998D01*
X137242951Y-66204032D01*
X137171873Y-66286063D01*
X137158118Y-66301937D01*
X137104303Y-66419774D01*
X137085867Y-66548000D01*
X130715807Y-66548000D01*
X130583689Y-66393310D01*
X130386143Y-66224590D01*
X130386136Y-66224585D01*
X130238305Y-66133995D01*
X130164628Y-66088846D01*
X130046704Y-66040000D01*
X140133867Y-66040000D01*
X140152303Y-66168226D01*
X140206118Y-66286063D01*
X140290951Y-66383967D01*
X140399931Y-66454004D01*
X140524228Y-66490500D01*
X140524232Y-66490500D01*
X140653768Y-66490500D01*
X140653772Y-66490500D01*
X140778069Y-66454004D01*
X140887049Y-66383967D01*
X140971882Y-66286063D01*
X141025697Y-66168226D01*
X141044133Y-66040000D01*
X141025873Y-65913000D01*
X144578867Y-65913000D01*
X144597303Y-66041226D01*
X144651118Y-66159063D01*
X144735951Y-66256967D01*
X144844931Y-66327004D01*
X144969228Y-66363500D01*
X144969232Y-66363500D01*
X145098768Y-66363500D01*
X145098772Y-66363500D01*
X145223069Y-66327004D01*
X145332049Y-66256967D01*
X145416882Y-66159063D01*
X145470697Y-66041226D01*
X145489133Y-65913000D01*
X145470697Y-65784774D01*
X145416882Y-65666937D01*
X145332049Y-65569033D01*
X145332048Y-65569032D01*
X145223073Y-65498998D01*
X145223070Y-65498996D01*
X145223069Y-65498996D01*
X145122841Y-65469567D01*
X145098776Y-65462501D01*
X145098774Y-65462500D01*
X145098772Y-65462500D01*
X144969228Y-65462500D01*
X144969225Y-65462500D01*
X144969223Y-65462501D01*
X144844933Y-65498995D01*
X144844926Y-65498998D01*
X144735951Y-65569032D01*
X144653971Y-65663644D01*
X144651118Y-65666937D01*
X144597303Y-65784774D01*
X144578867Y-65913000D01*
X141025873Y-65913000D01*
X141025697Y-65911774D01*
X140971882Y-65793937D01*
X140887049Y-65696033D01*
X140887048Y-65696032D01*
X140778073Y-65625998D01*
X140778070Y-65625996D01*
X140778069Y-65625996D01*
X140778066Y-65625995D01*
X140653776Y-65589501D01*
X140653774Y-65589500D01*
X140653772Y-65589500D01*
X140524228Y-65589500D01*
X140524225Y-65589500D01*
X140524223Y-65589501D01*
X140399933Y-65625995D01*
X140399926Y-65625998D01*
X140290951Y-65696032D01*
X140240956Y-65753731D01*
X140206118Y-65793937D01*
X140152303Y-65911774D01*
X140133867Y-66040000D01*
X130046704Y-66040000D01*
X129924610Y-65989427D01*
X129671994Y-65928779D01*
X129413000Y-65908396D01*
X129154006Y-65928779D01*
X128901389Y-65989427D01*
X128661370Y-66088847D01*
X128439863Y-66224585D01*
X128439856Y-66224590D01*
X128242310Y-66393310D01*
X128073590Y-66590856D01*
X128073585Y-66590863D01*
X127937847Y-66812370D01*
X127865131Y-66987922D01*
X127838427Y-67052390D01*
X127777779Y-67305006D01*
X127757396Y-67564000D01*
X126465300Y-67564000D01*
X126465300Y-65932272D01*
X126465435Y-65928152D01*
X126466508Y-65911775D01*
X126482050Y-65674632D01*
X126483121Y-65666495D01*
X126532282Y-65419342D01*
X126534416Y-65411378D01*
X126579690Y-65278000D01*
X136196867Y-65278000D01*
X136215303Y-65406226D01*
X136269118Y-65524063D01*
X136335240Y-65600373D01*
X136353951Y-65621967D01*
X136423211Y-65666478D01*
X136462931Y-65692004D01*
X136587228Y-65728500D01*
X136587232Y-65728500D01*
X136716768Y-65728500D01*
X136716772Y-65728500D01*
X136841069Y-65692004D01*
X136950049Y-65621967D01*
X137034882Y-65524063D01*
X137088697Y-65406226D01*
X137107133Y-65278000D01*
X137088697Y-65149774D01*
X137034882Y-65031937D01*
X136950049Y-64934033D01*
X136950048Y-64934032D01*
X136841073Y-64863998D01*
X136841070Y-64863996D01*
X136841069Y-64863996D01*
X136841066Y-64863995D01*
X136716776Y-64827501D01*
X136716774Y-64827500D01*
X136716772Y-64827500D01*
X136587228Y-64827500D01*
X136587225Y-64827500D01*
X136587223Y-64827501D01*
X136462933Y-64863995D01*
X136462926Y-64863998D01*
X136353951Y-64934032D01*
X136282873Y-65016063D01*
X136269118Y-65031937D01*
X136215303Y-65149774D01*
X136196867Y-65278000D01*
X126579690Y-65278000D01*
X126615413Y-65172761D01*
X126618563Y-65165160D01*
X126730012Y-64939160D01*
X126734130Y-64932026D01*
X126874129Y-64722502D01*
X126879135Y-64715978D01*
X127045290Y-64526512D01*
X127051103Y-64520699D01*
X127240567Y-64354543D01*
X127247092Y-64349536D01*
X127456616Y-64209536D01*
X127463751Y-64205418D01*
X127577696Y-64149226D01*
X127689744Y-64093969D01*
X127697354Y-64090816D01*
X127935975Y-64009815D01*
X127943922Y-64007686D01*
X128191081Y-63958523D01*
X128199234Y-63957451D01*
X128452527Y-63940848D01*
X128456646Y-63940714D01*
X128458212Y-63940714D01*
X147079774Y-63940714D01*
X147147895Y-63960716D01*
G37*
%TD.AperFunction*%
%TD*%
%TA.AperFunction,Conductor*%
%TO.N,/24V*%
G36*
X138075828Y-82239546D02*
G01*
X139312547Y-82579325D01*
X139319615Y-82584821D01*
X139320974Y-82588610D01*
X139447377Y-83318240D01*
X139445413Y-83326976D01*
X139437846Y-83331765D01*
X139435797Y-83331937D01*
X139111259Y-83330492D01*
X139111258Y-83330492D01*
X139111253Y-83330492D01*
X138772745Y-83349984D01*
X138772740Y-83349984D01*
X138772733Y-83349985D01*
X138772732Y-83349985D01*
X138567150Y-83374577D01*
X138434238Y-83390477D01*
X138330322Y-83409353D01*
X138095742Y-83451966D01*
X137763614Y-83532904D01*
X137754765Y-83531534D01*
X137752571Y-83529810D01*
X137202183Y-82979422D01*
X137198756Y-82971149D01*
X137202183Y-82962876D01*
X137204477Y-82961092D01*
X137367030Y-82864555D01*
X137367038Y-82864549D01*
X137367038Y-82864550D01*
X137542520Y-82739336D01*
X137612719Y-82680845D01*
X137718015Y-82593112D01*
X137893507Y-82425891D01*
X138064171Y-82242848D01*
X138072319Y-82239135D01*
X138075828Y-82239546D01*
G37*
%TD.AperFunction*%
%TD*%
M02*
