%TF.GenerationSoftware,KiCad,Pcbnew,7.0.8-7.0.8~ubuntu22.04.1*%
%TF.CreationDate,2023-12-12T19:51:11+11:00*%
%TF.ProjectId,Boost-Converter,426f6f73-742d-4436-9f6e-766572746572,rev?*%
%TF.SameCoordinates,Original*%
%TF.FileFunction,Legend,Top*%
%TF.FilePolarity,Positive*%
%FSLAX46Y46*%
G04 Gerber Fmt 4.6, Leading zero omitted, Abs format (unit mm)*
G04 Created by KiCad (PCBNEW 7.0.8-7.0.8~ubuntu22.04.1) date 2023-12-12 19:51:11*
%MOMM*%
%LPD*%
G01*
G04 APERTURE LIST*
G04 Aperture macros list*
%AMRoundRect*
0 Rectangle with rounded corners*
0 $1 Rounding radius*
0 $2 $3 $4 $5 $6 $7 $8 $9 X,Y pos of 4 corners*
0 Add a 4 corners polygon primitive as box body*
4,1,4,$2,$3,$4,$5,$6,$7,$8,$9,$2,$3,0*
0 Add four circle primitives for the rounded corners*
1,1,$1+$1,$2,$3*
1,1,$1+$1,$4,$5*
1,1,$1+$1,$6,$7*
1,1,$1+$1,$8,$9*
0 Add four rect primitives between the rounded corners*
20,1,$1+$1,$2,$3,$4,$5,0*
20,1,$1+$1,$4,$5,$6,$7,0*
20,1,$1+$1,$6,$7,$8,$9,0*
20,1,$1+$1,$8,$9,$2,$3,0*%
G04 Aperture macros list end*
%ADD10C,0.175000*%
%ADD11C,0.150000*%
%ADD12C,0.140000*%
%ADD13C,0.200000*%
%ADD14C,0.100000*%
%ADD15C,0.190500*%
%ADD16C,0.125000*%
%ADD17C,0.120000*%
%ADD18C,0.250000*%
%ADD19C,0.127000*%
%ADD20RoundRect,0.225000X0.225000X0.250000X-0.225000X0.250000X-0.225000X-0.250000X0.225000X-0.250000X0*%
%ADD21C,2.000000*%
%ADD22RoundRect,0.250000X-0.262500X-0.450000X0.262500X-0.450000X0.262500X0.450000X-0.262500X0.450000X0*%
%ADD23RoundRect,0.135000X0.185000X-0.135000X0.185000X0.135000X-0.185000X0.135000X-0.185000X-0.135000X0*%
%ADD24RoundRect,0.500000X-1.500000X0.500000X-1.500000X-0.500000X1.500000X-0.500000X1.500000X0.500000X0*%
%ADD25RoundRect,0.075000X-0.300000X0.075000X-0.300000X-0.075000X0.300000X-0.075000X0.300000X0.075000X0*%
%ADD26RoundRect,0.075000X0.075000X0.300000X-0.075000X0.300000X-0.075000X-0.300000X0.075000X-0.300000X0*%
%ADD27R,2.850000X2.850000*%
%ADD28RoundRect,0.200000X-0.200000X0.250000X-0.200000X-0.250000X0.200000X-0.250000X0.200000X0.250000X0*%
%ADD29R,1.500000X1.500000*%
%ADD30RoundRect,0.135000X-0.185000X0.135000X-0.185000X-0.135000X0.185000X-0.135000X0.185000X0.135000X0*%
%ADD31RoundRect,0.200000X0.275000X-0.200000X0.275000X0.200000X-0.275000X0.200000X-0.275000X-0.200000X0*%
%ADD32RoundRect,0.218750X-0.218750X-0.256250X0.218750X-0.256250X0.218750X0.256250X-0.218750X0.256250X0*%
%ADD33RoundRect,0.135000X0.135000X0.185000X-0.135000X0.185000X-0.135000X-0.185000X0.135000X-0.185000X0*%
%ADD34O,0.600000X1.200000*%
%ADD35RoundRect,0.150000X0.150000X0.450000X-0.150000X0.450000X-0.150000X-0.450000X0.150000X-0.450000X0*%
%ADD36C,3.000000*%
%ADD37RoundRect,0.125000X0.125000X-0.125000X0.125000X0.125000X-0.125000X0.125000X-0.125000X-0.125000X0*%
%ADD38RoundRect,0.250000X0.250000X-0.250000X0.250000X0.250000X-0.250000X0.250000X-0.250000X-0.250000X0*%
%ADD39RoundRect,0.140000X0.140000X0.170000X-0.140000X0.170000X-0.140000X-0.170000X0.140000X-0.170000X0*%
%ADD40RoundRect,0.140000X0.170000X-0.140000X0.170000X0.140000X-0.170000X0.140000X-0.170000X-0.140000X0*%
%ADD41R,1.700000X1.700000*%
%ADD42O,1.700000X1.700000*%
%ADD43RoundRect,0.200000X-0.200000X-0.275000X0.200000X-0.275000X0.200000X0.275000X-0.200000X0.275000X0*%
%ADD44RoundRect,0.150000X0.512500X0.150000X-0.512500X0.150000X-0.512500X-0.150000X0.512500X-0.150000X0*%
%ADD45RoundRect,0.250000X0.250000X0.475000X-0.250000X0.475000X-0.250000X-0.475000X0.250000X-0.475000X0*%
%ADD46RoundRect,0.050000X-0.387500X-0.050000X0.387500X-0.050000X0.387500X0.050000X-0.387500X0.050000X0*%
%ADD47RoundRect,0.050000X-0.050000X-0.387500X0.050000X-0.387500X0.050000X0.387500X-0.050000X0.387500X0*%
%ADD48RoundRect,0.144000X-1.456000X-1.456000X1.456000X-1.456000X1.456000X1.456000X-1.456000X1.456000X0*%
%ADD49O,2.500000X2.000000*%
%ADD50RoundRect,0.375000X-0.875000X0.375000X-0.875000X-0.375000X0.875000X-0.375000X0.875000X0.375000X0*%
%ADD51O,2.500000X1.500000*%
%ADD52O,0.300000X0.900000*%
%ADD53RoundRect,0.075000X0.075000X0.375000X-0.075000X0.375000X-0.075000X-0.375000X0.075000X-0.375000X0*%
%ADD54RoundRect,0.062500X0.762500X-0.062500X0.762500X0.062500X-0.762500X0.062500X-0.762500X-0.062500X0*%
%ADD55RoundRect,0.150000X-0.150000X-0.275000X0.150000X-0.275000X0.150000X0.275000X-0.150000X0.275000X0*%
%ADD56RoundRect,0.175000X-0.175000X-0.225000X0.175000X-0.225000X0.175000X0.225000X-0.175000X0.225000X0*%
%ADD57RoundRect,0.140000X-0.140000X-0.170000X0.140000X-0.170000X0.140000X0.170000X-0.140000X0.170000X0*%
%ADD58C,0.650000*%
%ADD59RoundRect,0.150000X0.150000X0.575000X-0.150000X0.575000X-0.150000X-0.575000X0.150000X-0.575000X0*%
%ADD60RoundRect,0.075000X0.075000X0.650000X-0.075000X0.650000X-0.075000X-0.650000X0.075000X-0.650000X0*%
%ADD61O,1.000000X2.100000*%
%ADD62O,1.000000X1.600000*%
%ADD63RoundRect,0.250000X-0.450000X0.262500X-0.450000X-0.262500X0.450000X-0.262500X0.450000X0.262500X0*%
%ADD64RoundRect,0.225000X0.250000X-0.225000X0.250000X0.225000X-0.250000X0.225000X-0.250000X-0.225000X0*%
%ADD65RoundRect,0.050000X-0.050000X-0.187500X0.050000X-0.187500X0.050000X0.187500X-0.050000X0.187500X0*%
%ADD66RoundRect,0.250000X-0.475000X0.250000X-0.475000X-0.250000X0.475000X-0.250000X0.475000X0.250000X0*%
%ADD67RoundRect,0.140000X-0.170000X0.140000X-0.170000X-0.140000X0.170000X-0.140000X0.170000X0.140000X0*%
%ADD68RoundRect,0.225000X-0.225000X-0.250000X0.225000X-0.250000X0.225000X0.250000X-0.225000X0.250000X0*%
%ADD69R,1.350000X1.350000*%
%ADD70O,1.350000X1.350000*%
%ADD71RoundRect,0.125000X-0.125000X0.125000X-0.125000X-0.125000X0.125000X-0.125000X0.125000X0.125000X0*%
%ADD72O,1.900000X0.400000*%
%ADD73RoundRect,0.100000X-0.850000X0.100000X-0.850000X-0.100000X0.850000X-0.100000X0.850000X0.100000X0*%
%ADD74RoundRect,0.200000X-0.275000X0.200000X-0.275000X-0.200000X0.275000X-0.200000X0.275000X0.200000X0*%
%ADD75RoundRect,0.250000X0.900000X-1.000000X0.900000X1.000000X-0.900000X1.000000X-0.900000X-1.000000X0*%
%ADD76RoundRect,0.250000X0.475000X-0.250000X0.475000X0.250000X-0.475000X0.250000X-0.475000X-0.250000X0*%
G04 APERTURE END LIST*
D10*
X151865797Y-67277233D02*
X151865797Y-67777233D01*
X151865797Y-67777233D02*
X151832464Y-67877233D01*
X151832464Y-67877233D02*
X151765797Y-67943900D01*
X151765797Y-67943900D02*
X151665797Y-67977233D01*
X151665797Y-67977233D02*
X151599131Y-67977233D01*
X152532464Y-67977233D02*
X152199130Y-67977233D01*
X152199130Y-67977233D02*
X152199130Y-67277233D01*
X153165797Y-67910566D02*
X153132464Y-67943900D01*
X153132464Y-67943900D02*
X153032464Y-67977233D01*
X153032464Y-67977233D02*
X152965797Y-67977233D01*
X152965797Y-67977233D02*
X152865797Y-67943900D01*
X152865797Y-67943900D02*
X152799131Y-67877233D01*
X152799131Y-67877233D02*
X152765797Y-67810566D01*
X152765797Y-67810566D02*
X152732464Y-67677233D01*
X152732464Y-67677233D02*
X152732464Y-67577233D01*
X152732464Y-67577233D02*
X152765797Y-67443900D01*
X152765797Y-67443900D02*
X152799131Y-67377233D01*
X152799131Y-67377233D02*
X152865797Y-67310566D01*
X152865797Y-67310566D02*
X152965797Y-67277233D01*
X152965797Y-67277233D02*
X153032464Y-67277233D01*
X153032464Y-67277233D02*
X153132464Y-67310566D01*
X153132464Y-67310566D02*
X153165797Y-67343900D01*
X153665797Y-67277233D02*
X153665797Y-67777233D01*
X153665797Y-67777233D02*
X153632464Y-67877233D01*
X153632464Y-67877233D02*
X153565797Y-67943900D01*
X153565797Y-67943900D02*
X153465797Y-67977233D01*
X153465797Y-67977233D02*
X153399131Y-67977233D01*
X154332464Y-67977233D02*
X153999130Y-67977233D01*
X153999130Y-67977233D02*
X153999130Y-67277233D01*
X154965797Y-67910566D02*
X154932464Y-67943900D01*
X154932464Y-67943900D02*
X154832464Y-67977233D01*
X154832464Y-67977233D02*
X154765797Y-67977233D01*
X154765797Y-67977233D02*
X154665797Y-67943900D01*
X154665797Y-67943900D02*
X154599131Y-67877233D01*
X154599131Y-67877233D02*
X154565797Y-67810566D01*
X154565797Y-67810566D02*
X154532464Y-67677233D01*
X154532464Y-67677233D02*
X154532464Y-67577233D01*
X154532464Y-67577233D02*
X154565797Y-67443900D01*
X154565797Y-67443900D02*
X154599131Y-67377233D01*
X154599131Y-67377233D02*
X154665797Y-67310566D01*
X154665797Y-67310566D02*
X154765797Y-67277233D01*
X154765797Y-67277233D02*
X154832464Y-67277233D01*
X154832464Y-67277233D02*
X154932464Y-67310566D01*
X154932464Y-67310566D02*
X154965797Y-67343900D01*
X155465797Y-67277233D02*
X155465797Y-67777233D01*
X155465797Y-67777233D02*
X155432464Y-67877233D01*
X155432464Y-67877233D02*
X155365797Y-67943900D01*
X155365797Y-67943900D02*
X155265797Y-67977233D01*
X155265797Y-67977233D02*
X155199131Y-67977233D01*
X156132464Y-67977233D02*
X155799130Y-67977233D01*
X155799130Y-67977233D02*
X155799130Y-67277233D01*
X156765797Y-67910566D02*
X156732464Y-67943900D01*
X156732464Y-67943900D02*
X156632464Y-67977233D01*
X156632464Y-67977233D02*
X156565797Y-67977233D01*
X156565797Y-67977233D02*
X156465797Y-67943900D01*
X156465797Y-67943900D02*
X156399131Y-67877233D01*
X156399131Y-67877233D02*
X156365797Y-67810566D01*
X156365797Y-67810566D02*
X156332464Y-67677233D01*
X156332464Y-67677233D02*
X156332464Y-67577233D01*
X156332464Y-67577233D02*
X156365797Y-67443900D01*
X156365797Y-67443900D02*
X156399131Y-67377233D01*
X156399131Y-67377233D02*
X156465797Y-67310566D01*
X156465797Y-67310566D02*
X156565797Y-67277233D01*
X156565797Y-67277233D02*
X156632464Y-67277233D01*
X156632464Y-67277233D02*
X156732464Y-67310566D01*
X156732464Y-67310566D02*
X156765797Y-67343900D01*
X157265797Y-67277233D02*
X157265797Y-67777233D01*
X157265797Y-67777233D02*
X157232464Y-67877233D01*
X157232464Y-67877233D02*
X157165797Y-67943900D01*
X157165797Y-67943900D02*
X157065797Y-67977233D01*
X157065797Y-67977233D02*
X156999131Y-67977233D01*
X157932464Y-67977233D02*
X157599130Y-67977233D01*
X157599130Y-67977233D02*
X157599130Y-67277233D01*
X158565797Y-67910566D02*
X158532464Y-67943900D01*
X158532464Y-67943900D02*
X158432464Y-67977233D01*
X158432464Y-67977233D02*
X158365797Y-67977233D01*
X158365797Y-67977233D02*
X158265797Y-67943900D01*
X158265797Y-67943900D02*
X158199131Y-67877233D01*
X158199131Y-67877233D02*
X158165797Y-67810566D01*
X158165797Y-67810566D02*
X158132464Y-67677233D01*
X158132464Y-67677233D02*
X158132464Y-67577233D01*
X158132464Y-67577233D02*
X158165797Y-67443900D01*
X158165797Y-67443900D02*
X158199131Y-67377233D01*
X158199131Y-67377233D02*
X158265797Y-67310566D01*
X158265797Y-67310566D02*
X158365797Y-67277233D01*
X158365797Y-67277233D02*
X158432464Y-67277233D01*
X158432464Y-67277233D02*
X158532464Y-67310566D01*
X158532464Y-67310566D02*
X158565797Y-67343900D01*
D11*
X138825541Y-90134945D02*
X139333541Y-90134945D01*
X139333541Y-90134945D02*
X139006969Y-90896945D01*
X139986683Y-90134945D02*
X139623826Y-90134945D01*
X139623826Y-90134945D02*
X139587540Y-90497802D01*
X139587540Y-90497802D02*
X139623826Y-90461517D01*
X139623826Y-90461517D02*
X139696398Y-90425231D01*
X139696398Y-90425231D02*
X139877826Y-90425231D01*
X139877826Y-90425231D02*
X139950398Y-90461517D01*
X139950398Y-90461517D02*
X139986683Y-90497802D01*
X139986683Y-90497802D02*
X140022969Y-90570374D01*
X140022969Y-90570374D02*
X140022969Y-90751802D01*
X140022969Y-90751802D02*
X139986683Y-90824374D01*
X139986683Y-90824374D02*
X139950398Y-90860660D01*
X139950398Y-90860660D02*
X139877826Y-90896945D01*
X139877826Y-90896945D02*
X139696398Y-90896945D01*
X139696398Y-90896945D02*
X139623826Y-90860660D01*
X139623826Y-90860660D02*
X139587540Y-90824374D01*
X140313254Y-90896945D02*
X140893826Y-90134945D01*
X140422112Y-90134945D02*
X140494683Y-90171231D01*
X140494683Y-90171231D02*
X140530969Y-90243802D01*
X140530969Y-90243802D02*
X140494683Y-90316374D01*
X140494683Y-90316374D02*
X140422112Y-90352660D01*
X140422112Y-90352660D02*
X140349540Y-90316374D01*
X140349540Y-90316374D02*
X140313254Y-90243802D01*
X140313254Y-90243802D02*
X140349540Y-90171231D01*
X140349540Y-90171231D02*
X140422112Y-90134945D01*
X140857540Y-90860660D02*
X140893826Y-90788088D01*
X140893826Y-90788088D02*
X140857540Y-90715517D01*
X140857540Y-90715517D02*
X140784969Y-90679231D01*
X140784969Y-90679231D02*
X140712397Y-90715517D01*
X140712397Y-90715517D02*
X140676112Y-90788088D01*
X140676112Y-90788088D02*
X140712397Y-90860660D01*
X140712397Y-90860660D02*
X140784969Y-90896945D01*
X140784969Y-90896945D02*
X140857540Y-90860660D01*
D12*
X134403676Y-89307465D02*
X134657676Y-90069465D01*
X134657676Y-90069465D02*
X134911676Y-89307465D01*
X135216476Y-90153648D02*
X135158419Y-90124620D01*
X135158419Y-90124620D02*
X135129390Y-90095591D01*
X135129390Y-90095591D02*
X135100362Y-90037534D01*
X135100362Y-90037534D02*
X135100362Y-89863362D01*
X135100362Y-89863362D02*
X135129390Y-89805305D01*
X135129390Y-89805305D02*
X135158419Y-89776277D01*
X135158419Y-89776277D02*
X135216476Y-89747248D01*
X135216476Y-89747248D02*
X135303562Y-89747248D01*
X135303562Y-89747248D02*
X135361619Y-89776277D01*
X135361619Y-89776277D02*
X135390648Y-89805305D01*
X135390648Y-89805305D02*
X135419676Y-89863362D01*
X135419676Y-89863362D02*
X135419676Y-90037534D01*
X135419676Y-90037534D02*
X135390648Y-90095591D01*
X135390648Y-90095591D02*
X135361619Y-90124620D01*
X135361619Y-90124620D02*
X135303562Y-90153648D01*
X135303562Y-90153648D02*
X135216476Y-90153648D01*
X135942191Y-89747248D02*
X135942191Y-90153648D01*
X135680933Y-89747248D02*
X135680933Y-90066562D01*
X135680933Y-90066562D02*
X135709962Y-90124620D01*
X135709962Y-90124620D02*
X135768019Y-90153648D01*
X135768019Y-90153648D02*
X135855105Y-90153648D01*
X135855105Y-90153648D02*
X135913162Y-90124620D01*
X135913162Y-90124620D02*
X135942191Y-90095591D01*
X136145391Y-89747248D02*
X136377619Y-89747248D01*
X136232476Y-89544048D02*
X136232476Y-90066562D01*
X136232476Y-90066562D02*
X136261505Y-90124620D01*
X136261505Y-90124620D02*
X136319562Y-90153648D01*
X136319562Y-90153648D02*
X136377619Y-90153648D01*
X131812551Y-91580123D02*
X131776265Y-91652695D01*
X131776265Y-91652695D02*
X131776265Y-91761552D01*
X131776265Y-91761552D02*
X131812551Y-91870409D01*
X131812551Y-91870409D02*
X131885122Y-91942980D01*
X131885122Y-91942980D02*
X131957694Y-91979266D01*
X131957694Y-91979266D02*
X132102837Y-92015552D01*
X132102837Y-92015552D02*
X132211694Y-92015552D01*
X132211694Y-92015552D02*
X132356837Y-91979266D01*
X132356837Y-91979266D02*
X132429408Y-91942980D01*
X132429408Y-91942980D02*
X132501980Y-91870409D01*
X132501980Y-91870409D02*
X132538265Y-91761552D01*
X132538265Y-91761552D02*
X132538265Y-91688980D01*
X132538265Y-91688980D02*
X132501980Y-91580123D01*
X132501980Y-91580123D02*
X132465694Y-91543837D01*
X132465694Y-91543837D02*
X132211694Y-91543837D01*
X132211694Y-91543837D02*
X132211694Y-91688980D01*
X132538265Y-91217266D02*
X131776265Y-91217266D01*
X131776265Y-91217266D02*
X132538265Y-90781837D01*
X132538265Y-90781837D02*
X131776265Y-90781837D01*
X132538265Y-90418980D02*
X131776265Y-90418980D01*
X131776265Y-90418980D02*
X131776265Y-90237551D01*
X131776265Y-90237551D02*
X131812551Y-90128694D01*
X131812551Y-90128694D02*
X131885122Y-90056123D01*
X131885122Y-90056123D02*
X131957694Y-90019837D01*
X131957694Y-90019837D02*
X132102837Y-89983551D01*
X132102837Y-89983551D02*
X132211694Y-89983551D01*
X132211694Y-89983551D02*
X132356837Y-90019837D01*
X132356837Y-90019837D02*
X132429408Y-90056123D01*
X132429408Y-90056123D02*
X132501980Y-90128694D01*
X132501980Y-90128694D02*
X132538265Y-90237551D01*
X132538265Y-90237551D02*
X132538265Y-90418980D01*
D11*
X168367980Y-94207951D02*
X168844171Y-93874618D01*
X168367980Y-93636523D02*
X169367980Y-93636523D01*
X169367980Y-93636523D02*
X169367980Y-94017475D01*
X169367980Y-94017475D02*
X169320361Y-94112713D01*
X169320361Y-94112713D02*
X169272742Y-94160332D01*
X169272742Y-94160332D02*
X169177504Y-94207951D01*
X169177504Y-94207951D02*
X169034647Y-94207951D01*
X169034647Y-94207951D02*
X168939409Y-94160332D01*
X168939409Y-94160332D02*
X168891790Y-94112713D01*
X168891790Y-94112713D02*
X168844171Y-94017475D01*
X168844171Y-94017475D02*
X168844171Y-93636523D01*
X168415600Y-95017475D02*
X168367980Y-94922237D01*
X168367980Y-94922237D02*
X168367980Y-94731761D01*
X168367980Y-94731761D02*
X168415600Y-94636523D01*
X168415600Y-94636523D02*
X168510838Y-94588904D01*
X168510838Y-94588904D02*
X168891790Y-94588904D01*
X168891790Y-94588904D02*
X168987028Y-94636523D01*
X168987028Y-94636523D02*
X169034647Y-94731761D01*
X169034647Y-94731761D02*
X169034647Y-94922237D01*
X169034647Y-94922237D02*
X168987028Y-95017475D01*
X168987028Y-95017475D02*
X168891790Y-95065094D01*
X168891790Y-95065094D02*
X168796552Y-95065094D01*
X168796552Y-95065094D02*
X168701314Y-94588904D01*
X168415600Y-95446047D02*
X168367980Y-95541285D01*
X168367980Y-95541285D02*
X168367980Y-95731761D01*
X168367980Y-95731761D02*
X168415600Y-95826999D01*
X168415600Y-95826999D02*
X168510838Y-95874618D01*
X168510838Y-95874618D02*
X168558457Y-95874618D01*
X168558457Y-95874618D02*
X168653695Y-95826999D01*
X168653695Y-95826999D02*
X168701314Y-95731761D01*
X168701314Y-95731761D02*
X168701314Y-95588904D01*
X168701314Y-95588904D02*
X168748933Y-95493666D01*
X168748933Y-95493666D02*
X168844171Y-95446047D01*
X168844171Y-95446047D02*
X168891790Y-95446047D01*
X168891790Y-95446047D02*
X168987028Y-95493666D01*
X168987028Y-95493666D02*
X169034647Y-95588904D01*
X169034647Y-95588904D02*
X169034647Y-95731761D01*
X169034647Y-95731761D02*
X168987028Y-95826999D01*
X168415600Y-96684142D02*
X168367980Y-96588904D01*
X168367980Y-96588904D02*
X168367980Y-96398428D01*
X168367980Y-96398428D02*
X168415600Y-96303190D01*
X168415600Y-96303190D02*
X168510838Y-96255571D01*
X168510838Y-96255571D02*
X168891790Y-96255571D01*
X168891790Y-96255571D02*
X168987028Y-96303190D01*
X168987028Y-96303190D02*
X169034647Y-96398428D01*
X169034647Y-96398428D02*
X169034647Y-96588904D01*
X169034647Y-96588904D02*
X168987028Y-96684142D01*
X168987028Y-96684142D02*
X168891790Y-96731761D01*
X168891790Y-96731761D02*
X168796552Y-96731761D01*
X168796552Y-96731761D02*
X168701314Y-96255571D01*
X169034647Y-97017476D02*
X169034647Y-97398428D01*
X169367980Y-97160333D02*
X168510838Y-97160333D01*
X168510838Y-97160333D02*
X168415600Y-97207952D01*
X168415600Y-97207952D02*
X168367980Y-97303190D01*
X168367980Y-97303190D02*
X168367980Y-97398428D01*
X169034647Y-98446048D02*
X169034647Y-99160333D01*
X169463219Y-98731762D02*
X168177504Y-98446048D01*
X168606076Y-99065095D02*
X168606076Y-98350810D01*
X168177504Y-98779381D02*
X169463219Y-99065095D01*
D13*
X136323101Y-95148980D02*
X136275482Y-95196600D01*
X136275482Y-95196600D02*
X136132625Y-95244219D01*
X136132625Y-95244219D02*
X136037387Y-95244219D01*
X136037387Y-95244219D02*
X135894530Y-95196600D01*
X135894530Y-95196600D02*
X135799292Y-95101361D01*
X135799292Y-95101361D02*
X135751673Y-95006123D01*
X135751673Y-95006123D02*
X135704054Y-94815647D01*
X135704054Y-94815647D02*
X135704054Y-94672790D01*
X135704054Y-94672790D02*
X135751673Y-94482314D01*
X135751673Y-94482314D02*
X135799292Y-94387076D01*
X135799292Y-94387076D02*
X135894530Y-94291838D01*
X135894530Y-94291838D02*
X136037387Y-94244219D01*
X136037387Y-94244219D02*
X136132625Y-94244219D01*
X136132625Y-94244219D02*
X136275482Y-94291838D01*
X136275482Y-94291838D02*
X136323101Y-94339457D01*
X136942149Y-94244219D02*
X137132625Y-94244219D01*
X137132625Y-94244219D02*
X137227863Y-94291838D01*
X137227863Y-94291838D02*
X137323101Y-94387076D01*
X137323101Y-94387076D02*
X137370720Y-94577552D01*
X137370720Y-94577552D02*
X137370720Y-94910885D01*
X137370720Y-94910885D02*
X137323101Y-95101361D01*
X137323101Y-95101361D02*
X137227863Y-95196600D01*
X137227863Y-95196600D02*
X137132625Y-95244219D01*
X137132625Y-95244219D02*
X136942149Y-95244219D01*
X136942149Y-95244219D02*
X136846911Y-95196600D01*
X136846911Y-95196600D02*
X136751673Y-95101361D01*
X136751673Y-95101361D02*
X136704054Y-94910885D01*
X136704054Y-94910885D02*
X136704054Y-94577552D01*
X136704054Y-94577552D02*
X136751673Y-94387076D01*
X136751673Y-94387076D02*
X136846911Y-94291838D01*
X136846911Y-94291838D02*
X136942149Y-94244219D01*
X137799292Y-94244219D02*
X137799292Y-95053742D01*
X137799292Y-95053742D02*
X137846911Y-95148980D01*
X137846911Y-95148980D02*
X137894530Y-95196600D01*
X137894530Y-95196600D02*
X137989768Y-95244219D01*
X137989768Y-95244219D02*
X138180244Y-95244219D01*
X138180244Y-95244219D02*
X138275482Y-95196600D01*
X138275482Y-95196600D02*
X138323101Y-95148980D01*
X138323101Y-95148980D02*
X138370720Y-95053742D01*
X138370720Y-95053742D02*
X138370720Y-94244219D01*
X138846911Y-95244219D02*
X138846911Y-94244219D01*
X138846911Y-94244219D02*
X139418339Y-95244219D01*
X139418339Y-95244219D02*
X139418339Y-94244219D01*
X139751673Y-94244219D02*
X140323101Y-94244219D01*
X140037387Y-95244219D02*
X140037387Y-94244219D01*
D11*
X163579180Y-83902779D02*
X164579180Y-83902779D01*
X164579180Y-83902779D02*
X164579180Y-84283731D01*
X164579180Y-84283731D02*
X164531561Y-84378969D01*
X164531561Y-84378969D02*
X164483942Y-84426588D01*
X164483942Y-84426588D02*
X164388704Y-84474207D01*
X164388704Y-84474207D02*
X164245847Y-84474207D01*
X164245847Y-84474207D02*
X164150609Y-84426588D01*
X164150609Y-84426588D02*
X164102990Y-84378969D01*
X164102990Y-84378969D02*
X164055371Y-84283731D01*
X164055371Y-84283731D02*
X164055371Y-83902779D01*
X164579180Y-84807541D02*
X163579180Y-85045636D01*
X163579180Y-85045636D02*
X164293466Y-85236112D01*
X164293466Y-85236112D02*
X163579180Y-85426588D01*
X163579180Y-85426588D02*
X164579180Y-85664684D01*
X163579180Y-86617064D02*
X164055371Y-86283731D01*
X163579180Y-86045636D02*
X164579180Y-86045636D01*
X164579180Y-86045636D02*
X164579180Y-86426588D01*
X164579180Y-86426588D02*
X164531561Y-86521826D01*
X164531561Y-86521826D02*
X164483942Y-86569445D01*
X164483942Y-86569445D02*
X164388704Y-86617064D01*
X164388704Y-86617064D02*
X164245847Y-86617064D01*
X164245847Y-86617064D02*
X164150609Y-86569445D01*
X164150609Y-86569445D02*
X164102990Y-86521826D01*
X164102990Y-86521826D02*
X164055371Y-86426588D01*
X164055371Y-86426588D02*
X164055371Y-86045636D01*
X146396980Y-95584207D02*
X146873171Y-95250874D01*
X146396980Y-95012779D02*
X147396980Y-95012779D01*
X147396980Y-95012779D02*
X147396980Y-95393731D01*
X147396980Y-95393731D02*
X147349361Y-95488969D01*
X147349361Y-95488969D02*
X147301742Y-95536588D01*
X147301742Y-95536588D02*
X147206504Y-95584207D01*
X147206504Y-95584207D02*
X147063647Y-95584207D01*
X147063647Y-95584207D02*
X146968409Y-95536588D01*
X146968409Y-95536588D02*
X146920790Y-95488969D01*
X146920790Y-95488969D02*
X146873171Y-95393731D01*
X146873171Y-95393731D02*
X146873171Y-95012779D01*
X146920790Y-96012779D02*
X146920790Y-96346112D01*
X146396980Y-96488969D02*
X146396980Y-96012779D01*
X146396980Y-96012779D02*
X147396980Y-96012779D01*
X147396980Y-96012779D02*
X147396980Y-96488969D01*
X146920790Y-97250874D02*
X146920790Y-96917541D01*
X146396980Y-96917541D02*
X147396980Y-96917541D01*
X147396980Y-96917541D02*
X147396980Y-97393731D01*
X146396980Y-98346112D02*
X146873171Y-98012779D01*
X146396980Y-97774684D02*
X147396980Y-97774684D01*
X147396980Y-97774684D02*
X147396980Y-98155636D01*
X147396980Y-98155636D02*
X147349361Y-98250874D01*
X147349361Y-98250874D02*
X147301742Y-98298493D01*
X147301742Y-98298493D02*
X147206504Y-98346112D01*
X147206504Y-98346112D02*
X147063647Y-98346112D01*
X147063647Y-98346112D02*
X146968409Y-98298493D01*
X146968409Y-98298493D02*
X146920790Y-98250874D01*
X146920790Y-98250874D02*
X146873171Y-98155636D01*
X146873171Y-98155636D02*
X146873171Y-97774684D01*
X146920790Y-98774684D02*
X146920790Y-99108017D01*
X146396980Y-99250874D02*
X146396980Y-98774684D01*
X146396980Y-98774684D02*
X147396980Y-98774684D01*
X147396980Y-98774684D02*
X147396980Y-99250874D01*
X146444600Y-99631827D02*
X146396980Y-99774684D01*
X146396980Y-99774684D02*
X146396980Y-100012779D01*
X146396980Y-100012779D02*
X146444600Y-100108017D01*
X146444600Y-100108017D02*
X146492219Y-100155636D01*
X146492219Y-100155636D02*
X146587457Y-100203255D01*
X146587457Y-100203255D02*
X146682695Y-100203255D01*
X146682695Y-100203255D02*
X146777933Y-100155636D01*
X146777933Y-100155636D02*
X146825552Y-100108017D01*
X146825552Y-100108017D02*
X146873171Y-100012779D01*
X146873171Y-100012779D02*
X146920790Y-99822303D01*
X146920790Y-99822303D02*
X146968409Y-99727065D01*
X146968409Y-99727065D02*
X147016028Y-99679446D01*
X147016028Y-99679446D02*
X147111266Y-99631827D01*
X147111266Y-99631827D02*
X147206504Y-99631827D01*
X147206504Y-99631827D02*
X147301742Y-99679446D01*
X147301742Y-99679446D02*
X147349361Y-99727065D01*
X147349361Y-99727065D02*
X147396980Y-99822303D01*
X147396980Y-99822303D02*
X147396980Y-100060398D01*
X147396980Y-100060398D02*
X147349361Y-100203255D01*
X146396980Y-100631827D02*
X147396980Y-100631827D01*
X146920790Y-100631827D02*
X146920790Y-101203255D01*
X146396980Y-101203255D02*
X147396980Y-101203255D01*
D12*
X132371676Y-65721751D02*
X132299105Y-65685465D01*
X132299105Y-65685465D02*
X132190247Y-65685465D01*
X132190247Y-65685465D02*
X132081390Y-65721751D01*
X132081390Y-65721751D02*
X132008819Y-65794322D01*
X132008819Y-65794322D02*
X131972533Y-65866894D01*
X131972533Y-65866894D02*
X131936247Y-66012037D01*
X131936247Y-66012037D02*
X131936247Y-66120894D01*
X131936247Y-66120894D02*
X131972533Y-66266037D01*
X131972533Y-66266037D02*
X132008819Y-66338608D01*
X132008819Y-66338608D02*
X132081390Y-66411180D01*
X132081390Y-66411180D02*
X132190247Y-66447465D01*
X132190247Y-66447465D02*
X132262819Y-66447465D01*
X132262819Y-66447465D02*
X132371676Y-66411180D01*
X132371676Y-66411180D02*
X132407962Y-66374894D01*
X132407962Y-66374894D02*
X132407962Y-66120894D01*
X132407962Y-66120894D02*
X132262819Y-66120894D01*
X132734533Y-66447465D02*
X132734533Y-65685465D01*
X132734533Y-65685465D02*
X133169962Y-66447465D01*
X133169962Y-66447465D02*
X133169962Y-65685465D01*
X133532819Y-66447465D02*
X133532819Y-65685465D01*
X133532819Y-65685465D02*
X133714248Y-65685465D01*
X133714248Y-65685465D02*
X133823105Y-65721751D01*
X133823105Y-65721751D02*
X133895676Y-65794322D01*
X133895676Y-65794322D02*
X133931962Y-65866894D01*
X133931962Y-65866894D02*
X133968248Y-66012037D01*
X133968248Y-66012037D02*
X133968248Y-66120894D01*
X133968248Y-66120894D02*
X133931962Y-66266037D01*
X133931962Y-66266037D02*
X133895676Y-66338608D01*
X133895676Y-66338608D02*
X133823105Y-66411180D01*
X133823105Y-66411180D02*
X133714248Y-66447465D01*
X133714248Y-66447465D02*
X133532819Y-66447465D01*
X137197676Y-93153751D02*
X137125105Y-93117465D01*
X137125105Y-93117465D02*
X137016247Y-93117465D01*
X137016247Y-93117465D02*
X136907390Y-93153751D01*
X136907390Y-93153751D02*
X136834819Y-93226322D01*
X136834819Y-93226322D02*
X136798533Y-93298894D01*
X136798533Y-93298894D02*
X136762247Y-93444037D01*
X136762247Y-93444037D02*
X136762247Y-93552894D01*
X136762247Y-93552894D02*
X136798533Y-93698037D01*
X136798533Y-93698037D02*
X136834819Y-93770608D01*
X136834819Y-93770608D02*
X136907390Y-93843180D01*
X136907390Y-93843180D02*
X137016247Y-93879465D01*
X137016247Y-93879465D02*
X137088819Y-93879465D01*
X137088819Y-93879465D02*
X137197676Y-93843180D01*
X137197676Y-93843180D02*
X137233962Y-93806894D01*
X137233962Y-93806894D02*
X137233962Y-93552894D01*
X137233962Y-93552894D02*
X137088819Y-93552894D01*
X137560533Y-93879465D02*
X137560533Y-93117465D01*
X137560533Y-93117465D02*
X137995962Y-93879465D01*
X137995962Y-93879465D02*
X137995962Y-93117465D01*
X138358819Y-93879465D02*
X138358819Y-93117465D01*
X138358819Y-93117465D02*
X138540248Y-93117465D01*
X138540248Y-93117465D02*
X138649105Y-93153751D01*
X138649105Y-93153751D02*
X138721676Y-93226322D01*
X138721676Y-93226322D02*
X138757962Y-93298894D01*
X138757962Y-93298894D02*
X138794248Y-93444037D01*
X138794248Y-93444037D02*
X138794248Y-93552894D01*
X138794248Y-93552894D02*
X138757962Y-93698037D01*
X138757962Y-93698037D02*
X138721676Y-93770608D01*
X138721676Y-93770608D02*
X138649105Y-93843180D01*
X138649105Y-93843180D02*
X138540248Y-93879465D01*
X138540248Y-93879465D02*
X138358819Y-93879465D01*
D11*
X138728255Y-78892945D02*
X138292826Y-78892945D01*
X138510541Y-78892945D02*
X138510541Y-78130945D01*
X138510541Y-78130945D02*
X138437969Y-78239802D01*
X138437969Y-78239802D02*
X138365398Y-78312374D01*
X138365398Y-78312374D02*
X138292826Y-78348660D01*
X139199969Y-78130945D02*
X139272540Y-78130945D01*
X139272540Y-78130945D02*
X139345112Y-78167231D01*
X139345112Y-78167231D02*
X139381398Y-78203517D01*
X139381398Y-78203517D02*
X139417683Y-78276088D01*
X139417683Y-78276088D02*
X139453969Y-78421231D01*
X139453969Y-78421231D02*
X139453969Y-78602660D01*
X139453969Y-78602660D02*
X139417683Y-78747802D01*
X139417683Y-78747802D02*
X139381398Y-78820374D01*
X139381398Y-78820374D02*
X139345112Y-78856660D01*
X139345112Y-78856660D02*
X139272540Y-78892945D01*
X139272540Y-78892945D02*
X139199969Y-78892945D01*
X139199969Y-78892945D02*
X139127398Y-78856660D01*
X139127398Y-78856660D02*
X139091112Y-78820374D01*
X139091112Y-78820374D02*
X139054826Y-78747802D01*
X139054826Y-78747802D02*
X139018540Y-78602660D01*
X139018540Y-78602660D02*
X139018540Y-78421231D01*
X139018540Y-78421231D02*
X139054826Y-78276088D01*
X139054826Y-78276088D02*
X139091112Y-78203517D01*
X139091112Y-78203517D02*
X139127398Y-78167231D01*
X139127398Y-78167231D02*
X139199969Y-78130945D01*
X139925683Y-78130945D02*
X139998254Y-78130945D01*
X139998254Y-78130945D02*
X140070826Y-78167231D01*
X140070826Y-78167231D02*
X140107112Y-78203517D01*
X140107112Y-78203517D02*
X140143397Y-78276088D01*
X140143397Y-78276088D02*
X140179683Y-78421231D01*
X140179683Y-78421231D02*
X140179683Y-78602660D01*
X140179683Y-78602660D02*
X140143397Y-78747802D01*
X140143397Y-78747802D02*
X140107112Y-78820374D01*
X140107112Y-78820374D02*
X140070826Y-78856660D01*
X140070826Y-78856660D02*
X139998254Y-78892945D01*
X139998254Y-78892945D02*
X139925683Y-78892945D01*
X139925683Y-78892945D02*
X139853112Y-78856660D01*
X139853112Y-78856660D02*
X139816826Y-78820374D01*
X139816826Y-78820374D02*
X139780540Y-78747802D01*
X139780540Y-78747802D02*
X139744254Y-78602660D01*
X139744254Y-78602660D02*
X139744254Y-78421231D01*
X139744254Y-78421231D02*
X139780540Y-78276088D01*
X139780540Y-78276088D02*
X139816826Y-78203517D01*
X139816826Y-78203517D02*
X139853112Y-78167231D01*
X139853112Y-78167231D02*
X139925683Y-78130945D01*
X140469968Y-78892945D02*
X141050540Y-78130945D01*
X140578826Y-78130945D02*
X140651397Y-78167231D01*
X140651397Y-78167231D02*
X140687683Y-78239802D01*
X140687683Y-78239802D02*
X140651397Y-78312374D01*
X140651397Y-78312374D02*
X140578826Y-78348660D01*
X140578826Y-78348660D02*
X140506254Y-78312374D01*
X140506254Y-78312374D02*
X140469968Y-78239802D01*
X140469968Y-78239802D02*
X140506254Y-78167231D01*
X140506254Y-78167231D02*
X140578826Y-78130945D01*
X141014254Y-78856660D02*
X141050540Y-78784088D01*
X141050540Y-78784088D02*
X141014254Y-78711517D01*
X141014254Y-78711517D02*
X140941683Y-78675231D01*
X140941683Y-78675231D02*
X140869111Y-78711517D01*
X140869111Y-78711517D02*
X140832826Y-78784088D01*
X140832826Y-78784088D02*
X140869111Y-78856660D01*
X140869111Y-78856660D02*
X140941683Y-78892945D01*
X140941683Y-78892945D02*
X141014254Y-78856660D01*
D12*
X127164676Y-89663065D02*
X127418676Y-90425065D01*
X127418676Y-90425065D02*
X127672676Y-89663065D01*
X127861362Y-90480220D02*
X127919419Y-90509248D01*
X127919419Y-90509248D02*
X128035533Y-90509248D01*
X128035533Y-90509248D02*
X128093590Y-90480220D01*
X128093590Y-90480220D02*
X128122619Y-90422162D01*
X128122619Y-90422162D02*
X128122619Y-90393134D01*
X128122619Y-90393134D02*
X128093590Y-90335077D01*
X128093590Y-90335077D02*
X128035533Y-90306048D01*
X128035533Y-90306048D02*
X127948448Y-90306048D01*
X127948448Y-90306048D02*
X127890390Y-90277020D01*
X127890390Y-90277020D02*
X127861362Y-90218962D01*
X127861362Y-90218962D02*
X127861362Y-90189934D01*
X127861362Y-90189934D02*
X127890390Y-90131877D01*
X127890390Y-90131877D02*
X127948448Y-90102848D01*
X127948448Y-90102848D02*
X128035533Y-90102848D01*
X128035533Y-90102848D02*
X128093590Y-90131877D01*
X130073476Y-70003465D02*
X130327476Y-70765465D01*
X130327476Y-70765465D02*
X130581476Y-70003465D01*
X130799190Y-70849648D02*
X130799190Y-70443248D01*
X130799190Y-70240048D02*
X130770162Y-70269077D01*
X130770162Y-70269077D02*
X130799190Y-70298105D01*
X130799190Y-70298105D02*
X130828219Y-70269077D01*
X130828219Y-70269077D02*
X130799190Y-70240048D01*
X130799190Y-70240048D02*
X130799190Y-70298105D01*
X131089476Y-70443248D02*
X131089476Y-70849648D01*
X131089476Y-70501305D02*
X131118505Y-70472277D01*
X131118505Y-70472277D02*
X131176562Y-70443248D01*
X131176562Y-70443248D02*
X131263648Y-70443248D01*
X131263648Y-70443248D02*
X131321705Y-70472277D01*
X131321705Y-70472277D02*
X131350734Y-70530334D01*
X131350734Y-70530334D02*
X131350734Y-70849648D01*
X162506962Y-89688465D02*
X162978676Y-89688465D01*
X162978676Y-89688465D02*
X162724676Y-89978751D01*
X162724676Y-89978751D02*
X162833533Y-89978751D01*
X162833533Y-89978751D02*
X162906105Y-90015037D01*
X162906105Y-90015037D02*
X162942390Y-90051322D01*
X162942390Y-90051322D02*
X162978676Y-90123894D01*
X162978676Y-90123894D02*
X162978676Y-90305322D01*
X162978676Y-90305322D02*
X162942390Y-90377894D01*
X162942390Y-90377894D02*
X162906105Y-90414180D01*
X162906105Y-90414180D02*
X162833533Y-90450465D01*
X162833533Y-90450465D02*
X162615819Y-90450465D01*
X162615819Y-90450465D02*
X162543247Y-90414180D01*
X162543247Y-90414180D02*
X162506962Y-90377894D01*
X163196390Y-89688465D02*
X163450390Y-90450465D01*
X163450390Y-90450465D02*
X163704390Y-89688465D01*
X163885819Y-89688465D02*
X164357533Y-89688465D01*
X164357533Y-89688465D02*
X164103533Y-89978751D01*
X164103533Y-89978751D02*
X164212390Y-89978751D01*
X164212390Y-89978751D02*
X164284962Y-90015037D01*
X164284962Y-90015037D02*
X164321247Y-90051322D01*
X164321247Y-90051322D02*
X164357533Y-90123894D01*
X164357533Y-90123894D02*
X164357533Y-90305322D01*
X164357533Y-90305322D02*
X164321247Y-90377894D01*
X164321247Y-90377894D02*
X164284962Y-90414180D01*
X164284962Y-90414180D02*
X164212390Y-90450465D01*
X164212390Y-90450465D02*
X163994676Y-90450465D01*
X163994676Y-90450465D02*
X163922104Y-90414180D01*
X163922104Y-90414180D02*
X163885819Y-90377894D01*
D13*
X130544673Y-95244219D02*
X130544673Y-94244219D01*
X130544673Y-94244219D02*
X130878006Y-94958504D01*
X130878006Y-94958504D02*
X131211339Y-94244219D01*
X131211339Y-94244219D02*
X131211339Y-95244219D01*
X131878006Y-94244219D02*
X132068482Y-94244219D01*
X132068482Y-94244219D02*
X132163720Y-94291838D01*
X132163720Y-94291838D02*
X132258958Y-94387076D01*
X132258958Y-94387076D02*
X132306577Y-94577552D01*
X132306577Y-94577552D02*
X132306577Y-94910885D01*
X132306577Y-94910885D02*
X132258958Y-95101361D01*
X132258958Y-95101361D02*
X132163720Y-95196600D01*
X132163720Y-95196600D02*
X132068482Y-95244219D01*
X132068482Y-95244219D02*
X131878006Y-95244219D01*
X131878006Y-95244219D02*
X131782768Y-95196600D01*
X131782768Y-95196600D02*
X131687530Y-95101361D01*
X131687530Y-95101361D02*
X131639911Y-94910885D01*
X131639911Y-94910885D02*
X131639911Y-94577552D01*
X131639911Y-94577552D02*
X131687530Y-94387076D01*
X131687530Y-94387076D02*
X131782768Y-94291838D01*
X131782768Y-94291838D02*
X131878006Y-94244219D01*
X132592292Y-94244219D02*
X133163720Y-94244219D01*
X132878006Y-95244219D02*
X132878006Y-94244219D01*
X133687530Y-94244219D02*
X133878006Y-94244219D01*
X133878006Y-94244219D02*
X133973244Y-94291838D01*
X133973244Y-94291838D02*
X134068482Y-94387076D01*
X134068482Y-94387076D02*
X134116101Y-94577552D01*
X134116101Y-94577552D02*
X134116101Y-94910885D01*
X134116101Y-94910885D02*
X134068482Y-95101361D01*
X134068482Y-95101361D02*
X133973244Y-95196600D01*
X133973244Y-95196600D02*
X133878006Y-95244219D01*
X133878006Y-95244219D02*
X133687530Y-95244219D01*
X133687530Y-95244219D02*
X133592292Y-95196600D01*
X133592292Y-95196600D02*
X133497054Y-95101361D01*
X133497054Y-95101361D02*
X133449435Y-94910885D01*
X133449435Y-94910885D02*
X133449435Y-94577552D01*
X133449435Y-94577552D02*
X133497054Y-94387076D01*
X133497054Y-94387076D02*
X133592292Y-94291838D01*
X133592292Y-94291838D02*
X133687530Y-94244219D01*
X135116101Y-95244219D02*
X134782768Y-94768028D01*
X134544673Y-95244219D02*
X134544673Y-94244219D01*
X134544673Y-94244219D02*
X134925625Y-94244219D01*
X134925625Y-94244219D02*
X135020863Y-94291838D01*
X135020863Y-94291838D02*
X135068482Y-94339457D01*
X135068482Y-94339457D02*
X135116101Y-94434695D01*
X135116101Y-94434695D02*
X135116101Y-94577552D01*
X135116101Y-94577552D02*
X135068482Y-94672790D01*
X135068482Y-94672790D02*
X135020863Y-94720409D01*
X135020863Y-94720409D02*
X134925625Y-94768028D01*
X134925625Y-94768028D02*
X134544673Y-94768028D01*
D11*
X161364333Y-83577580D02*
X161316714Y-83625200D01*
X161316714Y-83625200D02*
X161173857Y-83672819D01*
X161173857Y-83672819D02*
X161078619Y-83672819D01*
X161078619Y-83672819D02*
X160935762Y-83625200D01*
X160935762Y-83625200D02*
X160840524Y-83529961D01*
X160840524Y-83529961D02*
X160792905Y-83434723D01*
X160792905Y-83434723D02*
X160745286Y-83244247D01*
X160745286Y-83244247D02*
X160745286Y-83101390D01*
X160745286Y-83101390D02*
X160792905Y-82910914D01*
X160792905Y-82910914D02*
X160840524Y-82815676D01*
X160840524Y-82815676D02*
X160935762Y-82720438D01*
X160935762Y-82720438D02*
X161078619Y-82672819D01*
X161078619Y-82672819D02*
X161173857Y-82672819D01*
X161173857Y-82672819D02*
X161316714Y-82720438D01*
X161316714Y-82720438D02*
X161364333Y-82768057D01*
X162221476Y-83006152D02*
X162221476Y-83672819D01*
X161983381Y-82625200D02*
X161745286Y-83339485D01*
X161745286Y-83339485D02*
X162364333Y-83339485D01*
X137236200Y-86349115D02*
X136982200Y-85986258D01*
X136800771Y-86349115D02*
X136800771Y-85587115D01*
X136800771Y-85587115D02*
X137091057Y-85587115D01*
X137091057Y-85587115D02*
X137163628Y-85623401D01*
X137163628Y-85623401D02*
X137199914Y-85659687D01*
X137199914Y-85659687D02*
X137236200Y-85732258D01*
X137236200Y-85732258D02*
X137236200Y-85841115D01*
X137236200Y-85841115D02*
X137199914Y-85913687D01*
X137199914Y-85913687D02*
X137163628Y-85949972D01*
X137163628Y-85949972D02*
X137091057Y-85986258D01*
X137091057Y-85986258D02*
X136800771Y-85986258D01*
X137961914Y-86349115D02*
X137526485Y-86349115D01*
X137744200Y-86349115D02*
X137744200Y-85587115D01*
X137744200Y-85587115D02*
X137671628Y-85695972D01*
X137671628Y-85695972D02*
X137599057Y-85768544D01*
X137599057Y-85768544D02*
X137526485Y-85804830D01*
X149950715Y-65894856D02*
X149587858Y-66148856D01*
X149950715Y-66330285D02*
X149188715Y-66330285D01*
X149188715Y-66330285D02*
X149188715Y-66039999D01*
X149188715Y-66039999D02*
X149225001Y-65967428D01*
X149225001Y-65967428D02*
X149261287Y-65931142D01*
X149261287Y-65931142D02*
X149333858Y-65894856D01*
X149333858Y-65894856D02*
X149442715Y-65894856D01*
X149442715Y-65894856D02*
X149515287Y-65931142D01*
X149515287Y-65931142D02*
X149551572Y-65967428D01*
X149551572Y-65967428D02*
X149587858Y-66039999D01*
X149587858Y-66039999D02*
X149587858Y-66330285D01*
X149950715Y-65169142D02*
X149950715Y-65604571D01*
X149950715Y-65386856D02*
X149188715Y-65386856D01*
X149188715Y-65386856D02*
X149297572Y-65459428D01*
X149297572Y-65459428D02*
X149370144Y-65531999D01*
X149370144Y-65531999D02*
X149406430Y-65604571D01*
X149950715Y-64443428D02*
X149950715Y-64878857D01*
X149950715Y-64661142D02*
X149188715Y-64661142D01*
X149188715Y-64661142D02*
X149297572Y-64733714D01*
X149297572Y-64733714D02*
X149370144Y-64806285D01*
X149370144Y-64806285D02*
X149406430Y-64878857D01*
D14*
X129311684Y-75819000D02*
X129311684Y-75456143D01*
X129311684Y-75456143D02*
X130073684Y-75456143D01*
X129311684Y-76472143D02*
X129311684Y-76036714D01*
X129311684Y-76254429D02*
X130073684Y-76254429D01*
X130073684Y-76254429D02*
X129964827Y-76181857D01*
X129964827Y-76181857D02*
X129892255Y-76109286D01*
X129892255Y-76109286D02*
X129855970Y-76036714D01*
D15*
X141532428Y-64477609D02*
X141532428Y-65094466D01*
X141532428Y-65094466D02*
X141568714Y-65167038D01*
X141568714Y-65167038D02*
X141605000Y-65203324D01*
X141605000Y-65203324D02*
X141677571Y-65239609D01*
X141677571Y-65239609D02*
X141822714Y-65239609D01*
X141822714Y-65239609D02*
X141895285Y-65203324D01*
X141895285Y-65203324D02*
X141931571Y-65167038D01*
X141931571Y-65167038D02*
X141967857Y-65094466D01*
X141967857Y-65094466D02*
X141967857Y-64477609D01*
X142657286Y-64731609D02*
X142657286Y-65239609D01*
X142475857Y-64441324D02*
X142294428Y-64985609D01*
X142294428Y-64985609D02*
X142766143Y-64985609D01*
D11*
X137945287Y-81225571D02*
X137909001Y-81298142D01*
X137909001Y-81298142D02*
X137836430Y-81370714D01*
X137836430Y-81370714D02*
X137727572Y-81479571D01*
X137727572Y-81479571D02*
X137691287Y-81552142D01*
X137691287Y-81552142D02*
X137691287Y-81624714D01*
X137872715Y-81588428D02*
X137836430Y-81661000D01*
X137836430Y-81661000D02*
X137763858Y-81733571D01*
X137763858Y-81733571D02*
X137618715Y-81769857D01*
X137618715Y-81769857D02*
X137364715Y-81769857D01*
X137364715Y-81769857D02*
X137219572Y-81733571D01*
X137219572Y-81733571D02*
X137147001Y-81661000D01*
X137147001Y-81661000D02*
X137110715Y-81588428D01*
X137110715Y-81588428D02*
X137110715Y-81443285D01*
X137110715Y-81443285D02*
X137147001Y-81370714D01*
X137147001Y-81370714D02*
X137219572Y-81298142D01*
X137219572Y-81298142D02*
X137364715Y-81261857D01*
X137364715Y-81261857D02*
X137618715Y-81261857D01*
X137618715Y-81261857D02*
X137763858Y-81298142D01*
X137763858Y-81298142D02*
X137836430Y-81370714D01*
X137836430Y-81370714D02*
X137872715Y-81443285D01*
X137872715Y-81443285D02*
X137872715Y-81588428D01*
X137872715Y-80536142D02*
X137872715Y-80971571D01*
X137872715Y-80753856D02*
X137110715Y-80753856D01*
X137110715Y-80753856D02*
X137219572Y-80826428D01*
X137219572Y-80826428D02*
X137292144Y-80898999D01*
X137292144Y-80898999D02*
X137328430Y-80971571D01*
X145749515Y-88518999D02*
X145386658Y-88772999D01*
X145749515Y-88954428D02*
X144987515Y-88954428D01*
X144987515Y-88954428D02*
X144987515Y-88664142D01*
X144987515Y-88664142D02*
X145023801Y-88591571D01*
X145023801Y-88591571D02*
X145060087Y-88555285D01*
X145060087Y-88555285D02*
X145132658Y-88518999D01*
X145132658Y-88518999D02*
X145241515Y-88518999D01*
X145241515Y-88518999D02*
X145314087Y-88555285D01*
X145314087Y-88555285D02*
X145350372Y-88591571D01*
X145350372Y-88591571D02*
X145386658Y-88664142D01*
X145386658Y-88664142D02*
X145386658Y-88954428D01*
X145749515Y-88156142D02*
X145749515Y-88010999D01*
X145749515Y-88010999D02*
X145713230Y-87938428D01*
X145713230Y-87938428D02*
X145676944Y-87902142D01*
X145676944Y-87902142D02*
X145568087Y-87829571D01*
X145568087Y-87829571D02*
X145422944Y-87793285D01*
X145422944Y-87793285D02*
X145132658Y-87793285D01*
X145132658Y-87793285D02*
X145060087Y-87829571D01*
X145060087Y-87829571D02*
X145023801Y-87865857D01*
X145023801Y-87865857D02*
X144987515Y-87938428D01*
X144987515Y-87938428D02*
X144987515Y-88083571D01*
X144987515Y-88083571D02*
X145023801Y-88156142D01*
X145023801Y-88156142D02*
X145060087Y-88192428D01*
X145060087Y-88192428D02*
X145132658Y-88228714D01*
X145132658Y-88228714D02*
X145314087Y-88228714D01*
X145314087Y-88228714D02*
X145386658Y-88192428D01*
X145386658Y-88192428D02*
X145422944Y-88156142D01*
X145422944Y-88156142D02*
X145459230Y-88083571D01*
X145459230Y-88083571D02*
X145459230Y-87938428D01*
X145459230Y-87938428D02*
X145422944Y-87865857D01*
X145422944Y-87865857D02*
X145386658Y-87829571D01*
X145386658Y-87829571D02*
X145314087Y-87793285D01*
X153307143Y-76290715D02*
X153053143Y-75927858D01*
X152871714Y-76290715D02*
X152871714Y-75528715D01*
X152871714Y-75528715D02*
X153162000Y-75528715D01*
X153162000Y-75528715D02*
X153234571Y-75565001D01*
X153234571Y-75565001D02*
X153270857Y-75601287D01*
X153270857Y-75601287D02*
X153307143Y-75673858D01*
X153307143Y-75673858D02*
X153307143Y-75782715D01*
X153307143Y-75782715D02*
X153270857Y-75855287D01*
X153270857Y-75855287D02*
X153234571Y-75891572D01*
X153234571Y-75891572D02*
X153162000Y-75927858D01*
X153162000Y-75927858D02*
X152871714Y-75927858D01*
X154032857Y-76290715D02*
X153597428Y-76290715D01*
X153815143Y-76290715D02*
X153815143Y-75528715D01*
X153815143Y-75528715D02*
X153742571Y-75637572D01*
X153742571Y-75637572D02*
X153670000Y-75710144D01*
X153670000Y-75710144D02*
X153597428Y-75746430D01*
X154686000Y-75782715D02*
X154686000Y-76290715D01*
X154504571Y-75492430D02*
X154323142Y-76036715D01*
X154323142Y-76036715D02*
X154794857Y-76036715D01*
X159711571Y-84037715D02*
X159711571Y-83275715D01*
X159711571Y-83275715D02*
X159893000Y-83275715D01*
X159893000Y-83275715D02*
X160001857Y-83312001D01*
X160001857Y-83312001D02*
X160074428Y-83384572D01*
X160074428Y-83384572D02*
X160110714Y-83457144D01*
X160110714Y-83457144D02*
X160147000Y-83602287D01*
X160147000Y-83602287D02*
X160147000Y-83711144D01*
X160147000Y-83711144D02*
X160110714Y-83856287D01*
X160110714Y-83856287D02*
X160074428Y-83928858D01*
X160074428Y-83928858D02*
X160001857Y-84001430D01*
X160001857Y-84001430D02*
X159893000Y-84037715D01*
X159893000Y-84037715D02*
X159711571Y-84037715D01*
X160437285Y-83348287D02*
X160473571Y-83312001D01*
X160473571Y-83312001D02*
X160546143Y-83275715D01*
X160546143Y-83275715D02*
X160727571Y-83275715D01*
X160727571Y-83275715D02*
X160800143Y-83312001D01*
X160800143Y-83312001D02*
X160836428Y-83348287D01*
X160836428Y-83348287D02*
X160872714Y-83420858D01*
X160872714Y-83420858D02*
X160872714Y-83493430D01*
X160872714Y-83493430D02*
X160836428Y-83602287D01*
X160836428Y-83602287D02*
X160401000Y-84037715D01*
X160401000Y-84037715D02*
X160872714Y-84037715D01*
X146447143Y-91413715D02*
X146193143Y-91050858D01*
X146011714Y-91413715D02*
X146011714Y-90651715D01*
X146011714Y-90651715D02*
X146302000Y-90651715D01*
X146302000Y-90651715D02*
X146374571Y-90688001D01*
X146374571Y-90688001D02*
X146410857Y-90724287D01*
X146410857Y-90724287D02*
X146447143Y-90796858D01*
X146447143Y-90796858D02*
X146447143Y-90905715D01*
X146447143Y-90905715D02*
X146410857Y-90978287D01*
X146410857Y-90978287D02*
X146374571Y-91014572D01*
X146374571Y-91014572D02*
X146302000Y-91050858D01*
X146302000Y-91050858D02*
X146011714Y-91050858D01*
X147172857Y-91413715D02*
X146737428Y-91413715D01*
X146955143Y-91413715D02*
X146955143Y-90651715D01*
X146955143Y-90651715D02*
X146882571Y-90760572D01*
X146882571Y-90760572D02*
X146810000Y-90833144D01*
X146810000Y-90833144D02*
X146737428Y-90869430D01*
X147644571Y-90651715D02*
X147717142Y-90651715D01*
X147717142Y-90651715D02*
X147789714Y-90688001D01*
X147789714Y-90688001D02*
X147826000Y-90724287D01*
X147826000Y-90724287D02*
X147862285Y-90796858D01*
X147862285Y-90796858D02*
X147898571Y-90942001D01*
X147898571Y-90942001D02*
X147898571Y-91123430D01*
X147898571Y-91123430D02*
X147862285Y-91268572D01*
X147862285Y-91268572D02*
X147826000Y-91341144D01*
X147826000Y-91341144D02*
X147789714Y-91377430D01*
X147789714Y-91377430D02*
X147717142Y-91413715D01*
X147717142Y-91413715D02*
X147644571Y-91413715D01*
X147644571Y-91413715D02*
X147572000Y-91377430D01*
X147572000Y-91377430D02*
X147535714Y-91341144D01*
X147535714Y-91341144D02*
X147499428Y-91268572D01*
X147499428Y-91268572D02*
X147463142Y-91123430D01*
X147463142Y-91123430D02*
X147463142Y-90942001D01*
X147463142Y-90942001D02*
X147499428Y-90796858D01*
X147499428Y-90796858D02*
X147535714Y-90724287D01*
X147535714Y-90724287D02*
X147572000Y-90688001D01*
X147572000Y-90688001D02*
X147644571Y-90651715D01*
D16*
X132553015Y-74712285D02*
X131791015Y-74712285D01*
X131791015Y-74712285D02*
X131791015Y-74421999D01*
X131791015Y-74421999D02*
X131827301Y-74349428D01*
X131827301Y-74349428D02*
X131863587Y-74313142D01*
X131863587Y-74313142D02*
X131936158Y-74276856D01*
X131936158Y-74276856D02*
X132045015Y-74276856D01*
X132045015Y-74276856D02*
X132117587Y-74313142D01*
X132117587Y-74313142D02*
X132153872Y-74349428D01*
X132153872Y-74349428D02*
X132190158Y-74421999D01*
X132190158Y-74421999D02*
X132190158Y-74712285D01*
X132516730Y-73986571D02*
X132553015Y-73877714D01*
X132553015Y-73877714D02*
X132553015Y-73696285D01*
X132553015Y-73696285D02*
X132516730Y-73623714D01*
X132516730Y-73623714D02*
X132480444Y-73587428D01*
X132480444Y-73587428D02*
X132407872Y-73551142D01*
X132407872Y-73551142D02*
X132335301Y-73551142D01*
X132335301Y-73551142D02*
X132262730Y-73587428D01*
X132262730Y-73587428D02*
X132226444Y-73623714D01*
X132226444Y-73623714D02*
X132190158Y-73696285D01*
X132190158Y-73696285D02*
X132153872Y-73841428D01*
X132153872Y-73841428D02*
X132117587Y-73913999D01*
X132117587Y-73913999D02*
X132081301Y-73950285D01*
X132081301Y-73950285D02*
X132008730Y-73986571D01*
X132008730Y-73986571D02*
X131936158Y-73986571D01*
X131936158Y-73986571D02*
X131863587Y-73950285D01*
X131863587Y-73950285D02*
X131827301Y-73913999D01*
X131827301Y-73913999D02*
X131791015Y-73841428D01*
X131791015Y-73841428D02*
X131791015Y-73659999D01*
X131791015Y-73659999D02*
X131827301Y-73551142D01*
X132553015Y-72825428D02*
X132553015Y-73260857D01*
X132553015Y-73043142D02*
X131791015Y-73043142D01*
X131791015Y-73043142D02*
X131899872Y-73115714D01*
X131899872Y-73115714D02*
X131972444Y-73188285D01*
X131972444Y-73188285D02*
X132008730Y-73260857D01*
D11*
X160237715Y-74095428D02*
X159475715Y-74095428D01*
X159475715Y-74095428D02*
X159475715Y-73913999D01*
X159475715Y-73913999D02*
X159512001Y-73805142D01*
X159512001Y-73805142D02*
X159584572Y-73732571D01*
X159584572Y-73732571D02*
X159657144Y-73696285D01*
X159657144Y-73696285D02*
X159802287Y-73659999D01*
X159802287Y-73659999D02*
X159911144Y-73659999D01*
X159911144Y-73659999D02*
X160056287Y-73696285D01*
X160056287Y-73696285D02*
X160128858Y-73732571D01*
X160128858Y-73732571D02*
X160201430Y-73805142D01*
X160201430Y-73805142D02*
X160237715Y-73913999D01*
X160237715Y-73913999D02*
X160237715Y-74095428D01*
X159475715Y-73405999D02*
X159475715Y-72934285D01*
X159475715Y-72934285D02*
X159766001Y-73188285D01*
X159766001Y-73188285D02*
X159766001Y-73079428D01*
X159766001Y-73079428D02*
X159802287Y-73006857D01*
X159802287Y-73006857D02*
X159838572Y-72970571D01*
X159838572Y-72970571D02*
X159911144Y-72934285D01*
X159911144Y-72934285D02*
X160092572Y-72934285D01*
X160092572Y-72934285D02*
X160165144Y-72970571D01*
X160165144Y-72970571D02*
X160201430Y-73006857D01*
X160201430Y-73006857D02*
X160237715Y-73079428D01*
X160237715Y-73079428D02*
X160237715Y-73297142D01*
X160237715Y-73297142D02*
X160201430Y-73369714D01*
X160201430Y-73369714D02*
X160165144Y-73405999D01*
X136180286Y-66130715D02*
X136615715Y-66130715D01*
X136398000Y-66892715D02*
X136398000Y-66130715D01*
X136869714Y-66892715D02*
X136869714Y-66130715D01*
X136869714Y-66493572D02*
X137305143Y-66493572D01*
X137305143Y-66892715D02*
X137305143Y-66130715D01*
X138067143Y-66892715D02*
X137631714Y-66892715D01*
X137849429Y-66892715D02*
X137849429Y-66130715D01*
X137849429Y-66130715D02*
X137776857Y-66239572D01*
X137776857Y-66239572D02*
X137704286Y-66312144D01*
X137704286Y-66312144D02*
X137631714Y-66348430D01*
X149751144Y-79102856D02*
X149787430Y-79139142D01*
X149787430Y-79139142D02*
X149823715Y-79247999D01*
X149823715Y-79247999D02*
X149823715Y-79320571D01*
X149823715Y-79320571D02*
X149787430Y-79429428D01*
X149787430Y-79429428D02*
X149714858Y-79501999D01*
X149714858Y-79501999D02*
X149642287Y-79538285D01*
X149642287Y-79538285D02*
X149497144Y-79574571D01*
X149497144Y-79574571D02*
X149388287Y-79574571D01*
X149388287Y-79574571D02*
X149243144Y-79538285D01*
X149243144Y-79538285D02*
X149170572Y-79501999D01*
X149170572Y-79501999D02*
X149098001Y-79429428D01*
X149098001Y-79429428D02*
X149061715Y-79320571D01*
X149061715Y-79320571D02*
X149061715Y-79247999D01*
X149061715Y-79247999D02*
X149098001Y-79139142D01*
X149098001Y-79139142D02*
X149134287Y-79102856D01*
X149823715Y-78377142D02*
X149823715Y-78812571D01*
X149823715Y-78594856D02*
X149061715Y-78594856D01*
X149061715Y-78594856D02*
X149170572Y-78667428D01*
X149170572Y-78667428D02*
X149243144Y-78739999D01*
X149243144Y-78739999D02*
X149279430Y-78812571D01*
X149388287Y-77941714D02*
X149352001Y-78014285D01*
X149352001Y-78014285D02*
X149315715Y-78050571D01*
X149315715Y-78050571D02*
X149243144Y-78086857D01*
X149243144Y-78086857D02*
X149206858Y-78086857D01*
X149206858Y-78086857D02*
X149134287Y-78050571D01*
X149134287Y-78050571D02*
X149098001Y-78014285D01*
X149098001Y-78014285D02*
X149061715Y-77941714D01*
X149061715Y-77941714D02*
X149061715Y-77796571D01*
X149061715Y-77796571D02*
X149098001Y-77724000D01*
X149098001Y-77724000D02*
X149134287Y-77687714D01*
X149134287Y-77687714D02*
X149206858Y-77651428D01*
X149206858Y-77651428D02*
X149243144Y-77651428D01*
X149243144Y-77651428D02*
X149315715Y-77687714D01*
X149315715Y-77687714D02*
X149352001Y-77724000D01*
X149352001Y-77724000D02*
X149388287Y-77796571D01*
X149388287Y-77796571D02*
X149388287Y-77941714D01*
X149388287Y-77941714D02*
X149424572Y-78014285D01*
X149424572Y-78014285D02*
X149460858Y-78050571D01*
X149460858Y-78050571D02*
X149533430Y-78086857D01*
X149533430Y-78086857D02*
X149678572Y-78086857D01*
X149678572Y-78086857D02*
X149751144Y-78050571D01*
X149751144Y-78050571D02*
X149787430Y-78014285D01*
X149787430Y-78014285D02*
X149823715Y-77941714D01*
X149823715Y-77941714D02*
X149823715Y-77796571D01*
X149823715Y-77796571D02*
X149787430Y-77724000D01*
X149787430Y-77724000D02*
X149751144Y-77687714D01*
X149751144Y-77687714D02*
X149678572Y-77651428D01*
X149678572Y-77651428D02*
X149533430Y-77651428D01*
X149533430Y-77651428D02*
X149460858Y-77687714D01*
X149460858Y-77687714D02*
X149424572Y-77724000D01*
X149424572Y-77724000D02*
X149388287Y-77796571D01*
D16*
X165555000Y-86459141D02*
X165578809Y-86387713D01*
X165578809Y-86387713D02*
X165578809Y-86268665D01*
X165578809Y-86268665D02*
X165555000Y-86221046D01*
X165555000Y-86221046D02*
X165531190Y-86197237D01*
X165531190Y-86197237D02*
X165483571Y-86173427D01*
X165483571Y-86173427D02*
X165435952Y-86173427D01*
X165435952Y-86173427D02*
X165388333Y-86197237D01*
X165388333Y-86197237D02*
X165364523Y-86221046D01*
X165364523Y-86221046D02*
X165340714Y-86268665D01*
X165340714Y-86268665D02*
X165316904Y-86363903D01*
X165316904Y-86363903D02*
X165293095Y-86411522D01*
X165293095Y-86411522D02*
X165269285Y-86435332D01*
X165269285Y-86435332D02*
X165221666Y-86459141D01*
X165221666Y-86459141D02*
X165174047Y-86459141D01*
X165174047Y-86459141D02*
X165126428Y-86435332D01*
X165126428Y-86435332D02*
X165102619Y-86411522D01*
X165102619Y-86411522D02*
X165078809Y-86363903D01*
X165078809Y-86363903D02*
X165078809Y-86244856D01*
X165078809Y-86244856D02*
X165102619Y-86173427D01*
X165578809Y-85959142D02*
X165078809Y-85959142D01*
X165078809Y-85959142D02*
X165078809Y-85840094D01*
X165078809Y-85840094D02*
X165102619Y-85768666D01*
X165102619Y-85768666D02*
X165150238Y-85721047D01*
X165150238Y-85721047D02*
X165197857Y-85697237D01*
X165197857Y-85697237D02*
X165293095Y-85673428D01*
X165293095Y-85673428D02*
X165364523Y-85673428D01*
X165364523Y-85673428D02*
X165459761Y-85697237D01*
X165459761Y-85697237D02*
X165507380Y-85721047D01*
X165507380Y-85721047D02*
X165555000Y-85768666D01*
X165555000Y-85768666D02*
X165578809Y-85840094D01*
X165578809Y-85840094D02*
X165578809Y-85959142D01*
X165435952Y-85482951D02*
X165435952Y-85244856D01*
X165578809Y-85530570D02*
X165078809Y-85363904D01*
X165078809Y-85363904D02*
X165578809Y-85197237D01*
X165102619Y-78485952D02*
X165078809Y-78533571D01*
X165078809Y-78533571D02*
X165078809Y-78605000D01*
X165078809Y-78605000D02*
X165102619Y-78676428D01*
X165102619Y-78676428D02*
X165150238Y-78724047D01*
X165150238Y-78724047D02*
X165197857Y-78747857D01*
X165197857Y-78747857D02*
X165293095Y-78771666D01*
X165293095Y-78771666D02*
X165364523Y-78771666D01*
X165364523Y-78771666D02*
X165459761Y-78747857D01*
X165459761Y-78747857D02*
X165507380Y-78724047D01*
X165507380Y-78724047D02*
X165555000Y-78676428D01*
X165555000Y-78676428D02*
X165578809Y-78605000D01*
X165578809Y-78605000D02*
X165578809Y-78557381D01*
X165578809Y-78557381D02*
X165555000Y-78485952D01*
X165555000Y-78485952D02*
X165531190Y-78462143D01*
X165531190Y-78462143D02*
X165364523Y-78462143D01*
X165364523Y-78462143D02*
X165364523Y-78557381D01*
X165578809Y-78247857D02*
X165078809Y-78247857D01*
X165078809Y-78247857D02*
X165578809Y-77962143D01*
X165578809Y-77962143D02*
X165078809Y-77962143D01*
X165578809Y-77724047D02*
X165078809Y-77724047D01*
X165078809Y-77724047D02*
X165078809Y-77604999D01*
X165078809Y-77604999D02*
X165102619Y-77533571D01*
X165102619Y-77533571D02*
X165150238Y-77485952D01*
X165150238Y-77485952D02*
X165197857Y-77462142D01*
X165197857Y-77462142D02*
X165293095Y-77438333D01*
X165293095Y-77438333D02*
X165364523Y-77438333D01*
X165364523Y-77438333D02*
X165459761Y-77462142D01*
X165459761Y-77462142D02*
X165507380Y-77485952D01*
X165507380Y-77485952D02*
X165555000Y-77533571D01*
X165555000Y-77533571D02*
X165578809Y-77604999D01*
X165578809Y-77604999D02*
X165578809Y-77724047D01*
X165555000Y-83780237D02*
X165578809Y-83708809D01*
X165578809Y-83708809D02*
X165578809Y-83589761D01*
X165578809Y-83589761D02*
X165555000Y-83542142D01*
X165555000Y-83542142D02*
X165531190Y-83518333D01*
X165531190Y-83518333D02*
X165483571Y-83494523D01*
X165483571Y-83494523D02*
X165435952Y-83494523D01*
X165435952Y-83494523D02*
X165388333Y-83518333D01*
X165388333Y-83518333D02*
X165364523Y-83542142D01*
X165364523Y-83542142D02*
X165340714Y-83589761D01*
X165340714Y-83589761D02*
X165316904Y-83684999D01*
X165316904Y-83684999D02*
X165293095Y-83732618D01*
X165293095Y-83732618D02*
X165269285Y-83756428D01*
X165269285Y-83756428D02*
X165221666Y-83780237D01*
X165221666Y-83780237D02*
X165174047Y-83780237D01*
X165174047Y-83780237D02*
X165126428Y-83756428D01*
X165126428Y-83756428D02*
X165102619Y-83732618D01*
X165102619Y-83732618D02*
X165078809Y-83684999D01*
X165078809Y-83684999D02*
X165078809Y-83565952D01*
X165078809Y-83565952D02*
X165102619Y-83494523D01*
X165531190Y-82994524D02*
X165555000Y-83018333D01*
X165555000Y-83018333D02*
X165578809Y-83089762D01*
X165578809Y-83089762D02*
X165578809Y-83137381D01*
X165578809Y-83137381D02*
X165555000Y-83208809D01*
X165555000Y-83208809D02*
X165507380Y-83256428D01*
X165507380Y-83256428D02*
X165459761Y-83280238D01*
X165459761Y-83280238D02*
X165364523Y-83304047D01*
X165364523Y-83304047D02*
X165293095Y-83304047D01*
X165293095Y-83304047D02*
X165197857Y-83280238D01*
X165197857Y-83280238D02*
X165150238Y-83256428D01*
X165150238Y-83256428D02*
X165102619Y-83208809D01*
X165102619Y-83208809D02*
X165078809Y-83137381D01*
X165078809Y-83137381D02*
X165078809Y-83089762D01*
X165078809Y-83089762D02*
X165102619Y-83018333D01*
X165102619Y-83018333D02*
X165126428Y-82994524D01*
X165578809Y-82542143D02*
X165578809Y-82780238D01*
X165578809Y-82780238D02*
X165078809Y-82780238D01*
X165078809Y-81057665D02*
X165578809Y-80890999D01*
X165578809Y-80890999D02*
X165078809Y-80724332D01*
X165578809Y-80557666D02*
X165078809Y-80557666D01*
X165078809Y-80557666D02*
X165078809Y-80438618D01*
X165078809Y-80438618D02*
X165102619Y-80367190D01*
X165102619Y-80367190D02*
X165150238Y-80319571D01*
X165150238Y-80319571D02*
X165197857Y-80295761D01*
X165197857Y-80295761D02*
X165293095Y-80271952D01*
X165293095Y-80271952D02*
X165364523Y-80271952D01*
X165364523Y-80271952D02*
X165459761Y-80295761D01*
X165459761Y-80295761D02*
X165507380Y-80319571D01*
X165507380Y-80319571D02*
X165555000Y-80367190D01*
X165555000Y-80367190D02*
X165578809Y-80438618D01*
X165578809Y-80438618D02*
X165578809Y-80557666D01*
X165578809Y-80057666D02*
X165078809Y-80057666D01*
X165078809Y-80057666D02*
X165078809Y-79938618D01*
X165078809Y-79938618D02*
X165102619Y-79867190D01*
X165102619Y-79867190D02*
X165150238Y-79819571D01*
X165150238Y-79819571D02*
X165197857Y-79795761D01*
X165197857Y-79795761D02*
X165293095Y-79771952D01*
X165293095Y-79771952D02*
X165364523Y-79771952D01*
X165364523Y-79771952D02*
X165459761Y-79795761D01*
X165459761Y-79795761D02*
X165507380Y-79819571D01*
X165507380Y-79819571D02*
X165555000Y-79867190D01*
X165555000Y-79867190D02*
X165578809Y-79938618D01*
X165578809Y-79938618D02*
X165578809Y-80057666D01*
D11*
X139845143Y-74860715D02*
X139591143Y-74497858D01*
X139409714Y-74860715D02*
X139409714Y-74098715D01*
X139409714Y-74098715D02*
X139700000Y-74098715D01*
X139700000Y-74098715D02*
X139772571Y-74135001D01*
X139772571Y-74135001D02*
X139808857Y-74171287D01*
X139808857Y-74171287D02*
X139845143Y-74243858D01*
X139845143Y-74243858D02*
X139845143Y-74352715D01*
X139845143Y-74352715D02*
X139808857Y-74425287D01*
X139808857Y-74425287D02*
X139772571Y-74461572D01*
X139772571Y-74461572D02*
X139700000Y-74497858D01*
X139700000Y-74497858D02*
X139409714Y-74497858D01*
X140570857Y-74860715D02*
X140135428Y-74860715D01*
X140353143Y-74860715D02*
X140353143Y-74098715D01*
X140353143Y-74098715D02*
X140280571Y-74207572D01*
X140280571Y-74207572D02*
X140208000Y-74280144D01*
X140208000Y-74280144D02*
X140135428Y-74316430D01*
X141224000Y-74098715D02*
X141078857Y-74098715D01*
X141078857Y-74098715D02*
X141006285Y-74135001D01*
X141006285Y-74135001D02*
X140970000Y-74171287D01*
X140970000Y-74171287D02*
X140897428Y-74280144D01*
X140897428Y-74280144D02*
X140861142Y-74425287D01*
X140861142Y-74425287D02*
X140861142Y-74715572D01*
X140861142Y-74715572D02*
X140897428Y-74788144D01*
X140897428Y-74788144D02*
X140933714Y-74824430D01*
X140933714Y-74824430D02*
X141006285Y-74860715D01*
X141006285Y-74860715D02*
X141151428Y-74860715D01*
X141151428Y-74860715D02*
X141224000Y-74824430D01*
X141224000Y-74824430D02*
X141260285Y-74788144D01*
X141260285Y-74788144D02*
X141296571Y-74715572D01*
X141296571Y-74715572D02*
X141296571Y-74534144D01*
X141296571Y-74534144D02*
X141260285Y-74461572D01*
X141260285Y-74461572D02*
X141224000Y-74425287D01*
X141224000Y-74425287D02*
X141151428Y-74389001D01*
X141151428Y-74389001D02*
X141006285Y-74389001D01*
X141006285Y-74389001D02*
X140933714Y-74425287D01*
X140933714Y-74425287D02*
X140897428Y-74461572D01*
X140897428Y-74461572D02*
X140861142Y-74534144D01*
X160200515Y-86783856D02*
X159837658Y-87037856D01*
X160200515Y-87219285D02*
X159438515Y-87219285D01*
X159438515Y-87219285D02*
X159438515Y-86928999D01*
X159438515Y-86928999D02*
X159474801Y-86856428D01*
X159474801Y-86856428D02*
X159511087Y-86820142D01*
X159511087Y-86820142D02*
X159583658Y-86783856D01*
X159583658Y-86783856D02*
X159692515Y-86783856D01*
X159692515Y-86783856D02*
X159765087Y-86820142D01*
X159765087Y-86820142D02*
X159801372Y-86856428D01*
X159801372Y-86856428D02*
X159837658Y-86928999D01*
X159837658Y-86928999D02*
X159837658Y-87219285D01*
X160200515Y-86058142D02*
X160200515Y-86493571D01*
X160200515Y-86275856D02*
X159438515Y-86275856D01*
X159438515Y-86275856D02*
X159547372Y-86348428D01*
X159547372Y-86348428D02*
X159619944Y-86420999D01*
X159619944Y-86420999D02*
X159656230Y-86493571D01*
X159438515Y-85804142D02*
X159438515Y-85332428D01*
X159438515Y-85332428D02*
X159728801Y-85586428D01*
X159728801Y-85586428D02*
X159728801Y-85477571D01*
X159728801Y-85477571D02*
X159765087Y-85405000D01*
X159765087Y-85405000D02*
X159801372Y-85368714D01*
X159801372Y-85368714D02*
X159873944Y-85332428D01*
X159873944Y-85332428D02*
X160055372Y-85332428D01*
X160055372Y-85332428D02*
X160127944Y-85368714D01*
X160127944Y-85368714D02*
X160164230Y-85405000D01*
X160164230Y-85405000D02*
X160200515Y-85477571D01*
X160200515Y-85477571D02*
X160200515Y-85695285D01*
X160200515Y-85695285D02*
X160164230Y-85767857D01*
X160164230Y-85767857D02*
X160127944Y-85804142D01*
X158804428Y-79465715D02*
X158804428Y-80082572D01*
X158804428Y-80082572D02*
X158840714Y-80155144D01*
X158840714Y-80155144D02*
X158877000Y-80191430D01*
X158877000Y-80191430D02*
X158949571Y-80227715D01*
X158949571Y-80227715D02*
X159094714Y-80227715D01*
X159094714Y-80227715D02*
X159167285Y-80191430D01*
X159167285Y-80191430D02*
X159203571Y-80155144D01*
X159203571Y-80155144D02*
X159239857Y-80082572D01*
X159239857Y-80082572D02*
X159239857Y-79465715D01*
X159530143Y-79465715D02*
X160001857Y-79465715D01*
X160001857Y-79465715D02*
X159747857Y-79756001D01*
X159747857Y-79756001D02*
X159856714Y-79756001D01*
X159856714Y-79756001D02*
X159929286Y-79792287D01*
X159929286Y-79792287D02*
X159965571Y-79828572D01*
X159965571Y-79828572D02*
X160001857Y-79901144D01*
X160001857Y-79901144D02*
X160001857Y-80082572D01*
X160001857Y-80082572D02*
X159965571Y-80155144D01*
X159965571Y-80155144D02*
X159929286Y-80191430D01*
X159929286Y-80191430D02*
X159856714Y-80227715D01*
X159856714Y-80227715D02*
X159639000Y-80227715D01*
X159639000Y-80227715D02*
X159566428Y-80191430D01*
X159566428Y-80191430D02*
X159530143Y-80155144D01*
X134239000Y-70630144D02*
X134202714Y-70666430D01*
X134202714Y-70666430D02*
X134093857Y-70702715D01*
X134093857Y-70702715D02*
X134021285Y-70702715D01*
X134021285Y-70702715D02*
X133912428Y-70666430D01*
X133912428Y-70666430D02*
X133839857Y-70593858D01*
X133839857Y-70593858D02*
X133803571Y-70521287D01*
X133803571Y-70521287D02*
X133767285Y-70376144D01*
X133767285Y-70376144D02*
X133767285Y-70267287D01*
X133767285Y-70267287D02*
X133803571Y-70122144D01*
X133803571Y-70122144D02*
X133839857Y-70049572D01*
X133839857Y-70049572D02*
X133912428Y-69977001D01*
X133912428Y-69977001D02*
X134021285Y-69940715D01*
X134021285Y-69940715D02*
X134093857Y-69940715D01*
X134093857Y-69940715D02*
X134202714Y-69977001D01*
X134202714Y-69977001D02*
X134239000Y-70013287D01*
X134964714Y-70702715D02*
X134529285Y-70702715D01*
X134747000Y-70702715D02*
X134747000Y-69940715D01*
X134747000Y-69940715D02*
X134674428Y-70049572D01*
X134674428Y-70049572D02*
X134601857Y-70122144D01*
X134601857Y-70122144D02*
X134529285Y-70158430D01*
X152535728Y-81637715D02*
X152535728Y-82254572D01*
X152535728Y-82254572D02*
X152572014Y-82327144D01*
X152572014Y-82327144D02*
X152608300Y-82363430D01*
X152608300Y-82363430D02*
X152680871Y-82399715D01*
X152680871Y-82399715D02*
X152826014Y-82399715D01*
X152826014Y-82399715D02*
X152898585Y-82363430D01*
X152898585Y-82363430D02*
X152934871Y-82327144D01*
X152934871Y-82327144D02*
X152971157Y-82254572D01*
X152971157Y-82254572D02*
X152971157Y-81637715D01*
X153696871Y-81637715D02*
X153334014Y-81637715D01*
X153334014Y-81637715D02*
X153297728Y-82000572D01*
X153297728Y-82000572D02*
X153334014Y-81964287D01*
X153334014Y-81964287D02*
X153406586Y-81928001D01*
X153406586Y-81928001D02*
X153588014Y-81928001D01*
X153588014Y-81928001D02*
X153660586Y-81964287D01*
X153660586Y-81964287D02*
X153696871Y-82000572D01*
X153696871Y-82000572D02*
X153733157Y-82073144D01*
X153733157Y-82073144D02*
X153733157Y-82254572D01*
X153733157Y-82254572D02*
X153696871Y-82327144D01*
X153696871Y-82327144D02*
X153660586Y-82363430D01*
X153660586Y-82363430D02*
X153588014Y-82399715D01*
X153588014Y-82399715D02*
X153406586Y-82399715D01*
X153406586Y-82399715D02*
X153334014Y-82363430D01*
X153334014Y-82363430D02*
X153297728Y-82327144D01*
X145560143Y-78758144D02*
X145523857Y-78794430D01*
X145523857Y-78794430D02*
X145415000Y-78830715D01*
X145415000Y-78830715D02*
X145342428Y-78830715D01*
X145342428Y-78830715D02*
X145233571Y-78794430D01*
X145233571Y-78794430D02*
X145161000Y-78721858D01*
X145161000Y-78721858D02*
X145124714Y-78649287D01*
X145124714Y-78649287D02*
X145088428Y-78504144D01*
X145088428Y-78504144D02*
X145088428Y-78395287D01*
X145088428Y-78395287D02*
X145124714Y-78250144D01*
X145124714Y-78250144D02*
X145161000Y-78177572D01*
X145161000Y-78177572D02*
X145233571Y-78105001D01*
X145233571Y-78105001D02*
X145342428Y-78068715D01*
X145342428Y-78068715D02*
X145415000Y-78068715D01*
X145415000Y-78068715D02*
X145523857Y-78105001D01*
X145523857Y-78105001D02*
X145560143Y-78141287D01*
X146285857Y-78830715D02*
X145850428Y-78830715D01*
X146068143Y-78830715D02*
X146068143Y-78068715D01*
X146068143Y-78068715D02*
X145995571Y-78177572D01*
X145995571Y-78177572D02*
X145923000Y-78250144D01*
X145923000Y-78250144D02*
X145850428Y-78286430D01*
X146939000Y-78068715D02*
X146793857Y-78068715D01*
X146793857Y-78068715D02*
X146721285Y-78105001D01*
X146721285Y-78105001D02*
X146685000Y-78141287D01*
X146685000Y-78141287D02*
X146612428Y-78250144D01*
X146612428Y-78250144D02*
X146576142Y-78395287D01*
X146576142Y-78395287D02*
X146576142Y-78685572D01*
X146576142Y-78685572D02*
X146612428Y-78758144D01*
X146612428Y-78758144D02*
X146648714Y-78794430D01*
X146648714Y-78794430D02*
X146721285Y-78830715D01*
X146721285Y-78830715D02*
X146866428Y-78830715D01*
X146866428Y-78830715D02*
X146939000Y-78794430D01*
X146939000Y-78794430D02*
X146975285Y-78758144D01*
X146975285Y-78758144D02*
X147011571Y-78685572D01*
X147011571Y-78685572D02*
X147011571Y-78504144D01*
X147011571Y-78504144D02*
X146975285Y-78431572D01*
X146975285Y-78431572D02*
X146939000Y-78395287D01*
X146939000Y-78395287D02*
X146866428Y-78359001D01*
X146866428Y-78359001D02*
X146721285Y-78359001D01*
X146721285Y-78359001D02*
X146648714Y-78395287D01*
X146648714Y-78395287D02*
X146612428Y-78431572D01*
X146612428Y-78431572D02*
X146576142Y-78504144D01*
X133096000Y-89963144D02*
X133059714Y-89999430D01*
X133059714Y-89999430D02*
X132950857Y-90035715D01*
X132950857Y-90035715D02*
X132878285Y-90035715D01*
X132878285Y-90035715D02*
X132769428Y-89999430D01*
X132769428Y-89999430D02*
X132696857Y-89926858D01*
X132696857Y-89926858D02*
X132660571Y-89854287D01*
X132660571Y-89854287D02*
X132624285Y-89709144D01*
X132624285Y-89709144D02*
X132624285Y-89600287D01*
X132624285Y-89600287D02*
X132660571Y-89455144D01*
X132660571Y-89455144D02*
X132696857Y-89382572D01*
X132696857Y-89382572D02*
X132769428Y-89310001D01*
X132769428Y-89310001D02*
X132878285Y-89273715D01*
X132878285Y-89273715D02*
X132950857Y-89273715D01*
X132950857Y-89273715D02*
X133059714Y-89310001D01*
X133059714Y-89310001D02*
X133096000Y-89346287D01*
X133749143Y-89273715D02*
X133604000Y-89273715D01*
X133604000Y-89273715D02*
X133531428Y-89310001D01*
X133531428Y-89310001D02*
X133495143Y-89346287D01*
X133495143Y-89346287D02*
X133422571Y-89455144D01*
X133422571Y-89455144D02*
X133386285Y-89600287D01*
X133386285Y-89600287D02*
X133386285Y-89890572D01*
X133386285Y-89890572D02*
X133422571Y-89963144D01*
X133422571Y-89963144D02*
X133458857Y-89999430D01*
X133458857Y-89999430D02*
X133531428Y-90035715D01*
X133531428Y-90035715D02*
X133676571Y-90035715D01*
X133676571Y-90035715D02*
X133749143Y-89999430D01*
X133749143Y-89999430D02*
X133785428Y-89963144D01*
X133785428Y-89963144D02*
X133821714Y-89890572D01*
X133821714Y-89890572D02*
X133821714Y-89709144D01*
X133821714Y-89709144D02*
X133785428Y-89636572D01*
X133785428Y-89636572D02*
X133749143Y-89600287D01*
X133749143Y-89600287D02*
X133676571Y-89564001D01*
X133676571Y-89564001D02*
X133531428Y-89564001D01*
X133531428Y-89564001D02*
X133458857Y-89600287D01*
X133458857Y-89600287D02*
X133422571Y-89636572D01*
X133422571Y-89636572D02*
X133386285Y-89709144D01*
D15*
X148768409Y-82048571D02*
X149385266Y-82048571D01*
X149385266Y-82048571D02*
X149457838Y-82012285D01*
X149457838Y-82012285D02*
X149494124Y-81976000D01*
X149494124Y-81976000D02*
X149530409Y-81903428D01*
X149530409Y-81903428D02*
X149530409Y-81758285D01*
X149530409Y-81758285D02*
X149494124Y-81685714D01*
X149494124Y-81685714D02*
X149457838Y-81649428D01*
X149457838Y-81649428D02*
X149385266Y-81613142D01*
X149385266Y-81613142D02*
X148768409Y-81613142D01*
X148840981Y-81286571D02*
X148804695Y-81250285D01*
X148804695Y-81250285D02*
X148768409Y-81177714D01*
X148768409Y-81177714D02*
X148768409Y-80996285D01*
X148768409Y-80996285D02*
X148804695Y-80923714D01*
X148804695Y-80923714D02*
X148840981Y-80887428D01*
X148840981Y-80887428D02*
X148913552Y-80851142D01*
X148913552Y-80851142D02*
X148986124Y-80851142D01*
X148986124Y-80851142D02*
X149094981Y-80887428D01*
X149094981Y-80887428D02*
X149530409Y-81322856D01*
X149530409Y-81322856D02*
X149530409Y-80851142D01*
D11*
X157758000Y-94348715D02*
X157758000Y-94893001D01*
X157758000Y-94893001D02*
X157721715Y-95001858D01*
X157721715Y-95001858D02*
X157649143Y-95074430D01*
X157649143Y-95074430D02*
X157540286Y-95110715D01*
X157540286Y-95110715D02*
X157467715Y-95110715D01*
X158084571Y-94421287D02*
X158120857Y-94385001D01*
X158120857Y-94385001D02*
X158193429Y-94348715D01*
X158193429Y-94348715D02*
X158374857Y-94348715D01*
X158374857Y-94348715D02*
X158447429Y-94385001D01*
X158447429Y-94385001D02*
X158483714Y-94421287D01*
X158483714Y-94421287D02*
X158520000Y-94493858D01*
X158520000Y-94493858D02*
X158520000Y-94566430D01*
X158520000Y-94566430D02*
X158483714Y-94675287D01*
X158483714Y-94675287D02*
X158048286Y-95110715D01*
X158048286Y-95110715D02*
X158520000Y-95110715D01*
X147719143Y-74219144D02*
X147682857Y-74255430D01*
X147682857Y-74255430D02*
X147574000Y-74291715D01*
X147574000Y-74291715D02*
X147501428Y-74291715D01*
X147501428Y-74291715D02*
X147392571Y-74255430D01*
X147392571Y-74255430D02*
X147320000Y-74182858D01*
X147320000Y-74182858D02*
X147283714Y-74110287D01*
X147283714Y-74110287D02*
X147247428Y-73965144D01*
X147247428Y-73965144D02*
X147247428Y-73856287D01*
X147247428Y-73856287D02*
X147283714Y-73711144D01*
X147283714Y-73711144D02*
X147320000Y-73638572D01*
X147320000Y-73638572D02*
X147392571Y-73566001D01*
X147392571Y-73566001D02*
X147501428Y-73529715D01*
X147501428Y-73529715D02*
X147574000Y-73529715D01*
X147574000Y-73529715D02*
X147682857Y-73566001D01*
X147682857Y-73566001D02*
X147719143Y-73602287D01*
X148009428Y-73602287D02*
X148045714Y-73566001D01*
X148045714Y-73566001D02*
X148118286Y-73529715D01*
X148118286Y-73529715D02*
X148299714Y-73529715D01*
X148299714Y-73529715D02*
X148372286Y-73566001D01*
X148372286Y-73566001D02*
X148408571Y-73602287D01*
X148408571Y-73602287D02*
X148444857Y-73674858D01*
X148444857Y-73674858D02*
X148444857Y-73747430D01*
X148444857Y-73747430D02*
X148408571Y-73856287D01*
X148408571Y-73856287D02*
X147973143Y-74291715D01*
X147973143Y-74291715D02*
X148444857Y-74291715D01*
X149134285Y-73529715D02*
X148771428Y-73529715D01*
X148771428Y-73529715D02*
X148735142Y-73892572D01*
X148735142Y-73892572D02*
X148771428Y-73856287D01*
X148771428Y-73856287D02*
X148844000Y-73820001D01*
X148844000Y-73820001D02*
X149025428Y-73820001D01*
X149025428Y-73820001D02*
X149098000Y-73856287D01*
X149098000Y-73856287D02*
X149134285Y-73892572D01*
X149134285Y-73892572D02*
X149170571Y-73965144D01*
X149170571Y-73965144D02*
X149170571Y-74146572D01*
X149170571Y-74146572D02*
X149134285Y-74219144D01*
X149134285Y-74219144D02*
X149098000Y-74255430D01*
X149098000Y-74255430D02*
X149025428Y-74291715D01*
X149025428Y-74291715D02*
X148844000Y-74291715D01*
X148844000Y-74291715D02*
X148771428Y-74255430D01*
X148771428Y-74255430D02*
X148735142Y-74219144D01*
X157879143Y-85108144D02*
X157842857Y-85144430D01*
X157842857Y-85144430D02*
X157734000Y-85180715D01*
X157734000Y-85180715D02*
X157661428Y-85180715D01*
X157661428Y-85180715D02*
X157552571Y-85144430D01*
X157552571Y-85144430D02*
X157480000Y-85071858D01*
X157480000Y-85071858D02*
X157443714Y-84999287D01*
X157443714Y-84999287D02*
X157407428Y-84854144D01*
X157407428Y-84854144D02*
X157407428Y-84745287D01*
X157407428Y-84745287D02*
X157443714Y-84600144D01*
X157443714Y-84600144D02*
X157480000Y-84527572D01*
X157480000Y-84527572D02*
X157552571Y-84455001D01*
X157552571Y-84455001D02*
X157661428Y-84418715D01*
X157661428Y-84418715D02*
X157734000Y-84418715D01*
X157734000Y-84418715D02*
X157842857Y-84455001D01*
X157842857Y-84455001D02*
X157879143Y-84491287D01*
X158604857Y-85180715D02*
X158169428Y-85180715D01*
X158387143Y-85180715D02*
X158387143Y-84418715D01*
X158387143Y-84418715D02*
X158314571Y-84527572D01*
X158314571Y-84527572D02*
X158242000Y-84600144D01*
X158242000Y-84600144D02*
X158169428Y-84636430D01*
X159258000Y-84672715D02*
X159258000Y-85180715D01*
X159076571Y-84382430D02*
X158895142Y-84926715D01*
X158895142Y-84926715D02*
X159366857Y-84926715D01*
D16*
X160909000Y-64227015D02*
X160909000Y-64771301D01*
X160909000Y-64771301D02*
X160872715Y-64880158D01*
X160872715Y-64880158D02*
X160800143Y-64952730D01*
X160800143Y-64952730D02*
X160691286Y-64989015D01*
X160691286Y-64989015D02*
X160618715Y-64989015D01*
X161598429Y-64227015D02*
X161453286Y-64227015D01*
X161453286Y-64227015D02*
X161380714Y-64263301D01*
X161380714Y-64263301D02*
X161344429Y-64299587D01*
X161344429Y-64299587D02*
X161271857Y-64408444D01*
X161271857Y-64408444D02*
X161235571Y-64553587D01*
X161235571Y-64553587D02*
X161235571Y-64843872D01*
X161235571Y-64843872D02*
X161271857Y-64916444D01*
X161271857Y-64916444D02*
X161308143Y-64952730D01*
X161308143Y-64952730D02*
X161380714Y-64989015D01*
X161380714Y-64989015D02*
X161525857Y-64989015D01*
X161525857Y-64989015D02*
X161598429Y-64952730D01*
X161598429Y-64952730D02*
X161634714Y-64916444D01*
X161634714Y-64916444D02*
X161671000Y-64843872D01*
X161671000Y-64843872D02*
X161671000Y-64662444D01*
X161671000Y-64662444D02*
X161634714Y-64589872D01*
X161634714Y-64589872D02*
X161598429Y-64553587D01*
X161598429Y-64553587D02*
X161525857Y-64517301D01*
X161525857Y-64517301D02*
X161380714Y-64517301D01*
X161380714Y-64517301D02*
X161308143Y-64553587D01*
X161308143Y-64553587D02*
X161271857Y-64589872D01*
X161271857Y-64589872D02*
X161235571Y-64662444D01*
D11*
X136613000Y-75589315D02*
X136359000Y-75226458D01*
X136177571Y-75589315D02*
X136177571Y-74827315D01*
X136177571Y-74827315D02*
X136467857Y-74827315D01*
X136467857Y-74827315D02*
X136540428Y-74863601D01*
X136540428Y-74863601D02*
X136576714Y-74899887D01*
X136576714Y-74899887D02*
X136613000Y-74972458D01*
X136613000Y-74972458D02*
X136613000Y-75081315D01*
X136613000Y-75081315D02*
X136576714Y-75153887D01*
X136576714Y-75153887D02*
X136540428Y-75190172D01*
X136540428Y-75190172D02*
X136467857Y-75226458D01*
X136467857Y-75226458D02*
X136177571Y-75226458D01*
X136903285Y-74899887D02*
X136939571Y-74863601D01*
X136939571Y-74863601D02*
X137012143Y-74827315D01*
X137012143Y-74827315D02*
X137193571Y-74827315D01*
X137193571Y-74827315D02*
X137266143Y-74863601D01*
X137266143Y-74863601D02*
X137302428Y-74899887D01*
X137302428Y-74899887D02*
X137338714Y-74972458D01*
X137338714Y-74972458D02*
X137338714Y-75045030D01*
X137338714Y-75045030D02*
X137302428Y-75153887D01*
X137302428Y-75153887D02*
X136867000Y-75589315D01*
X136867000Y-75589315D02*
X137338714Y-75589315D01*
X159365944Y-78147856D02*
X159402230Y-78184142D01*
X159402230Y-78184142D02*
X159438515Y-78292999D01*
X159438515Y-78292999D02*
X159438515Y-78365571D01*
X159438515Y-78365571D02*
X159402230Y-78474428D01*
X159402230Y-78474428D02*
X159329658Y-78546999D01*
X159329658Y-78546999D02*
X159257087Y-78583285D01*
X159257087Y-78583285D02*
X159111944Y-78619571D01*
X159111944Y-78619571D02*
X159003087Y-78619571D01*
X159003087Y-78619571D02*
X158857944Y-78583285D01*
X158857944Y-78583285D02*
X158785372Y-78546999D01*
X158785372Y-78546999D02*
X158712801Y-78474428D01*
X158712801Y-78474428D02*
X158676515Y-78365571D01*
X158676515Y-78365571D02*
X158676515Y-78292999D01*
X158676515Y-78292999D02*
X158712801Y-78184142D01*
X158712801Y-78184142D02*
X158749087Y-78147856D01*
X159438515Y-77422142D02*
X159438515Y-77857571D01*
X159438515Y-77639856D02*
X158676515Y-77639856D01*
X158676515Y-77639856D02*
X158785372Y-77712428D01*
X158785372Y-77712428D02*
X158857944Y-77784999D01*
X158857944Y-77784999D02*
X158894230Y-77857571D01*
X158676515Y-77168142D02*
X158676515Y-76660142D01*
X158676515Y-76660142D02*
X159438515Y-76986714D01*
X158895144Y-82023856D02*
X158931430Y-82060142D01*
X158931430Y-82060142D02*
X158967715Y-82168999D01*
X158967715Y-82168999D02*
X158967715Y-82241571D01*
X158967715Y-82241571D02*
X158931430Y-82350428D01*
X158931430Y-82350428D02*
X158858858Y-82422999D01*
X158858858Y-82422999D02*
X158786287Y-82459285D01*
X158786287Y-82459285D02*
X158641144Y-82495571D01*
X158641144Y-82495571D02*
X158532287Y-82495571D01*
X158532287Y-82495571D02*
X158387144Y-82459285D01*
X158387144Y-82459285D02*
X158314572Y-82422999D01*
X158314572Y-82422999D02*
X158242001Y-82350428D01*
X158242001Y-82350428D02*
X158205715Y-82241571D01*
X158205715Y-82241571D02*
X158205715Y-82168999D01*
X158205715Y-82168999D02*
X158242001Y-82060142D01*
X158242001Y-82060142D02*
X158278287Y-82023856D01*
X158967715Y-81298142D02*
X158967715Y-81733571D01*
X158967715Y-81515856D02*
X158205715Y-81515856D01*
X158205715Y-81515856D02*
X158314572Y-81588428D01*
X158314572Y-81588428D02*
X158387144Y-81660999D01*
X158387144Y-81660999D02*
X158423430Y-81733571D01*
X158205715Y-80608714D02*
X158205715Y-80971571D01*
X158205715Y-80971571D02*
X158568572Y-81007857D01*
X158568572Y-81007857D02*
X158532287Y-80971571D01*
X158532287Y-80971571D02*
X158496001Y-80899000D01*
X158496001Y-80899000D02*
X158496001Y-80717571D01*
X158496001Y-80717571D02*
X158532287Y-80645000D01*
X158532287Y-80645000D02*
X158568572Y-80608714D01*
X158568572Y-80608714D02*
X158641144Y-80572428D01*
X158641144Y-80572428D02*
X158822572Y-80572428D01*
X158822572Y-80572428D02*
X158895144Y-80608714D01*
X158895144Y-80608714D02*
X158931430Y-80645000D01*
X158931430Y-80645000D02*
X158967715Y-80717571D01*
X158967715Y-80717571D02*
X158967715Y-80899000D01*
X158967715Y-80899000D02*
X158931430Y-80971571D01*
X158931430Y-80971571D02*
X158895144Y-81007857D01*
X160147000Y-89244715D02*
X159893000Y-88881858D01*
X159711571Y-89244715D02*
X159711571Y-88482715D01*
X159711571Y-88482715D02*
X160001857Y-88482715D01*
X160001857Y-88482715D02*
X160074428Y-88519001D01*
X160074428Y-88519001D02*
X160110714Y-88555287D01*
X160110714Y-88555287D02*
X160147000Y-88627858D01*
X160147000Y-88627858D02*
X160147000Y-88736715D01*
X160147000Y-88736715D02*
X160110714Y-88809287D01*
X160110714Y-88809287D02*
X160074428Y-88845572D01*
X160074428Y-88845572D02*
X160001857Y-88881858D01*
X160001857Y-88881858D02*
X159711571Y-88881858D01*
X160800143Y-88736715D02*
X160800143Y-89244715D01*
X160618714Y-88446430D02*
X160437285Y-88990715D01*
X160437285Y-88990715D02*
X160909000Y-88990715D01*
X155301944Y-80451999D02*
X155338230Y-80488285D01*
X155338230Y-80488285D02*
X155374515Y-80597142D01*
X155374515Y-80597142D02*
X155374515Y-80669714D01*
X155374515Y-80669714D02*
X155338230Y-80778571D01*
X155338230Y-80778571D02*
X155265658Y-80851142D01*
X155265658Y-80851142D02*
X155193087Y-80887428D01*
X155193087Y-80887428D02*
X155047944Y-80923714D01*
X155047944Y-80923714D02*
X154939087Y-80923714D01*
X154939087Y-80923714D02*
X154793944Y-80887428D01*
X154793944Y-80887428D02*
X154721372Y-80851142D01*
X154721372Y-80851142D02*
X154648801Y-80778571D01*
X154648801Y-80778571D02*
X154612515Y-80669714D01*
X154612515Y-80669714D02*
X154612515Y-80597142D01*
X154612515Y-80597142D02*
X154648801Y-80488285D01*
X154648801Y-80488285D02*
X154685087Y-80451999D01*
X154612515Y-80197999D02*
X154612515Y-79689999D01*
X154612515Y-79689999D02*
X155374515Y-80016571D01*
D15*
X152488609Y-74476428D02*
X151726609Y-74476428D01*
X151726609Y-74476428D02*
X151726609Y-74294999D01*
X151726609Y-74294999D02*
X151762895Y-74186142D01*
X151762895Y-74186142D02*
X151835466Y-74113571D01*
X151835466Y-74113571D02*
X151908038Y-74077285D01*
X151908038Y-74077285D02*
X152053181Y-74040999D01*
X152053181Y-74040999D02*
X152162038Y-74040999D01*
X152162038Y-74040999D02*
X152307181Y-74077285D01*
X152307181Y-74077285D02*
X152379752Y-74113571D01*
X152379752Y-74113571D02*
X152452324Y-74186142D01*
X152452324Y-74186142D02*
X152488609Y-74294999D01*
X152488609Y-74294999D02*
X152488609Y-74476428D01*
X151726609Y-73387857D02*
X151726609Y-73532999D01*
X151726609Y-73532999D02*
X151762895Y-73605571D01*
X151762895Y-73605571D02*
X151799181Y-73641857D01*
X151799181Y-73641857D02*
X151908038Y-73714428D01*
X151908038Y-73714428D02*
X152053181Y-73750714D01*
X152053181Y-73750714D02*
X152343466Y-73750714D01*
X152343466Y-73750714D02*
X152416038Y-73714428D01*
X152416038Y-73714428D02*
X152452324Y-73678142D01*
X152452324Y-73678142D02*
X152488609Y-73605571D01*
X152488609Y-73605571D02*
X152488609Y-73460428D01*
X152488609Y-73460428D02*
X152452324Y-73387857D01*
X152452324Y-73387857D02*
X152416038Y-73351571D01*
X152416038Y-73351571D02*
X152343466Y-73315285D01*
X152343466Y-73315285D02*
X152162038Y-73315285D01*
X152162038Y-73315285D02*
X152089466Y-73351571D01*
X152089466Y-73351571D02*
X152053181Y-73387857D01*
X152053181Y-73387857D02*
X152016895Y-73460428D01*
X152016895Y-73460428D02*
X152016895Y-73605571D01*
X152016895Y-73605571D02*
X152053181Y-73678142D01*
X152053181Y-73678142D02*
X152089466Y-73714428D01*
X152089466Y-73714428D02*
X152162038Y-73750714D01*
D11*
X137328000Y-65804144D02*
X137291714Y-65840430D01*
X137291714Y-65840430D02*
X137182857Y-65876715D01*
X137182857Y-65876715D02*
X137110285Y-65876715D01*
X137110285Y-65876715D02*
X137001428Y-65840430D01*
X137001428Y-65840430D02*
X136928857Y-65767858D01*
X136928857Y-65767858D02*
X136892571Y-65695287D01*
X136892571Y-65695287D02*
X136856285Y-65550144D01*
X136856285Y-65550144D02*
X136856285Y-65441287D01*
X136856285Y-65441287D02*
X136892571Y-65296144D01*
X136892571Y-65296144D02*
X136928857Y-65223572D01*
X136928857Y-65223572D02*
X137001428Y-65151001D01*
X137001428Y-65151001D02*
X137110285Y-65114715D01*
X137110285Y-65114715D02*
X137182857Y-65114715D01*
X137182857Y-65114715D02*
X137291714Y-65151001D01*
X137291714Y-65151001D02*
X137328000Y-65187287D01*
X137763428Y-65441287D02*
X137690857Y-65405001D01*
X137690857Y-65405001D02*
X137654571Y-65368715D01*
X137654571Y-65368715D02*
X137618285Y-65296144D01*
X137618285Y-65296144D02*
X137618285Y-65259858D01*
X137618285Y-65259858D02*
X137654571Y-65187287D01*
X137654571Y-65187287D02*
X137690857Y-65151001D01*
X137690857Y-65151001D02*
X137763428Y-65114715D01*
X137763428Y-65114715D02*
X137908571Y-65114715D01*
X137908571Y-65114715D02*
X137981143Y-65151001D01*
X137981143Y-65151001D02*
X138017428Y-65187287D01*
X138017428Y-65187287D02*
X138053714Y-65259858D01*
X138053714Y-65259858D02*
X138053714Y-65296144D01*
X138053714Y-65296144D02*
X138017428Y-65368715D01*
X138017428Y-65368715D02*
X137981143Y-65405001D01*
X137981143Y-65405001D02*
X137908571Y-65441287D01*
X137908571Y-65441287D02*
X137763428Y-65441287D01*
X137763428Y-65441287D02*
X137690857Y-65477572D01*
X137690857Y-65477572D02*
X137654571Y-65513858D01*
X137654571Y-65513858D02*
X137618285Y-65586430D01*
X137618285Y-65586430D02*
X137618285Y-65731572D01*
X137618285Y-65731572D02*
X137654571Y-65804144D01*
X137654571Y-65804144D02*
X137690857Y-65840430D01*
X137690857Y-65840430D02*
X137763428Y-65876715D01*
X137763428Y-65876715D02*
X137908571Y-65876715D01*
X137908571Y-65876715D02*
X137981143Y-65840430D01*
X137981143Y-65840430D02*
X138017428Y-65804144D01*
X138017428Y-65804144D02*
X138053714Y-65731572D01*
X138053714Y-65731572D02*
X138053714Y-65586430D01*
X138053714Y-65586430D02*
X138017428Y-65513858D01*
X138017428Y-65513858D02*
X137981143Y-65477572D01*
X137981143Y-65477572D02*
X137908571Y-65441287D01*
X137236200Y-84317115D02*
X136982200Y-83954258D01*
X136800771Y-84317115D02*
X136800771Y-83555115D01*
X136800771Y-83555115D02*
X137091057Y-83555115D01*
X137091057Y-83555115D02*
X137163628Y-83591401D01*
X137163628Y-83591401D02*
X137199914Y-83627687D01*
X137199914Y-83627687D02*
X137236200Y-83700258D01*
X137236200Y-83700258D02*
X137236200Y-83809115D01*
X137236200Y-83809115D02*
X137199914Y-83881687D01*
X137199914Y-83881687D02*
X137163628Y-83917972D01*
X137163628Y-83917972D02*
X137091057Y-83954258D01*
X137091057Y-83954258D02*
X136800771Y-83954258D01*
X137490200Y-83555115D02*
X137998200Y-83555115D01*
X137998200Y-83555115D02*
X137671628Y-84317115D01*
X146449143Y-90315144D02*
X146412857Y-90351430D01*
X146412857Y-90351430D02*
X146304000Y-90387715D01*
X146304000Y-90387715D02*
X146231428Y-90387715D01*
X146231428Y-90387715D02*
X146122571Y-90351430D01*
X146122571Y-90351430D02*
X146050000Y-90278858D01*
X146050000Y-90278858D02*
X146013714Y-90206287D01*
X146013714Y-90206287D02*
X145977428Y-90061144D01*
X145977428Y-90061144D02*
X145977428Y-89952287D01*
X145977428Y-89952287D02*
X146013714Y-89807144D01*
X146013714Y-89807144D02*
X146050000Y-89734572D01*
X146050000Y-89734572D02*
X146122571Y-89662001D01*
X146122571Y-89662001D02*
X146231428Y-89625715D01*
X146231428Y-89625715D02*
X146304000Y-89625715D01*
X146304000Y-89625715D02*
X146412857Y-89662001D01*
X146412857Y-89662001D02*
X146449143Y-89698287D01*
X147174857Y-90387715D02*
X146739428Y-90387715D01*
X146957143Y-90387715D02*
X146957143Y-89625715D01*
X146957143Y-89625715D02*
X146884571Y-89734572D01*
X146884571Y-89734572D02*
X146812000Y-89807144D01*
X146812000Y-89807144D02*
X146739428Y-89843430D01*
X147900571Y-90387715D02*
X147465142Y-90387715D01*
X147682857Y-90387715D02*
X147682857Y-89625715D01*
X147682857Y-89625715D02*
X147610285Y-89734572D01*
X147610285Y-89734572D02*
X147537714Y-89807144D01*
X147537714Y-89807144D02*
X147465142Y-89843430D01*
X166417144Y-76435856D02*
X166453430Y-76472142D01*
X166453430Y-76472142D02*
X166489715Y-76580999D01*
X166489715Y-76580999D02*
X166489715Y-76653571D01*
X166489715Y-76653571D02*
X166453430Y-76762428D01*
X166453430Y-76762428D02*
X166380858Y-76834999D01*
X166380858Y-76834999D02*
X166308287Y-76871285D01*
X166308287Y-76871285D02*
X166163144Y-76907571D01*
X166163144Y-76907571D02*
X166054287Y-76907571D01*
X166054287Y-76907571D02*
X165909144Y-76871285D01*
X165909144Y-76871285D02*
X165836572Y-76834999D01*
X165836572Y-76834999D02*
X165764001Y-76762428D01*
X165764001Y-76762428D02*
X165727715Y-76653571D01*
X165727715Y-76653571D02*
X165727715Y-76580999D01*
X165727715Y-76580999D02*
X165764001Y-76472142D01*
X165764001Y-76472142D02*
X165800287Y-76435856D01*
X165800287Y-76145571D02*
X165764001Y-76109285D01*
X165764001Y-76109285D02*
X165727715Y-76036714D01*
X165727715Y-76036714D02*
X165727715Y-75855285D01*
X165727715Y-75855285D02*
X165764001Y-75782714D01*
X165764001Y-75782714D02*
X165800287Y-75746428D01*
X165800287Y-75746428D02*
X165872858Y-75710142D01*
X165872858Y-75710142D02*
X165945430Y-75710142D01*
X165945430Y-75710142D02*
X166054287Y-75746428D01*
X166054287Y-75746428D02*
X166489715Y-76181856D01*
X166489715Y-76181856D02*
X166489715Y-75710142D01*
X166489715Y-74984428D02*
X166489715Y-75419857D01*
X166489715Y-75202142D02*
X165727715Y-75202142D01*
X165727715Y-75202142D02*
X165836572Y-75274714D01*
X165836572Y-75274714D02*
X165909144Y-75347285D01*
X165909144Y-75347285D02*
X165945430Y-75419857D01*
X162197143Y-73666572D02*
X161943143Y-73666572D01*
X161943143Y-74065715D02*
X161943143Y-73303715D01*
X161943143Y-73303715D02*
X162306000Y-73303715D01*
X162850286Y-73666572D02*
X162959143Y-73702858D01*
X162959143Y-73702858D02*
X162995429Y-73739144D01*
X162995429Y-73739144D02*
X163031715Y-73811715D01*
X163031715Y-73811715D02*
X163031715Y-73920572D01*
X163031715Y-73920572D02*
X162995429Y-73993144D01*
X162995429Y-73993144D02*
X162959143Y-74029430D01*
X162959143Y-74029430D02*
X162886572Y-74065715D01*
X162886572Y-74065715D02*
X162596286Y-74065715D01*
X162596286Y-74065715D02*
X162596286Y-73303715D01*
X162596286Y-73303715D02*
X162850286Y-73303715D01*
X162850286Y-73303715D02*
X162922858Y-73340001D01*
X162922858Y-73340001D02*
X162959143Y-73376287D01*
X162959143Y-73376287D02*
X162995429Y-73448858D01*
X162995429Y-73448858D02*
X162995429Y-73521430D01*
X162995429Y-73521430D02*
X162959143Y-73594001D01*
X162959143Y-73594001D02*
X162922858Y-73630287D01*
X162922858Y-73630287D02*
X162850286Y-73666572D01*
X162850286Y-73666572D02*
X162596286Y-73666572D01*
X163358286Y-74065715D02*
X163358286Y-73557715D01*
X163358286Y-73702858D02*
X163394572Y-73630287D01*
X163394572Y-73630287D02*
X163430858Y-73594001D01*
X163430858Y-73594001D02*
X163503429Y-73557715D01*
X163503429Y-73557715D02*
X163576000Y-73557715D01*
X164229143Y-74065715D02*
X163793714Y-74065715D01*
X164011429Y-74065715D02*
X164011429Y-73303715D01*
X164011429Y-73303715D02*
X163938857Y-73412572D01*
X163938857Y-73412572D02*
X163866286Y-73485144D01*
X163866286Y-73485144D02*
X163793714Y-73521430D01*
X148354143Y-68471144D02*
X148317857Y-68507430D01*
X148317857Y-68507430D02*
X148209000Y-68543715D01*
X148209000Y-68543715D02*
X148136428Y-68543715D01*
X148136428Y-68543715D02*
X148027571Y-68507430D01*
X148027571Y-68507430D02*
X147955000Y-68434858D01*
X147955000Y-68434858D02*
X147918714Y-68362287D01*
X147918714Y-68362287D02*
X147882428Y-68217144D01*
X147882428Y-68217144D02*
X147882428Y-68108287D01*
X147882428Y-68108287D02*
X147918714Y-67963144D01*
X147918714Y-67963144D02*
X147955000Y-67890572D01*
X147955000Y-67890572D02*
X148027571Y-67818001D01*
X148027571Y-67818001D02*
X148136428Y-67781715D01*
X148136428Y-67781715D02*
X148209000Y-67781715D01*
X148209000Y-67781715D02*
X148317857Y-67818001D01*
X148317857Y-67818001D02*
X148354143Y-67854287D01*
X148644428Y-67854287D02*
X148680714Y-67818001D01*
X148680714Y-67818001D02*
X148753286Y-67781715D01*
X148753286Y-67781715D02*
X148934714Y-67781715D01*
X148934714Y-67781715D02*
X149007286Y-67818001D01*
X149007286Y-67818001D02*
X149043571Y-67854287D01*
X149043571Y-67854287D02*
X149079857Y-67926858D01*
X149079857Y-67926858D02*
X149079857Y-67999430D01*
X149079857Y-67999430D02*
X149043571Y-68108287D01*
X149043571Y-68108287D02*
X148608143Y-68543715D01*
X148608143Y-68543715D02*
X149079857Y-68543715D01*
X149733000Y-67781715D02*
X149587857Y-67781715D01*
X149587857Y-67781715D02*
X149515285Y-67818001D01*
X149515285Y-67818001D02*
X149479000Y-67854287D01*
X149479000Y-67854287D02*
X149406428Y-67963144D01*
X149406428Y-67963144D02*
X149370142Y-68108287D01*
X149370142Y-68108287D02*
X149370142Y-68398572D01*
X149370142Y-68398572D02*
X149406428Y-68471144D01*
X149406428Y-68471144D02*
X149442714Y-68507430D01*
X149442714Y-68507430D02*
X149515285Y-68543715D01*
X149515285Y-68543715D02*
X149660428Y-68543715D01*
X149660428Y-68543715D02*
X149733000Y-68507430D01*
X149733000Y-68507430D02*
X149769285Y-68471144D01*
X149769285Y-68471144D02*
X149805571Y-68398572D01*
X149805571Y-68398572D02*
X149805571Y-68217144D01*
X149805571Y-68217144D02*
X149769285Y-68144572D01*
X149769285Y-68144572D02*
X149733000Y-68108287D01*
X149733000Y-68108287D02*
X149660428Y-68072001D01*
X149660428Y-68072001D02*
X149515285Y-68072001D01*
X149515285Y-68072001D02*
X149442714Y-68108287D01*
X149442714Y-68108287D02*
X149406428Y-68144572D01*
X149406428Y-68144572D02*
X149370142Y-68217144D01*
X150894144Y-78739999D02*
X150930430Y-78776285D01*
X150930430Y-78776285D02*
X150966715Y-78885142D01*
X150966715Y-78885142D02*
X150966715Y-78957714D01*
X150966715Y-78957714D02*
X150930430Y-79066571D01*
X150930430Y-79066571D02*
X150857858Y-79139142D01*
X150857858Y-79139142D02*
X150785287Y-79175428D01*
X150785287Y-79175428D02*
X150640144Y-79211714D01*
X150640144Y-79211714D02*
X150531287Y-79211714D01*
X150531287Y-79211714D02*
X150386144Y-79175428D01*
X150386144Y-79175428D02*
X150313572Y-79139142D01*
X150313572Y-79139142D02*
X150241001Y-79066571D01*
X150241001Y-79066571D02*
X150204715Y-78957714D01*
X150204715Y-78957714D02*
X150204715Y-78885142D01*
X150204715Y-78885142D02*
X150241001Y-78776285D01*
X150241001Y-78776285D02*
X150277287Y-78739999D01*
X150966715Y-78377142D02*
X150966715Y-78231999D01*
X150966715Y-78231999D02*
X150930430Y-78159428D01*
X150930430Y-78159428D02*
X150894144Y-78123142D01*
X150894144Y-78123142D02*
X150785287Y-78050571D01*
X150785287Y-78050571D02*
X150640144Y-78014285D01*
X150640144Y-78014285D02*
X150349858Y-78014285D01*
X150349858Y-78014285D02*
X150277287Y-78050571D01*
X150277287Y-78050571D02*
X150241001Y-78086857D01*
X150241001Y-78086857D02*
X150204715Y-78159428D01*
X150204715Y-78159428D02*
X150204715Y-78304571D01*
X150204715Y-78304571D02*
X150241001Y-78377142D01*
X150241001Y-78377142D02*
X150277287Y-78413428D01*
X150277287Y-78413428D02*
X150349858Y-78449714D01*
X150349858Y-78449714D02*
X150531287Y-78449714D01*
X150531287Y-78449714D02*
X150603858Y-78413428D01*
X150603858Y-78413428D02*
X150640144Y-78377142D01*
X150640144Y-78377142D02*
X150676430Y-78304571D01*
X150676430Y-78304571D02*
X150676430Y-78159428D01*
X150676430Y-78159428D02*
X150640144Y-78086857D01*
X150640144Y-78086857D02*
X150603858Y-78050571D01*
X150603858Y-78050571D02*
X150531287Y-78014285D01*
X154704144Y-94723856D02*
X154740430Y-94760142D01*
X154740430Y-94760142D02*
X154776715Y-94868999D01*
X154776715Y-94868999D02*
X154776715Y-94941571D01*
X154776715Y-94941571D02*
X154740430Y-95050428D01*
X154740430Y-95050428D02*
X154667858Y-95122999D01*
X154667858Y-95122999D02*
X154595287Y-95159285D01*
X154595287Y-95159285D02*
X154450144Y-95195571D01*
X154450144Y-95195571D02*
X154341287Y-95195571D01*
X154341287Y-95195571D02*
X154196144Y-95159285D01*
X154196144Y-95159285D02*
X154123572Y-95122999D01*
X154123572Y-95122999D02*
X154051001Y-95050428D01*
X154051001Y-95050428D02*
X154014715Y-94941571D01*
X154014715Y-94941571D02*
X154014715Y-94868999D01*
X154014715Y-94868999D02*
X154051001Y-94760142D01*
X154051001Y-94760142D02*
X154087287Y-94723856D01*
X154776715Y-93998142D02*
X154776715Y-94433571D01*
X154776715Y-94215856D02*
X154014715Y-94215856D01*
X154014715Y-94215856D02*
X154123572Y-94288428D01*
X154123572Y-94288428D02*
X154196144Y-94360999D01*
X154196144Y-94360999D02*
X154232430Y-94433571D01*
X154014715Y-93744142D02*
X154014715Y-93272428D01*
X154014715Y-93272428D02*
X154305001Y-93526428D01*
X154305001Y-93526428D02*
X154305001Y-93417571D01*
X154305001Y-93417571D02*
X154341287Y-93345000D01*
X154341287Y-93345000D02*
X154377572Y-93308714D01*
X154377572Y-93308714D02*
X154450144Y-93272428D01*
X154450144Y-93272428D02*
X154631572Y-93272428D01*
X154631572Y-93272428D02*
X154704144Y-93308714D01*
X154704144Y-93308714D02*
X154740430Y-93345000D01*
X154740430Y-93345000D02*
X154776715Y-93417571D01*
X154776715Y-93417571D02*
X154776715Y-93635285D01*
X154776715Y-93635285D02*
X154740430Y-93707857D01*
X154740430Y-93707857D02*
X154704144Y-93744142D01*
X164425333Y-80717580D02*
X164377714Y-80765200D01*
X164377714Y-80765200D02*
X164234857Y-80812819D01*
X164234857Y-80812819D02*
X164139619Y-80812819D01*
X164139619Y-80812819D02*
X163996762Y-80765200D01*
X163996762Y-80765200D02*
X163901524Y-80669961D01*
X163901524Y-80669961D02*
X163853905Y-80574723D01*
X163853905Y-80574723D02*
X163806286Y-80384247D01*
X163806286Y-80384247D02*
X163806286Y-80241390D01*
X163806286Y-80241390D02*
X163853905Y-80050914D01*
X163853905Y-80050914D02*
X163901524Y-79955676D01*
X163901524Y-79955676D02*
X163996762Y-79860438D01*
X163996762Y-79860438D02*
X164139619Y-79812819D01*
X164139619Y-79812819D02*
X164234857Y-79812819D01*
X164234857Y-79812819D02*
X164377714Y-79860438D01*
X164377714Y-79860438D02*
X164425333Y-79908057D01*
X165330095Y-79812819D02*
X164853905Y-79812819D01*
X164853905Y-79812819D02*
X164806286Y-80289009D01*
X164806286Y-80289009D02*
X164853905Y-80241390D01*
X164853905Y-80241390D02*
X164949143Y-80193771D01*
X164949143Y-80193771D02*
X165187238Y-80193771D01*
X165187238Y-80193771D02*
X165282476Y-80241390D01*
X165282476Y-80241390D02*
X165330095Y-80289009D01*
X165330095Y-80289009D02*
X165377714Y-80384247D01*
X165377714Y-80384247D02*
X165377714Y-80622342D01*
X165377714Y-80622342D02*
X165330095Y-80717580D01*
X165330095Y-80717580D02*
X165282476Y-80765200D01*
X165282476Y-80765200D02*
X165187238Y-80812819D01*
X165187238Y-80812819D02*
X164949143Y-80812819D01*
X164949143Y-80812819D02*
X164853905Y-80765200D01*
X164853905Y-80765200D02*
X164806286Y-80717580D01*
X140861143Y-72662144D02*
X140824857Y-72698430D01*
X140824857Y-72698430D02*
X140716000Y-72734715D01*
X140716000Y-72734715D02*
X140643428Y-72734715D01*
X140643428Y-72734715D02*
X140534571Y-72698430D01*
X140534571Y-72698430D02*
X140462000Y-72625858D01*
X140462000Y-72625858D02*
X140425714Y-72553287D01*
X140425714Y-72553287D02*
X140389428Y-72408144D01*
X140389428Y-72408144D02*
X140389428Y-72299287D01*
X140389428Y-72299287D02*
X140425714Y-72154144D01*
X140425714Y-72154144D02*
X140462000Y-72081572D01*
X140462000Y-72081572D02*
X140534571Y-72009001D01*
X140534571Y-72009001D02*
X140643428Y-71972715D01*
X140643428Y-71972715D02*
X140716000Y-71972715D01*
X140716000Y-71972715D02*
X140824857Y-72009001D01*
X140824857Y-72009001D02*
X140861143Y-72045287D01*
X141151428Y-72045287D02*
X141187714Y-72009001D01*
X141187714Y-72009001D02*
X141260286Y-71972715D01*
X141260286Y-71972715D02*
X141441714Y-71972715D01*
X141441714Y-71972715D02*
X141514286Y-72009001D01*
X141514286Y-72009001D02*
X141550571Y-72045287D01*
X141550571Y-72045287D02*
X141586857Y-72117858D01*
X141586857Y-72117858D02*
X141586857Y-72190430D01*
X141586857Y-72190430D02*
X141550571Y-72299287D01*
X141550571Y-72299287D02*
X141115143Y-72734715D01*
X141115143Y-72734715D02*
X141586857Y-72734715D01*
X141840857Y-71972715D02*
X142312571Y-71972715D01*
X142312571Y-71972715D02*
X142058571Y-72263001D01*
X142058571Y-72263001D02*
X142167428Y-72263001D01*
X142167428Y-72263001D02*
X142240000Y-72299287D01*
X142240000Y-72299287D02*
X142276285Y-72335572D01*
X142276285Y-72335572D02*
X142312571Y-72408144D01*
X142312571Y-72408144D02*
X142312571Y-72589572D01*
X142312571Y-72589572D02*
X142276285Y-72662144D01*
X142276285Y-72662144D02*
X142240000Y-72698430D01*
X142240000Y-72698430D02*
X142167428Y-72734715D01*
X142167428Y-72734715D02*
X141949714Y-72734715D01*
X141949714Y-72734715D02*
X141877142Y-72698430D01*
X141877142Y-72698430D02*
X141840857Y-72662144D01*
X146322143Y-87394144D02*
X146285857Y-87430430D01*
X146285857Y-87430430D02*
X146177000Y-87466715D01*
X146177000Y-87466715D02*
X146104428Y-87466715D01*
X146104428Y-87466715D02*
X145995571Y-87430430D01*
X145995571Y-87430430D02*
X145923000Y-87357858D01*
X145923000Y-87357858D02*
X145886714Y-87285287D01*
X145886714Y-87285287D02*
X145850428Y-87140144D01*
X145850428Y-87140144D02*
X145850428Y-87031287D01*
X145850428Y-87031287D02*
X145886714Y-86886144D01*
X145886714Y-86886144D02*
X145923000Y-86813572D01*
X145923000Y-86813572D02*
X145995571Y-86741001D01*
X145995571Y-86741001D02*
X146104428Y-86704715D01*
X146104428Y-86704715D02*
X146177000Y-86704715D01*
X146177000Y-86704715D02*
X146285857Y-86741001D01*
X146285857Y-86741001D02*
X146322143Y-86777287D01*
X147047857Y-87466715D02*
X146612428Y-87466715D01*
X146830143Y-87466715D02*
X146830143Y-86704715D01*
X146830143Y-86704715D02*
X146757571Y-86813572D01*
X146757571Y-86813572D02*
X146685000Y-86886144D01*
X146685000Y-86886144D02*
X146612428Y-86922430D01*
X147338142Y-86777287D02*
X147374428Y-86741001D01*
X147374428Y-86741001D02*
X147447000Y-86704715D01*
X147447000Y-86704715D02*
X147628428Y-86704715D01*
X147628428Y-86704715D02*
X147701000Y-86741001D01*
X147701000Y-86741001D02*
X147737285Y-86777287D01*
X147737285Y-86777287D02*
X147773571Y-86849858D01*
X147773571Y-86849858D02*
X147773571Y-86922430D01*
X147773571Y-86922430D02*
X147737285Y-87031287D01*
X147737285Y-87031287D02*
X147301857Y-87466715D01*
X147301857Y-87466715D02*
X147773571Y-87466715D01*
X151003000Y-93181715D02*
X150749000Y-92818858D01*
X150567571Y-93181715D02*
X150567571Y-92419715D01*
X150567571Y-92419715D02*
X150857857Y-92419715D01*
X150857857Y-92419715D02*
X150930428Y-92456001D01*
X150930428Y-92456001D02*
X150966714Y-92492287D01*
X150966714Y-92492287D02*
X151003000Y-92564858D01*
X151003000Y-92564858D02*
X151003000Y-92673715D01*
X151003000Y-92673715D02*
X150966714Y-92746287D01*
X150966714Y-92746287D02*
X150930428Y-92782572D01*
X150930428Y-92782572D02*
X150857857Y-92818858D01*
X150857857Y-92818858D02*
X150567571Y-92818858D01*
X151692428Y-92419715D02*
X151329571Y-92419715D01*
X151329571Y-92419715D02*
X151293285Y-92782572D01*
X151293285Y-92782572D02*
X151329571Y-92746287D01*
X151329571Y-92746287D02*
X151402143Y-92710001D01*
X151402143Y-92710001D02*
X151583571Y-92710001D01*
X151583571Y-92710001D02*
X151656143Y-92746287D01*
X151656143Y-92746287D02*
X151692428Y-92782572D01*
X151692428Y-92782572D02*
X151728714Y-92855144D01*
X151728714Y-92855144D02*
X151728714Y-93036572D01*
X151728714Y-93036572D02*
X151692428Y-93109144D01*
X151692428Y-93109144D02*
X151656143Y-93145430D01*
X151656143Y-93145430D02*
X151583571Y-93181715D01*
X151583571Y-93181715D02*
X151402143Y-93181715D01*
X151402143Y-93181715D02*
X151329571Y-93145430D01*
X151329571Y-93145430D02*
X151293285Y-93109144D01*
X142457715Y-78667428D02*
X141695715Y-78667428D01*
X141695715Y-78667428D02*
X141695715Y-78485999D01*
X141695715Y-78485999D02*
X141732001Y-78377142D01*
X141732001Y-78377142D02*
X141804572Y-78304571D01*
X141804572Y-78304571D02*
X141877144Y-78268285D01*
X141877144Y-78268285D02*
X142022287Y-78231999D01*
X142022287Y-78231999D02*
X142131144Y-78231999D01*
X142131144Y-78231999D02*
X142276287Y-78268285D01*
X142276287Y-78268285D02*
X142348858Y-78304571D01*
X142348858Y-78304571D02*
X142421430Y-78377142D01*
X142421430Y-78377142D02*
X142457715Y-78485999D01*
X142457715Y-78485999D02*
X142457715Y-78667428D01*
X141949715Y-77578857D02*
X142457715Y-77578857D01*
X141659430Y-77760285D02*
X142203715Y-77941714D01*
X142203715Y-77941714D02*
X142203715Y-77469999D01*
X133876143Y-69614144D02*
X133839857Y-69650430D01*
X133839857Y-69650430D02*
X133731000Y-69686715D01*
X133731000Y-69686715D02*
X133658428Y-69686715D01*
X133658428Y-69686715D02*
X133549571Y-69650430D01*
X133549571Y-69650430D02*
X133477000Y-69577858D01*
X133477000Y-69577858D02*
X133440714Y-69505287D01*
X133440714Y-69505287D02*
X133404428Y-69360144D01*
X133404428Y-69360144D02*
X133404428Y-69251287D01*
X133404428Y-69251287D02*
X133440714Y-69106144D01*
X133440714Y-69106144D02*
X133477000Y-69033572D01*
X133477000Y-69033572D02*
X133549571Y-68961001D01*
X133549571Y-68961001D02*
X133658428Y-68924715D01*
X133658428Y-68924715D02*
X133731000Y-68924715D01*
X133731000Y-68924715D02*
X133839857Y-68961001D01*
X133839857Y-68961001D02*
X133876143Y-68997287D01*
X134166428Y-68997287D02*
X134202714Y-68961001D01*
X134202714Y-68961001D02*
X134275286Y-68924715D01*
X134275286Y-68924715D02*
X134456714Y-68924715D01*
X134456714Y-68924715D02*
X134529286Y-68961001D01*
X134529286Y-68961001D02*
X134565571Y-68997287D01*
X134565571Y-68997287D02*
X134601857Y-69069858D01*
X134601857Y-69069858D02*
X134601857Y-69142430D01*
X134601857Y-69142430D02*
X134565571Y-69251287D01*
X134565571Y-69251287D02*
X134130143Y-69686715D01*
X134130143Y-69686715D02*
X134601857Y-69686715D01*
X135073571Y-68924715D02*
X135146142Y-68924715D01*
X135146142Y-68924715D02*
X135218714Y-68961001D01*
X135218714Y-68961001D02*
X135255000Y-68997287D01*
X135255000Y-68997287D02*
X135291285Y-69069858D01*
X135291285Y-69069858D02*
X135327571Y-69215001D01*
X135327571Y-69215001D02*
X135327571Y-69396430D01*
X135327571Y-69396430D02*
X135291285Y-69541572D01*
X135291285Y-69541572D02*
X135255000Y-69614144D01*
X135255000Y-69614144D02*
X135218714Y-69650430D01*
X135218714Y-69650430D02*
X135146142Y-69686715D01*
X135146142Y-69686715D02*
X135073571Y-69686715D01*
X135073571Y-69686715D02*
X135001000Y-69650430D01*
X135001000Y-69650430D02*
X134964714Y-69614144D01*
X134964714Y-69614144D02*
X134928428Y-69541572D01*
X134928428Y-69541572D02*
X134892142Y-69396430D01*
X134892142Y-69396430D02*
X134892142Y-69215001D01*
X134892142Y-69215001D02*
X134928428Y-69069858D01*
X134928428Y-69069858D02*
X134964714Y-68997287D01*
X134964714Y-68997287D02*
X135001000Y-68961001D01*
X135001000Y-68961001D02*
X135073571Y-68924715D01*
X155720144Y-94723856D02*
X155756430Y-94760142D01*
X155756430Y-94760142D02*
X155792715Y-94868999D01*
X155792715Y-94868999D02*
X155792715Y-94941571D01*
X155792715Y-94941571D02*
X155756430Y-95050428D01*
X155756430Y-95050428D02*
X155683858Y-95122999D01*
X155683858Y-95122999D02*
X155611287Y-95159285D01*
X155611287Y-95159285D02*
X155466144Y-95195571D01*
X155466144Y-95195571D02*
X155357287Y-95195571D01*
X155357287Y-95195571D02*
X155212144Y-95159285D01*
X155212144Y-95159285D02*
X155139572Y-95122999D01*
X155139572Y-95122999D02*
X155067001Y-95050428D01*
X155067001Y-95050428D02*
X155030715Y-94941571D01*
X155030715Y-94941571D02*
X155030715Y-94868999D01*
X155030715Y-94868999D02*
X155067001Y-94760142D01*
X155067001Y-94760142D02*
X155103287Y-94723856D01*
X155792715Y-93998142D02*
X155792715Y-94433571D01*
X155792715Y-94215856D02*
X155030715Y-94215856D01*
X155030715Y-94215856D02*
X155139572Y-94288428D01*
X155139572Y-94288428D02*
X155212144Y-94360999D01*
X155212144Y-94360999D02*
X155248430Y-94433571D01*
X155792715Y-93635285D02*
X155792715Y-93490142D01*
X155792715Y-93490142D02*
X155756430Y-93417571D01*
X155756430Y-93417571D02*
X155720144Y-93381285D01*
X155720144Y-93381285D02*
X155611287Y-93308714D01*
X155611287Y-93308714D02*
X155466144Y-93272428D01*
X155466144Y-93272428D02*
X155175858Y-93272428D01*
X155175858Y-93272428D02*
X155103287Y-93308714D01*
X155103287Y-93308714D02*
X155067001Y-93345000D01*
X155067001Y-93345000D02*
X155030715Y-93417571D01*
X155030715Y-93417571D02*
X155030715Y-93562714D01*
X155030715Y-93562714D02*
X155067001Y-93635285D01*
X155067001Y-93635285D02*
X155103287Y-93671571D01*
X155103287Y-93671571D02*
X155175858Y-93707857D01*
X155175858Y-93707857D02*
X155357287Y-93707857D01*
X155357287Y-93707857D02*
X155429858Y-93671571D01*
X155429858Y-93671571D02*
X155466144Y-93635285D01*
X155466144Y-93635285D02*
X155502430Y-93562714D01*
X155502430Y-93562714D02*
X155502430Y-93417571D01*
X155502430Y-93417571D02*
X155466144Y-93345000D01*
X155466144Y-93345000D02*
X155429858Y-93308714D01*
X155429858Y-93308714D02*
X155357287Y-93272428D01*
X148862143Y-95739858D02*
X148862143Y-96102715D01*
X148608143Y-95340715D02*
X148862143Y-95739858D01*
X148862143Y-95739858D02*
X149116143Y-95340715D01*
X149333857Y-95413287D02*
X149370143Y-95377001D01*
X149370143Y-95377001D02*
X149442715Y-95340715D01*
X149442715Y-95340715D02*
X149624143Y-95340715D01*
X149624143Y-95340715D02*
X149696715Y-95377001D01*
X149696715Y-95377001D02*
X149733000Y-95413287D01*
X149733000Y-95413287D02*
X149769286Y-95485858D01*
X149769286Y-95485858D02*
X149769286Y-95558430D01*
X149769286Y-95558430D02*
X149733000Y-95667287D01*
X149733000Y-95667287D02*
X149297572Y-96102715D01*
X149297572Y-96102715D02*
X149769286Y-96102715D01*
X159403143Y-88156144D02*
X159366857Y-88192430D01*
X159366857Y-88192430D02*
X159258000Y-88228715D01*
X159258000Y-88228715D02*
X159185428Y-88228715D01*
X159185428Y-88228715D02*
X159076571Y-88192430D01*
X159076571Y-88192430D02*
X159004000Y-88119858D01*
X159004000Y-88119858D02*
X158967714Y-88047287D01*
X158967714Y-88047287D02*
X158931428Y-87902144D01*
X158931428Y-87902144D02*
X158931428Y-87793287D01*
X158931428Y-87793287D02*
X158967714Y-87648144D01*
X158967714Y-87648144D02*
X159004000Y-87575572D01*
X159004000Y-87575572D02*
X159076571Y-87503001D01*
X159076571Y-87503001D02*
X159185428Y-87466715D01*
X159185428Y-87466715D02*
X159258000Y-87466715D01*
X159258000Y-87466715D02*
X159366857Y-87503001D01*
X159366857Y-87503001D02*
X159403143Y-87539287D01*
X160128857Y-88228715D02*
X159693428Y-88228715D01*
X159911143Y-88228715D02*
X159911143Y-87466715D01*
X159911143Y-87466715D02*
X159838571Y-87575572D01*
X159838571Y-87575572D02*
X159766000Y-87648144D01*
X159766000Y-87648144D02*
X159693428Y-87684430D01*
X160600571Y-87466715D02*
X160673142Y-87466715D01*
X160673142Y-87466715D02*
X160745714Y-87503001D01*
X160745714Y-87503001D02*
X160782000Y-87539287D01*
X160782000Y-87539287D02*
X160818285Y-87611858D01*
X160818285Y-87611858D02*
X160854571Y-87757001D01*
X160854571Y-87757001D02*
X160854571Y-87938430D01*
X160854571Y-87938430D02*
X160818285Y-88083572D01*
X160818285Y-88083572D02*
X160782000Y-88156144D01*
X160782000Y-88156144D02*
X160745714Y-88192430D01*
X160745714Y-88192430D02*
X160673142Y-88228715D01*
X160673142Y-88228715D02*
X160600571Y-88228715D01*
X160600571Y-88228715D02*
X160528000Y-88192430D01*
X160528000Y-88192430D02*
X160491714Y-88156144D01*
X160491714Y-88156144D02*
X160455428Y-88083572D01*
X160455428Y-88083572D02*
X160419142Y-87938430D01*
X160419142Y-87938430D02*
X160419142Y-87757001D01*
X160419142Y-87757001D02*
X160455428Y-87611858D01*
X160455428Y-87611858D02*
X160491714Y-87539287D01*
X160491714Y-87539287D02*
X160528000Y-87503001D01*
X160528000Y-87503001D02*
X160600571Y-87466715D01*
X131082144Y-88246856D02*
X131118430Y-88283142D01*
X131118430Y-88283142D02*
X131154715Y-88391999D01*
X131154715Y-88391999D02*
X131154715Y-88464571D01*
X131154715Y-88464571D02*
X131118430Y-88573428D01*
X131118430Y-88573428D02*
X131045858Y-88645999D01*
X131045858Y-88645999D02*
X130973287Y-88682285D01*
X130973287Y-88682285D02*
X130828144Y-88718571D01*
X130828144Y-88718571D02*
X130719287Y-88718571D01*
X130719287Y-88718571D02*
X130574144Y-88682285D01*
X130574144Y-88682285D02*
X130501572Y-88645999D01*
X130501572Y-88645999D02*
X130429001Y-88573428D01*
X130429001Y-88573428D02*
X130392715Y-88464571D01*
X130392715Y-88464571D02*
X130392715Y-88391999D01*
X130392715Y-88391999D02*
X130429001Y-88283142D01*
X130429001Y-88283142D02*
X130465287Y-88246856D01*
X130465287Y-87956571D02*
X130429001Y-87920285D01*
X130429001Y-87920285D02*
X130392715Y-87847714D01*
X130392715Y-87847714D02*
X130392715Y-87666285D01*
X130392715Y-87666285D02*
X130429001Y-87593714D01*
X130429001Y-87593714D02*
X130465287Y-87557428D01*
X130465287Y-87557428D02*
X130537858Y-87521142D01*
X130537858Y-87521142D02*
X130610430Y-87521142D01*
X130610430Y-87521142D02*
X130719287Y-87557428D01*
X130719287Y-87557428D02*
X131154715Y-87992856D01*
X131154715Y-87992856D02*
X131154715Y-87521142D01*
X130465287Y-87230857D02*
X130429001Y-87194571D01*
X130429001Y-87194571D02*
X130392715Y-87122000D01*
X130392715Y-87122000D02*
X130392715Y-86940571D01*
X130392715Y-86940571D02*
X130429001Y-86868000D01*
X130429001Y-86868000D02*
X130465287Y-86831714D01*
X130465287Y-86831714D02*
X130537858Y-86795428D01*
X130537858Y-86795428D02*
X130610430Y-86795428D01*
X130610430Y-86795428D02*
X130719287Y-86831714D01*
X130719287Y-86831714D02*
X131154715Y-87267142D01*
X131154715Y-87267142D02*
X131154715Y-86795428D01*
X155593143Y-76290715D02*
X155339143Y-75927858D01*
X155157714Y-76290715D02*
X155157714Y-75528715D01*
X155157714Y-75528715D02*
X155448000Y-75528715D01*
X155448000Y-75528715D02*
X155520571Y-75565001D01*
X155520571Y-75565001D02*
X155556857Y-75601287D01*
X155556857Y-75601287D02*
X155593143Y-75673858D01*
X155593143Y-75673858D02*
X155593143Y-75782715D01*
X155593143Y-75782715D02*
X155556857Y-75855287D01*
X155556857Y-75855287D02*
X155520571Y-75891572D01*
X155520571Y-75891572D02*
X155448000Y-75927858D01*
X155448000Y-75927858D02*
X155157714Y-75927858D01*
X156318857Y-76290715D02*
X155883428Y-76290715D01*
X156101143Y-76290715D02*
X156101143Y-75528715D01*
X156101143Y-75528715D02*
X156028571Y-75637572D01*
X156028571Y-75637572D02*
X155956000Y-75710144D01*
X155956000Y-75710144D02*
X155883428Y-75746430D01*
X157008285Y-75528715D02*
X156645428Y-75528715D01*
X156645428Y-75528715D02*
X156609142Y-75891572D01*
X156609142Y-75891572D02*
X156645428Y-75855287D01*
X156645428Y-75855287D02*
X156718000Y-75819001D01*
X156718000Y-75819001D02*
X156899428Y-75819001D01*
X156899428Y-75819001D02*
X156972000Y-75855287D01*
X156972000Y-75855287D02*
X157008285Y-75891572D01*
X157008285Y-75891572D02*
X157044571Y-75964144D01*
X157044571Y-75964144D02*
X157044571Y-76145572D01*
X157044571Y-76145572D02*
X157008285Y-76218144D01*
X157008285Y-76218144D02*
X156972000Y-76254430D01*
X156972000Y-76254430D02*
X156899428Y-76290715D01*
X156899428Y-76290715D02*
X156718000Y-76290715D01*
X156718000Y-76290715D02*
X156645428Y-76254430D01*
X156645428Y-76254430D02*
X156609142Y-76218144D01*
X143891000Y-76671715D02*
X143637000Y-76308858D01*
X143455571Y-76671715D02*
X143455571Y-75909715D01*
X143455571Y-75909715D02*
X143745857Y-75909715D01*
X143745857Y-75909715D02*
X143818428Y-75946001D01*
X143818428Y-75946001D02*
X143854714Y-75982287D01*
X143854714Y-75982287D02*
X143891000Y-76054858D01*
X143891000Y-76054858D02*
X143891000Y-76163715D01*
X143891000Y-76163715D02*
X143854714Y-76236287D01*
X143854714Y-76236287D02*
X143818428Y-76272572D01*
X143818428Y-76272572D02*
X143745857Y-76308858D01*
X143745857Y-76308858D02*
X143455571Y-76308858D01*
X144544143Y-75909715D02*
X144399000Y-75909715D01*
X144399000Y-75909715D02*
X144326428Y-75946001D01*
X144326428Y-75946001D02*
X144290143Y-75982287D01*
X144290143Y-75982287D02*
X144217571Y-76091144D01*
X144217571Y-76091144D02*
X144181285Y-76236287D01*
X144181285Y-76236287D02*
X144181285Y-76526572D01*
X144181285Y-76526572D02*
X144217571Y-76599144D01*
X144217571Y-76599144D02*
X144253857Y-76635430D01*
X144253857Y-76635430D02*
X144326428Y-76671715D01*
X144326428Y-76671715D02*
X144471571Y-76671715D01*
X144471571Y-76671715D02*
X144544143Y-76635430D01*
X144544143Y-76635430D02*
X144580428Y-76599144D01*
X144580428Y-76599144D02*
X144616714Y-76526572D01*
X144616714Y-76526572D02*
X144616714Y-76345144D01*
X144616714Y-76345144D02*
X144580428Y-76272572D01*
X144580428Y-76272572D02*
X144544143Y-76236287D01*
X144544143Y-76236287D02*
X144471571Y-76200001D01*
X144471571Y-76200001D02*
X144326428Y-76200001D01*
X144326428Y-76200001D02*
X144253857Y-76236287D01*
X144253857Y-76236287D02*
X144217571Y-76272572D01*
X144217571Y-76272572D02*
X144181285Y-76345144D01*
X146267715Y-70720856D02*
X145904858Y-70974856D01*
X146267715Y-71156285D02*
X145505715Y-71156285D01*
X145505715Y-71156285D02*
X145505715Y-70865999D01*
X145505715Y-70865999D02*
X145542001Y-70793428D01*
X145542001Y-70793428D02*
X145578287Y-70757142D01*
X145578287Y-70757142D02*
X145650858Y-70720856D01*
X145650858Y-70720856D02*
X145759715Y-70720856D01*
X145759715Y-70720856D02*
X145832287Y-70757142D01*
X145832287Y-70757142D02*
X145868572Y-70793428D01*
X145868572Y-70793428D02*
X145904858Y-70865999D01*
X145904858Y-70865999D02*
X145904858Y-71156285D01*
X146267715Y-69995142D02*
X146267715Y-70430571D01*
X146267715Y-70212856D02*
X145505715Y-70212856D01*
X145505715Y-70212856D02*
X145614572Y-70285428D01*
X145614572Y-70285428D02*
X145687144Y-70357999D01*
X145687144Y-70357999D02*
X145723430Y-70430571D01*
X146267715Y-69632285D02*
X146267715Y-69487142D01*
X146267715Y-69487142D02*
X146231430Y-69414571D01*
X146231430Y-69414571D02*
X146195144Y-69378285D01*
X146195144Y-69378285D02*
X146086287Y-69305714D01*
X146086287Y-69305714D02*
X145941144Y-69269428D01*
X145941144Y-69269428D02*
X145650858Y-69269428D01*
X145650858Y-69269428D02*
X145578287Y-69305714D01*
X145578287Y-69305714D02*
X145542001Y-69342000D01*
X145542001Y-69342000D02*
X145505715Y-69414571D01*
X145505715Y-69414571D02*
X145505715Y-69559714D01*
X145505715Y-69559714D02*
X145542001Y-69632285D01*
X145542001Y-69632285D02*
X145578287Y-69668571D01*
X145578287Y-69668571D02*
X145650858Y-69704857D01*
X145650858Y-69704857D02*
X145832287Y-69704857D01*
X145832287Y-69704857D02*
X145904858Y-69668571D01*
X145904858Y-69668571D02*
X145941144Y-69632285D01*
X145941144Y-69632285D02*
X145977430Y-69559714D01*
X145977430Y-69559714D02*
X145977430Y-69414571D01*
X145977430Y-69414571D02*
X145941144Y-69342000D01*
X145941144Y-69342000D02*
X145904858Y-69305714D01*
X145904858Y-69305714D02*
X145832287Y-69269428D01*
X144235715Y-92201999D02*
X143872858Y-92455999D01*
X144235715Y-92637428D02*
X143473715Y-92637428D01*
X143473715Y-92637428D02*
X143473715Y-92347142D01*
X143473715Y-92347142D02*
X143510001Y-92274571D01*
X143510001Y-92274571D02*
X143546287Y-92238285D01*
X143546287Y-92238285D02*
X143618858Y-92201999D01*
X143618858Y-92201999D02*
X143727715Y-92201999D01*
X143727715Y-92201999D02*
X143800287Y-92238285D01*
X143800287Y-92238285D02*
X143836572Y-92274571D01*
X143836572Y-92274571D02*
X143872858Y-92347142D01*
X143872858Y-92347142D02*
X143872858Y-92637428D01*
X143473715Y-91947999D02*
X143473715Y-91476285D01*
X143473715Y-91476285D02*
X143764001Y-91730285D01*
X143764001Y-91730285D02*
X143764001Y-91621428D01*
X143764001Y-91621428D02*
X143800287Y-91548857D01*
X143800287Y-91548857D02*
X143836572Y-91512571D01*
X143836572Y-91512571D02*
X143909144Y-91476285D01*
X143909144Y-91476285D02*
X144090572Y-91476285D01*
X144090572Y-91476285D02*
X144163144Y-91512571D01*
X144163144Y-91512571D02*
X144199430Y-91548857D01*
X144199430Y-91548857D02*
X144235715Y-91621428D01*
X144235715Y-91621428D02*
X144235715Y-91839142D01*
X144235715Y-91839142D02*
X144199430Y-91911714D01*
X144199430Y-91911714D02*
X144163144Y-91947999D01*
X132207000Y-83457144D02*
X132170714Y-83493430D01*
X132170714Y-83493430D02*
X132061857Y-83529715D01*
X132061857Y-83529715D02*
X131989285Y-83529715D01*
X131989285Y-83529715D02*
X131880428Y-83493430D01*
X131880428Y-83493430D02*
X131807857Y-83420858D01*
X131807857Y-83420858D02*
X131771571Y-83348287D01*
X131771571Y-83348287D02*
X131735285Y-83203144D01*
X131735285Y-83203144D02*
X131735285Y-83094287D01*
X131735285Y-83094287D02*
X131771571Y-82949144D01*
X131771571Y-82949144D02*
X131807857Y-82876572D01*
X131807857Y-82876572D02*
X131880428Y-82804001D01*
X131880428Y-82804001D02*
X131989285Y-82767715D01*
X131989285Y-82767715D02*
X132061857Y-82767715D01*
X132061857Y-82767715D02*
X132170714Y-82804001D01*
X132170714Y-82804001D02*
X132207000Y-82840287D01*
X132497285Y-82840287D02*
X132533571Y-82804001D01*
X132533571Y-82804001D02*
X132606143Y-82767715D01*
X132606143Y-82767715D02*
X132787571Y-82767715D01*
X132787571Y-82767715D02*
X132860143Y-82804001D01*
X132860143Y-82804001D02*
X132896428Y-82840287D01*
X132896428Y-82840287D02*
X132932714Y-82912858D01*
X132932714Y-82912858D02*
X132932714Y-82985430D01*
X132932714Y-82985430D02*
X132896428Y-83094287D01*
X132896428Y-83094287D02*
X132461000Y-83529715D01*
X132461000Y-83529715D02*
X132932714Y-83529715D01*
X127497115Y-80369228D02*
X126735115Y-80369228D01*
X126735115Y-80369228D02*
X126735115Y-80187799D01*
X126735115Y-80187799D02*
X126771401Y-80078942D01*
X126771401Y-80078942D02*
X126843972Y-80006371D01*
X126843972Y-80006371D02*
X126916544Y-79970085D01*
X126916544Y-79970085D02*
X127061687Y-79933799D01*
X127061687Y-79933799D02*
X127170544Y-79933799D01*
X127170544Y-79933799D02*
X127315687Y-79970085D01*
X127315687Y-79970085D02*
X127388258Y-80006371D01*
X127388258Y-80006371D02*
X127460830Y-80078942D01*
X127460830Y-80078942D02*
X127497115Y-80187799D01*
X127497115Y-80187799D02*
X127497115Y-80369228D01*
X126735115Y-79244371D02*
X126735115Y-79607228D01*
X126735115Y-79607228D02*
X127097972Y-79643514D01*
X127097972Y-79643514D02*
X127061687Y-79607228D01*
X127061687Y-79607228D02*
X127025401Y-79534657D01*
X127025401Y-79534657D02*
X127025401Y-79353228D01*
X127025401Y-79353228D02*
X127061687Y-79280657D01*
X127061687Y-79280657D02*
X127097972Y-79244371D01*
X127097972Y-79244371D02*
X127170544Y-79208085D01*
X127170544Y-79208085D02*
X127351972Y-79208085D01*
X127351972Y-79208085D02*
X127424544Y-79244371D01*
X127424544Y-79244371D02*
X127460830Y-79280657D01*
X127460830Y-79280657D02*
X127497115Y-79353228D01*
X127497115Y-79353228D02*
X127497115Y-79534657D01*
X127497115Y-79534657D02*
X127460830Y-79607228D01*
X127460830Y-79607228D02*
X127424544Y-79643514D01*
X136543143Y-67836144D02*
X136506857Y-67872430D01*
X136506857Y-67872430D02*
X136398000Y-67908715D01*
X136398000Y-67908715D02*
X136325428Y-67908715D01*
X136325428Y-67908715D02*
X136216571Y-67872430D01*
X136216571Y-67872430D02*
X136144000Y-67799858D01*
X136144000Y-67799858D02*
X136107714Y-67727287D01*
X136107714Y-67727287D02*
X136071428Y-67582144D01*
X136071428Y-67582144D02*
X136071428Y-67473287D01*
X136071428Y-67473287D02*
X136107714Y-67328144D01*
X136107714Y-67328144D02*
X136144000Y-67255572D01*
X136144000Y-67255572D02*
X136216571Y-67183001D01*
X136216571Y-67183001D02*
X136325428Y-67146715D01*
X136325428Y-67146715D02*
X136398000Y-67146715D01*
X136398000Y-67146715D02*
X136506857Y-67183001D01*
X136506857Y-67183001D02*
X136543143Y-67219287D01*
X136833428Y-67219287D02*
X136869714Y-67183001D01*
X136869714Y-67183001D02*
X136942286Y-67146715D01*
X136942286Y-67146715D02*
X137123714Y-67146715D01*
X137123714Y-67146715D02*
X137196286Y-67183001D01*
X137196286Y-67183001D02*
X137232571Y-67219287D01*
X137232571Y-67219287D02*
X137268857Y-67291858D01*
X137268857Y-67291858D02*
X137268857Y-67364430D01*
X137268857Y-67364430D02*
X137232571Y-67473287D01*
X137232571Y-67473287D02*
X136797143Y-67908715D01*
X136797143Y-67908715D02*
X137268857Y-67908715D01*
X137922000Y-67400715D02*
X137922000Y-67908715D01*
X137740571Y-67110430D02*
X137559142Y-67654715D01*
X137559142Y-67654715D02*
X138030857Y-67654715D01*
X146621715Y-66021856D02*
X146258858Y-66275856D01*
X146621715Y-66457285D02*
X145859715Y-66457285D01*
X145859715Y-66457285D02*
X145859715Y-66166999D01*
X145859715Y-66166999D02*
X145896001Y-66094428D01*
X145896001Y-66094428D02*
X145932287Y-66058142D01*
X145932287Y-66058142D02*
X146004858Y-66021856D01*
X146004858Y-66021856D02*
X146113715Y-66021856D01*
X146113715Y-66021856D02*
X146186287Y-66058142D01*
X146186287Y-66058142D02*
X146222572Y-66094428D01*
X146222572Y-66094428D02*
X146258858Y-66166999D01*
X146258858Y-66166999D02*
X146258858Y-66457285D01*
X146621715Y-65296142D02*
X146621715Y-65731571D01*
X146621715Y-65513856D02*
X145859715Y-65513856D01*
X145859715Y-65513856D02*
X145968572Y-65586428D01*
X145968572Y-65586428D02*
X146041144Y-65658999D01*
X146041144Y-65658999D02*
X146077430Y-65731571D01*
X145932287Y-65005857D02*
X145896001Y-64969571D01*
X145896001Y-64969571D02*
X145859715Y-64897000D01*
X145859715Y-64897000D02*
X145859715Y-64715571D01*
X145859715Y-64715571D02*
X145896001Y-64643000D01*
X145896001Y-64643000D02*
X145932287Y-64606714D01*
X145932287Y-64606714D02*
X146004858Y-64570428D01*
X146004858Y-64570428D02*
X146077430Y-64570428D01*
X146077430Y-64570428D02*
X146186287Y-64606714D01*
X146186287Y-64606714D02*
X146621715Y-65042142D01*
X146621715Y-65042142D02*
X146621715Y-64570428D01*
X142584715Y-88518999D02*
X142221858Y-88772999D01*
X142584715Y-88954428D02*
X141822715Y-88954428D01*
X141822715Y-88954428D02*
X141822715Y-88664142D01*
X141822715Y-88664142D02*
X141859001Y-88591571D01*
X141859001Y-88591571D02*
X141895287Y-88555285D01*
X141895287Y-88555285D02*
X141967858Y-88518999D01*
X141967858Y-88518999D02*
X142076715Y-88518999D01*
X142076715Y-88518999D02*
X142149287Y-88555285D01*
X142149287Y-88555285D02*
X142185572Y-88591571D01*
X142185572Y-88591571D02*
X142221858Y-88664142D01*
X142221858Y-88664142D02*
X142221858Y-88954428D01*
X142149287Y-88083571D02*
X142113001Y-88156142D01*
X142113001Y-88156142D02*
X142076715Y-88192428D01*
X142076715Y-88192428D02*
X142004144Y-88228714D01*
X142004144Y-88228714D02*
X141967858Y-88228714D01*
X141967858Y-88228714D02*
X141895287Y-88192428D01*
X141895287Y-88192428D02*
X141859001Y-88156142D01*
X141859001Y-88156142D02*
X141822715Y-88083571D01*
X141822715Y-88083571D02*
X141822715Y-87938428D01*
X141822715Y-87938428D02*
X141859001Y-87865857D01*
X141859001Y-87865857D02*
X141895287Y-87829571D01*
X141895287Y-87829571D02*
X141967858Y-87793285D01*
X141967858Y-87793285D02*
X142004144Y-87793285D01*
X142004144Y-87793285D02*
X142076715Y-87829571D01*
X142076715Y-87829571D02*
X142113001Y-87865857D01*
X142113001Y-87865857D02*
X142149287Y-87938428D01*
X142149287Y-87938428D02*
X142149287Y-88083571D01*
X142149287Y-88083571D02*
X142185572Y-88156142D01*
X142185572Y-88156142D02*
X142221858Y-88192428D01*
X142221858Y-88192428D02*
X142294430Y-88228714D01*
X142294430Y-88228714D02*
X142439572Y-88228714D01*
X142439572Y-88228714D02*
X142512144Y-88192428D01*
X142512144Y-88192428D02*
X142548430Y-88156142D01*
X142548430Y-88156142D02*
X142584715Y-88083571D01*
X142584715Y-88083571D02*
X142584715Y-87938428D01*
X142584715Y-87938428D02*
X142548430Y-87865857D01*
X142548430Y-87865857D02*
X142512144Y-87829571D01*
X142512144Y-87829571D02*
X142439572Y-87793285D01*
X142439572Y-87793285D02*
X142294430Y-87793285D01*
X142294430Y-87793285D02*
X142221858Y-87829571D01*
X142221858Y-87829571D02*
X142185572Y-87865857D01*
X142185572Y-87865857D02*
X142149287Y-87938428D01*
X160909000Y-73932144D02*
X160872714Y-73968430D01*
X160872714Y-73968430D02*
X160763857Y-74004715D01*
X160763857Y-74004715D02*
X160691285Y-74004715D01*
X160691285Y-74004715D02*
X160582428Y-73968430D01*
X160582428Y-73968430D02*
X160509857Y-73895858D01*
X160509857Y-73895858D02*
X160473571Y-73823287D01*
X160473571Y-73823287D02*
X160437285Y-73678144D01*
X160437285Y-73678144D02*
X160437285Y-73569287D01*
X160437285Y-73569287D02*
X160473571Y-73424144D01*
X160473571Y-73424144D02*
X160509857Y-73351572D01*
X160509857Y-73351572D02*
X160582428Y-73279001D01*
X160582428Y-73279001D02*
X160691285Y-73242715D01*
X160691285Y-73242715D02*
X160763857Y-73242715D01*
X160763857Y-73242715D02*
X160872714Y-73279001D01*
X160872714Y-73279001D02*
X160909000Y-73315287D01*
X161163000Y-73242715D02*
X161634714Y-73242715D01*
X161634714Y-73242715D02*
X161380714Y-73533001D01*
X161380714Y-73533001D02*
X161489571Y-73533001D01*
X161489571Y-73533001D02*
X161562143Y-73569287D01*
X161562143Y-73569287D02*
X161598428Y-73605572D01*
X161598428Y-73605572D02*
X161634714Y-73678144D01*
X161634714Y-73678144D02*
X161634714Y-73859572D01*
X161634714Y-73859572D02*
X161598428Y-73932144D01*
X161598428Y-73932144D02*
X161562143Y-73968430D01*
X161562143Y-73968430D02*
X161489571Y-74004715D01*
X161489571Y-74004715D02*
X161271857Y-74004715D01*
X161271857Y-74004715D02*
X161199285Y-73968430D01*
X161199285Y-73968430D02*
X161163000Y-73932144D01*
D17*
%TO.C,C4*%
X161671580Y-82298000D02*
X161390420Y-82298000D01*
X161671580Y-81278000D02*
X161390420Y-81278000D01*
D11*
%TO.C,TP4*%
X166449200Y-88290400D02*
G75*
G03*
X166449200Y-88290400I-1400000J0D01*
G01*
D17*
%TO.C,R1*%
X134900936Y-85244000D02*
X135355064Y-85244000D01*
X134900936Y-86714000D02*
X135355064Y-86714000D01*
%TO.C,R11*%
X148083000Y-65685641D02*
X148083000Y-65378359D01*
X148843000Y-65685641D02*
X148843000Y-65378359D01*
D14*
%TO.C,U4*%
X144748000Y-66072000D02*
X144748000Y-66472000D01*
X144348000Y-70072000D02*
X144748000Y-70072000D01*
X144348000Y-66072000D02*
X144748000Y-66072000D01*
X141148000Y-66072000D02*
X140748000Y-66072000D01*
X140748000Y-70072000D02*
X141148000Y-70072000D01*
X140748000Y-69672000D02*
X140748000Y-70072000D01*
X140748000Y-66072000D02*
X140748000Y-66472000D01*
D17*
%TO.C,Q1*%
X136688000Y-81153000D02*
X136688000Y-79353000D01*
X136688000Y-81153000D02*
X136688000Y-81953000D01*
X133568000Y-81153000D02*
X133568000Y-80353000D01*
X133568000Y-81153000D02*
X133568000Y-81953000D01*
%TO.C,TP8*%
X131968200Y-66664800D02*
X133868200Y-66664800D01*
X131968200Y-68564800D02*
X131968200Y-66664800D01*
X133868200Y-66664800D02*
X133868200Y-68564800D01*
X133868200Y-68564800D02*
X131968200Y-68564800D01*
%TO.C,R9*%
X144614800Y-88238359D02*
X144614800Y-88545641D01*
X143854800Y-88238359D02*
X143854800Y-88545641D01*
D11*
%TO.C,TP6*%
X129908800Y-70866000D02*
G75*
G03*
X129908800Y-70866000I-1400000J0D01*
G01*
D17*
%TO.C,R14*%
X153655500Y-78149258D02*
X153655500Y-77674742D01*
X154700500Y-78149258D02*
X154700500Y-77674742D01*
%TO.C,D2*%
X160402800Y-84289000D02*
X160402800Y-85759000D01*
X160402800Y-85759000D02*
X162687800Y-85759000D01*
X162687800Y-84289000D02*
X160402800Y-84289000D01*
%TO.C,R10*%
X146963641Y-89407000D02*
X146656359Y-89407000D01*
X146963641Y-88647000D02*
X146656359Y-88647000D01*
D13*
%TO.C,PS1*%
X131927800Y-78832000D02*
X131927800Y-77632000D01*
X132077800Y-77282000D02*
X132077800Y-76682000D01*
X134977800Y-77282000D02*
X132077800Y-77282000D01*
X132077800Y-76682000D02*
X134977800Y-76682000D01*
X134977800Y-76682000D02*
X134977800Y-77282000D01*
D17*
%TO.C,D3*%
X157265000Y-76286000D02*
X158965000Y-76286000D01*
X157265000Y-76286000D02*
X157265000Y-73626000D01*
X158965000Y-76286000D02*
X158965000Y-73626000D01*
%TO.C,SW3*%
X164189800Y-100093000D02*
X166189800Y-100093000D01*
X162889800Y-99043000D02*
X162439800Y-98593000D01*
X167489800Y-99043000D02*
X167939800Y-98593000D01*
X162439800Y-98593000D02*
X162439800Y-96093000D01*
X167939800Y-98593000D02*
X167939800Y-96093000D01*
X162889800Y-95643000D02*
X162439800Y-96093000D01*
X167489800Y-95643000D02*
X167939800Y-96093000D01*
X164189800Y-94593000D02*
X166189800Y-94593000D01*
%TO.C,TH1*%
X139200836Y-66908000D02*
X138985164Y-66908000D01*
X139200836Y-66188000D02*
X138985164Y-66188000D01*
%TO.C,C18*%
X151151000Y-78720836D02*
X151151000Y-78505164D01*
X151871000Y-78720836D02*
X151871000Y-78505164D01*
%TO.C,Brd1*%
X166183000Y-76775000D02*
X167513000Y-76775000D01*
X166183000Y-78105000D02*
X166183000Y-76775000D01*
X168843000Y-79375000D02*
X168843000Y-87055000D01*
X166183000Y-79375000D02*
X168843000Y-79375000D01*
X166183000Y-79375000D02*
X166183000Y-87055000D01*
X166183000Y-87055000D02*
X168843000Y-87055000D01*
%TO.C,R16*%
X140097742Y-75423500D02*
X140572258Y-75423500D01*
X140097742Y-76468500D02*
X140572258Y-76468500D01*
%TO.C,R13*%
X161650542Y-86025499D02*
X162125058Y-86025499D01*
X161650542Y-87070499D02*
X162125058Y-87070499D01*
%TO.C,U3*%
X162306000Y-80935000D02*
X164106000Y-80935000D01*
X162306000Y-80935000D02*
X161506000Y-80935000D01*
X162306000Y-77815000D02*
X163106000Y-77815000D01*
X162306000Y-77815000D02*
X161506000Y-77815000D01*
%TO.C,C1*%
X134627252Y-74522000D02*
X134104748Y-74522000D01*
X134627252Y-73052000D02*
X134104748Y-73052000D01*
%TO.C,U5*%
X149506300Y-90485000D02*
X149506300Y-89835000D01*
X150156300Y-83265000D02*
X149506300Y-83265000D01*
X150156300Y-90485000D02*
X149506300Y-90485000D01*
X156076300Y-83265000D02*
X156726300Y-83265000D01*
X156076300Y-90485000D02*
X156726300Y-90485000D01*
X156726300Y-83265000D02*
X156726300Y-83915000D01*
X156726300Y-90485000D02*
X156726300Y-89835000D01*
%TO.C,C16*%
X145182000Y-79990836D02*
X145182000Y-79775164D01*
X145902000Y-79990836D02*
X145902000Y-79775164D01*
%TO.C,C6*%
X133484252Y-88746000D02*
X132961748Y-88746000D01*
X133484252Y-87276000D02*
X132961748Y-87276000D01*
D18*
%TO.C,U2*%
X146043300Y-83699000D02*
G75*
G03*
X146043300Y-83699000I-125000J0D01*
G01*
D17*
%TO.C,J2*%
X154602000Y-96176000D02*
X155652000Y-96176000D01*
X154602000Y-99506000D02*
X154602000Y-96176000D01*
X155652000Y-96176000D02*
X155652000Y-95966000D01*
X155672000Y-100896000D02*
X156172000Y-100896000D01*
X155962000Y-95112447D02*
X156212000Y-95466000D01*
X156172000Y-100896000D02*
X156472000Y-100396000D01*
X156212000Y-95466000D02*
X156462000Y-95112447D01*
X156462000Y-95112447D02*
X155962000Y-95112447D01*
X156472000Y-100396000D02*
X159552000Y-100396000D01*
X159552000Y-100396000D02*
X159852000Y-100896000D01*
X159852000Y-100896000D02*
X160352000Y-100896000D01*
X161422000Y-96176000D02*
X160372000Y-96176000D01*
X161422000Y-99506000D02*
X161422000Y-96176000D01*
%TO.C,C25*%
X148349580Y-73027000D02*
X148068420Y-73027000D01*
X148349580Y-72007000D02*
X148068420Y-72007000D01*
%TO.C,C14*%
X158261164Y-83267000D02*
X158476836Y-83267000D01*
X158261164Y-83987000D02*
X158476836Y-83987000D01*
%TO.C,J7*%
X129616000Y-96467000D02*
X130666000Y-96467000D01*
X129616000Y-99797000D02*
X129616000Y-96467000D01*
X130666000Y-96467000D02*
X130666000Y-96257000D01*
X130686000Y-101187000D02*
X131186000Y-101187000D01*
X130976000Y-95403447D02*
X131226000Y-95757000D01*
X131186000Y-101187000D02*
X131486000Y-100687000D01*
X131226000Y-95757000D02*
X131476000Y-95403447D01*
X131476000Y-95403447D02*
X130976000Y-95403447D01*
X131486000Y-100687000D02*
X132166000Y-100687000D01*
X132166000Y-100687000D02*
X132466000Y-101187000D01*
X132466000Y-101187000D02*
X132966000Y-101187000D01*
X134036000Y-96467000D02*
X132986000Y-96467000D01*
X134036000Y-99797000D02*
X134036000Y-96467000D01*
%TO.C,J6*%
X159860000Y-69597000D02*
X159860000Y-67597000D01*
X159860000Y-65697000D02*
X159860000Y-63797000D01*
X159860000Y-63797000D02*
X150460000Y-63797000D01*
X150460000Y-69597000D02*
X150460000Y-67597000D01*
X150460000Y-65697000D02*
X150460000Y-63797000D01*
%TO.C,R2*%
X137006000Y-77186736D02*
X137006000Y-77640864D01*
X135536000Y-77186736D02*
X135536000Y-77640864D01*
%TO.C,C17*%
X157186800Y-77925580D02*
X157186800Y-77644420D01*
X158206800Y-77925580D02*
X158206800Y-77644420D01*
D11*
%TO.C,TP2*%
X135893000Y-91948000D02*
G75*
G03*
X135893000Y-91948000I-1400000J0D01*
G01*
D17*
%TO.C,TP9*%
X167096400Y-87924600D02*
X168996400Y-87924600D01*
X167096400Y-89824600D02*
X167096400Y-87924600D01*
X168996400Y-87924600D02*
X168996400Y-89824600D01*
X168996400Y-89824600D02*
X167096400Y-89824600D01*
%TO.C,C15*%
X157374000Y-81641836D02*
X157374000Y-81426164D01*
X158094000Y-81641836D02*
X158094000Y-81426164D01*
%TO.C,R4*%
X162078641Y-89280000D02*
X161771359Y-89280000D01*
X162078641Y-88520000D02*
X161771359Y-88520000D01*
%TO.C,C7*%
X155789800Y-81354580D02*
X155789800Y-81073420D01*
X156809800Y-81354580D02*
X156809800Y-81073420D01*
D14*
%TO.C,D6*%
X153640000Y-74742000D02*
X153640000Y-75342000D01*
X153640000Y-75342000D02*
X154040000Y-75342000D01*
D17*
%TO.C,C8*%
X138985164Y-65172000D02*
X139200836Y-65172000D01*
X138985164Y-65892000D02*
X139200836Y-65892000D01*
%TO.C,R7*%
X134900936Y-83339000D02*
X135355064Y-83339000D01*
X134900936Y-84809000D02*
X135355064Y-84809000D01*
%TO.C,C11*%
X146919836Y-88371000D02*
X146704164Y-88371000D01*
X146919836Y-87651000D02*
X146704164Y-87651000D01*
%TO.C,C21*%
X165200000Y-75684748D02*
X165200000Y-76207252D01*
X163730000Y-75684748D02*
X163730000Y-76207252D01*
%TO.C,FBr1*%
X163282000Y-75684748D02*
X163282000Y-76207252D01*
X161812000Y-75684748D02*
X161812000Y-76207252D01*
%TO.C,C26*%
X148461000Y-70371580D02*
X148461000Y-70090420D01*
X149481000Y-70371580D02*
X149481000Y-70090420D01*
%TO.C,C9*%
X152294000Y-78720836D02*
X152294000Y-78505164D01*
X153014000Y-78720836D02*
X153014000Y-78505164D01*
%TO.C,C13*%
X152760000Y-94126164D02*
X152760000Y-94341836D01*
X152040000Y-94126164D02*
X152040000Y-94341836D01*
%TO.C,C5*%
X164451420Y-81278000D02*
X164732580Y-81278000D01*
X164451420Y-82298000D02*
X164732580Y-82298000D01*
%TO.C,TP5*%
X136718000Y-90998000D02*
X138618000Y-90998000D01*
X136718000Y-92898000D02*
X136718000Y-90998000D01*
X138618000Y-90998000D02*
X138618000Y-92898000D01*
X138618000Y-92898000D02*
X136718000Y-92898000D01*
%TO.C,C23*%
X141243164Y-71014000D02*
X141458836Y-71014000D01*
X141243164Y-71734000D02*
X141458836Y-71734000D01*
%TO.C,SW2*%
X143085000Y-82014000D02*
X144145000Y-82014000D01*
X143085000Y-83074000D02*
X143085000Y-82014000D01*
X143085000Y-84074000D02*
X143085000Y-86134000D01*
X143085000Y-84074000D02*
X145205000Y-84074000D01*
X143085000Y-86134000D02*
X145205000Y-86134000D01*
X145205000Y-84074000D02*
X145205000Y-86134000D01*
%TO.C,J1*%
X142477800Y-100093000D02*
X144477800Y-100093000D01*
X141177800Y-99043000D02*
X140727800Y-98593000D01*
X145777800Y-99043000D02*
X146227800Y-98593000D01*
X140727800Y-98593000D02*
X140727800Y-96093000D01*
X146227800Y-98593000D02*
X146227800Y-96093000D01*
X141177800Y-95643000D02*
X140727800Y-96093000D01*
X145777800Y-95643000D02*
X146227800Y-96093000D01*
X142477800Y-94593000D02*
X144477800Y-94593000D01*
%TO.C,C12*%
X146919836Y-86466000D02*
X146704164Y-86466000D01*
X146919836Y-85746000D02*
X146704164Y-85746000D01*
%TO.C,J4*%
X135004800Y-96462000D02*
X136054800Y-96462000D01*
X135004800Y-99792000D02*
X135004800Y-96462000D01*
X136054800Y-96462000D02*
X136054800Y-96252000D01*
X136074800Y-101182000D02*
X136574800Y-101182000D01*
X136364800Y-95398447D02*
X136614800Y-95752000D01*
X136574800Y-101182000D02*
X136874800Y-100682000D01*
X136614800Y-95752000D02*
X136864800Y-95398447D01*
X136864800Y-95398447D02*
X136364800Y-95398447D01*
X136874800Y-100682000D02*
X137554800Y-100682000D01*
X137554800Y-100682000D02*
X137854800Y-101182000D01*
X137854800Y-101182000D02*
X138354800Y-101182000D01*
X139424800Y-96462000D02*
X138374800Y-96462000D01*
X139424800Y-99792000D02*
X139424800Y-96462000D01*
%TO.C,R5*%
X150623000Y-94387641D02*
X150623000Y-94080359D01*
X151383000Y-94387641D02*
X151383000Y-94080359D01*
%TO.C,D4*%
X144360000Y-78062001D02*
X142660000Y-78062001D01*
X144360000Y-78062001D02*
X144360000Y-80722001D01*
X142660000Y-78062001D02*
X142660000Y-80722001D01*
%TO.C,C20*%
X134627252Y-72490000D02*
X134104748Y-72490000D01*
X134627252Y-71020000D02*
X134104748Y-71020000D01*
%TO.C,C19*%
X153776000Y-94126164D02*
X153776000Y-94341836D01*
X153056000Y-94126164D02*
X153056000Y-94341836D01*
D19*
%TO.C,Y2*%
X149875000Y-91643500D02*
X148575000Y-91643500D01*
X149875000Y-95083500D02*
X148575000Y-95083500D01*
D13*
X149325000Y-91143500D02*
G75*
G03*
X149325000Y-91143500I-100000J0D01*
G01*
D17*
%TO.C,C10*%
X161817164Y-87524000D02*
X162032836Y-87524000D01*
X161817164Y-88244000D02*
X162032836Y-88244000D01*
%TO.C,C22*%
X133069000Y-84955748D02*
X133069000Y-85478252D01*
X131599000Y-84955748D02*
X131599000Y-85478252D01*
%TO.C,R15*%
X155179500Y-78150258D02*
X155179500Y-77675742D01*
X156224500Y-78150258D02*
X156224500Y-77675742D01*
%TO.C,R6*%
X144171641Y-77850000D02*
X143864359Y-77850000D01*
X144171641Y-77090000D02*
X143864359Y-77090000D01*
%TO.C,R19*%
X147969500Y-69993742D02*
X147969500Y-70468258D01*
X146924500Y-69993742D02*
X146924500Y-70468258D01*
%TO.C,R3*%
X145287000Y-91794359D02*
X145287000Y-92101641D01*
X144527000Y-91794359D02*
X144527000Y-92101641D01*
%TO.C,C2*%
X133069000Y-80952748D02*
X133069000Y-81475252D01*
X131599000Y-80952748D02*
X131599000Y-81475252D01*
%TO.C,D5*%
X126882000Y-86591000D02*
X131182000Y-86591000D01*
X126882000Y-86591000D02*
X126882000Y-80781000D01*
X131182000Y-86591000D02*
X131182000Y-80781000D01*
D11*
%TO.C,TP1*%
X129924000Y-88392000D02*
G75*
G03*
X129924000Y-88392000I-1400000J0D01*
G01*
D17*
%TO.C,TP7*%
X129656800Y-90134400D02*
X131556800Y-90134400D01*
X129656800Y-92034400D02*
X129656800Y-90134400D01*
X131556800Y-90134400D02*
X131556800Y-92034400D01*
X131556800Y-92034400D02*
X129656800Y-92034400D01*
%TO.C,C24*%
X138957164Y-67204000D02*
X139172836Y-67204000D01*
X138957164Y-67924000D02*
X139172836Y-67924000D01*
%TO.C,R12*%
X147067000Y-65685641D02*
X147067000Y-65378359D01*
X147827000Y-65685641D02*
X147827000Y-65378359D01*
%TO.C,R8*%
X143636000Y-88238359D02*
X143636000Y-88545641D01*
X142876000Y-88238359D02*
X142876000Y-88545641D01*
%TO.C,C3*%
X159793000Y-76207252D02*
X159793000Y-75684748D01*
X161263000Y-76207252D02*
X161263000Y-75684748D01*
%TD*%
%LPC*%
D11*
X128651000Y-79121000D02*
X128651000Y-79375000D01*
X128016000Y-79375000D02*
X128016000Y-79121000D01*
X128016000Y-79121000D02*
X128651000Y-79121000D01*
X128016000Y-79248000D02*
X128651000Y-79248000D01*
X128651000Y-79375000D02*
X128016000Y-79375000D01*
D20*
%TO.C,C4*%
X162306000Y-81788000D03*
X160756000Y-81788000D03*
%TD*%
D21*
%TO.C,TP4*%
X165049200Y-88290400D03*
%TD*%
D22*
%TO.C,R1*%
X134215500Y-85979000D03*
X136040500Y-85979000D03*
%TD*%
D23*
%TO.C,R11*%
X148463000Y-66042000D03*
X148463000Y-65022000D03*
%TD*%
D24*
%TO.C,L1*%
X129159000Y-73896000D03*
X129159000Y-77996000D03*
%TD*%
D25*
%TO.C,U4*%
X144748000Y-69322000D03*
X144748000Y-68822000D03*
X144748000Y-68322000D03*
X144748000Y-67822000D03*
X144748000Y-67322000D03*
X144748000Y-66822000D03*
D26*
X143998000Y-66072000D03*
X143498000Y-66072000D03*
X142998000Y-66072000D03*
X142498000Y-66072000D03*
X141998000Y-66072000D03*
X141498000Y-66072000D03*
D25*
X140748000Y-66822000D03*
X140748000Y-67322000D03*
X140748000Y-67822000D03*
X140748000Y-68322000D03*
X140748000Y-68822000D03*
X140748000Y-69322000D03*
D26*
X141498000Y-70072000D03*
X141998000Y-70072000D03*
X142498000Y-70072000D03*
X142998000Y-70072000D03*
X143498000Y-70072000D03*
X143998000Y-70072000D03*
D27*
X142748000Y-68072000D03*
%TD*%
D28*
%TO.C,Q1*%
X136078000Y-80103000D03*
X134178000Y-80103000D03*
X135128000Y-82203000D03*
%TD*%
D29*
%TO.C,TP8*%
X132918200Y-67614800D03*
%TD*%
D30*
%TO.C,R9*%
X144234800Y-87882000D03*
X144234800Y-88902000D03*
%TD*%
D21*
%TO.C,TP6*%
X128508800Y-70866000D03*
%TD*%
D31*
%TO.C,R14*%
X154178000Y-78737000D03*
X154178000Y-77087000D03*
%TD*%
D32*
%TO.C,D2*%
X161100300Y-85024000D03*
X162675300Y-85024000D03*
%TD*%
D33*
%TO.C,R10*%
X147320000Y-89027000D03*
X146300000Y-89027000D03*
%TD*%
D34*
%TO.C,PS1*%
X132577800Y-78232000D03*
D35*
X133527800Y-78232000D03*
X134477800Y-78232000D03*
X134477800Y-75732000D03*
X133527800Y-75732000D03*
X132577800Y-75732000D03*
%TD*%
D36*
%TO.C,H1*%
X129413000Y-67564000D03*
%TD*%
D37*
%TO.C,D3*%
X158115000Y-75776000D03*
X158115000Y-73576000D03*
%TD*%
D38*
%TO.C,SW3*%
X163289800Y-100493000D03*
X163289800Y-94193000D03*
X167089800Y-100493000D03*
X167089800Y-94193000D03*
%TD*%
D39*
%TO.C,TH1*%
X139573000Y-66548000D03*
X138613000Y-66548000D03*
%TD*%
D40*
%TO.C,C18*%
X151511000Y-79093000D03*
X151511000Y-78133000D03*
%TD*%
D41*
%TO.C,Brd1*%
X167513000Y-78105000D03*
D42*
X167513000Y-80645000D03*
X167513000Y-83185000D03*
X167513000Y-85725000D03*
%TD*%
D43*
%TO.C,R16*%
X139510000Y-75946000D03*
X141160000Y-75946000D03*
%TD*%
%TO.C,R13*%
X161062800Y-86547999D03*
X162712800Y-86547999D03*
%TD*%
D44*
%TO.C,U3*%
X163443500Y-80325000D03*
X163443500Y-79375000D03*
X163443500Y-78425000D03*
X161168500Y-78425000D03*
X161168500Y-80325000D03*
%TD*%
D45*
%TO.C,C1*%
X135316000Y-73787000D03*
X133416000Y-73787000D03*
%TD*%
D46*
%TO.C,U5*%
X149678800Y-84275000D03*
X149678800Y-84675000D03*
X149678800Y-85075000D03*
X149678800Y-85475000D03*
X149678800Y-85875000D03*
X149678800Y-86275000D03*
X149678800Y-86675000D03*
X149678800Y-87075000D03*
X149678800Y-87475000D03*
X149678800Y-87875000D03*
X149678800Y-88275000D03*
X149678800Y-88675000D03*
X149678800Y-89075000D03*
X149678800Y-89475000D03*
D47*
X150516300Y-90312500D03*
X150916300Y-90312500D03*
X151316300Y-90312500D03*
X151716300Y-90312500D03*
X152116300Y-90312500D03*
X152516300Y-90312500D03*
X152916300Y-90312500D03*
X153316300Y-90312500D03*
X153716300Y-90312500D03*
X154116300Y-90312500D03*
X154516300Y-90312500D03*
X154916300Y-90312500D03*
X155316300Y-90312500D03*
X155716300Y-90312500D03*
D46*
X156553800Y-89475000D03*
X156553800Y-89075000D03*
X156553800Y-88675000D03*
X156553800Y-88275000D03*
X156553800Y-87875000D03*
X156553800Y-87475000D03*
X156553800Y-87075000D03*
X156553800Y-86675000D03*
X156553800Y-86275000D03*
X156553800Y-85875000D03*
X156553800Y-85475000D03*
X156553800Y-85075000D03*
X156553800Y-84675000D03*
X156553800Y-84275000D03*
D47*
X155716300Y-83437500D03*
X155316300Y-83437500D03*
X154916300Y-83437500D03*
X154516300Y-83437500D03*
X154116300Y-83437500D03*
X153716300Y-83437500D03*
X153316300Y-83437500D03*
X152916300Y-83437500D03*
X152516300Y-83437500D03*
X152116300Y-83437500D03*
X151716300Y-83437500D03*
X151316300Y-83437500D03*
X150916300Y-83437500D03*
X150516300Y-83437500D03*
D48*
X153116300Y-86875000D03*
%TD*%
D49*
%TO.C,SW1*%
X139319000Y-80482000D03*
X139319000Y-88682000D03*
D50*
X139319000Y-82582000D03*
D51*
X139319000Y-84582000D03*
X139319000Y-86582000D03*
%TD*%
D40*
%TO.C,C16*%
X145542000Y-80363000D03*
X145542000Y-79403000D03*
%TD*%
D45*
%TO.C,C6*%
X134173000Y-88011000D03*
X132273000Y-88011000D03*
%TD*%
D36*
%TO.C,H3*%
X128651000Y-93980000D03*
%TD*%
D52*
%TO.C,U2*%
X146568300Y-83249000D03*
D53*
X147068300Y-83249000D03*
X147568300Y-83249000D03*
X148068300Y-83249000D03*
X148068300Y-80449000D03*
X147568300Y-80449000D03*
X147068300Y-80449000D03*
X146568300Y-80449000D03*
D54*
X147318300Y-81849000D03*
%TD*%
D55*
%TO.C,J2*%
X156212000Y-96391000D03*
X157412000Y-96391000D03*
X158612000Y-96391000D03*
X159812000Y-96391000D03*
D56*
X155062000Y-100166000D03*
X160962000Y-100166000D03*
%TD*%
D20*
%TO.C,C25*%
X148984000Y-72517000D03*
X147434000Y-72517000D03*
%TD*%
D57*
%TO.C,C14*%
X157889000Y-83627000D03*
X158849000Y-83627000D03*
%TD*%
D55*
%TO.C,J7*%
X131226000Y-96682000D03*
X132426000Y-96682000D03*
D56*
X130076000Y-100457000D03*
X133576000Y-100457000D03*
%TD*%
D58*
%TO.C,J6*%
X158050000Y-70297000D03*
X152270000Y-70297000D03*
D59*
X158410000Y-71742000D03*
X157610000Y-71742000D03*
D60*
X156410000Y-71742000D03*
X155410000Y-71742000D03*
X154910000Y-71742000D03*
X153910000Y-71742000D03*
D59*
X152710000Y-71742000D03*
X151910000Y-71742000D03*
X151910000Y-71742000D03*
X152710000Y-71742000D03*
D60*
X153410000Y-71742000D03*
X154410000Y-71742000D03*
X155910000Y-71742000D03*
X156910000Y-71742000D03*
D59*
X157610000Y-71742000D03*
X158410000Y-71742000D03*
D61*
X159480000Y-70827000D03*
D62*
X159480000Y-66647000D03*
D61*
X150840000Y-70827000D03*
D62*
X150840000Y-66647000D03*
%TD*%
D63*
%TO.C,R2*%
X136271000Y-76501300D03*
X136271000Y-78326300D03*
%TD*%
D64*
%TO.C,C17*%
X157696800Y-78560000D03*
X157696800Y-77010000D03*
%TD*%
D21*
%TO.C,TP2*%
X134493000Y-91948000D03*
%TD*%
D29*
%TO.C,TP9*%
X168046400Y-88874600D03*
%TD*%
D40*
%TO.C,C15*%
X157734000Y-82014000D03*
X157734000Y-81054000D03*
%TD*%
D33*
%TO.C,R4*%
X162435000Y-88900000D03*
X161415000Y-88900000D03*
%TD*%
D64*
%TO.C,C7*%
X156299800Y-81989000D03*
X156299800Y-80439000D03*
%TD*%
D36*
%TO.C,H2*%
X166243000Y-67564000D03*
%TD*%
D65*
%TO.C,D6*%
X153940000Y-74930000D03*
X154440000Y-74930000D03*
X154940000Y-74930000D03*
X155440000Y-74930000D03*
X155940000Y-74930000D03*
X155940000Y-74154000D03*
X155440000Y-74154000D03*
X154940000Y-74154000D03*
X154440000Y-74154000D03*
X153940000Y-74154000D03*
%TD*%
D57*
%TO.C,C8*%
X138613000Y-65532000D03*
X139573000Y-65532000D03*
%TD*%
D22*
%TO.C,R7*%
X134215500Y-84074000D03*
X136040500Y-84074000D03*
%TD*%
D39*
%TO.C,C11*%
X147292000Y-88011000D03*
X146332000Y-88011000D03*
%TD*%
D66*
%TO.C,C21*%
X164465000Y-74996000D03*
X164465000Y-76896000D03*
%TD*%
%TO.C,FBr1*%
X162547000Y-74996000D03*
X162547000Y-76896000D03*
%TD*%
D64*
%TO.C,C26*%
X148971000Y-71006000D03*
X148971000Y-69456000D03*
%TD*%
D40*
%TO.C,C9*%
X152654000Y-79093000D03*
X152654000Y-78133000D03*
%TD*%
D67*
%TO.C,C13*%
X152400000Y-93754000D03*
X152400000Y-94714000D03*
%TD*%
D68*
%TO.C,C5*%
X163817000Y-81788000D03*
X165367000Y-81788000D03*
%TD*%
D29*
%TO.C,TP5*%
X137668000Y-91948000D03*
%TD*%
D57*
%TO.C,C23*%
X140871000Y-71374000D03*
X141831000Y-71374000D03*
%TD*%
D69*
%TO.C,SW2*%
X144145000Y-83074000D03*
D70*
X144145000Y-85074000D03*
%TD*%
D38*
%TO.C,J1*%
X141577800Y-100493000D03*
X141577800Y-94193000D03*
X145377800Y-100493000D03*
X145377800Y-94193000D03*
%TD*%
D39*
%TO.C,C12*%
X147292000Y-86106000D03*
X146332000Y-86106000D03*
%TD*%
D55*
%TO.C,J4*%
X136614800Y-96677000D03*
X137814800Y-96677000D03*
D56*
X135464800Y-100452000D03*
X138964800Y-100452000D03*
%TD*%
D23*
%TO.C,R5*%
X151003000Y-94744000D03*
X151003000Y-93724000D03*
%TD*%
D71*
%TO.C,D4*%
X143510000Y-78572001D03*
X143510000Y-80772001D03*
%TD*%
D45*
%TO.C,C20*%
X135316000Y-71755000D03*
X133416000Y-71755000D03*
%TD*%
D67*
%TO.C,C19*%
X153416000Y-93754000D03*
X153416000Y-94714000D03*
%TD*%
D72*
%TO.C,Y2*%
X149225000Y-92163500D03*
D73*
X149225000Y-93363500D03*
X149225000Y-94563500D03*
%TD*%
D57*
%TO.C,C10*%
X161445000Y-87884000D03*
X162405000Y-87884000D03*
%TD*%
D66*
%TO.C,C22*%
X132334000Y-84267000D03*
X132334000Y-86167000D03*
%TD*%
D31*
%TO.C,R15*%
X155702000Y-78738000D03*
X155702000Y-77088000D03*
%TD*%
D33*
%TO.C,R6*%
X144528000Y-77470000D03*
X143508000Y-77470000D03*
%TD*%
D74*
%TO.C,R19*%
X147447000Y-69406000D03*
X147447000Y-71056000D03*
%TD*%
D30*
%TO.C,R3*%
X144907000Y-91438000D03*
X144907000Y-92458000D03*
%TD*%
D66*
%TO.C,C2*%
X132334000Y-80264000D03*
X132334000Y-82164000D03*
%TD*%
D75*
%TO.C,D5*%
X129032000Y-85081000D03*
X129032000Y-80781000D03*
%TD*%
D21*
%TO.C,TP1*%
X128524000Y-88392000D03*
%TD*%
D29*
%TO.C,TP7*%
X130606800Y-91084400D03*
%TD*%
D57*
%TO.C,C24*%
X138585000Y-67564000D03*
X139545000Y-67564000D03*
%TD*%
D23*
%TO.C,R12*%
X147447000Y-66042000D03*
X147447000Y-65022000D03*
%TD*%
D30*
%TO.C,R8*%
X143256000Y-87882000D03*
X143256000Y-88902000D03*
%TD*%
D76*
%TO.C,C3*%
X160528000Y-76896000D03*
X160528000Y-74996000D03*
%TD*%
D41*
%TO.C,J3*%
X163210000Y-91719000D03*
D42*
X165750000Y-91719000D03*
X168290000Y-91719000D03*
%TD*%
%LPD*%
M02*
