%TF.GenerationSoftware,KiCad,Pcbnew,8.0.1-8.0.1-1~ubuntu22.04.1*%
%TF.CreationDate,2024-06-15T20:16:41+10:00*%
%TF.ProjectId,Machine-Controller,4d616368-696e-4652-9d43-6f6e74726f6c,rev?*%
%TF.SameCoordinates,Original*%
%TF.FileFunction,Copper,L2,Inr*%
%TF.FilePolarity,Positive*%
%FSLAX46Y46*%
G04 Gerber Fmt 4.6, Leading zero omitted, Abs format (unit mm)*
G04 Created by KiCad (PCBNEW 8.0.1-8.0.1-1~ubuntu22.04.1) date 2024-06-15 20:16:41*
%MOMM*%
%LPD*%
G01*
G04 APERTURE LIST*
G04 Aperture macros list*
%AMRoundRect*
0 Rectangle with rounded corners*
0 $1 Rounding radius*
0 $2 $3 $4 $5 $6 $7 $8 $9 X,Y pos of 4 corners*
0 Add a 4 corners polygon primitive as box body*
4,1,4,$2,$3,$4,$5,$6,$7,$8,$9,$2,$3,0*
0 Add four circle primitives for the rounded corners*
1,1,$1+$1,$2,$3*
1,1,$1+$1,$4,$5*
1,1,$1+$1,$6,$7*
1,1,$1+$1,$8,$9*
0 Add four rect primitives between the rounded corners*
20,1,$1+$1,$2,$3,$4,$5,0*
20,1,$1+$1,$4,$5,$6,$7,0*
20,1,$1+$1,$6,$7,$8,$9,0*
20,1,$1+$1,$8,$9,$2,$3,0*%
G04 Aperture macros list end*
%TA.AperFunction,ComponentPad*%
%ADD10C,2.000000*%
%TD*%
%TA.AperFunction,ComponentPad*%
%ADD11R,1.500000X1.500000*%
%TD*%
%TA.AperFunction,ComponentPad*%
%ADD12C,3.000000*%
%TD*%
%TA.AperFunction,ComponentPad*%
%ADD13R,1.700000X1.700000*%
%TD*%
%TA.AperFunction,ComponentPad*%
%ADD14O,1.700000X1.700000*%
%TD*%
%TA.AperFunction,ComponentPad*%
%ADD15C,0.600000*%
%TD*%
%TA.AperFunction,ComponentPad*%
%ADD16O,2.500000X2.000000*%
%TD*%
%TA.AperFunction,ComponentPad*%
%ADD17RoundRect,0.375000X-0.875000X0.375000X-0.875000X-0.375000X0.875000X-0.375000X0.875000X0.375000X0*%
%TD*%
%TA.AperFunction,ComponentPad*%
%ADD18O,2.500000X1.500000*%
%TD*%
%TA.AperFunction,ComponentPad*%
%ADD19O,1.000000X2.100000*%
%TD*%
%TA.AperFunction,ComponentPad*%
%ADD20O,1.000000X1.600000*%
%TD*%
%TA.AperFunction,ComponentPad*%
%ADD21R,1.350000X1.350000*%
%TD*%
%TA.AperFunction,ComponentPad*%
%ADD22O,1.350000X1.350000*%
%TD*%
%TA.AperFunction,ViaPad*%
%ADD23C,0.600000*%
%TD*%
%TA.AperFunction,ViaPad*%
%ADD24C,0.800000*%
%TD*%
%TA.AperFunction,ViaPad*%
%ADD25C,1.000000*%
%TD*%
G04 APERTURE END LIST*
D10*
%TO.N,+3.3V*%
%TO.C,TP4*%
X164973000Y-88519000D03*
%TD*%
D11*
%TO.N,GND*%
%TO.C,TP8*%
X132791200Y-66344800D03*
%TD*%
D10*
%TO.N,VBUS*%
%TO.C,TP6*%
X128508800Y-70866000D03*
%TD*%
D12*
%TO.N,N/C*%
%TO.C,H1*%
X129413000Y-67564000D03*
%TD*%
D13*
%TO.N,GND*%
%TO.C,Brd1*%
X167513000Y-78105000D03*
D14*
%TO.N,+3.3V*%
X167513000Y-80645000D03*
%TO.N,/SCL_1*%
X167513000Y-83185000D03*
%TO.N,/SDA_1*%
X167513000Y-85725000D03*
%TD*%
D15*
%TO.N,GND*%
%TO.C,U5*%
X151841300Y-85600000D03*
X151841300Y-86875000D03*
X151841300Y-88150000D03*
X153116300Y-85600000D03*
X153116300Y-86875000D03*
X153116300Y-88150000D03*
X154391300Y-85600000D03*
X154391300Y-86875000D03*
X154391300Y-88150000D03*
%TD*%
D16*
%TO.N,*%
%TO.C,SW1*%
X139319000Y-80482000D03*
X139319000Y-88682000D03*
D17*
%TO.N,/24V*%
X139319000Y-82582000D03*
D18*
%TO.N,/FB*%
X139319000Y-84582000D03*
%TO.N,/18V*%
X139319000Y-86582000D03*
%TD*%
D12*
%TO.N,N/C*%
%TO.C,H3*%
X128651000Y-93980000D03*
%TD*%
D19*
%TO.N,GND*%
%TO.C,J6*%
X159480000Y-70827000D03*
D20*
X159480000Y-66647000D03*
D19*
X150840000Y-70827000D03*
D20*
X150840000Y-66647000D03*
%TD*%
D10*
%TO.N,/V_{OUT}*%
%TO.C,TP2*%
X134493000Y-91948000D03*
%TD*%
D11*
%TO.N,GND*%
%TO.C,TP9*%
X168046400Y-88874600D03*
%TD*%
D12*
%TO.N,N/C*%
%TO.C,H2*%
X166243000Y-67564000D03*
%TD*%
D11*
%TO.N,GND*%
%TO.C,TP5*%
X137668000Y-91948000D03*
%TD*%
D21*
%TO.N,GND*%
%TO.C,SW2*%
X144145000Y-83074000D03*
D22*
%TO.N,/BOOT*%
X144145000Y-85074000D03*
%TD*%
D10*
%TO.N,/V_{S}*%
%TO.C,TP1*%
X128524000Y-88392000D03*
%TD*%
D11*
%TO.N,GND*%
%TO.C,TP7*%
X130606800Y-91084400D03*
%TD*%
D13*
%TO.N,/TX*%
%TO.C,J3*%
X163210000Y-91719000D03*
D14*
%TO.N,GND*%
X165750000Y-91719000D03*
%TO.N,/RX*%
X168290000Y-91719000D03*
%TD*%
D23*
%TO.N,GND*%
X154940000Y-77978000D03*
X127558800Y-69138800D03*
X161290000Y-79375000D03*
X164211000Y-72009000D03*
X138811000Y-96774000D03*
X135128000Y-98806000D03*
X147447000Y-97155000D03*
X156972000Y-90424000D03*
X154051000Y-70231000D03*
X151892000Y-75057000D03*
X133096000Y-77089000D03*
X157861000Y-80391000D03*
X136906000Y-84937600D03*
X165100000Y-74803000D03*
X160020000Y-93726000D03*
X130606800Y-89458800D03*
X141605000Y-92964000D03*
X141859000Y-77724000D03*
X137795000Y-97663000D03*
X152400000Y-97536000D03*
X147955000Y-75184000D03*
X140589000Y-91313000D03*
X158750000Y-72644000D03*
X163322000Y-87630000D03*
X128270000Y-99060000D03*
X156921200Y-64770000D03*
X166116000Y-77988200D03*
X163449000Y-73660000D03*
X159131000Y-73660000D03*
X129032000Y-90982800D03*
X143383000Y-84074000D03*
X130937000Y-85725000D03*
X141605000Y-96647000D03*
X152654000Y-77470000D03*
X141478000Y-89662000D03*
X148844000Y-73660000D03*
X150584800Y-80071000D03*
X136779000Y-90424000D03*
X166254777Y-79630500D03*
X163068000Y-81788000D03*
X159639000Y-72517000D03*
X159766000Y-95250000D03*
X147447000Y-64516000D03*
X142621000Y-79502000D03*
X149225000Y-93853000D03*
X130937000Y-86741000D03*
X167386000Y-92710000D03*
X159893000Y-97663000D03*
X160020000Y-65125600D03*
X133858000Y-77089000D03*
X150495000Y-77089000D03*
X149860000Y-74549000D03*
X164973000Y-83820000D03*
X133439800Y-79436000D03*
X137414000Y-81788000D03*
X127863600Y-90728800D03*
X144653000Y-70231000D03*
X156299800Y-79817000D03*
X146939000Y-94234000D03*
X150495000Y-75946000D03*
X156083000Y-93599000D03*
X137541000Y-84937600D03*
X144615800Y-95438000D03*
X159258000Y-100711000D03*
X162179000Y-79375000D03*
X148171800Y-82788800D03*
X137414000Y-80772000D03*
X132588000Y-98679000D03*
X141605000Y-98933000D03*
X155664800Y-80706000D03*
X138176000Y-93980000D03*
X151257000Y-91440000D03*
X145923000Y-75692000D03*
X140589000Y-70231000D03*
X130657600Y-92506800D03*
X159385000Y-86995000D03*
X143713200Y-91948000D03*
X136906000Y-87884000D03*
X159131000Y-81153000D03*
X127889000Y-96774000D03*
X159893000Y-83566000D03*
X147955000Y-93345000D03*
X149568800Y-80071000D03*
X130694777Y-81281500D03*
X143764000Y-90982800D03*
X165912800Y-86614000D03*
X140462000Y-77343000D03*
X151892000Y-91440000D03*
X144399000Y-81407000D03*
X135890000Y-72644000D03*
X168529000Y-98298000D03*
X155498800Y-66040000D03*
X132334000Y-85090000D03*
X161417000Y-73660000D03*
X137541000Y-66548000D03*
X157988000Y-92964000D03*
X148031200Y-95504000D03*
X168021000Y-95885000D03*
X164592000Y-91059000D03*
X150241000Y-99822000D03*
X163195000Y-69215000D03*
X162179000Y-97917000D03*
X149225000Y-92837000D03*
X129667000Y-82931000D03*
X131873470Y-79436998D03*
X127889000Y-83058000D03*
X167005000Y-71501000D03*
X148463000Y-64516000D03*
X167640000Y-74676000D03*
X129667000Y-97536000D03*
X143891000Y-79629000D03*
X151928000Y-72614000D03*
X154140800Y-80071000D03*
X131318000Y-69799200D03*
X127101600Y-81153000D03*
X127127000Y-84963000D03*
X132334000Y-77089000D03*
X136652000Y-65278000D03*
X135128000Y-84963000D03*
X145923000Y-85344000D03*
X152400000Y-66141600D03*
X146304000Y-99314000D03*
X141605000Y-85725000D03*
X135890000Y-74041000D03*
X140589000Y-66040000D03*
X147523200Y-91948000D03*
X130937000Y-84709000D03*
X161036000Y-96139000D03*
X164592000Y-92837000D03*
X151638000Y-77470000D03*
X136017000Y-75819000D03*
X133985000Y-82804000D03*
X156210000Y-70231000D03*
X152908000Y-94742000D03*
X167284400Y-88747600D03*
X149695800Y-83627000D03*
X135763000Y-81280000D03*
X137795000Y-79502000D03*
X156972000Y-98933000D03*
X160401000Y-79375000D03*
D24*
%TO.N,+3.3V*%
X157861000Y-82804000D03*
D23*
X165354000Y-82677000D03*
D24*
X159893000Y-81788000D03*
D23*
X144907000Y-91440000D03*
X147320000Y-87122000D03*
D24*
X160782000Y-82804000D03*
D23*
X151892000Y-93726000D03*
X152273000Y-79212500D03*
X145288000Y-88317605D03*
X161417000Y-87503000D03*
X147955000Y-78105000D03*
X145415000Y-80899000D03*
%TO.N,/V_{S}*%
X138557000Y-74041000D03*
X135001000Y-81026000D03*
D25*
%TO.N,/18V*%
X136906000Y-85979000D03*
D23*
%TO.N,+1V1*%
X158750000Y-78613000D03*
X153797000Y-93853000D03*
X150876000Y-79248000D03*
D25*
%TO.N,/FB*%
X137668000Y-78486000D03*
D23*
%TO.N,/RUN*%
X145758800Y-91374000D03*
X155321000Y-92329000D03*
X145758800Y-93406000D03*
%TO.N,/SWC*%
X154051000Y-92964000D03*
%TO.N,/SWD*%
X154813000Y-92964000D03*
%TO.N,/TX*%
X159258000Y-89408000D03*
%TO.N,/RX*%
X160020000Y-89281000D03*
%TO.N,/EN*%
X142875000Y-81026000D03*
X149314800Y-90485000D03*
%TO.N,/FLASH_CS*%
X144145000Y-89662000D03*
X146647800Y-84836000D03*
%TO.N,Net-(D4-K)*%
X134493000Y-75118000D03*
X136525000Y-75118000D03*
D25*
%TO.N,/24V*%
X136906000Y-83820000D03*
%TO.N,/V_{OUT}*%
X132715000Y-89154000D03*
X133350000Y-96393000D03*
X131953000Y-89154000D03*
X132461000Y-95631000D03*
D23*
%TO.N,/V_{G}*%
X138684000Y-75946000D03*
X136906000Y-79469103D03*
%TO.N,/SCL_1*%
X164901941Y-85386252D03*
X150622000Y-87757000D03*
%TO.N,/SDA_1*%
X150495000Y-86995000D03*
D24*
%TO.N,VBUS*%
X158115000Y-74041000D03*
D25*
X147447000Y-73279000D03*
D23*
X137541000Y-72390000D03*
D25*
X129159000Y-72898000D03*
X130175000Y-72898000D03*
X132715000Y-71755000D03*
X141986000Y-75946000D03*
X128143000Y-72898000D03*
D23*
%TO.N,/CC1*%
X138049000Y-68326000D03*
X156930000Y-74168000D03*
X149098000Y-67945000D03*
%TO.N,/CC2*%
X152781000Y-74676000D03*
X147574000Y-68072000D03*
X138557000Y-68961000D03*
%TO.N,/SDA_0*%
X148717000Y-75289210D03*
X149479000Y-77216000D03*
X146304000Y-67818000D03*
X148590000Y-86106000D03*
%TO.N,/SCL_0*%
X148590000Y-86868000D03*
X146177000Y-77470000D03*
X147193000Y-75797210D03*
X145796000Y-67056000D03*
%TO.N,/PD_INT*%
X145034000Y-65913000D03*
X148590000Y-89027000D03*
%TD*%
%TA.AperFunction,Conductor*%
%TO.N,GND*%
G36*
X167566918Y-63940984D02*
G01*
X167601388Y-63943243D01*
X167814245Y-63957194D01*
X167830568Y-63959342D01*
X168069631Y-64006896D01*
X168085534Y-64011157D01*
X168316326Y-64089501D01*
X168331545Y-64095804D01*
X168550142Y-64203605D01*
X168564414Y-64211845D01*
X168628936Y-64254958D01*
X168767061Y-64347250D01*
X168780137Y-64357284D01*
X168963374Y-64517980D01*
X168975028Y-64529634D01*
X169135726Y-64712877D01*
X169145759Y-64725953D01*
X169281159Y-64928595D01*
X169289400Y-64942868D01*
X169397196Y-65161460D01*
X169403503Y-65176687D01*
X169439447Y-65282574D01*
X169481842Y-65407468D01*
X169481844Y-65407472D01*
X169486109Y-65423388D01*
X169493889Y-65462501D01*
X169533656Y-65662434D01*
X169535807Y-65678774D01*
X169552030Y-65926311D01*
X169552300Y-65934551D01*
X169552300Y-99617878D01*
X169552030Y-99626119D01*
X169535820Y-99873438D01*
X169533669Y-99889779D01*
X169486119Y-100128824D01*
X169481853Y-100144743D01*
X169403513Y-100375527D01*
X169397206Y-100390754D01*
X169289411Y-100609342D01*
X169281170Y-100623616D01*
X169145763Y-100826265D01*
X169135730Y-100839340D01*
X168975034Y-101022579D01*
X168963379Y-101034234D01*
X168780140Y-101194930D01*
X168767065Y-101204963D01*
X168564416Y-101340370D01*
X168550142Y-101348611D01*
X168331554Y-101456406D01*
X168316327Y-101462713D01*
X168085543Y-101541053D01*
X168069624Y-101545319D01*
X167830579Y-101592869D01*
X167814238Y-101595020D01*
X167566920Y-101611230D01*
X167558679Y-101611500D01*
X128458921Y-101611500D01*
X128450680Y-101611230D01*
X128203361Y-101595020D01*
X128187020Y-101592869D01*
X127947975Y-101545319D01*
X127932056Y-101541053D01*
X127701272Y-101462713D01*
X127686045Y-101456406D01*
X127630536Y-101429032D01*
X127467453Y-101348608D01*
X127453187Y-101340372D01*
X127250534Y-101204963D01*
X127237459Y-101194930D01*
X127054220Y-101034234D01*
X127042565Y-101022579D01*
X126881869Y-100839340D01*
X126871836Y-100826265D01*
X126736424Y-100623607D01*
X126728193Y-100609351D01*
X126620389Y-100390744D01*
X126614090Y-100375537D01*
X126535743Y-100144735D01*
X126531482Y-100128832D01*
X126483928Y-99889769D01*
X126481780Y-99873446D01*
X126465570Y-99626118D01*
X126465300Y-99617878D01*
X126465300Y-93980000D01*
X126995396Y-93980000D01*
X127015779Y-94238994D01*
X127076427Y-94491610D01*
X127175846Y-94731628D01*
X127175847Y-94731629D01*
X127311585Y-94953136D01*
X127311590Y-94953143D01*
X127480310Y-95150689D01*
X127677856Y-95319409D01*
X127677863Y-95319414D01*
X127689389Y-95326477D01*
X127899372Y-95455154D01*
X128139390Y-95554573D01*
X128392006Y-95615221D01*
X128651000Y-95635604D01*
X128709462Y-95631003D01*
X131805722Y-95631003D01*
X131824761Y-95787815D01*
X131849755Y-95853717D01*
X131880780Y-95935523D01*
X131880781Y-95935525D01*
X131880782Y-95935526D01*
X131880783Y-95935529D01*
X131970516Y-96065529D01*
X131970517Y-96065530D01*
X132088760Y-96170283D01*
X132228635Y-96243696D01*
X132228636Y-96243696D01*
X132228638Y-96243697D01*
X132305325Y-96262598D01*
X132382015Y-96281500D01*
X132382017Y-96281500D01*
X132539983Y-96281500D01*
X132539985Y-96281500D01*
X132539986Y-96281499D01*
X132547553Y-96280581D01*
X132547741Y-96282132D01*
X132609907Y-96284860D01*
X132667892Y-96325826D01*
X132694223Y-96388896D01*
X132713762Y-96549815D01*
X132713762Y-96549817D01*
X132713763Y-96549818D01*
X132769780Y-96697523D01*
X132769781Y-96697525D01*
X132769782Y-96697526D01*
X132769783Y-96697529D01*
X132859516Y-96827529D01*
X132859517Y-96827530D01*
X132977760Y-96932283D01*
X133117635Y-97005696D01*
X133117636Y-97005696D01*
X133117638Y-97005697D01*
X133194325Y-97024598D01*
X133271015Y-97043500D01*
X133271017Y-97043500D01*
X133428983Y-97043500D01*
X133428985Y-97043500D01*
X133582365Y-97005696D01*
X133722240Y-96932283D01*
X133840483Y-96827530D01*
X133930220Y-96697523D01*
X133986237Y-96549818D01*
X133986237Y-96549817D01*
X133986238Y-96549815D01*
X134005278Y-96393003D01*
X134005278Y-96392996D01*
X133986238Y-96236184D01*
X133978392Y-96215498D01*
X133930220Y-96088477D01*
X133930216Y-96088472D01*
X133930216Y-96088470D01*
X133840483Y-95958470D01*
X133840481Y-95958468D01*
X133722240Y-95853717D01*
X133582365Y-95780304D01*
X133582361Y-95780302D01*
X133428987Y-95742500D01*
X133428985Y-95742500D01*
X133271015Y-95742500D01*
X133271013Y-95742500D01*
X133263447Y-95743419D01*
X133263259Y-95741871D01*
X133201071Y-95739131D01*
X133143092Y-95698155D01*
X133116776Y-95635102D01*
X133116277Y-95630996D01*
X133114362Y-95615220D01*
X133097238Y-95474184D01*
X133089392Y-95453498D01*
X133041220Y-95326477D01*
X133041216Y-95326472D01*
X133041216Y-95326470D01*
X132951483Y-95196470D01*
X132951481Y-95196468D01*
X132833240Y-95091717D01*
X132693365Y-95018304D01*
X132693361Y-95018302D01*
X132539987Y-94980500D01*
X132539985Y-94980500D01*
X132382015Y-94980500D01*
X132382012Y-94980500D01*
X132228638Y-95018302D01*
X132228634Y-95018304D01*
X132088759Y-95091717D01*
X131970518Y-95196468D01*
X131970516Y-95196470D01*
X131880783Y-95326470D01*
X131880782Y-95326473D01*
X131824761Y-95474184D01*
X131805722Y-95630996D01*
X131805722Y-95631003D01*
X128709462Y-95631003D01*
X128909994Y-95615221D01*
X129162610Y-95554573D01*
X129402628Y-95455154D01*
X129624140Y-95319412D01*
X129821689Y-95150689D01*
X129990412Y-94953140D01*
X130126154Y-94731628D01*
X130225573Y-94491610D01*
X130286221Y-94238994D01*
X130306604Y-93980000D01*
X130286221Y-93721006D01*
X130225573Y-93468390D01*
X130199730Y-93406000D01*
X145303667Y-93406000D01*
X145322103Y-93534226D01*
X145375918Y-93652063D01*
X145460751Y-93749967D01*
X145569731Y-93820004D01*
X145694028Y-93856500D01*
X145694032Y-93856500D01*
X145823568Y-93856500D01*
X145823572Y-93856500D01*
X145947869Y-93820004D01*
X146056849Y-93749967D01*
X146077616Y-93726000D01*
X151436867Y-93726000D01*
X151455303Y-93854226D01*
X151509118Y-93972063D01*
X151593951Y-94069967D01*
X151702931Y-94140004D01*
X151827228Y-94176500D01*
X151827232Y-94176500D01*
X151956768Y-94176500D01*
X151956772Y-94176500D01*
X152081069Y-94140004D01*
X152190049Y-94069967D01*
X152274882Y-93972063D01*
X152328697Y-93854226D01*
X152328873Y-93853000D01*
X153341867Y-93853000D01*
X153360303Y-93981226D01*
X153414118Y-94099063D01*
X153498951Y-94196967D01*
X153607931Y-94267004D01*
X153732228Y-94303500D01*
X153732232Y-94303500D01*
X153861768Y-94303500D01*
X153861772Y-94303500D01*
X153986069Y-94267004D01*
X154095049Y-94196967D01*
X154179882Y-94099063D01*
X154233697Y-93981226D01*
X154252133Y-93853000D01*
X154233697Y-93724774D01*
X154179882Y-93606937D01*
X154162341Y-93586693D01*
X154132850Y-93522114D01*
X154142955Y-93451840D01*
X154189449Y-93398185D01*
X154222067Y-93383289D01*
X154240069Y-93378004D01*
X154349049Y-93307967D01*
X154349056Y-93307958D01*
X154349482Y-93307591D01*
X154350010Y-93307349D01*
X154356631Y-93303095D01*
X154357242Y-93304046D01*
X154414061Y-93278094D01*
X154484336Y-93288194D01*
X154514518Y-93307591D01*
X154514946Y-93307962D01*
X154514951Y-93307967D01*
X154514956Y-93307970D01*
X154514957Y-93307971D01*
X154603943Y-93365159D01*
X154623931Y-93378004D01*
X154748228Y-93414500D01*
X154748232Y-93414500D01*
X154877768Y-93414500D01*
X154877772Y-93414500D01*
X155002069Y-93378004D01*
X155111049Y-93307967D01*
X155195882Y-93210063D01*
X155249697Y-93092226D01*
X155268133Y-92964000D01*
X155262300Y-92923430D01*
X155272405Y-92853157D01*
X155318898Y-92799502D01*
X155377085Y-92782416D01*
X155376851Y-92780782D01*
X155385762Y-92779500D01*
X155385772Y-92779500D01*
X155510069Y-92743004D01*
X155619049Y-92672967D01*
X155696294Y-92583820D01*
X162209500Y-92583820D01*
X162218232Y-92627721D01*
X162218234Y-92627725D01*
X162251495Y-92677504D01*
X162301274Y-92710765D01*
X162301278Y-92710767D01*
X162345180Y-92719500D01*
X162345185Y-92719500D01*
X164074815Y-92719500D01*
X164074820Y-92719500D01*
X164118722Y-92710767D01*
X164168504Y-92677504D01*
X164201767Y-92627722D01*
X164210500Y-92583820D01*
X164210500Y-91719003D01*
X167284659Y-91719003D01*
X167303974Y-91915124D01*
X167303974Y-91915126D01*
X167361186Y-92103728D01*
X167413059Y-92200774D01*
X167454090Y-92277538D01*
X167579117Y-92429883D01*
X167731462Y-92554910D01*
X167854011Y-92620414D01*
X167891748Y-92640585D01*
X167905273Y-92647814D01*
X168093868Y-92705024D01*
X168093872Y-92705024D01*
X168093874Y-92705025D01*
X168289997Y-92724341D01*
X168290000Y-92724341D01*
X168290003Y-92724341D01*
X168486124Y-92705025D01*
X168486126Y-92705025D01*
X168486127Y-92705024D01*
X168486132Y-92705024D01*
X168674727Y-92647814D01*
X168848538Y-92554910D01*
X169000883Y-92429883D01*
X169125910Y-92277538D01*
X169218814Y-92103727D01*
X169276024Y-91915132D01*
X169276037Y-91914998D01*
X169295341Y-91719003D01*
X169295341Y-91718996D01*
X169276025Y-91522875D01*
X169276025Y-91522873D01*
X169276024Y-91522870D01*
X169276024Y-91522868D01*
X169218814Y-91334273D01*
X169125910Y-91160462D01*
X169000883Y-91008117D01*
X168848538Y-90883090D01*
X168794459Y-90854184D01*
X168674728Y-90790186D01*
X168486125Y-90732974D01*
X168290003Y-90713659D01*
X168289997Y-90713659D01*
X168093875Y-90732974D01*
X168093873Y-90732974D01*
X167905271Y-90790186D01*
X167731461Y-90883090D01*
X167579117Y-91008117D01*
X167454090Y-91160461D01*
X167361186Y-91334271D01*
X167303974Y-91522873D01*
X167303974Y-91522875D01*
X167284659Y-91718996D01*
X167284659Y-91719003D01*
X164210500Y-91719003D01*
X164210500Y-90854180D01*
X164201767Y-90810278D01*
X164201765Y-90810274D01*
X164168504Y-90760495D01*
X164118725Y-90727234D01*
X164118721Y-90727232D01*
X164074820Y-90718500D01*
X162345180Y-90718500D01*
X162345179Y-90718500D01*
X162301278Y-90727232D01*
X162301274Y-90727234D01*
X162251495Y-90760495D01*
X162218234Y-90810274D01*
X162218232Y-90810278D01*
X162209500Y-90854179D01*
X162209500Y-92583820D01*
X155696294Y-92583820D01*
X155703882Y-92575063D01*
X155757697Y-92457226D01*
X155776133Y-92329000D01*
X155757697Y-92200774D01*
X155703882Y-92082937D01*
X155619049Y-91985033D01*
X155619048Y-91985032D01*
X155510073Y-91914998D01*
X155510070Y-91914996D01*
X155510069Y-91914996D01*
X155510066Y-91914995D01*
X155385776Y-91878501D01*
X155385774Y-91878500D01*
X155385772Y-91878500D01*
X155256228Y-91878500D01*
X155256225Y-91878500D01*
X155256223Y-91878501D01*
X155131933Y-91914995D01*
X155131926Y-91914998D01*
X155022951Y-91985032D01*
X154938118Y-92082937D01*
X154884303Y-92200775D01*
X154865867Y-92329000D01*
X154871700Y-92369569D01*
X154861595Y-92439843D01*
X154815102Y-92493498D01*
X154756914Y-92510583D01*
X154757149Y-92512218D01*
X154748230Y-92513500D01*
X154748228Y-92513500D01*
X154748226Y-92513500D01*
X154748223Y-92513501D01*
X154623933Y-92549995D01*
X154623926Y-92549998D01*
X154514948Y-92620033D01*
X154514510Y-92620414D01*
X154513982Y-92620655D01*
X154507369Y-92624905D01*
X154506757Y-92623954D01*
X154449929Y-92649906D01*
X154379655Y-92639800D01*
X154349490Y-92620414D01*
X154349051Y-92620033D01*
X154240073Y-92549998D01*
X154240070Y-92549996D01*
X154240069Y-92549996D01*
X154152994Y-92524429D01*
X154115776Y-92513501D01*
X154115774Y-92513500D01*
X154115772Y-92513500D01*
X153986228Y-92513500D01*
X153986225Y-92513500D01*
X153986223Y-92513501D01*
X153861933Y-92549995D01*
X153861926Y-92549998D01*
X153752951Y-92620032D01*
X153679307Y-92705024D01*
X153668118Y-92717937D01*
X153614303Y-92835774D01*
X153595867Y-92964000D01*
X153614303Y-93092226D01*
X153668118Y-93210063D01*
X153683981Y-93228370D01*
X153685657Y-93230304D01*
X153715149Y-93294886D01*
X153705044Y-93365159D01*
X153658550Y-93418814D01*
X153625932Y-93433710D01*
X153607936Y-93438994D01*
X153607926Y-93438998D01*
X153498951Y-93509032D01*
X153422058Y-93597774D01*
X153414118Y-93606937D01*
X153360303Y-93724774D01*
X153341867Y-93853000D01*
X152328873Y-93853000D01*
X152347133Y-93726000D01*
X152328697Y-93597774D01*
X152274882Y-93479937D01*
X152190049Y-93382033D01*
X152190048Y-93382032D01*
X152081073Y-93311998D01*
X152081070Y-93311996D01*
X152081069Y-93311996D01*
X152067361Y-93307971D01*
X151956776Y-93275501D01*
X151956774Y-93275500D01*
X151956772Y-93275500D01*
X151827228Y-93275500D01*
X151827225Y-93275500D01*
X151827223Y-93275501D01*
X151702933Y-93311995D01*
X151702926Y-93311998D01*
X151593951Y-93382032D01*
X151544593Y-93438996D01*
X151509118Y-93479937D01*
X151455303Y-93597774D01*
X151436867Y-93726000D01*
X146077616Y-93726000D01*
X146141682Y-93652063D01*
X146195497Y-93534226D01*
X146213933Y-93406000D01*
X146195497Y-93277774D01*
X146141682Y-93159937D01*
X146056849Y-93062033D01*
X146056848Y-93062032D01*
X145947873Y-92991998D01*
X145947870Y-92991996D01*
X145947869Y-92991996D01*
X145914833Y-92982296D01*
X145823576Y-92955501D01*
X145823574Y-92955500D01*
X145823572Y-92955500D01*
X145694028Y-92955500D01*
X145694025Y-92955500D01*
X145694023Y-92955501D01*
X145569733Y-92991995D01*
X145569726Y-92991998D01*
X145460751Y-93062032D01*
X145375918Y-93159937D01*
X145322103Y-93277774D01*
X145303667Y-93406000D01*
X130199730Y-93406000D01*
X130126154Y-93228372D01*
X129990412Y-93006860D01*
X129977717Y-92991996D01*
X129821689Y-92809310D01*
X129624143Y-92640590D01*
X129624136Y-92640585D01*
X129476305Y-92549995D01*
X129402628Y-92504846D01*
X129162610Y-92405427D01*
X128909994Y-92344779D01*
X128651000Y-92324396D01*
X128392006Y-92344779D01*
X128139389Y-92405427D01*
X127969669Y-92475727D01*
X127926769Y-92493498D01*
X127899370Y-92504847D01*
X127677863Y-92640585D01*
X127677856Y-92640590D01*
X127480310Y-92809310D01*
X127311590Y-93006856D01*
X127311585Y-93006863D01*
X127185735Y-93212234D01*
X127175846Y-93228372D01*
X127155383Y-93277774D01*
X127076427Y-93468389D01*
X127045364Y-93597775D01*
X127015779Y-93721006D01*
X126995396Y-93980000D01*
X126465300Y-93980000D01*
X126465300Y-91948000D01*
X133337571Y-91948000D01*
X133357244Y-92160311D01*
X133415593Y-92365384D01*
X133415594Y-92365386D01*
X133415595Y-92365389D01*
X133510634Y-92556255D01*
X133633912Y-92719500D01*
X133639129Y-92726408D01*
X133796699Y-92870053D01*
X133796701Y-92870054D01*
X133977974Y-92982294D01*
X133977975Y-92982294D01*
X133977981Y-92982298D01*
X134176802Y-93059321D01*
X134386390Y-93098500D01*
X134386393Y-93098500D01*
X134599607Y-93098500D01*
X134599610Y-93098500D01*
X134809198Y-93059321D01*
X135008019Y-92982298D01*
X135189302Y-92870052D01*
X135346872Y-92726407D01*
X135475366Y-92556255D01*
X135570405Y-92365389D01*
X135628756Y-92160310D01*
X135648429Y-91948000D01*
X135628756Y-91735690D01*
X135570405Y-91530611D01*
X135525287Y-91440000D01*
X144451867Y-91440000D01*
X144470303Y-91568226D01*
X144524118Y-91686063D01*
X144608950Y-91783966D01*
X144608951Y-91783967D01*
X144672018Y-91824498D01*
X144717931Y-91854004D01*
X144842228Y-91890500D01*
X144842232Y-91890500D01*
X144971768Y-91890500D01*
X144971772Y-91890500D01*
X145096069Y-91854004D01*
X145205049Y-91783967D01*
X145266268Y-91713315D01*
X145325992Y-91674931D01*
X145396989Y-91674929D01*
X145456716Y-91713311D01*
X145456716Y-91713312D01*
X145460749Y-91717966D01*
X145563449Y-91783967D01*
X145569731Y-91788004D01*
X145694028Y-91824500D01*
X145694032Y-91824500D01*
X145823568Y-91824500D01*
X145823572Y-91824500D01*
X145947869Y-91788004D01*
X146056849Y-91717967D01*
X146141682Y-91620063D01*
X146195497Y-91502226D01*
X146213933Y-91374000D01*
X146195497Y-91245774D01*
X146141682Y-91127937D01*
X146056849Y-91030033D01*
X146056848Y-91030032D01*
X145947873Y-90959998D01*
X145947870Y-90959996D01*
X145947869Y-90959996D01*
X145947866Y-90959995D01*
X145823576Y-90923501D01*
X145823574Y-90923500D01*
X145823572Y-90923500D01*
X145694028Y-90923500D01*
X145694025Y-90923500D01*
X145694023Y-90923501D01*
X145569733Y-90959995D01*
X145569726Y-90959998D01*
X145460750Y-91030032D01*
X145399531Y-91100685D01*
X145339805Y-91139069D01*
X145268809Y-91139069D01*
X145209083Y-91100687D01*
X145205050Y-91096033D01*
X145096073Y-91025998D01*
X145096070Y-91025996D01*
X145096069Y-91025996D01*
X145095899Y-91025946D01*
X144971776Y-90989501D01*
X144971774Y-90989500D01*
X144971772Y-90989500D01*
X144842228Y-90989500D01*
X144842225Y-90989500D01*
X144842223Y-90989501D01*
X144717933Y-91025995D01*
X144717926Y-91025998D01*
X144608951Y-91096032D01*
X144545212Y-91169593D01*
X144524118Y-91193937D01*
X144470303Y-91311774D01*
X144451867Y-91440000D01*
X135525287Y-91440000D01*
X135475366Y-91339745D01*
X135346872Y-91169593D01*
X135189302Y-91025948D01*
X135189300Y-91025946D01*
X135189298Y-91025945D01*
X135008025Y-90913705D01*
X135008021Y-90913703D01*
X135008019Y-90913702D01*
X134854374Y-90854180D01*
X134809199Y-90836679D01*
X134756801Y-90826884D01*
X134599610Y-90797500D01*
X134386390Y-90797500D01*
X134260637Y-90821007D01*
X134176800Y-90836679D01*
X134057000Y-90883090D01*
X133977981Y-90913702D01*
X133977980Y-90913702D01*
X133977979Y-90913703D01*
X133977974Y-90913705D01*
X133796701Y-91025945D01*
X133796699Y-91025946D01*
X133639129Y-91169591D01*
X133620744Y-91193937D01*
X133510634Y-91339745D01*
X133429730Y-91502224D01*
X133415593Y-91530615D01*
X133357244Y-91735688D01*
X133337571Y-91948000D01*
X126465300Y-91948000D01*
X126465300Y-90485000D01*
X148859667Y-90485000D01*
X148878103Y-90613226D01*
X148931918Y-90731063D01*
X148983148Y-90790186D01*
X149016751Y-90828967D01*
X149055989Y-90854184D01*
X149125731Y-90899004D01*
X149250028Y-90935500D01*
X149250032Y-90935500D01*
X149379568Y-90935500D01*
X149379572Y-90935500D01*
X149503869Y-90899004D01*
X149612849Y-90828967D01*
X149697682Y-90731063D01*
X149751497Y-90613226D01*
X149769933Y-90485000D01*
X149751497Y-90356774D01*
X149697682Y-90238937D01*
X149612849Y-90141033D01*
X149612848Y-90141032D01*
X149503873Y-90070998D01*
X149503870Y-90070996D01*
X149503869Y-90070996D01*
X149503866Y-90070995D01*
X149379576Y-90034501D01*
X149379574Y-90034500D01*
X149379572Y-90034500D01*
X149250028Y-90034500D01*
X149250025Y-90034500D01*
X149250023Y-90034501D01*
X149125733Y-90070995D01*
X149125726Y-90070998D01*
X149016751Y-90141032D01*
X148931918Y-90238937D01*
X148878103Y-90356774D01*
X148859667Y-90485000D01*
X126465300Y-90485000D01*
X126465300Y-88392000D01*
X127368571Y-88392000D01*
X127388244Y-88604311D01*
X127446593Y-88809384D01*
X127446594Y-88809386D01*
X127446595Y-88809389D01*
X127541634Y-89000255D01*
X127658664Y-89155226D01*
X127670129Y-89170408D01*
X127827699Y-89314053D01*
X127827701Y-89314054D01*
X128008974Y-89426294D01*
X128008975Y-89426294D01*
X128008981Y-89426298D01*
X128207802Y-89503321D01*
X128417390Y-89542500D01*
X128417393Y-89542500D01*
X128630607Y-89542500D01*
X128630610Y-89542500D01*
X128840198Y-89503321D01*
X129039019Y-89426298D01*
X129220302Y-89314052D01*
X129377872Y-89170407D01*
X129390260Y-89154003D01*
X131297722Y-89154003D01*
X131316761Y-89310815D01*
X131319499Y-89318033D01*
X131372780Y-89458523D01*
X131372781Y-89458525D01*
X131372782Y-89458526D01*
X131372783Y-89458529D01*
X131452309Y-89573741D01*
X131462517Y-89588530D01*
X131580760Y-89693283D01*
X131720635Y-89766696D01*
X131720636Y-89766696D01*
X131720638Y-89766697D01*
X131797325Y-89785598D01*
X131874015Y-89804500D01*
X131874017Y-89804500D01*
X132031983Y-89804500D01*
X132031985Y-89804500D01*
X132185365Y-89766696D01*
X132275444Y-89719417D01*
X132345057Y-89705471D01*
X132392554Y-89719417D01*
X132482635Y-89766696D01*
X132482636Y-89766696D01*
X132482638Y-89766697D01*
X132559325Y-89785598D01*
X132636015Y-89804500D01*
X132636017Y-89804500D01*
X132793983Y-89804500D01*
X132793985Y-89804500D01*
X132947365Y-89766696D01*
X133087240Y-89693283D01*
X133205483Y-89588530D01*
X133295220Y-89458523D01*
X133351237Y-89310818D01*
X133351237Y-89310817D01*
X133351238Y-89310815D01*
X133370278Y-89154003D01*
X133370278Y-89153996D01*
X133351238Y-88997184D01*
X133336188Y-88957501D01*
X133295220Y-88849477D01*
X133295216Y-88849472D01*
X133295216Y-88849470D01*
X133242119Y-88772546D01*
X137918500Y-88772546D01*
X137946829Y-88951409D01*
X137946830Y-88951412D01*
X137976575Y-89042961D01*
X138002789Y-89123639D01*
X138082345Y-89279775D01*
X138085006Y-89284997D01*
X138094023Y-89297408D01*
X138191447Y-89431501D01*
X138191449Y-89431503D01*
X138191451Y-89431506D01*
X138319493Y-89559548D01*
X138319496Y-89559550D01*
X138319499Y-89559553D01*
X138466006Y-89665996D01*
X138627361Y-89748211D01*
X138799591Y-89804171D01*
X138978454Y-89832500D01*
X138978457Y-89832500D01*
X139659543Y-89832500D01*
X139659546Y-89832500D01*
X139838409Y-89804171D01*
X140010639Y-89748211D01*
X140171994Y-89665996D01*
X140177494Y-89662000D01*
X143689867Y-89662000D01*
X143708303Y-89790226D01*
X143762118Y-89908063D01*
X143846951Y-90005967D01*
X143955931Y-90076004D01*
X144080228Y-90112500D01*
X144080232Y-90112500D01*
X144209768Y-90112500D01*
X144209772Y-90112500D01*
X144334069Y-90076004D01*
X144443049Y-90005967D01*
X144527882Y-89908063D01*
X144581697Y-89790226D01*
X144600133Y-89662000D01*
X144581697Y-89533774D01*
X144527882Y-89415937D01*
X144443049Y-89318033D01*
X144443048Y-89318032D01*
X144334073Y-89247998D01*
X144334070Y-89247996D01*
X144334069Y-89247996D01*
X144334066Y-89247995D01*
X144209776Y-89211501D01*
X144209774Y-89211500D01*
X144209772Y-89211500D01*
X144080228Y-89211500D01*
X144080225Y-89211500D01*
X144080223Y-89211501D01*
X143955933Y-89247995D01*
X143955926Y-89247998D01*
X143846951Y-89318032D01*
X143801084Y-89370967D01*
X143762118Y-89415937D01*
X143708303Y-89533774D01*
X143689867Y-89662000D01*
X140177494Y-89662000D01*
X140318501Y-89559553D01*
X140446553Y-89431501D01*
X140552996Y-89284994D01*
X140635211Y-89123639D01*
X140666610Y-89027000D01*
X148134867Y-89027000D01*
X148153303Y-89155226D01*
X148207118Y-89273063D01*
X148291951Y-89370967D01*
X148386151Y-89431506D01*
X148400931Y-89441004D01*
X148525228Y-89477500D01*
X148525232Y-89477500D01*
X148654768Y-89477500D01*
X148654772Y-89477500D01*
X148779069Y-89441004D01*
X148830424Y-89408000D01*
X158802867Y-89408000D01*
X158821303Y-89536226D01*
X158875118Y-89654063D01*
X158919663Y-89705471D01*
X158959951Y-89751967D01*
X159041692Y-89804499D01*
X159068931Y-89822004D01*
X159193228Y-89858500D01*
X159193232Y-89858500D01*
X159322768Y-89858500D01*
X159322772Y-89858500D01*
X159447069Y-89822004D01*
X159556049Y-89751967D01*
X159614575Y-89684423D01*
X159674299Y-89646039D01*
X159745296Y-89646037D01*
X159777917Y-89660934D01*
X159830931Y-89695004D01*
X159955228Y-89731500D01*
X159955232Y-89731500D01*
X160084768Y-89731500D01*
X160084772Y-89731500D01*
X160209069Y-89695004D01*
X160318049Y-89624967D01*
X160402882Y-89527063D01*
X160456697Y-89409226D01*
X160475133Y-89281000D01*
X160456697Y-89152774D01*
X160402882Y-89034937D01*
X160318049Y-88937033D01*
X160318048Y-88937032D01*
X160209073Y-88866998D01*
X160209070Y-88866996D01*
X160209069Y-88866996D01*
X160209066Y-88866995D01*
X160084776Y-88830501D01*
X160084774Y-88830500D01*
X160084772Y-88830500D01*
X159955228Y-88830500D01*
X159955225Y-88830500D01*
X159955223Y-88830501D01*
X159830933Y-88866995D01*
X159830926Y-88866998D01*
X159721950Y-88937032D01*
X159663424Y-89004577D01*
X159603698Y-89042961D01*
X159532702Y-89042961D01*
X159500079Y-89028063D01*
X159447073Y-88993998D01*
X159447070Y-88993996D01*
X159447069Y-88993996D01*
X159447066Y-88993995D01*
X159322776Y-88957501D01*
X159322774Y-88957500D01*
X159322772Y-88957500D01*
X159193228Y-88957500D01*
X159193225Y-88957500D01*
X159193223Y-88957501D01*
X159068933Y-88993995D01*
X159068926Y-88993998D01*
X158959951Y-89064032D01*
X158883058Y-89152774D01*
X158875118Y-89161937D01*
X158821303Y-89279774D01*
X158802867Y-89408000D01*
X148830424Y-89408000D01*
X148888049Y-89370967D01*
X148972882Y-89273063D01*
X149026697Y-89155226D01*
X149045133Y-89027000D01*
X149026697Y-88898774D01*
X148972882Y-88780937D01*
X148888049Y-88683033D01*
X148888048Y-88683032D01*
X148779073Y-88612998D01*
X148779070Y-88612996D01*
X148779069Y-88612996D01*
X148749490Y-88604311D01*
X148654776Y-88576501D01*
X148654774Y-88576500D01*
X148654772Y-88576500D01*
X148525228Y-88576500D01*
X148525225Y-88576500D01*
X148525223Y-88576501D01*
X148400933Y-88612995D01*
X148400926Y-88612998D01*
X148291951Y-88683032D01*
X148218237Y-88768105D01*
X148207118Y-88780937D01*
X148153303Y-88898774D01*
X148134867Y-89027000D01*
X140666610Y-89027000D01*
X140691171Y-88951409D01*
X140719500Y-88772546D01*
X140719500Y-88591454D01*
X140691171Y-88412591D01*
X140660309Y-88317605D01*
X144832867Y-88317605D01*
X144851303Y-88445831D01*
X144905118Y-88563668D01*
X144947862Y-88612998D01*
X144989951Y-88661572D01*
X145098465Y-88731310D01*
X145098931Y-88731609D01*
X145223228Y-88768105D01*
X145223232Y-88768105D01*
X145352768Y-88768105D01*
X145352772Y-88768105D01*
X145477069Y-88731609D01*
X145586049Y-88661572D01*
X145670882Y-88563668D01*
X145691281Y-88519000D01*
X163817571Y-88519000D01*
X163837244Y-88731311D01*
X163895593Y-88936384D01*
X163895594Y-88936386D01*
X163895595Y-88936389D01*
X163990634Y-89127255D01*
X164119128Y-89297407D01*
X164119129Y-89297408D01*
X164276699Y-89441053D01*
X164276701Y-89441054D01*
X164457974Y-89553294D01*
X164457975Y-89553294D01*
X164457981Y-89553298D01*
X164656802Y-89630321D01*
X164866390Y-89669500D01*
X164866393Y-89669500D01*
X165079607Y-89669500D01*
X165079610Y-89669500D01*
X165289198Y-89630321D01*
X165488019Y-89553298D01*
X165669302Y-89441052D01*
X165826872Y-89297407D01*
X165955366Y-89127255D01*
X166050405Y-88936389D01*
X166108756Y-88731310D01*
X166128429Y-88519000D01*
X166108756Y-88306690D01*
X166050405Y-88101611D01*
X165955366Y-87910745D01*
X165826872Y-87740593D01*
X165780155Y-87698004D01*
X165669300Y-87596946D01*
X165669298Y-87596945D01*
X165488025Y-87484705D01*
X165488021Y-87484703D01*
X165488019Y-87484702D01*
X165359242Y-87434814D01*
X165289199Y-87407679D01*
X165215749Y-87393949D01*
X165079610Y-87368500D01*
X164866390Y-87368500D01*
X164740637Y-87392007D01*
X164656800Y-87407679D01*
X164552994Y-87447894D01*
X164457981Y-87484702D01*
X164457980Y-87484702D01*
X164457979Y-87484703D01*
X164457974Y-87484705D01*
X164276701Y-87596945D01*
X164276699Y-87596946D01*
X164119129Y-87740591D01*
X164086541Y-87783745D01*
X163990634Y-87910745D01*
X163906853Y-88079002D01*
X163895593Y-88101615D01*
X163837244Y-88306688D01*
X163817571Y-88519000D01*
X145691281Y-88519000D01*
X145724697Y-88445831D01*
X145743133Y-88317605D01*
X145724697Y-88189379D01*
X145670882Y-88071542D01*
X145586049Y-87973638D01*
X145586048Y-87973637D01*
X145477073Y-87903603D01*
X145477070Y-87903601D01*
X145477069Y-87903601D01*
X145414488Y-87885226D01*
X145352776Y-87867106D01*
X145352774Y-87867105D01*
X145352772Y-87867105D01*
X145223228Y-87867105D01*
X145223225Y-87867105D01*
X145223223Y-87867106D01*
X145098933Y-87903600D01*
X145098926Y-87903603D01*
X144989951Y-87973637D01*
X144989104Y-87974615D01*
X144905118Y-88071542D01*
X144851303Y-88189379D01*
X144832867Y-88317605D01*
X140660309Y-88317605D01*
X140635211Y-88240361D01*
X140552996Y-88079006D01*
X140446553Y-87932499D01*
X140446550Y-87932496D01*
X140446548Y-87932493D01*
X140318506Y-87804451D01*
X140318503Y-87804449D01*
X140318501Y-87804447D01*
X140171994Y-87698004D01*
X140104256Y-87663489D01*
X140052641Y-87614741D01*
X140035576Y-87545826D01*
X140058477Y-87478624D01*
X140113241Y-87434815D01*
X140245547Y-87380013D01*
X140393035Y-87281464D01*
X140518464Y-87156035D01*
X140541206Y-87122000D01*
X146864867Y-87122000D01*
X146883303Y-87250226D01*
X146937118Y-87368063D01*
X146976956Y-87414039D01*
X147021951Y-87465967D01*
X147123922Y-87531500D01*
X147130931Y-87536004D01*
X147255228Y-87572500D01*
X147255232Y-87572500D01*
X147384768Y-87572500D01*
X147384772Y-87572500D01*
X147509069Y-87536004D01*
X147618049Y-87465967D01*
X147702882Y-87368063D01*
X147756697Y-87250226D01*
X147775133Y-87122000D01*
X147756697Y-86993774D01*
X147702882Y-86875937D01*
X147696005Y-86868000D01*
X148134867Y-86868000D01*
X148153303Y-86996226D01*
X148207118Y-87114063D01*
X148291951Y-87211967D01*
X148400090Y-87281464D01*
X148400931Y-87282004D01*
X148525228Y-87318500D01*
X148525232Y-87318500D01*
X148654768Y-87318500D01*
X148654772Y-87318500D01*
X148779069Y-87282004D01*
X148888049Y-87211967D01*
X148972882Y-87114063D01*
X149026697Y-86996226D01*
X149026873Y-86995000D01*
X150039867Y-86995000D01*
X150058303Y-87123226D01*
X150112118Y-87241063D01*
X150147593Y-87282004D01*
X150196950Y-87338967D01*
X150199012Y-87340292D01*
X150200617Y-87342145D01*
X150203759Y-87344867D01*
X150203367Y-87345318D01*
X150245503Y-87393949D01*
X150255605Y-87464223D01*
X150241476Y-87502107D01*
X150242862Y-87502740D01*
X150239119Y-87510935D01*
X150239118Y-87510937D01*
X150185303Y-87628774D01*
X150166867Y-87757000D01*
X150185303Y-87885226D01*
X150239118Y-88003063D01*
X150323951Y-88100967D01*
X150432931Y-88171004D01*
X150557228Y-88207500D01*
X150557232Y-88207500D01*
X150686768Y-88207500D01*
X150686772Y-88207500D01*
X150811069Y-88171004D01*
X150920049Y-88100967D01*
X151004882Y-88003063D01*
X151058697Y-87885226D01*
X151077133Y-87757000D01*
X151058697Y-87628774D01*
X151004882Y-87510937D01*
X150998005Y-87503000D01*
X160961867Y-87503000D01*
X160980303Y-87631226D01*
X161034118Y-87749063D01*
X161118951Y-87846967D01*
X161218191Y-87910745D01*
X161227931Y-87917004D01*
X161352228Y-87953500D01*
X161352232Y-87953500D01*
X161481768Y-87953500D01*
X161481772Y-87953500D01*
X161606069Y-87917004D01*
X161715049Y-87846967D01*
X161799882Y-87749063D01*
X161853697Y-87631226D01*
X161872133Y-87503000D01*
X161853697Y-87374774D01*
X161799882Y-87256937D01*
X161715049Y-87159033D01*
X161715048Y-87159032D01*
X161606073Y-87088998D01*
X161606070Y-87088996D01*
X161606069Y-87088996D01*
X161606066Y-87088995D01*
X161481776Y-87052501D01*
X161481774Y-87052500D01*
X161481772Y-87052500D01*
X161352228Y-87052500D01*
X161352225Y-87052500D01*
X161352223Y-87052501D01*
X161227933Y-87088995D01*
X161227926Y-87088998D01*
X161118951Y-87159032D01*
X161047873Y-87241063D01*
X161034118Y-87256937D01*
X160980303Y-87374774D01*
X160961867Y-87503000D01*
X150998005Y-87503000D01*
X150920921Y-87414039D01*
X150920048Y-87413031D01*
X150917984Y-87411705D01*
X150916377Y-87409850D01*
X150913241Y-87407133D01*
X150913631Y-87406681D01*
X150871494Y-87358047D01*
X150861394Y-87287772D01*
X150875526Y-87249894D01*
X150874138Y-87249260D01*
X150877880Y-87241064D01*
X150877882Y-87241063D01*
X150931697Y-87123226D01*
X150950133Y-86995000D01*
X150931697Y-86866774D01*
X150877882Y-86748937D01*
X150793049Y-86651033D01*
X150793048Y-86651032D01*
X150684073Y-86580998D01*
X150684070Y-86580996D01*
X150684069Y-86580996D01*
X150684066Y-86580995D01*
X150559776Y-86544501D01*
X150559774Y-86544500D01*
X150559772Y-86544500D01*
X150430228Y-86544500D01*
X150430225Y-86544500D01*
X150430223Y-86544501D01*
X150305933Y-86580995D01*
X150305926Y-86580998D01*
X150196951Y-86651032D01*
X150147594Y-86707995D01*
X150112118Y-86748937D01*
X150058303Y-86866774D01*
X150039867Y-86995000D01*
X149026873Y-86995000D01*
X149045133Y-86868000D01*
X149026697Y-86739774D01*
X148972882Y-86621937D01*
X148927453Y-86569509D01*
X148897962Y-86504931D01*
X148908067Y-86434657D01*
X148927451Y-86404493D01*
X148972882Y-86352063D01*
X149026697Y-86234226D01*
X149045133Y-86106000D01*
X149026697Y-85977774D01*
X148972882Y-85859937D01*
X148888049Y-85762033D01*
X148888048Y-85762032D01*
X148779073Y-85691998D01*
X148779070Y-85691996D01*
X148779069Y-85691996D01*
X148775149Y-85690845D01*
X148654776Y-85655501D01*
X148654774Y-85655500D01*
X148654772Y-85655500D01*
X148525228Y-85655500D01*
X148525225Y-85655500D01*
X148525223Y-85655501D01*
X148400933Y-85691995D01*
X148400926Y-85691998D01*
X148291951Y-85762032D01*
X148207118Y-85859937D01*
X148153303Y-85977774D01*
X148134867Y-86106000D01*
X148153303Y-86234226D01*
X148207118Y-86352063D01*
X148207119Y-86352064D01*
X148207119Y-86352065D01*
X148252544Y-86404489D01*
X148282037Y-86469070D01*
X148271932Y-86539344D01*
X148252544Y-86569511D01*
X148207119Y-86621934D01*
X148207119Y-86621935D01*
X148207118Y-86621936D01*
X148207118Y-86621937D01*
X148153303Y-86739774D01*
X148134867Y-86868000D01*
X147696005Y-86868000D01*
X147618049Y-86778033D01*
X147618048Y-86778032D01*
X147509073Y-86707998D01*
X147509070Y-86707996D01*
X147509069Y-86707996D01*
X147509066Y-86707995D01*
X147384776Y-86671501D01*
X147384774Y-86671500D01*
X147384772Y-86671500D01*
X147255228Y-86671500D01*
X147255225Y-86671500D01*
X147255223Y-86671501D01*
X147130933Y-86707995D01*
X147130926Y-86707998D01*
X147021951Y-86778032D01*
X146945058Y-86866774D01*
X146937118Y-86875937D01*
X146883303Y-86993774D01*
X146864867Y-87122000D01*
X140541206Y-87122000D01*
X140617013Y-87008547D01*
X140684894Y-86844666D01*
X140719500Y-86670691D01*
X140719500Y-86493309D01*
X140684894Y-86319334D01*
X140617013Y-86155453D01*
X140518464Y-86007965D01*
X140518459Y-86007959D01*
X140393040Y-85882540D01*
X140393034Y-85882535D01*
X140302709Y-85822182D01*
X140245547Y-85783987D01*
X140105663Y-85726046D01*
X140081671Y-85716108D01*
X140081666Y-85716106D01*
X140028739Y-85705578D01*
X139965832Y-85672671D01*
X139930700Y-85610976D01*
X139934500Y-85540081D01*
X139976026Y-85482495D01*
X140028739Y-85458421D01*
X140081666Y-85447894D01*
X140245547Y-85380013D01*
X140393035Y-85281464D01*
X140518464Y-85156035D01*
X140573278Y-85074000D01*
X143314953Y-85074000D01*
X143333092Y-85246576D01*
X143333093Y-85246579D01*
X143333094Y-85246583D01*
X143386712Y-85411608D01*
X143386714Y-85411611D01*
X143473478Y-85561889D01*
X143589590Y-85690845D01*
X143729976Y-85792842D01*
X143888501Y-85863422D01*
X144058236Y-85899500D01*
X144231764Y-85899500D01*
X144401499Y-85863422D01*
X144560024Y-85792842D01*
X144700410Y-85690845D01*
X144816522Y-85561889D01*
X144903286Y-85411611D01*
X144911525Y-85386252D01*
X164446808Y-85386252D01*
X164465244Y-85514478D01*
X164519059Y-85632315D01*
X164570772Y-85691996D01*
X164603892Y-85730219D01*
X164701335Y-85792842D01*
X164712872Y-85800256D01*
X164837169Y-85836752D01*
X164837173Y-85836752D01*
X164966709Y-85836752D01*
X164966713Y-85836752D01*
X165091010Y-85800256D01*
X165199990Y-85730219D01*
X165204510Y-85725003D01*
X166507659Y-85725003D01*
X166526974Y-85921124D01*
X166526974Y-85921126D01*
X166584186Y-86109728D01*
X166608627Y-86155453D01*
X166677090Y-86283538D01*
X166802117Y-86435883D01*
X166954462Y-86560910D01*
X167128273Y-86653814D01*
X167316868Y-86711024D01*
X167316872Y-86711024D01*
X167316874Y-86711025D01*
X167512997Y-86730341D01*
X167513000Y-86730341D01*
X167513003Y-86730341D01*
X167709124Y-86711025D01*
X167709126Y-86711025D01*
X167709127Y-86711024D01*
X167709132Y-86711024D01*
X167897727Y-86653814D01*
X168071538Y-86560910D01*
X168223883Y-86435883D01*
X168348910Y-86283538D01*
X168441814Y-86109727D01*
X168499024Y-85921132D01*
X168502825Y-85882540D01*
X168518341Y-85725003D01*
X168518341Y-85724996D01*
X168499025Y-85528875D01*
X168499025Y-85528873D01*
X168499024Y-85528870D01*
X168499024Y-85528868D01*
X168441814Y-85340273D01*
X168348910Y-85166462D01*
X168223883Y-85014117D01*
X168071538Y-84889090D01*
X167972214Y-84836000D01*
X167897728Y-84796186D01*
X167709125Y-84738974D01*
X167513003Y-84719659D01*
X167512997Y-84719659D01*
X167316875Y-84738974D01*
X167316873Y-84738974D01*
X167128271Y-84796186D01*
X166954461Y-84889090D01*
X166802117Y-85014117D01*
X166677090Y-85166461D01*
X166584186Y-85340271D01*
X166526974Y-85528873D01*
X166526974Y-85528875D01*
X166507659Y-85724996D01*
X166507659Y-85725003D01*
X165204510Y-85725003D01*
X165284823Y-85632315D01*
X165338638Y-85514478D01*
X165357074Y-85386252D01*
X165338638Y-85258026D01*
X165284823Y-85140189D01*
X165199990Y-85042285D01*
X165199989Y-85042284D01*
X165091014Y-84972250D01*
X165091011Y-84972248D01*
X165091010Y-84972248D01*
X165063689Y-84964226D01*
X164966717Y-84935753D01*
X164966715Y-84935752D01*
X164966713Y-84935752D01*
X164837169Y-84935752D01*
X164837166Y-84935752D01*
X164837164Y-84935753D01*
X164712874Y-84972247D01*
X164712867Y-84972250D01*
X164603892Y-85042284D01*
X164519059Y-85140189D01*
X164465244Y-85258026D01*
X164446808Y-85386252D01*
X144911525Y-85386252D01*
X144956908Y-85246576D01*
X144975047Y-85074000D01*
X144956908Y-84901424D01*
X144935651Y-84836000D01*
X146192667Y-84836000D01*
X146211103Y-84964226D01*
X146264918Y-85082063D01*
X146338048Y-85166461D01*
X146349751Y-85179967D01*
X146453407Y-85246583D01*
X146458731Y-85250004D01*
X146583028Y-85286500D01*
X146583032Y-85286500D01*
X146712568Y-85286500D01*
X146712572Y-85286500D01*
X146836869Y-85250004D01*
X146945849Y-85179967D01*
X147030682Y-85082063D01*
X147084497Y-84964226D01*
X147102933Y-84836000D01*
X147084497Y-84707774D01*
X147030682Y-84589937D01*
X146945849Y-84492033D01*
X146945848Y-84492032D01*
X146836873Y-84421998D01*
X146836870Y-84421996D01*
X146836869Y-84421996D01*
X146836866Y-84421995D01*
X146712576Y-84385501D01*
X146712574Y-84385500D01*
X146712572Y-84385500D01*
X146583028Y-84385500D01*
X146583025Y-84385500D01*
X146583023Y-84385501D01*
X146458733Y-84421995D01*
X146458726Y-84421998D01*
X146349751Y-84492032D01*
X146348645Y-84493309D01*
X146264918Y-84589937D01*
X146211103Y-84707774D01*
X146192667Y-84836000D01*
X144935651Y-84836000D01*
X144903286Y-84736389D01*
X144816522Y-84586111D01*
X144700410Y-84457155D01*
X144666745Y-84432696D01*
X144560024Y-84355158D01*
X144401499Y-84284578D01*
X144231764Y-84248500D01*
X144058236Y-84248500D01*
X143888503Y-84284577D01*
X143729978Y-84355157D01*
X143729976Y-84355158D01*
X143589590Y-84457154D01*
X143473479Y-84586109D01*
X143473479Y-84586110D01*
X143386712Y-84736391D01*
X143333094Y-84901416D01*
X143333093Y-84901420D01*
X143333092Y-84901424D01*
X143314953Y-85074000D01*
X140573278Y-85074000D01*
X140617013Y-85008547D01*
X140684894Y-84844666D01*
X140719500Y-84670691D01*
X140719500Y-84493309D01*
X140684894Y-84319334D01*
X140617013Y-84155453D01*
X140518464Y-84007965D01*
X140518459Y-84007959D01*
X140393040Y-83882540D01*
X140393034Y-83882535D01*
X140299448Y-83820003D01*
X140245547Y-83783987D01*
X140102919Y-83724909D01*
X140047638Y-83680361D01*
X140025217Y-83612997D01*
X140042775Y-83544206D01*
X140094737Y-83495828D01*
X140151137Y-83482500D01*
X140235141Y-83482500D01*
X140235144Y-83482500D01*
X140319590Y-83472359D01*
X140453975Y-83419364D01*
X140569078Y-83332078D01*
X140656364Y-83216975D01*
X140709359Y-83082590D01*
X140719500Y-82998144D01*
X140719500Y-82804000D01*
X157305750Y-82804000D01*
X157324670Y-82947709D01*
X157380137Y-83081624D01*
X157468378Y-83196621D01*
X157583375Y-83284862D01*
X157667821Y-83319839D01*
X157717291Y-83340330D01*
X157861000Y-83359250D01*
X158004709Y-83340330D01*
X158089155Y-83305351D01*
X158138624Y-83284862D01*
X158253621Y-83196621D01*
X158341862Y-83081624D01*
X158366986Y-83020967D01*
X158397330Y-82947709D01*
X158416250Y-82804000D01*
X160226750Y-82804000D01*
X160245670Y-82947709D01*
X160301137Y-83081624D01*
X160389378Y-83196621D01*
X160504375Y-83284862D01*
X160588821Y-83319839D01*
X160638291Y-83340330D01*
X160782000Y-83359250D01*
X160925709Y-83340330D01*
X161010155Y-83305351D01*
X161059624Y-83284862D01*
X161174621Y-83196621D01*
X161183536Y-83185003D01*
X166507659Y-83185003D01*
X166526974Y-83381124D01*
X166526974Y-83381126D01*
X166584186Y-83569728D01*
X166607314Y-83612997D01*
X166677090Y-83743538D01*
X166802117Y-83895883D01*
X166954462Y-84020910D01*
X167128273Y-84113814D01*
X167316868Y-84171024D01*
X167316872Y-84171024D01*
X167316874Y-84171025D01*
X167512997Y-84190341D01*
X167513000Y-84190341D01*
X167513003Y-84190341D01*
X167709124Y-84171025D01*
X167709126Y-84171025D01*
X167709127Y-84171024D01*
X167709132Y-84171024D01*
X167897727Y-84113814D01*
X168071538Y-84020910D01*
X168223883Y-83895883D01*
X168348910Y-83743538D01*
X168441814Y-83569727D01*
X168499024Y-83381132D01*
X168503043Y-83340329D01*
X168518341Y-83185003D01*
X168518341Y-83184996D01*
X168499025Y-82988875D01*
X168499025Y-82988873D01*
X168499024Y-82988870D01*
X168499024Y-82988868D01*
X168441814Y-82800273D01*
X168348910Y-82626462D01*
X168223883Y-82474117D01*
X168071538Y-82349090D01*
X168060612Y-82343250D01*
X167897728Y-82256186D01*
X167709125Y-82198974D01*
X167513003Y-82179659D01*
X167512997Y-82179659D01*
X167316875Y-82198974D01*
X167316873Y-82198974D01*
X167128271Y-82256186D01*
X166954461Y-82349090D01*
X166802117Y-82474117D01*
X166677090Y-82626461D01*
X166584186Y-82800271D01*
X166526974Y-82988873D01*
X166526974Y-82988875D01*
X166507659Y-83184996D01*
X166507659Y-83185003D01*
X161183536Y-83185003D01*
X161262862Y-83081624D01*
X161287986Y-83020967D01*
X161318330Y-82947709D01*
X161337250Y-82804000D01*
X161320530Y-82677000D01*
X164898867Y-82677000D01*
X164917303Y-82805226D01*
X164971118Y-82923063D01*
X165036175Y-82998144D01*
X165055951Y-83020967D01*
X165151838Y-83082590D01*
X165164931Y-83091004D01*
X165289228Y-83127500D01*
X165289232Y-83127500D01*
X165418768Y-83127500D01*
X165418772Y-83127500D01*
X165543069Y-83091004D01*
X165652049Y-83020967D01*
X165736882Y-82923063D01*
X165790697Y-82805226D01*
X165809133Y-82677000D01*
X165790697Y-82548774D01*
X165736882Y-82430937D01*
X165652049Y-82333033D01*
X165652048Y-82333032D01*
X165543073Y-82262998D01*
X165543070Y-82262996D01*
X165543069Y-82262996D01*
X165519876Y-82256186D01*
X165418776Y-82226501D01*
X165418774Y-82226500D01*
X165418772Y-82226500D01*
X165289228Y-82226500D01*
X165289225Y-82226500D01*
X165289223Y-82226501D01*
X165164933Y-82262995D01*
X165164926Y-82262998D01*
X165055951Y-82333032D01*
X164971118Y-82430937D01*
X164917303Y-82548774D01*
X164898867Y-82677000D01*
X161320530Y-82677000D01*
X161318330Y-82660291D01*
X161297839Y-82610821D01*
X161262862Y-82526375D01*
X161174621Y-82411378D01*
X161059624Y-82323137D01*
X160925709Y-82267670D01*
X160782000Y-82248750D01*
X160638290Y-82267670D01*
X160504376Y-82323137D01*
X160465745Y-82352780D01*
X160400467Y-82378015D01*
X160387718Y-82413484D01*
X160385920Y-82415886D01*
X160301136Y-82526378D01*
X160245670Y-82660290D01*
X160226750Y-82803999D01*
X160226750Y-82804000D01*
X158416250Y-82804000D01*
X158397330Y-82660291D01*
X158376839Y-82610821D01*
X158341862Y-82526375D01*
X158253621Y-82411378D01*
X158138624Y-82323137D01*
X158004709Y-82267670D01*
X157861000Y-82248750D01*
X157717290Y-82267670D01*
X157583375Y-82323137D01*
X157468378Y-82411378D01*
X157380137Y-82526375D01*
X157324670Y-82660290D01*
X157305750Y-82803999D01*
X157305750Y-82804000D01*
X140719500Y-82804000D01*
X140719500Y-82165856D01*
X140709359Y-82081410D01*
X140703134Y-82065625D01*
X140656364Y-81947025D01*
X140656361Y-81947021D01*
X140569078Y-81831921D01*
X140511159Y-81788000D01*
X159337750Y-81788000D01*
X159356670Y-81931709D01*
X159412137Y-82065624D01*
X159500378Y-82180621D01*
X159615375Y-82268862D01*
X159699821Y-82303839D01*
X159749291Y-82324330D01*
X159893000Y-82343250D01*
X160036709Y-82324330D01*
X160170625Y-82268861D01*
X160209253Y-82239219D01*
X160274531Y-82213982D01*
X160287283Y-82178513D01*
X160289044Y-82176159D01*
X160373861Y-82065625D01*
X160429330Y-81931709D01*
X160448250Y-81788000D01*
X160429330Y-81644291D01*
X160400138Y-81573814D01*
X160373862Y-81510375D01*
X160285621Y-81395378D01*
X160170624Y-81307137D01*
X160036709Y-81251670D01*
X159893000Y-81232750D01*
X159749290Y-81251670D01*
X159615375Y-81307137D01*
X159500378Y-81395378D01*
X159412137Y-81510375D01*
X159356670Y-81644290D01*
X159337750Y-81787999D01*
X159337750Y-81788000D01*
X140511159Y-81788000D01*
X140453978Y-81744638D01*
X140453974Y-81744635D01*
X140319590Y-81691640D01*
X140319591Y-81691640D01*
X140245237Y-81682712D01*
X140179987Y-81654731D01*
X140140223Y-81595915D01*
X140138570Y-81524937D01*
X140175553Y-81464334D01*
X140186193Y-81455679D01*
X140318501Y-81359553D01*
X140446553Y-81231501D01*
X140552996Y-81084994D01*
X140583055Y-81026000D01*
X142419867Y-81026000D01*
X142438303Y-81154226D01*
X142492118Y-81272063D01*
X142576951Y-81369967D01*
X142685931Y-81440004D01*
X142810228Y-81476500D01*
X142810232Y-81476500D01*
X142939768Y-81476500D01*
X142939772Y-81476500D01*
X143064069Y-81440004D01*
X143173049Y-81369967D01*
X143257882Y-81272063D01*
X143311697Y-81154226D01*
X143330133Y-81026000D01*
X143311873Y-80899000D01*
X144959867Y-80899000D01*
X144978303Y-81027226D01*
X145032118Y-81145063D01*
X145040058Y-81154226D01*
X145116951Y-81242967D01*
X145216801Y-81307137D01*
X145225931Y-81313004D01*
X145350228Y-81349500D01*
X145350232Y-81349500D01*
X145479768Y-81349500D01*
X145479772Y-81349500D01*
X145604069Y-81313004D01*
X145713049Y-81242967D01*
X145797882Y-81145063D01*
X145851697Y-81027226D01*
X145870133Y-80899000D01*
X145851697Y-80770774D01*
X145797882Y-80652937D01*
X145791007Y-80645003D01*
X166507659Y-80645003D01*
X166526974Y-80841124D01*
X166526974Y-80841126D01*
X166584186Y-81029728D01*
X166613728Y-81084997D01*
X166677090Y-81203538D01*
X166802117Y-81355883D01*
X166954462Y-81480910D01*
X167128273Y-81573814D01*
X167316868Y-81631024D01*
X167316872Y-81631024D01*
X167316874Y-81631025D01*
X167512997Y-81650341D01*
X167513000Y-81650341D01*
X167513003Y-81650341D01*
X167709124Y-81631025D01*
X167709126Y-81631025D01*
X167709127Y-81631024D01*
X167709132Y-81631024D01*
X167897727Y-81573814D01*
X168071538Y-81480910D01*
X168223883Y-81355883D01*
X168348910Y-81203538D01*
X168441814Y-81029727D01*
X168499024Y-80841132D01*
X168505051Y-80779937D01*
X168518341Y-80645003D01*
X168518341Y-80644996D01*
X168499025Y-80448875D01*
X168499025Y-80448873D01*
X168499024Y-80448870D01*
X168499024Y-80448868D01*
X168441814Y-80260273D01*
X168348910Y-80086462D01*
X168223883Y-79934117D01*
X168071538Y-79809090D01*
X167897728Y-79716186D01*
X167722397Y-79663000D01*
X167709132Y-79658976D01*
X167709131Y-79658975D01*
X167709125Y-79658974D01*
X167513003Y-79639659D01*
X167512997Y-79639659D01*
X167316875Y-79658974D01*
X167316873Y-79658974D01*
X167128271Y-79716186D01*
X166954461Y-79809090D01*
X166802117Y-79934117D01*
X166677090Y-80086461D01*
X166584186Y-80260271D01*
X166526974Y-80448873D01*
X166526974Y-80448875D01*
X166507659Y-80644996D01*
X166507659Y-80645003D01*
X145791007Y-80645003D01*
X145713049Y-80555033D01*
X145713048Y-80555032D01*
X145604073Y-80484998D01*
X145604070Y-80484996D01*
X145604069Y-80484996D01*
X145604066Y-80484995D01*
X145479776Y-80448501D01*
X145479774Y-80448500D01*
X145479772Y-80448500D01*
X145350228Y-80448500D01*
X145350225Y-80448500D01*
X145350223Y-80448501D01*
X145225933Y-80484995D01*
X145225926Y-80484998D01*
X145116951Y-80555032D01*
X145067594Y-80611995D01*
X145032118Y-80652937D01*
X144978303Y-80770774D01*
X144959867Y-80899000D01*
X143311873Y-80899000D01*
X143311697Y-80897774D01*
X143257882Y-80779937D01*
X143173049Y-80682033D01*
X143173048Y-80682032D01*
X143064073Y-80611998D01*
X143064070Y-80611996D01*
X143064069Y-80611996D01*
X143064066Y-80611995D01*
X142939776Y-80575501D01*
X142939774Y-80575500D01*
X142939772Y-80575500D01*
X142810228Y-80575500D01*
X142810225Y-80575500D01*
X142810223Y-80575501D01*
X142685933Y-80611995D01*
X142685926Y-80611998D01*
X142576951Y-80682032D01*
X142500058Y-80770774D01*
X142492118Y-80779937D01*
X142438303Y-80897774D01*
X142419867Y-81026000D01*
X140583055Y-81026000D01*
X140635211Y-80923639D01*
X140691171Y-80751409D01*
X140719500Y-80572546D01*
X140719500Y-80391454D01*
X140691171Y-80212591D01*
X140635211Y-80040361D01*
X140552996Y-79879006D01*
X140446553Y-79732499D01*
X140446550Y-79732496D01*
X140446548Y-79732493D01*
X140318506Y-79604451D01*
X140318503Y-79604449D01*
X140318501Y-79604447D01*
X140171994Y-79498004D01*
X140010639Y-79415789D01*
X140010636Y-79415788D01*
X140010634Y-79415787D01*
X139838412Y-79359830D01*
X139838409Y-79359829D01*
X139659546Y-79331500D01*
X138978454Y-79331500D01*
X138799591Y-79359829D01*
X138799588Y-79359829D01*
X138799587Y-79359830D01*
X138627365Y-79415787D01*
X138627359Y-79415790D01*
X138466002Y-79498006D01*
X138319496Y-79604449D01*
X138319493Y-79604451D01*
X138191451Y-79732493D01*
X138191449Y-79732496D01*
X138085006Y-79879002D01*
X138002790Y-80040359D01*
X138002787Y-80040365D01*
X137987810Y-80086461D01*
X137946829Y-80212591D01*
X137918500Y-80391454D01*
X137918500Y-80572546D01*
X137946829Y-80751409D01*
X138002789Y-80923639D01*
X138085004Y-81084994D01*
X138191447Y-81231501D01*
X138191449Y-81231503D01*
X138191451Y-81231506D01*
X138319493Y-81359548D01*
X138319496Y-81359550D01*
X138319499Y-81359553D01*
X138368810Y-81395379D01*
X138451800Y-81455675D01*
X138495154Y-81511897D01*
X138501229Y-81582633D01*
X138468098Y-81645425D01*
X138406278Y-81680336D01*
X138392762Y-81682712D01*
X138318409Y-81691640D01*
X138184025Y-81744635D01*
X138184021Y-81744638D01*
X138068921Y-81831921D01*
X137981638Y-81947021D01*
X137981635Y-81947025D01*
X137928640Y-82081409D01*
X137918500Y-82165853D01*
X137918500Y-82998146D01*
X137928640Y-83082590D01*
X137981635Y-83216974D01*
X137981638Y-83216978D01*
X138068921Y-83332078D01*
X138184021Y-83419361D01*
X138184025Y-83419364D01*
X138318409Y-83472359D01*
X138318408Y-83472359D01*
X138341457Y-83475126D01*
X138402856Y-83482500D01*
X138402859Y-83482500D01*
X138486863Y-83482500D01*
X138554984Y-83502502D01*
X138601477Y-83556158D01*
X138611581Y-83626432D01*
X138582087Y-83691012D01*
X138535081Y-83724909D01*
X138392453Y-83783987D01*
X138244965Y-83882535D01*
X138244959Y-83882540D01*
X138119540Y-84007959D01*
X138119535Y-84007965D01*
X138020987Y-84155453D01*
X137953108Y-84319328D01*
X137953106Y-84319333D01*
X137918500Y-84493306D01*
X137918500Y-84670693D01*
X137932082Y-84738974D01*
X137953106Y-84844666D01*
X138020987Y-85008547D01*
X138070109Y-85082063D01*
X138119535Y-85156034D01*
X138119540Y-85156040D01*
X138244959Y-85281459D01*
X138244965Y-85281464D01*
X138392453Y-85380013D01*
X138556334Y-85447894D01*
X138609258Y-85458421D01*
X138672168Y-85491329D01*
X138707299Y-85553024D01*
X138703499Y-85623919D01*
X138661973Y-85681505D01*
X138609259Y-85705578D01*
X138577211Y-85711953D01*
X138556333Y-85716106D01*
X138556328Y-85716108D01*
X138392453Y-85783987D01*
X138244965Y-85882535D01*
X138244959Y-85882540D01*
X138119540Y-86007959D01*
X138119535Y-86007965D01*
X138020987Y-86155453D01*
X137953108Y-86319328D01*
X137953106Y-86319333D01*
X137918500Y-86493306D01*
X137918500Y-86670693D01*
X137939852Y-86778033D01*
X137953106Y-86844666D01*
X138020987Y-87008547D01*
X138074741Y-87088995D01*
X138119535Y-87156034D01*
X138119540Y-87156040D01*
X138244959Y-87281459D01*
X138244965Y-87281464D01*
X138392453Y-87380013D01*
X138392455Y-87380014D01*
X138524756Y-87434814D01*
X138580038Y-87479362D01*
X138602459Y-87546725D01*
X138584901Y-87615516D01*
X138533743Y-87663489D01*
X138466005Y-87698004D01*
X138319496Y-87804449D01*
X138319493Y-87804451D01*
X138191451Y-87932493D01*
X138191449Y-87932496D01*
X138085006Y-88079002D01*
X138002790Y-88240359D01*
X138002787Y-88240365D01*
X137977691Y-88317605D01*
X137946829Y-88412591D01*
X137918500Y-88591454D01*
X137918500Y-88772546D01*
X133242119Y-88772546D01*
X133205483Y-88719470D01*
X133205481Y-88719468D01*
X133087240Y-88614717D01*
X132947365Y-88541304D01*
X132947361Y-88541302D01*
X132793987Y-88503500D01*
X132793985Y-88503500D01*
X132636015Y-88503500D01*
X132636012Y-88503500D01*
X132482638Y-88541302D01*
X132482636Y-88541303D01*
X132392555Y-88588582D01*
X132322942Y-88602528D01*
X132275445Y-88588582D01*
X132185363Y-88541303D01*
X132185361Y-88541302D01*
X132031987Y-88503500D01*
X132031985Y-88503500D01*
X131874015Y-88503500D01*
X131874012Y-88503500D01*
X131720638Y-88541302D01*
X131720634Y-88541304D01*
X131580759Y-88614717D01*
X131462518Y-88719468D01*
X131462516Y-88719470D01*
X131372783Y-88849470D01*
X131372782Y-88849473D01*
X131372781Y-88849475D01*
X131372780Y-88849477D01*
X131366136Y-88866996D01*
X131316761Y-88997184D01*
X131297722Y-89153996D01*
X131297722Y-89154003D01*
X129390260Y-89154003D01*
X129506366Y-89000255D01*
X129601405Y-88809389D01*
X129659756Y-88604310D01*
X129679429Y-88392000D01*
X129659756Y-88179690D01*
X129601405Y-87974611D01*
X129506366Y-87783745D01*
X129377872Y-87613593D01*
X129359614Y-87596948D01*
X129220300Y-87469946D01*
X129220298Y-87469945D01*
X129039025Y-87357705D01*
X129039021Y-87357703D01*
X129039019Y-87357702D01*
X128917222Y-87310517D01*
X128840199Y-87280679D01*
X128787801Y-87270884D01*
X128630610Y-87241500D01*
X128417390Y-87241500D01*
X128291637Y-87265007D01*
X128207800Y-87280679D01*
X128059941Y-87337960D01*
X128008981Y-87357702D01*
X128008980Y-87357702D01*
X128008979Y-87357703D01*
X128008974Y-87357705D01*
X127827701Y-87469945D01*
X127827699Y-87469946D01*
X127670129Y-87613591D01*
X127656812Y-87631226D01*
X127541634Y-87783745D01*
X127478397Y-87910744D01*
X127446593Y-87974615D01*
X127388244Y-88179688D01*
X127368571Y-88392000D01*
X126465300Y-88392000D01*
X126465300Y-85979003D01*
X136250722Y-85979003D01*
X136269761Y-86135815D01*
X136297771Y-86209670D01*
X136325780Y-86283523D01*
X136325781Y-86283525D01*
X136325782Y-86283526D01*
X136325783Y-86283529D01*
X136409276Y-86404489D01*
X136415517Y-86413530D01*
X136533760Y-86518283D01*
X136673635Y-86591696D01*
X136673636Y-86591696D01*
X136673638Y-86591697D01*
X136750325Y-86610598D01*
X136827015Y-86629500D01*
X136827017Y-86629500D01*
X136984983Y-86629500D01*
X136984985Y-86629500D01*
X137138365Y-86591696D01*
X137278240Y-86518283D01*
X137396483Y-86413530D01*
X137486220Y-86283523D01*
X137542237Y-86135818D01*
X137542237Y-86135817D01*
X137542238Y-86135815D01*
X137561278Y-85979003D01*
X137561278Y-85978996D01*
X137542238Y-85822184D01*
X137531109Y-85792841D01*
X137486220Y-85674477D01*
X137486216Y-85674472D01*
X137486216Y-85674470D01*
X137396483Y-85544470D01*
X137396481Y-85544468D01*
X137278240Y-85439717D01*
X137138365Y-85366304D01*
X137138361Y-85366302D01*
X136984987Y-85328500D01*
X136984985Y-85328500D01*
X136827015Y-85328500D01*
X136827012Y-85328500D01*
X136673638Y-85366302D01*
X136673634Y-85366304D01*
X136533759Y-85439717D01*
X136415518Y-85544468D01*
X136415516Y-85544470D01*
X136325783Y-85674470D01*
X136325782Y-85674473D01*
X136325781Y-85674475D01*
X136325780Y-85674477D01*
X136319136Y-85691996D01*
X136269761Y-85822184D01*
X136250722Y-85978996D01*
X136250722Y-85979003D01*
X126465300Y-85979003D01*
X126465300Y-83820003D01*
X136250722Y-83820003D01*
X136269761Y-83976815D01*
X136281573Y-84007959D01*
X136325780Y-84124523D01*
X136325781Y-84124525D01*
X136325782Y-84124526D01*
X136325783Y-84124529D01*
X136415516Y-84254529D01*
X136415517Y-84254530D01*
X136533760Y-84359283D01*
X136673635Y-84432696D01*
X136673636Y-84432696D01*
X136673638Y-84432697D01*
X136750325Y-84451598D01*
X136827015Y-84470500D01*
X136827017Y-84470500D01*
X136984983Y-84470500D01*
X136984985Y-84470500D01*
X137138365Y-84432696D01*
X137278240Y-84359283D01*
X137396483Y-84254530D01*
X137486220Y-84124523D01*
X137542237Y-83976818D01*
X137542237Y-83976817D01*
X137542238Y-83976815D01*
X137561278Y-83820003D01*
X137561278Y-83819996D01*
X137542238Y-83663184D01*
X137534392Y-83642498D01*
X137486220Y-83515477D01*
X137486216Y-83515472D01*
X137486216Y-83515470D01*
X137396483Y-83385470D01*
X137396481Y-83385468D01*
X137278240Y-83280717D01*
X137138365Y-83207304D01*
X137138361Y-83207302D01*
X136984987Y-83169500D01*
X136984985Y-83169500D01*
X136827015Y-83169500D01*
X136827012Y-83169500D01*
X136673638Y-83207302D01*
X136673634Y-83207304D01*
X136533759Y-83280717D01*
X136415518Y-83385468D01*
X136415516Y-83385470D01*
X136325783Y-83515470D01*
X136325782Y-83515473D01*
X136269761Y-83663184D01*
X136250722Y-83819996D01*
X136250722Y-83820003D01*
X126465300Y-83820003D01*
X126465300Y-81026000D01*
X134545867Y-81026000D01*
X134564303Y-81154226D01*
X134618118Y-81272063D01*
X134702951Y-81369967D01*
X134811931Y-81440004D01*
X134936228Y-81476500D01*
X134936232Y-81476500D01*
X135065768Y-81476500D01*
X135065772Y-81476500D01*
X135190069Y-81440004D01*
X135299049Y-81369967D01*
X135383882Y-81272063D01*
X135437697Y-81154226D01*
X135456133Y-81026000D01*
X135437697Y-80897774D01*
X135383882Y-80779937D01*
X135299049Y-80682033D01*
X135299048Y-80682032D01*
X135190073Y-80611998D01*
X135190070Y-80611996D01*
X135190069Y-80611996D01*
X135190066Y-80611995D01*
X135065776Y-80575501D01*
X135065774Y-80575500D01*
X135065772Y-80575500D01*
X134936228Y-80575500D01*
X134936225Y-80575500D01*
X134936223Y-80575501D01*
X134811933Y-80611995D01*
X134811926Y-80611998D01*
X134702951Y-80682032D01*
X134626058Y-80770774D01*
X134618118Y-80779937D01*
X134564303Y-80897774D01*
X134545867Y-81026000D01*
X126465300Y-81026000D01*
X126465300Y-79469103D01*
X136450867Y-79469103D01*
X136469303Y-79597329D01*
X136523118Y-79715166D01*
X136604502Y-79809090D01*
X136607951Y-79813070D01*
X136710549Y-79879006D01*
X136716931Y-79883107D01*
X136841228Y-79919603D01*
X136841232Y-79919603D01*
X136970768Y-79919603D01*
X136970772Y-79919603D01*
X137095069Y-79883107D01*
X137204049Y-79813070D01*
X137288882Y-79715166D01*
X137342697Y-79597329D01*
X137361133Y-79469103D01*
X137342697Y-79340877D01*
X137314533Y-79279208D01*
X137310046Y-79248000D01*
X150420867Y-79248000D01*
X150439303Y-79376226D01*
X150493118Y-79494063D01*
X150496535Y-79498006D01*
X150577951Y-79591967D01*
X150597376Y-79604451D01*
X150686931Y-79662004D01*
X150811228Y-79698500D01*
X150811232Y-79698500D01*
X150940768Y-79698500D01*
X150940772Y-79698500D01*
X151065069Y-79662004D01*
X151174049Y-79591967D01*
X151258882Y-79494063D01*
X151312697Y-79376226D01*
X151331133Y-79248000D01*
X151326029Y-79212500D01*
X151817867Y-79212500D01*
X151836303Y-79340726D01*
X151890118Y-79458563D01*
X151974951Y-79556467D01*
X152049612Y-79604449D01*
X152083931Y-79626504D01*
X152208228Y-79663000D01*
X152208232Y-79663000D01*
X152337768Y-79663000D01*
X152337772Y-79663000D01*
X152462069Y-79626504D01*
X152571049Y-79556467D01*
X152655882Y-79458563D01*
X152709697Y-79340726D01*
X152728133Y-79212500D01*
X152709697Y-79084274D01*
X152655882Y-78966437D01*
X152571049Y-78868533D01*
X152571048Y-78868532D01*
X152462073Y-78798498D01*
X152462070Y-78798496D01*
X152462069Y-78798496D01*
X152462066Y-78798495D01*
X152337776Y-78762001D01*
X152337774Y-78762000D01*
X152337772Y-78762000D01*
X152208228Y-78762000D01*
X152208225Y-78762000D01*
X152208223Y-78762001D01*
X152083933Y-78798495D01*
X152083926Y-78798498D01*
X151974951Y-78868532D01*
X151929896Y-78920530D01*
X151890118Y-78966437D01*
X151836303Y-79084274D01*
X151817867Y-79212500D01*
X151326029Y-79212500D01*
X151312697Y-79119774D01*
X151258882Y-79001937D01*
X151174049Y-78904033D01*
X151174048Y-78904032D01*
X151065073Y-78833998D01*
X151065070Y-78833996D01*
X151065069Y-78833996D01*
X151041280Y-78827011D01*
X150940776Y-78797501D01*
X150940774Y-78797500D01*
X150940772Y-78797500D01*
X150811228Y-78797500D01*
X150811225Y-78797500D01*
X150811223Y-78797501D01*
X150686933Y-78833995D01*
X150686926Y-78833998D01*
X150577951Y-78904032D01*
X150532084Y-78956967D01*
X150493118Y-79001937D01*
X150439303Y-79119774D01*
X150420867Y-79248000D01*
X137310046Y-79248000D01*
X137304430Y-79208937D01*
X137333923Y-79144356D01*
X137393649Y-79105972D01*
X137459301Y-79104529D01*
X137589015Y-79136500D01*
X137589017Y-79136500D01*
X137746983Y-79136500D01*
X137746985Y-79136500D01*
X137900365Y-79098696D01*
X138040240Y-79025283D01*
X138158483Y-78920530D01*
X138242717Y-78798495D01*
X138248216Y-78790529D01*
X138248216Y-78790528D01*
X138248220Y-78790523D01*
X138304237Y-78642818D01*
X138304237Y-78642817D01*
X138304238Y-78642815D01*
X138307858Y-78613000D01*
X158294867Y-78613000D01*
X158313303Y-78741226D01*
X158367118Y-78859063D01*
X158420378Y-78920529D01*
X158451951Y-78956967D01*
X158558251Y-79025282D01*
X158560931Y-79027004D01*
X158685228Y-79063500D01*
X158685232Y-79063500D01*
X158814768Y-79063500D01*
X158814772Y-79063500D01*
X158939069Y-79027004D01*
X159048049Y-78956967D01*
X159132882Y-78859063D01*
X159186697Y-78741226D01*
X159205133Y-78613000D01*
X159186697Y-78484774D01*
X159132882Y-78366937D01*
X159048049Y-78269033D01*
X159048048Y-78269032D01*
X158939073Y-78198998D01*
X158939070Y-78198996D01*
X158939069Y-78198996D01*
X158939066Y-78198995D01*
X158814776Y-78162501D01*
X158814774Y-78162500D01*
X158814772Y-78162500D01*
X158685228Y-78162500D01*
X158685225Y-78162500D01*
X158685223Y-78162501D01*
X158560933Y-78198995D01*
X158560926Y-78198998D01*
X158451951Y-78269032D01*
X158380873Y-78351063D01*
X158367118Y-78366937D01*
X158313303Y-78484774D01*
X158294867Y-78613000D01*
X138307858Y-78613000D01*
X138323278Y-78486003D01*
X138323278Y-78485996D01*
X138304238Y-78329184D01*
X138296392Y-78308498D01*
X138248220Y-78181477D01*
X138248216Y-78181472D01*
X138248216Y-78181470D01*
X138195432Y-78105000D01*
X147499867Y-78105000D01*
X147518303Y-78233226D01*
X147572118Y-78351063D01*
X147585873Y-78366937D01*
X147656951Y-78448967D01*
X147714575Y-78486000D01*
X147765931Y-78519004D01*
X147890228Y-78555500D01*
X147890232Y-78555500D01*
X148019768Y-78555500D01*
X148019772Y-78555500D01*
X148144069Y-78519004D01*
X148253049Y-78448967D01*
X148337882Y-78351063D01*
X148391697Y-78233226D01*
X148410133Y-78105000D01*
X148391697Y-77976774D01*
X148337882Y-77858937D01*
X148253049Y-77761033D01*
X148253048Y-77761032D01*
X148144073Y-77690998D01*
X148144070Y-77690996D01*
X148144069Y-77690996D01*
X148144066Y-77690995D01*
X148019776Y-77654501D01*
X148019774Y-77654500D01*
X148019772Y-77654500D01*
X147890228Y-77654500D01*
X147890225Y-77654500D01*
X147890223Y-77654501D01*
X147765933Y-77690995D01*
X147765926Y-77690998D01*
X147656951Y-77761032D01*
X147611084Y-77813967D01*
X147572118Y-77858937D01*
X147518303Y-77976774D01*
X147499867Y-78105000D01*
X138195432Y-78105000D01*
X138158483Y-78051470D01*
X138158481Y-78051468D01*
X138040240Y-77946717D01*
X137900365Y-77873304D01*
X137900361Y-77873302D01*
X137746987Y-77835500D01*
X137746985Y-77835500D01*
X137589015Y-77835500D01*
X137589012Y-77835500D01*
X137435638Y-77873302D01*
X137435634Y-77873304D01*
X137295759Y-77946717D01*
X137177518Y-78051468D01*
X137177516Y-78051470D01*
X137087783Y-78181470D01*
X137087782Y-78181473D01*
X137087781Y-78181475D01*
X137087780Y-78181477D01*
X137081136Y-78198996D01*
X137031761Y-78329184D01*
X137012722Y-78485996D01*
X137012722Y-78486003D01*
X137031761Y-78642815D01*
X137059771Y-78716670D01*
X137087780Y-78790523D01*
X137087781Y-78790525D01*
X137087782Y-78790526D01*
X137087783Y-78790529D01*
X137112965Y-78827011D01*
X137135201Y-78894436D01*
X137117454Y-78963179D01*
X137065359Y-79011414D01*
X136995456Y-79023828D01*
X136973776Y-79019485D01*
X136970775Y-79018604D01*
X136970772Y-79018603D01*
X136841228Y-79018603D01*
X136841225Y-79018603D01*
X136841223Y-79018604D01*
X136716933Y-79055098D01*
X136716926Y-79055101D01*
X136607951Y-79125135D01*
X136535338Y-79208937D01*
X136523118Y-79223040D01*
X136469303Y-79340877D01*
X136450867Y-79469103D01*
X126465300Y-79469103D01*
X126465300Y-77470000D01*
X145721867Y-77470000D01*
X145740303Y-77598226D01*
X145794118Y-77716063D01*
X145878951Y-77813967D01*
X145987931Y-77884004D01*
X146112228Y-77920500D01*
X146112232Y-77920500D01*
X146241768Y-77920500D01*
X146241772Y-77920500D01*
X146366069Y-77884004D01*
X146475049Y-77813967D01*
X146559882Y-77716063D01*
X146613697Y-77598226D01*
X146632133Y-77470000D01*
X146613697Y-77341774D01*
X146559882Y-77223937D01*
X146553005Y-77216000D01*
X149023867Y-77216000D01*
X149042303Y-77344226D01*
X149096118Y-77462063D01*
X149180951Y-77559967D01*
X149289931Y-77630004D01*
X149414228Y-77666500D01*
X149414232Y-77666500D01*
X149543768Y-77666500D01*
X149543772Y-77666500D01*
X149668069Y-77630004D01*
X149777049Y-77559967D01*
X149861882Y-77462063D01*
X149915697Y-77344226D01*
X149934133Y-77216000D01*
X149915697Y-77087774D01*
X149861882Y-76969937D01*
X149777049Y-76872033D01*
X149777048Y-76872032D01*
X149668073Y-76801998D01*
X149668070Y-76801996D01*
X149668069Y-76801996D01*
X149668066Y-76801995D01*
X149543776Y-76765501D01*
X149543774Y-76765500D01*
X149543772Y-76765500D01*
X149414228Y-76765500D01*
X149414225Y-76765500D01*
X149414223Y-76765501D01*
X149289933Y-76801995D01*
X149289926Y-76801998D01*
X149180951Y-76872032D01*
X149096118Y-76969937D01*
X149042303Y-77087774D01*
X149023867Y-77216000D01*
X146553005Y-77216000D01*
X146475049Y-77126033D01*
X146475048Y-77126032D01*
X146366073Y-77055998D01*
X146366070Y-77055996D01*
X146366069Y-77055996D01*
X146366066Y-77055995D01*
X146241776Y-77019501D01*
X146241774Y-77019500D01*
X146241772Y-77019500D01*
X146112228Y-77019500D01*
X146112225Y-77019500D01*
X146112223Y-77019501D01*
X145987933Y-77055995D01*
X145987926Y-77055998D01*
X145878951Y-77126032D01*
X145800995Y-77216000D01*
X145794118Y-77223937D01*
X145740303Y-77341774D01*
X145721867Y-77470000D01*
X126465300Y-77470000D01*
X126465300Y-75946000D01*
X138228867Y-75946000D01*
X138247303Y-76074226D01*
X138301118Y-76192063D01*
X138385951Y-76289967D01*
X138494931Y-76360004D01*
X138619228Y-76396500D01*
X138619232Y-76396500D01*
X138748768Y-76396500D01*
X138748772Y-76396500D01*
X138873069Y-76360004D01*
X138982049Y-76289967D01*
X139066882Y-76192063D01*
X139120697Y-76074226D01*
X139139133Y-75946003D01*
X141330722Y-75946003D01*
X141349761Y-76102815D01*
X141377771Y-76176670D01*
X141405780Y-76250523D01*
X141405781Y-76250525D01*
X141405782Y-76250526D01*
X141405783Y-76250529D01*
X141481349Y-76360004D01*
X141495517Y-76380530D01*
X141613760Y-76485283D01*
X141753635Y-76558696D01*
X141753636Y-76558696D01*
X141753638Y-76558697D01*
X141830325Y-76577598D01*
X141907015Y-76596500D01*
X141907017Y-76596500D01*
X142064983Y-76596500D01*
X142064985Y-76596500D01*
X142218365Y-76558696D01*
X142358240Y-76485283D01*
X142476483Y-76380530D01*
X142566220Y-76250523D01*
X142622237Y-76102818D01*
X142622237Y-76102817D01*
X142622238Y-76102815D01*
X142641278Y-75946003D01*
X142641278Y-75945996D01*
X142623213Y-75797210D01*
X146737867Y-75797210D01*
X146756303Y-75925436D01*
X146810118Y-76043273D01*
X146894951Y-76141177D01*
X147003931Y-76211214D01*
X147128228Y-76247710D01*
X147128232Y-76247710D01*
X147257768Y-76247710D01*
X147257772Y-76247710D01*
X147382069Y-76211214D01*
X147491049Y-76141177D01*
X147575882Y-76043273D01*
X147629697Y-75925436D01*
X147648133Y-75797210D01*
X147629697Y-75668984D01*
X147575882Y-75551147D01*
X147491049Y-75453243D01*
X147491048Y-75453242D01*
X147382073Y-75383208D01*
X147382070Y-75383206D01*
X147382069Y-75383206D01*
X147382066Y-75383205D01*
X147257776Y-75346711D01*
X147257774Y-75346710D01*
X147257772Y-75346710D01*
X147128228Y-75346710D01*
X147128225Y-75346710D01*
X147128223Y-75346711D01*
X147003933Y-75383205D01*
X147003926Y-75383208D01*
X146894951Y-75453242D01*
X146823873Y-75535273D01*
X146810118Y-75551147D01*
X146756303Y-75668984D01*
X146737867Y-75797210D01*
X142623213Y-75797210D01*
X142622238Y-75789184D01*
X142614392Y-75768498D01*
X142566220Y-75641477D01*
X142566216Y-75641472D01*
X142566216Y-75641470D01*
X142476483Y-75511470D01*
X142476481Y-75511468D01*
X142358240Y-75406717D01*
X142218365Y-75333304D01*
X142218361Y-75333302D01*
X142064987Y-75295500D01*
X142064985Y-75295500D01*
X141907015Y-75295500D01*
X141907012Y-75295500D01*
X141753638Y-75333302D01*
X141753634Y-75333304D01*
X141613759Y-75406717D01*
X141495518Y-75511468D01*
X141495516Y-75511470D01*
X141405783Y-75641470D01*
X141405782Y-75641473D01*
X141349761Y-75789184D01*
X141330722Y-75945996D01*
X141330722Y-75946003D01*
X139139133Y-75946003D01*
X139139133Y-75946000D01*
X139120697Y-75817774D01*
X139066882Y-75699937D01*
X138982049Y-75602033D01*
X138982048Y-75602032D01*
X138873073Y-75531998D01*
X138873070Y-75531996D01*
X138873069Y-75531996D01*
X138873066Y-75531995D01*
X138748776Y-75495501D01*
X138748774Y-75495500D01*
X138748772Y-75495500D01*
X138619228Y-75495500D01*
X138619225Y-75495500D01*
X138619223Y-75495501D01*
X138494933Y-75531995D01*
X138494926Y-75531998D01*
X138385951Y-75602032D01*
X138301118Y-75699937D01*
X138247303Y-75817774D01*
X138228867Y-75946000D01*
X126465300Y-75946000D01*
X126465300Y-75118000D01*
X134037867Y-75118000D01*
X134056303Y-75246226D01*
X134110118Y-75364063D01*
X134187391Y-75453242D01*
X134194951Y-75461967D01*
X134303921Y-75531998D01*
X134303931Y-75532004D01*
X134428228Y-75568500D01*
X134428232Y-75568500D01*
X134557768Y-75568500D01*
X134557772Y-75568500D01*
X134682069Y-75532004D01*
X134791049Y-75461967D01*
X134875882Y-75364063D01*
X134929697Y-75246226D01*
X134948133Y-75118000D01*
X136069867Y-75118000D01*
X136088303Y-75246226D01*
X136142118Y-75364063D01*
X136219391Y-75453242D01*
X136226951Y-75461967D01*
X136335921Y-75531998D01*
X136335931Y-75532004D01*
X136460228Y-75568500D01*
X136460232Y-75568500D01*
X136589768Y-75568500D01*
X136589772Y-75568500D01*
X136714069Y-75532004D01*
X136823049Y-75461967D01*
X136907882Y-75364063D01*
X136942067Y-75289210D01*
X148261867Y-75289210D01*
X148280303Y-75417436D01*
X148334118Y-75535273D01*
X148418951Y-75633177D01*
X148527931Y-75703214D01*
X148652228Y-75739710D01*
X148652232Y-75739710D01*
X148781768Y-75739710D01*
X148781772Y-75739710D01*
X148906069Y-75703214D01*
X149015049Y-75633177D01*
X149099882Y-75535273D01*
X149153697Y-75417436D01*
X149172133Y-75289210D01*
X149153697Y-75160984D01*
X149099882Y-75043147D01*
X149015049Y-74945243D01*
X149015048Y-74945242D01*
X148906073Y-74875208D01*
X148906070Y-74875206D01*
X148906069Y-74875206D01*
X148894936Y-74871937D01*
X148781776Y-74838711D01*
X148781774Y-74838710D01*
X148781772Y-74838710D01*
X148652228Y-74838710D01*
X148652225Y-74838710D01*
X148652223Y-74838711D01*
X148527933Y-74875205D01*
X148527926Y-74875208D01*
X148418951Y-74945242D01*
X148380365Y-74989774D01*
X148334118Y-75043147D01*
X148280303Y-75160984D01*
X148261867Y-75289210D01*
X136942067Y-75289210D01*
X136961697Y-75246226D01*
X136980133Y-75118000D01*
X136961697Y-74989774D01*
X136907882Y-74871937D01*
X136823049Y-74774033D01*
X136823048Y-74774032D01*
X136714073Y-74703998D01*
X136714070Y-74703996D01*
X136714069Y-74703996D01*
X136714066Y-74703995D01*
X136618722Y-74676000D01*
X152325867Y-74676000D01*
X152344303Y-74804226D01*
X152398118Y-74922063D01*
X152482951Y-75019967D01*
X152591931Y-75090004D01*
X152716228Y-75126500D01*
X152716232Y-75126500D01*
X152845768Y-75126500D01*
X152845772Y-75126500D01*
X152970069Y-75090004D01*
X153079049Y-75019967D01*
X153163882Y-74922063D01*
X153217697Y-74804226D01*
X153236133Y-74676000D01*
X153217697Y-74547774D01*
X153163882Y-74429937D01*
X153079049Y-74332033D01*
X153079048Y-74332032D01*
X152970073Y-74261998D01*
X152970070Y-74261996D01*
X152970069Y-74261996D01*
X152970066Y-74261995D01*
X152845776Y-74225501D01*
X152845774Y-74225500D01*
X152845772Y-74225500D01*
X152716228Y-74225500D01*
X152716225Y-74225500D01*
X152716223Y-74225501D01*
X152591933Y-74261995D01*
X152591926Y-74261998D01*
X152482951Y-74332032D01*
X152411873Y-74414063D01*
X152398118Y-74429937D01*
X152344303Y-74547774D01*
X152325867Y-74676000D01*
X136618722Y-74676000D01*
X136589776Y-74667501D01*
X136589774Y-74667500D01*
X136589772Y-74667500D01*
X136460228Y-74667500D01*
X136460225Y-74667500D01*
X136460223Y-74667501D01*
X136335933Y-74703995D01*
X136335926Y-74703998D01*
X136226951Y-74774032D01*
X136170909Y-74838710D01*
X136142118Y-74871937D01*
X136088303Y-74989774D01*
X136069867Y-75118000D01*
X134948133Y-75118000D01*
X134929697Y-74989774D01*
X134875882Y-74871937D01*
X134791049Y-74774033D01*
X134791048Y-74774032D01*
X134682073Y-74703998D01*
X134682070Y-74703996D01*
X134682069Y-74703996D01*
X134682066Y-74703995D01*
X134557776Y-74667501D01*
X134557774Y-74667500D01*
X134557772Y-74667500D01*
X134428228Y-74667500D01*
X134428225Y-74667500D01*
X134428223Y-74667501D01*
X134303933Y-74703995D01*
X134303926Y-74703998D01*
X134194951Y-74774032D01*
X134138909Y-74838710D01*
X134110118Y-74871937D01*
X134056303Y-74989774D01*
X134037867Y-75118000D01*
X126465300Y-75118000D01*
X126465300Y-74041000D01*
X138101867Y-74041000D01*
X138120303Y-74169226D01*
X138174118Y-74287063D01*
X138258951Y-74384967D01*
X138367931Y-74455004D01*
X138492228Y-74491500D01*
X138492232Y-74491500D01*
X138621768Y-74491500D01*
X138621772Y-74491500D01*
X138746069Y-74455004D01*
X138855049Y-74384967D01*
X138939882Y-74287063D01*
X138993697Y-74169226D01*
X138993873Y-74168000D01*
X156474867Y-74168000D01*
X156493303Y-74296226D01*
X156547118Y-74414063D01*
X156614215Y-74491498D01*
X156631951Y-74511967D01*
X156733656Y-74577329D01*
X156740931Y-74582004D01*
X156865228Y-74618500D01*
X156865232Y-74618500D01*
X156994768Y-74618500D01*
X156994772Y-74618500D01*
X157119069Y-74582004D01*
X157228049Y-74511967D01*
X157312882Y-74414063D01*
X157366697Y-74296226D01*
X157367854Y-74288174D01*
X157397346Y-74223594D01*
X157457071Y-74185210D01*
X157528068Y-74185208D01*
X157587795Y-74223591D01*
X157608981Y-74257888D01*
X157634137Y-74318624D01*
X157722378Y-74433621D01*
X157837375Y-74521862D01*
X157921821Y-74556839D01*
X157971291Y-74577330D01*
X158115000Y-74596250D01*
X158258709Y-74577330D01*
X158343155Y-74542351D01*
X158392624Y-74521862D01*
X158507621Y-74433621D01*
X158595862Y-74318624D01*
X158619317Y-74261996D01*
X158651330Y-74184709D01*
X158670250Y-74041000D01*
X158651330Y-73897291D01*
X158620986Y-73824032D01*
X158595862Y-73763375D01*
X158507621Y-73648378D01*
X158392624Y-73560137D01*
X158258709Y-73504670D01*
X158115000Y-73485750D01*
X157971290Y-73504670D01*
X157837375Y-73560137D01*
X157722378Y-73648378D01*
X157634137Y-73763375D01*
X157578670Y-73897290D01*
X157573945Y-73933179D01*
X157545222Y-73998106D01*
X157485956Y-74037197D01*
X157414965Y-74038042D01*
X157354786Y-74000371D01*
X157334410Y-73969075D01*
X157312884Y-73921941D01*
X157312883Y-73921939D01*
X157312882Y-73921938D01*
X157312882Y-73921937D01*
X157228049Y-73824033D01*
X157228048Y-73824032D01*
X157119073Y-73753998D01*
X157119070Y-73753996D01*
X157119069Y-73753996D01*
X157119066Y-73753995D01*
X156994776Y-73717501D01*
X156994774Y-73717500D01*
X156994772Y-73717500D01*
X156865228Y-73717500D01*
X156865225Y-73717500D01*
X156865223Y-73717501D01*
X156740933Y-73753995D01*
X156740926Y-73753998D01*
X156631951Y-73824032D01*
X156555058Y-73912774D01*
X156547118Y-73921937D01*
X156493303Y-74039774D01*
X156474867Y-74168000D01*
X138993873Y-74168000D01*
X139012133Y-74041000D01*
X138993697Y-73912774D01*
X138939882Y-73794937D01*
X138855049Y-73697033D01*
X138855048Y-73697032D01*
X138746073Y-73626998D01*
X138746070Y-73626996D01*
X138746069Y-73626996D01*
X138746066Y-73626995D01*
X138621776Y-73590501D01*
X138621774Y-73590500D01*
X138621772Y-73590500D01*
X138492228Y-73590500D01*
X138492225Y-73590500D01*
X138492223Y-73590501D01*
X138367933Y-73626995D01*
X138367926Y-73626998D01*
X138258951Y-73697032D01*
X138209594Y-73753995D01*
X138174118Y-73794937D01*
X138120303Y-73912774D01*
X138101867Y-74041000D01*
X126465300Y-74041000D01*
X126465300Y-72898003D01*
X127487722Y-72898003D01*
X127506761Y-73054815D01*
X127534771Y-73128670D01*
X127562780Y-73202523D01*
X127562781Y-73202525D01*
X127562782Y-73202526D01*
X127562783Y-73202529D01*
X127652516Y-73332529D01*
X127652517Y-73332530D01*
X127770760Y-73437283D01*
X127910635Y-73510696D01*
X127910636Y-73510696D01*
X127910638Y-73510697D01*
X127987325Y-73529598D01*
X128064015Y-73548500D01*
X128064017Y-73548500D01*
X128221983Y-73548500D01*
X128221985Y-73548500D01*
X128375365Y-73510696D01*
X128515240Y-73437283D01*
X128567447Y-73391031D01*
X128631700Y-73360832D01*
X128702081Y-73370164D01*
X128734552Y-73391031D01*
X128786760Y-73437283D01*
X128926635Y-73510696D01*
X128926636Y-73510696D01*
X128926638Y-73510697D01*
X129003325Y-73529598D01*
X129080015Y-73548500D01*
X129080017Y-73548500D01*
X129237983Y-73548500D01*
X129237985Y-73548500D01*
X129391365Y-73510696D01*
X129531240Y-73437283D01*
X129583447Y-73391031D01*
X129647700Y-73360832D01*
X129718081Y-73370164D01*
X129750552Y-73391031D01*
X129802760Y-73437283D01*
X129942635Y-73510696D01*
X129942636Y-73510696D01*
X129942638Y-73510697D01*
X130019325Y-73529598D01*
X130096015Y-73548500D01*
X130096017Y-73548500D01*
X130253983Y-73548500D01*
X130253985Y-73548500D01*
X130407365Y-73510696D01*
X130547240Y-73437283D01*
X130665483Y-73332530D01*
X130702430Y-73279003D01*
X146791722Y-73279003D01*
X146810761Y-73435815D01*
X146836875Y-73504670D01*
X146866780Y-73583523D01*
X146866781Y-73583525D01*
X146866782Y-73583526D01*
X146866783Y-73583529D01*
X146945129Y-73697032D01*
X146956517Y-73713530D01*
X147074760Y-73818283D01*
X147214635Y-73891696D01*
X147214636Y-73891696D01*
X147214638Y-73891697D01*
X147237335Y-73897291D01*
X147368015Y-73929500D01*
X147368017Y-73929500D01*
X147525983Y-73929500D01*
X147525985Y-73929500D01*
X147679365Y-73891696D01*
X147819240Y-73818283D01*
X147937483Y-73713530D01*
X148011951Y-73605643D01*
X148027216Y-73583529D01*
X148027216Y-73583528D01*
X148027220Y-73583523D01*
X148083237Y-73435818D01*
X148083237Y-73435817D01*
X148083238Y-73435815D01*
X148102278Y-73279003D01*
X148102278Y-73278996D01*
X148083238Y-73122184D01*
X148057688Y-73054815D01*
X148027220Y-72974477D01*
X148027216Y-72974472D01*
X148027216Y-72974470D01*
X147937483Y-72844470D01*
X147937481Y-72844468D01*
X147819240Y-72739717D01*
X147679365Y-72666304D01*
X147679361Y-72666302D01*
X147525987Y-72628500D01*
X147525985Y-72628500D01*
X147368015Y-72628500D01*
X147368012Y-72628500D01*
X147214638Y-72666302D01*
X147214634Y-72666304D01*
X147074759Y-72739717D01*
X146956518Y-72844468D01*
X146956516Y-72844470D01*
X146866783Y-72974470D01*
X146866782Y-72974473D01*
X146810761Y-73122184D01*
X146791722Y-73278996D01*
X146791722Y-73279003D01*
X130702430Y-73279003D01*
X130755220Y-73202523D01*
X130811237Y-73054818D01*
X130811237Y-73054817D01*
X130811238Y-73054815D01*
X130830278Y-72898003D01*
X130830278Y-72897996D01*
X130811238Y-72741184D01*
X130803392Y-72720498D01*
X130755220Y-72593477D01*
X130755216Y-72593472D01*
X130755216Y-72593470D01*
X130665483Y-72463470D01*
X130665481Y-72463468D01*
X130547240Y-72358717D01*
X130407365Y-72285304D01*
X130407361Y-72285302D01*
X130253987Y-72247500D01*
X130253985Y-72247500D01*
X130096015Y-72247500D01*
X130096012Y-72247500D01*
X129942638Y-72285302D01*
X129942634Y-72285304D01*
X129802759Y-72358717D01*
X129750552Y-72404968D01*
X129686299Y-72435167D01*
X129615918Y-72425835D01*
X129583448Y-72404968D01*
X129531240Y-72358717D01*
X129391365Y-72285304D01*
X129391361Y-72285302D01*
X129237987Y-72247500D01*
X129237985Y-72247500D01*
X129080015Y-72247500D01*
X129080012Y-72247500D01*
X128926638Y-72285302D01*
X128926634Y-72285304D01*
X128786759Y-72358717D01*
X128734552Y-72404968D01*
X128670299Y-72435167D01*
X128599918Y-72425835D01*
X128567448Y-72404968D01*
X128515240Y-72358717D01*
X128375365Y-72285304D01*
X128375361Y-72285302D01*
X128221987Y-72247500D01*
X128221985Y-72247500D01*
X128064015Y-72247500D01*
X128064012Y-72247500D01*
X127910638Y-72285302D01*
X127910634Y-72285304D01*
X127770759Y-72358717D01*
X127652518Y-72463468D01*
X127652516Y-72463470D01*
X127562783Y-72593470D01*
X127562782Y-72593473D01*
X127506761Y-72741184D01*
X127487722Y-72897996D01*
X127487722Y-72898003D01*
X126465300Y-72898003D01*
X126465300Y-70866000D01*
X127353371Y-70866000D01*
X127373044Y-71078311D01*
X127431393Y-71283384D01*
X127431394Y-71283386D01*
X127431395Y-71283389D01*
X127526434Y-71474255D01*
X127620022Y-71598184D01*
X127654929Y-71644408D01*
X127812499Y-71788053D01*
X127812501Y-71788054D01*
X127993774Y-71900294D01*
X127993775Y-71900294D01*
X127993781Y-71900298D01*
X128192602Y-71977321D01*
X128402190Y-72016500D01*
X128402193Y-72016500D01*
X128615407Y-72016500D01*
X128615410Y-72016500D01*
X128824998Y-71977321D01*
X129023819Y-71900298D01*
X129205102Y-71788052D01*
X129241355Y-71755003D01*
X132059722Y-71755003D01*
X132078761Y-71911815D01*
X132103605Y-71977321D01*
X132134780Y-72059523D01*
X132134781Y-72059525D01*
X132134782Y-72059526D01*
X132134783Y-72059529D01*
X132224516Y-72189529D01*
X132224517Y-72189530D01*
X132342760Y-72294283D01*
X132482635Y-72367696D01*
X132482636Y-72367696D01*
X132482638Y-72367697D01*
X132559325Y-72386598D01*
X132636015Y-72405500D01*
X132636017Y-72405500D01*
X132793983Y-72405500D01*
X132793985Y-72405500D01*
X132856872Y-72390000D01*
X137085867Y-72390000D01*
X137104303Y-72518226D01*
X137158118Y-72636063D01*
X137242951Y-72733967D01*
X137351931Y-72804004D01*
X137476228Y-72840500D01*
X137476232Y-72840500D01*
X137605768Y-72840500D01*
X137605772Y-72840500D01*
X137730069Y-72804004D01*
X137839049Y-72733967D01*
X137923882Y-72636063D01*
X137977697Y-72518226D01*
X137996133Y-72390000D01*
X137977697Y-72261774D01*
X137923882Y-72143937D01*
X137839049Y-72046033D01*
X137839048Y-72046032D01*
X137730073Y-71975998D01*
X137730070Y-71975996D01*
X137730069Y-71975996D01*
X137730066Y-71975995D01*
X137605776Y-71939501D01*
X137605774Y-71939500D01*
X137605772Y-71939500D01*
X137476228Y-71939500D01*
X137476225Y-71939500D01*
X137476223Y-71939501D01*
X137351933Y-71975995D01*
X137351926Y-71975998D01*
X137242951Y-72046032D01*
X137158118Y-72143937D01*
X137104303Y-72261774D01*
X137085867Y-72390000D01*
X132856872Y-72390000D01*
X132947365Y-72367696D01*
X133087240Y-72294283D01*
X133205483Y-72189530D01*
X133295220Y-72059523D01*
X133351237Y-71911818D01*
X133351237Y-71911817D01*
X133351238Y-71911815D01*
X133370278Y-71755003D01*
X133370278Y-71754996D01*
X133351238Y-71598184D01*
X133343392Y-71577498D01*
X133295220Y-71450477D01*
X133295216Y-71450472D01*
X133295216Y-71450470D01*
X133205483Y-71320470D01*
X133205481Y-71320468D01*
X133087240Y-71215717D01*
X132947365Y-71142304D01*
X132947361Y-71142302D01*
X132793987Y-71104500D01*
X132793985Y-71104500D01*
X132636015Y-71104500D01*
X132636012Y-71104500D01*
X132482638Y-71142302D01*
X132482634Y-71142304D01*
X132342759Y-71215717D01*
X132224518Y-71320468D01*
X132224516Y-71320470D01*
X132134783Y-71450470D01*
X132134782Y-71450473D01*
X132078761Y-71598184D01*
X132059722Y-71754996D01*
X132059722Y-71755003D01*
X129241355Y-71755003D01*
X129362672Y-71644407D01*
X129491166Y-71474255D01*
X129586205Y-71283389D01*
X129644556Y-71078310D01*
X129664229Y-70866000D01*
X129644556Y-70653690D01*
X129586205Y-70448611D01*
X129548439Y-70372766D01*
X151694500Y-70372766D01*
X151723209Y-70479911D01*
X151733718Y-70519132D01*
X151733721Y-70519139D01*
X151809482Y-70650361D01*
X151809490Y-70650371D01*
X151916628Y-70757509D01*
X151916633Y-70757513D01*
X151916635Y-70757515D01*
X152047865Y-70833281D01*
X152194234Y-70872500D01*
X152194236Y-70872500D01*
X152345764Y-70872500D01*
X152345766Y-70872500D01*
X152492135Y-70833281D01*
X152623365Y-70757515D01*
X152730515Y-70650365D01*
X152806281Y-70519135D01*
X152845500Y-70372766D01*
X157474500Y-70372766D01*
X157503209Y-70479911D01*
X157513718Y-70519132D01*
X157513721Y-70519139D01*
X157589482Y-70650361D01*
X157589490Y-70650371D01*
X157696628Y-70757509D01*
X157696633Y-70757513D01*
X157696635Y-70757515D01*
X157827865Y-70833281D01*
X157974234Y-70872500D01*
X157974236Y-70872500D01*
X158125764Y-70872500D01*
X158125766Y-70872500D01*
X158272135Y-70833281D01*
X158403365Y-70757515D01*
X158510515Y-70650365D01*
X158586281Y-70519135D01*
X158625500Y-70372766D01*
X158625500Y-70221234D01*
X158586281Y-70074865D01*
X158510515Y-69943635D01*
X158510513Y-69943633D01*
X158510509Y-69943628D01*
X158403371Y-69836490D01*
X158403361Y-69836482D01*
X158272139Y-69760721D01*
X158272136Y-69760720D01*
X158272135Y-69760719D01*
X158272133Y-69760718D01*
X158272132Y-69760718D01*
X158232911Y-69750209D01*
X158125766Y-69721500D01*
X157974234Y-69721500D01*
X157895798Y-69742516D01*
X157827867Y-69760718D01*
X157827860Y-69760721D01*
X157696638Y-69836482D01*
X157696628Y-69836490D01*
X157589490Y-69943628D01*
X157589482Y-69943638D01*
X157513721Y-70074860D01*
X157513718Y-70074867D01*
X157488854Y-70167661D01*
X157474500Y-70221234D01*
X157474500Y-70372766D01*
X152845500Y-70372766D01*
X152845500Y-70221234D01*
X152806281Y-70074865D01*
X152730515Y-69943635D01*
X152730513Y-69943633D01*
X152730509Y-69943628D01*
X152623371Y-69836490D01*
X152623361Y-69836482D01*
X152492139Y-69760721D01*
X152492136Y-69760720D01*
X152492135Y-69760719D01*
X152492133Y-69760718D01*
X152492132Y-69760718D01*
X152452911Y-69750209D01*
X152345766Y-69721500D01*
X152194234Y-69721500D01*
X152115798Y-69742516D01*
X152047867Y-69760718D01*
X152047860Y-69760721D01*
X151916638Y-69836482D01*
X151916628Y-69836490D01*
X151809490Y-69943628D01*
X151809482Y-69943638D01*
X151733721Y-70074860D01*
X151733718Y-70074867D01*
X151708854Y-70167661D01*
X151694500Y-70221234D01*
X151694500Y-70372766D01*
X129548439Y-70372766D01*
X129491166Y-70257745D01*
X129362672Y-70087593D01*
X129348713Y-70074867D01*
X129205100Y-69943946D01*
X129205098Y-69943945D01*
X129023825Y-69831705D01*
X129023821Y-69831703D01*
X129023819Y-69831702D01*
X128902022Y-69784517D01*
X128824999Y-69754679D01*
X128772601Y-69744884D01*
X128615410Y-69715500D01*
X128402190Y-69715500D01*
X128276437Y-69739007D01*
X128192600Y-69754679D01*
X128038554Y-69814356D01*
X127993781Y-69831702D01*
X127993780Y-69831702D01*
X127993779Y-69831703D01*
X127993774Y-69831705D01*
X127812501Y-69943945D01*
X127812499Y-69943946D01*
X127654929Y-70087591D01*
X127568093Y-70202580D01*
X127526434Y-70257745D01*
X127469162Y-70372764D01*
X127431393Y-70448615D01*
X127373044Y-70653688D01*
X127353371Y-70866000D01*
X126465300Y-70866000D01*
X126465300Y-67564000D01*
X127757396Y-67564000D01*
X127777779Y-67822994D01*
X127838427Y-68075610D01*
X127937846Y-68315628D01*
X127944202Y-68326000D01*
X128073585Y-68537136D01*
X128073590Y-68537143D01*
X128242310Y-68734689D01*
X128439856Y-68903409D01*
X128439860Y-68903412D01*
X128661372Y-69039154D01*
X128901390Y-69138573D01*
X129154006Y-69199221D01*
X129413000Y-69219604D01*
X129671994Y-69199221D01*
X129924610Y-69138573D01*
X130164628Y-69039154D01*
X130386140Y-68903412D01*
X130583689Y-68734689D01*
X130752412Y-68537140D01*
X130881798Y-68326000D01*
X137593867Y-68326000D01*
X137612303Y-68454226D01*
X137666118Y-68572063D01*
X137750951Y-68669967D01*
X137851660Y-68734689D01*
X137859931Y-68740004D01*
X137984228Y-68776500D01*
X137984237Y-68776500D01*
X137993149Y-68777782D01*
X137992914Y-68779416D01*
X138051103Y-68796502D01*
X138097596Y-68850158D01*
X138107699Y-68920430D01*
X138101867Y-68961000D01*
X138120303Y-69089226D01*
X138174118Y-69207063D01*
X138258951Y-69304967D01*
X138367931Y-69375004D01*
X138492228Y-69411500D01*
X138492232Y-69411500D01*
X138621768Y-69411500D01*
X138621772Y-69411500D01*
X138746069Y-69375004D01*
X138855049Y-69304967D01*
X138939882Y-69207063D01*
X138993697Y-69089226D01*
X139012133Y-68961000D01*
X138993697Y-68832774D01*
X138939882Y-68714937D01*
X138855049Y-68617033D01*
X138855048Y-68617032D01*
X138746073Y-68546998D01*
X138746070Y-68546996D01*
X138746069Y-68546996D01*
X138712502Y-68537140D01*
X138621776Y-68510501D01*
X138621774Y-68510500D01*
X138621772Y-68510500D01*
X138621769Y-68510500D01*
X138612851Y-68509218D01*
X138613085Y-68507583D01*
X138554897Y-68490498D01*
X138508404Y-68436842D01*
X138498300Y-68366569D01*
X138499388Y-68359001D01*
X138504133Y-68326000D01*
X138485697Y-68197774D01*
X138431882Y-68079937D01*
X138347049Y-67982033D01*
X138347048Y-67982032D01*
X138238073Y-67911998D01*
X138238070Y-67911996D01*
X138238069Y-67911996D01*
X138238066Y-67911995D01*
X138113776Y-67875501D01*
X138113774Y-67875500D01*
X138113772Y-67875500D01*
X137984228Y-67875500D01*
X137984225Y-67875500D01*
X137984223Y-67875501D01*
X137859933Y-67911995D01*
X137859926Y-67911998D01*
X137750951Y-67982032D01*
X137679873Y-68064063D01*
X137666118Y-68079937D01*
X137612303Y-68197774D01*
X137593867Y-68326000D01*
X130881798Y-68326000D01*
X130888154Y-68315628D01*
X130987573Y-68075610D01*
X131048221Y-67822994D01*
X131068604Y-67564000D01*
X131048221Y-67305006D01*
X130988440Y-67056000D01*
X145340867Y-67056000D01*
X145359303Y-67184226D01*
X145413118Y-67302063D01*
X145497951Y-67399967D01*
X145606931Y-67470004D01*
X145731228Y-67506500D01*
X145731232Y-67506500D01*
X145754942Y-67506500D01*
X145823063Y-67526502D01*
X145869556Y-67580158D01*
X145879660Y-67650432D01*
X145869555Y-67684840D01*
X145868358Y-67687462D01*
X145867303Y-67689773D01*
X145861802Y-67728032D01*
X145848867Y-67818000D01*
X145867303Y-67946226D01*
X145921118Y-68064063D01*
X146005951Y-68161967D01*
X146114931Y-68232004D01*
X146239228Y-68268500D01*
X146239232Y-68268500D01*
X146368768Y-68268500D01*
X146368772Y-68268500D01*
X146493069Y-68232004D01*
X146602049Y-68161967D01*
X146680005Y-68072000D01*
X147118867Y-68072000D01*
X147137303Y-68200226D01*
X147191118Y-68318063D01*
X147275951Y-68415967D01*
X147384931Y-68486004D01*
X147509228Y-68522500D01*
X147509232Y-68522500D01*
X147638768Y-68522500D01*
X147638772Y-68522500D01*
X147763069Y-68486004D01*
X147872049Y-68415967D01*
X147956882Y-68318063D01*
X148010697Y-68200226D01*
X148029133Y-68072000D01*
X148010873Y-67945000D01*
X148642867Y-67945000D01*
X148661303Y-68073226D01*
X148715118Y-68191063D01*
X148782215Y-68268498D01*
X148799951Y-68288967D01*
X148857575Y-68326000D01*
X148908931Y-68359004D01*
X149033228Y-68395500D01*
X149033232Y-68395500D01*
X149162768Y-68395500D01*
X149162772Y-68395500D01*
X149287069Y-68359004D01*
X149396049Y-68288967D01*
X149480882Y-68191063D01*
X149534697Y-68073226D01*
X149553133Y-67945000D01*
X149534697Y-67816774D01*
X149480882Y-67698937D01*
X149396049Y-67601033D01*
X149396048Y-67601032D01*
X149338425Y-67564000D01*
X164587396Y-67564000D01*
X164607779Y-67822994D01*
X164668427Y-68075610D01*
X164767846Y-68315628D01*
X164774202Y-68326000D01*
X164903585Y-68537136D01*
X164903590Y-68537143D01*
X165072310Y-68734689D01*
X165269856Y-68903409D01*
X165269860Y-68903412D01*
X165491372Y-69039154D01*
X165731390Y-69138573D01*
X165984006Y-69199221D01*
X166243000Y-69219604D01*
X166501994Y-69199221D01*
X166754610Y-69138573D01*
X166994628Y-69039154D01*
X167216140Y-68903412D01*
X167413689Y-68734689D01*
X167582412Y-68537140D01*
X167718154Y-68315628D01*
X167817573Y-68075610D01*
X167878221Y-67822994D01*
X167898604Y-67564000D01*
X167878221Y-67305006D01*
X167817573Y-67052390D01*
X167718154Y-66812372D01*
X167582412Y-66590860D01*
X167582409Y-66590856D01*
X167413689Y-66393310D01*
X167216143Y-66224590D01*
X167216136Y-66224585D01*
X167086260Y-66144998D01*
X166994628Y-66088846D01*
X166754610Y-65989427D01*
X166501994Y-65928779D01*
X166243000Y-65908396D01*
X165984006Y-65928779D01*
X165731389Y-65989427D01*
X165491370Y-66088847D01*
X165269863Y-66224585D01*
X165269856Y-66224590D01*
X165072310Y-66393310D01*
X164903590Y-66590856D01*
X164903585Y-66590863D01*
X164829333Y-66712033D01*
X164767846Y-66812372D01*
X164668427Y-67052390D01*
X164607779Y-67305006D01*
X164587396Y-67564000D01*
X149338425Y-67564000D01*
X149287073Y-67530998D01*
X149287070Y-67530996D01*
X149287069Y-67530996D01*
X149287066Y-67530995D01*
X149162776Y-67494501D01*
X149162774Y-67494500D01*
X149162772Y-67494500D01*
X149033228Y-67494500D01*
X149033225Y-67494500D01*
X149033223Y-67494501D01*
X148908933Y-67530995D01*
X148908926Y-67530998D01*
X148799951Y-67601032D01*
X148723058Y-67689774D01*
X148715118Y-67698937D01*
X148661303Y-67816774D01*
X148642867Y-67945000D01*
X148010873Y-67945000D01*
X148010697Y-67943774D01*
X147956882Y-67825937D01*
X147872049Y-67728033D01*
X147872048Y-67728032D01*
X147763073Y-67657998D01*
X147763070Y-67657996D01*
X147763069Y-67657996D01*
X147737308Y-67650432D01*
X147638776Y-67621501D01*
X147638774Y-67621500D01*
X147638772Y-67621500D01*
X147509228Y-67621500D01*
X147509225Y-67621500D01*
X147509223Y-67621501D01*
X147384933Y-67657995D01*
X147384926Y-67657998D01*
X147275951Y-67728032D01*
X147199058Y-67816774D01*
X147191118Y-67825937D01*
X147137303Y-67943774D01*
X147118867Y-68072000D01*
X146680005Y-68072000D01*
X146686882Y-68064063D01*
X146740697Y-67946226D01*
X146759133Y-67818000D01*
X146740697Y-67689774D01*
X146686882Y-67571937D01*
X146602049Y-67474033D01*
X146602048Y-67474032D01*
X146493073Y-67403998D01*
X146493070Y-67403996D01*
X146493069Y-67403996D01*
X146493066Y-67403995D01*
X146368776Y-67367501D01*
X146368774Y-67367500D01*
X146368772Y-67367500D01*
X146345058Y-67367500D01*
X146276937Y-67347498D01*
X146230444Y-67293842D01*
X146220340Y-67223568D01*
X146230444Y-67189159D01*
X146232697Y-67184226D01*
X146251133Y-67056000D01*
X146232697Y-66927774D01*
X146178882Y-66809937D01*
X146094049Y-66712033D01*
X146094048Y-66712032D01*
X145985073Y-66641998D01*
X145985070Y-66641996D01*
X145985069Y-66641996D01*
X145985066Y-66641995D01*
X145860776Y-66605501D01*
X145860774Y-66605500D01*
X145860772Y-66605500D01*
X145731228Y-66605500D01*
X145731225Y-66605500D01*
X145731223Y-66605501D01*
X145606933Y-66641995D01*
X145606926Y-66641998D01*
X145497951Y-66712032D01*
X145413118Y-66809937D01*
X145359303Y-66927774D01*
X145340867Y-67056000D01*
X130988440Y-67056000D01*
X130987573Y-67052390D01*
X130888154Y-66812372D01*
X130752412Y-66590860D01*
X130752409Y-66590856D01*
X130583689Y-66393310D01*
X130386143Y-66224590D01*
X130386136Y-66224585D01*
X130256260Y-66144998D01*
X130164628Y-66088846D01*
X129924610Y-65989427D01*
X129671994Y-65928779D01*
X129471500Y-65913000D01*
X144578867Y-65913000D01*
X144597303Y-66041226D01*
X144651118Y-66159063D01*
X144735951Y-66256967D01*
X144844931Y-66327004D01*
X144969228Y-66363500D01*
X144969232Y-66363500D01*
X145098768Y-66363500D01*
X145098772Y-66363500D01*
X145223069Y-66327004D01*
X145332049Y-66256967D01*
X145416882Y-66159063D01*
X145470697Y-66041226D01*
X145489133Y-65913000D01*
X145470697Y-65784774D01*
X145416882Y-65666937D01*
X145332049Y-65569033D01*
X145332048Y-65569032D01*
X145223073Y-65498998D01*
X145223070Y-65498996D01*
X145223069Y-65498996D01*
X145223066Y-65498995D01*
X145098776Y-65462501D01*
X145098774Y-65462500D01*
X145098772Y-65462500D01*
X144969228Y-65462500D01*
X144969225Y-65462500D01*
X144969223Y-65462501D01*
X144844933Y-65498995D01*
X144844926Y-65498998D01*
X144735951Y-65569032D01*
X144655022Y-65662432D01*
X144651118Y-65666937D01*
X144597303Y-65784774D01*
X144578867Y-65913000D01*
X129471500Y-65913000D01*
X129413000Y-65908396D01*
X129154006Y-65928779D01*
X128901389Y-65989427D01*
X128661370Y-66088847D01*
X128439863Y-66224585D01*
X128439856Y-66224590D01*
X128242310Y-66393310D01*
X128073590Y-66590856D01*
X128073585Y-66590863D01*
X127999333Y-66712033D01*
X127937846Y-66812372D01*
X127838427Y-67052390D01*
X127777779Y-67305006D01*
X127757396Y-67564000D01*
X126465300Y-67564000D01*
X126465300Y-65934334D01*
X126465570Y-65926094D01*
X126473936Y-65798438D01*
X126481779Y-65678760D01*
X126483927Y-65662446D01*
X126531478Y-65423381D01*
X126535743Y-65407468D01*
X126578140Y-65282570D01*
X126614084Y-65176679D01*
X126620390Y-65161455D01*
X126728185Y-64942865D01*
X126736426Y-64928592D01*
X126871832Y-64725941D01*
X126881859Y-64712872D01*
X127042567Y-64529617D01*
X127054200Y-64517983D01*
X127237470Y-64357259D01*
X127250521Y-64347245D01*
X127453185Y-64211829D01*
X127467441Y-64203597D01*
X127686052Y-64095789D01*
X127701259Y-64089491D01*
X127932068Y-64011141D01*
X127947965Y-64006882D01*
X128187030Y-63959329D01*
X128203347Y-63957181D01*
X128450467Y-63940984D01*
X128458708Y-63940714D01*
X167558678Y-63940714D01*
X167566918Y-63940984D01*
G37*
%TD.AperFunction*%
%TD*%
M02*
