M48
; DRILL file {KiCad 8.0.1-8.0.1-1~ubuntu22.04.1} date 2024-06-15T20:16:41+1000
; FORMAT={-:-/ absolute / inch / decimal}
; #@! TF.CreationDate,2024-06-15T20:16:41+10:00
; #@! TF.GenerationSoftware,Kicad,Pcbnew,8.0.1-8.0.1-1~ubuntu22.04.1
; #@! TF.FileFunction,Plated,1,4,PTH
FMAT,2
INCH
; #@! TA.AperFunction,Plated,PTH,ViaDrill
T1C0.0118
; #@! TA.AperFunction,Plated,PTH,ComponentDrill
T2C0.0138
; #@! TA.AperFunction,Plated,PTH,ViaDrill
T3C0.0157
; #@! TA.AperFunction,Plated,PTH,ViaDrill
T4C0.0197
; #@! TA.AperFunction,Plated,PTH,ComponentDrill
T5C0.0236
; #@! TA.AperFunction,Plated,PTH,ComponentDrill
T6C0.0276
; #@! TA.AperFunction,Plated,PTH,ComponentDrill
T7C0.0315
; #@! TA.AperFunction,Plated,PTH,ComponentDrill
T8C0.0394
; #@! TA.AperFunction,Plated,PTH,ComponentDrill
T9C0.0591
; #@! TA.AperFunction,Plated,PTH,ComponentDrill
T10C0.0945
%
G90
G05
T1
X5.004Y-3.195
X5.005Y-3.345
X5.022Y-2.722
X5.034Y-3.572
X5.035Y-3.27
X5.035Y-3.81
X5.05Y-3.9
X5.08Y-3.582
X5.105Y-3.265
X5.105Y-3.84
X5.142Y-3.522
X5.144Y-3.642
X5.1455Y-3.2001
X5.155Y-3.335
X5.155Y-3.375
X5.155Y-3.415
X5.17Y-2.748
X5.1919Y-3.1274
X5.21Y-3.035
X5.21Y-3.35
X5.22Y-3.885
X5.24Y-3.035
X5.2535Y-3.1274
X5.27Y-3.035
X5.275Y-3.26
X5.295Y-2.9574
X5.315Y-3.19
X5.32Y-3.345
X5.32Y-3.89
X5.345Y-3.2
X5.35Y-2.86
X5.35Y-2.915
X5.355Y-2.985
X5.375Y-2.9574
X5.38Y-2.57
X5.385Y-3.56
X5.39Y-3.1287
X5.39Y-3.344
X5.39Y-3.46
X5.41Y-3.18
X5.41Y-3.22
X5.415Y-2.62
X5.415Y-2.85
X5.415Y-3.344
X5.425Y-3.13
X5.425Y-3.845
X5.435Y-2.69
X5.44Y-3.7
X5.455Y-2.715
X5.455Y-2.915
X5.46Y-2.99
X5.465Y-3.81
X5.53Y-3.045
X5.535Y-2.6
X5.535Y-2.765
X5.535Y-3.595
X5.57Y-3.53
X5.575Y-3.375
X5.575Y-3.66
X5.575Y-3.805
X5.575Y-3.895
X5.585Y-3.06
X5.615Y-3.13
X5.625Y-3.19
X5.645Y-3.31
X5.658Y-3.62
X5.66Y-3.582
X5.665Y-3.135
X5.675Y-3.53
X5.685Y-3.205
X5.6935Y-3.7574
X5.695Y-2.765
X5.705Y-3.6
X5.71Y-2.595
X5.72Y-3.4771
X5.725Y-3.185
X5.7385Y-3.5974
X5.7385Y-3.6774
X5.74Y-2.64
X5.745Y-2.98
X5.745Y-3.36
X5.755Y-3.05
X5.76Y-2.67
X5.76Y-3.91
X5.7735Y-3.34
X5.785Y-3.71
X5.795Y-2.9841
X5.8Y-3.43
X5.805Y-2.54
X5.805Y-3.825
X5.808Y-3.62
X5.81Y-2.68
X5.825Y-2.96
X5.825Y-3.075
X5.825Y-3.675
X5.828Y-3.76
X5.8335Y-3.2594
X5.845Y-2.54
X5.85Y-3.39
X5.85Y-3.42
X5.85Y-3.505
X5.855Y-2.9641
X5.86Y-2.9
X5.87Y-2.675
X5.875Y-3.655
X5.875Y-3.695
X5.8785Y-3.5624
X5.885Y-3.04
X5.8885Y-3.1524
X5.8935Y-3.2924
X5.9Y-2.935
X5.915Y-3.93
X5.925Y-2.99
X5.925Y-3.035
X5.925Y-3.425
X5.9285Y-3.1524
X5.93Y-3.455
X5.94Y-3.12
X5.955Y-3.6
X5.97Y-3.05
X5.98Y-2.955
X5.98Y-3.6
X5.98Y-3.69
X5.9814Y-2.8588
X5.995Y-3.1186
X6.0Y-2.604
X6.0Y-3.84
X6.01Y-3.05
X6.015Y-2.94
X6.02Y-3.73
X6.055Y-3.695
X6.065Y-2.765
X6.065Y-3.66
X6.0685Y-3.1524
X6.095Y-3.66
X6.1Y-3.07
X6.115Y-3.635
X6.122Y-2.6
X6.1285Y-3.1774
X6.145Y-3.685
X6.15Y-2.765
X6.1535Y-3.1424
X6.178Y-2.55
X6.1783Y-2.92
X6.18Y-3.56
X6.18Y-3.895
X6.215Y-3.165
X6.22Y-3.66
X6.25Y-2.86
X6.25Y-3.095
X6.265Y-2.9
X6.265Y-3.195
X6.27Y-3.52
X6.27Y-3.965
X6.275Y-3.425
X6.285Y-2.855
X6.29Y-3.75
X6.295Y-3.29
X6.295Y-3.845
X6.3Y-2.564
X6.3Y-3.515
X6.3Y-3.69
X6.315Y-3.125
X6.34Y-3.785
X6.35Y-3.125
X6.355Y-2.9
X6.355Y-3.445
X6.385Y-3.125
X6.385Y-3.855
X6.42Y-3.22
X6.425Y-2.725
X6.43Y-3.45
X6.435Y-2.9
X6.465Y-2.835
X6.48Y-3.585
X6.48Y-3.655
X6.4922Y-3.3617
X6.495Y-3.3
X6.5Y-2.945
X6.51Y-3.255
X6.532Y-3.41
X6.54Y-3.0704
X6.5455Y-3.1351
X6.575Y-2.815
X6.586Y-3.494
X6.59Y-3.65
X6.6Y-2.94
X6.615Y-3.775
X6.635Y-3.87
T2
X5.978Y-3.3701
X5.978Y-3.4203
X5.978Y-3.4705
X6.0282Y-3.3701
X6.0282Y-3.4203
X6.0282Y-3.4705
X6.0784Y-3.3701
X6.0784Y-3.4203
X6.0784Y-3.4705
T3
X6.215Y-3.26
X6.225Y-2.915
X6.295Y-3.22
X6.33Y-3.26
T4
X5.045Y-2.87
X5.085Y-2.87
X5.125Y-2.87
X5.195Y-3.51
X5.215Y-3.765
X5.225Y-2.825
X5.225Y-3.51
X5.25Y-3.795
X5.39Y-3.3
X5.39Y-3.385
X5.42Y-3.09
X5.59Y-2.99
X5.805Y-2.885
T6
X5.142Y-3.586
X5.228Y-2.612
X5.42Y-3.62
X6.616Y-3.499
T7
X5.485Y-3.2513
X5.485Y-3.33
X5.485Y-3.4087
X5.675Y-3.2706
X5.675Y-3.3494
T8
X5.0594Y-2.79
X5.06Y-3.48
X5.295Y-3.62
X6.4256Y-3.611
X6.495Y-3.485
X6.5256Y-3.611
X6.595Y-3.075
X6.595Y-3.175
X6.595Y-3.275
X6.595Y-3.375
X6.6256Y-3.611
T9
X5.485Y-3.1686
X5.485Y-3.4914
T10
X5.065Y-3.7
X5.095Y-2.66
X6.545Y-2.66
T5
G00X5.9386Y-2.6357
M15
G01X5.9386Y-2.6121
M16
G05
G00X5.9386Y-2.8101
M15
G01X5.9386Y-2.7668
M16
G05
G00X6.2787Y-2.6357
M15
G01X6.2787Y-2.6121
M16
G05
G00X6.2787Y-2.8101
M15
G01X6.2787Y-2.7668
M16
G05
M30
