%TF.GenerationSoftware,KiCad,Pcbnew,8.0.1-8.0.1-1~ubuntu22.04.1*%
%TF.CreationDate,2024-06-04T22:30:17+10:00*%
%TF.ProjectId,Machine-Controller,4d616368-696e-4652-9d43-6f6e74726f6c,rev?*%
%TF.SameCoordinates,Original*%
%TF.FileFunction,Copper,L4,Bot*%
%TF.FilePolarity,Positive*%
%FSLAX46Y46*%
G04 Gerber Fmt 4.6, Leading zero omitted, Abs format (unit mm)*
G04 Created by KiCad (PCBNEW 8.0.1-8.0.1-1~ubuntu22.04.1) date 2024-06-04 22:30:17*
%MOMM*%
%LPD*%
G01*
G04 APERTURE LIST*
G04 Aperture macros list*
%AMRoundRect*
0 Rectangle with rounded corners*
0 $1 Rounding radius*
0 $2 $3 $4 $5 $6 $7 $8 $9 X,Y pos of 4 corners*
0 Add a 4 corners polygon primitive as box body*
4,1,4,$2,$3,$4,$5,$6,$7,$8,$9,$2,$3,0*
0 Add four circle primitives for the rounded corners*
1,1,$1+$1,$2,$3*
1,1,$1+$1,$4,$5*
1,1,$1+$1,$6,$7*
1,1,$1+$1,$8,$9*
0 Add four rect primitives between the rounded corners*
20,1,$1+$1,$2,$3,$4,$5,0*
20,1,$1+$1,$4,$5,$6,$7,0*
20,1,$1+$1,$6,$7,$8,$9,0*
20,1,$1+$1,$8,$9,$2,$3,0*%
G04 Aperture macros list end*
%TA.AperFunction,ComponentPad*%
%ADD10C,2.000000*%
%TD*%
%TA.AperFunction,ComponentPad*%
%ADD11R,1.500000X1.500000*%
%TD*%
%TA.AperFunction,ComponentPad*%
%ADD12C,3.000000*%
%TD*%
%TA.AperFunction,ComponentPad*%
%ADD13R,1.700000X1.700000*%
%TD*%
%TA.AperFunction,ComponentPad*%
%ADD14O,1.700000X1.700000*%
%TD*%
%TA.AperFunction,ComponentPad*%
%ADD15C,0.600000*%
%TD*%
%TA.AperFunction,ComponentPad*%
%ADD16O,2.500000X2.000000*%
%TD*%
%TA.AperFunction,ComponentPad*%
%ADD17RoundRect,0.375000X-0.875000X0.375000X-0.875000X-0.375000X0.875000X-0.375000X0.875000X0.375000X0*%
%TD*%
%TA.AperFunction,ComponentPad*%
%ADD18O,2.500000X1.500000*%
%TD*%
%TA.AperFunction,ComponentPad*%
%ADD19O,1.000000X2.100000*%
%TD*%
%TA.AperFunction,ComponentPad*%
%ADD20O,1.000000X1.600000*%
%TD*%
%TA.AperFunction,ComponentPad*%
%ADD21R,1.350000X1.350000*%
%TD*%
%TA.AperFunction,ComponentPad*%
%ADD22O,1.350000X1.350000*%
%TD*%
%TA.AperFunction,SMDPad,CuDef*%
%ADD23RoundRect,0.200000X0.200000X0.275000X-0.200000X0.275000X-0.200000X-0.275000X0.200000X-0.275000X0*%
%TD*%
%TA.AperFunction,SMDPad,CuDef*%
%ADD24RoundRect,0.200000X-0.275000X0.200000X-0.275000X-0.200000X0.275000X-0.200000X0.275000X0.200000X0*%
%TD*%
%TA.AperFunction,SMDPad,CuDef*%
%ADD25RoundRect,0.200000X0.275000X-0.200000X0.275000X0.200000X-0.275000X0.200000X-0.275000X-0.200000X0*%
%TD*%
%TA.AperFunction,SMDPad,CuDef*%
%ADD26RoundRect,0.150000X-0.150000X-0.625000X0.150000X-0.625000X0.150000X0.625000X-0.150000X0.625000X0*%
%TD*%
%TA.AperFunction,SMDPad,CuDef*%
%ADD27RoundRect,0.250000X-0.350000X-0.650000X0.350000X-0.650000X0.350000X0.650000X-0.350000X0.650000X0*%
%TD*%
%TA.AperFunction,SMDPad,CuDef*%
%ADD28RoundRect,0.150000X-0.512500X-0.150000X0.512500X-0.150000X0.512500X0.150000X-0.512500X0.150000X0*%
%TD*%
%TA.AperFunction,ViaPad*%
%ADD29C,0.600000*%
%TD*%
%TA.AperFunction,ViaPad*%
%ADD30C,0.800000*%
%TD*%
%TA.AperFunction,ViaPad*%
%ADD31C,1.000000*%
%TD*%
%TA.AperFunction,Conductor*%
%ADD32C,0.500000*%
%TD*%
%TA.AperFunction,Conductor*%
%ADD33C,0.200000*%
%TD*%
%TA.AperFunction,Conductor*%
%ADD34C,0.300000*%
%TD*%
G04 APERTURE END LIST*
D10*
%TO.P,TP4,1,1*%
%TO.N,+3.3V*%
X164973000Y-88519000D03*
%TD*%
D11*
%TO.P,TP8,1,1*%
%TO.N,GND*%
X132918200Y-67614800D03*
%TD*%
D10*
%TO.P,TP6,1,1*%
%TO.N,VBUS*%
X128508800Y-70866000D03*
%TD*%
D12*
%TO.P,H1,1*%
%TO.N,N/C*%
X129413000Y-67564000D03*
%TD*%
D13*
%TO.P,Brd1,1,GND*%
%TO.N,GND*%
X167513000Y-78105000D03*
D14*
%TO.P,Brd1,2,VCC*%
%TO.N,+3.3V*%
X167513000Y-80645000D03*
%TO.P,Brd1,3,SCL*%
%TO.N,/SCL_1*%
X167513000Y-83185000D03*
%TO.P,Brd1,4,SDA*%
%TO.N,/SDA_1*%
X167513000Y-85725000D03*
%TD*%
D15*
%TO.P,U5,57,GND*%
%TO.N,GND*%
X151841300Y-85600000D03*
X151841300Y-86875000D03*
X151841300Y-88150000D03*
X153116300Y-85600000D03*
X153116300Y-86875000D03*
X153116300Y-88150000D03*
X154391300Y-85600000D03*
X154391300Y-86875000D03*
X154391300Y-88150000D03*
%TD*%
D16*
%TO.P,SW1,*%
%TO.N,*%
X139319000Y-80482000D03*
X139319000Y-88682000D03*
D17*
%TO.P,SW1,1,A*%
%TO.N,/24V*%
X139319000Y-82582000D03*
D18*
%TO.P,SW1,2,B*%
%TO.N,/FB*%
X139319000Y-84582000D03*
%TO.P,SW1,3,C*%
%TO.N,/18V*%
X139319000Y-86582000D03*
%TD*%
D12*
%TO.P,H3,1*%
%TO.N,N/C*%
X128651000Y-93980000D03*
%TD*%
D19*
%TO.P,J6,S1,SHIELD*%
%TO.N,GND*%
X159480000Y-70827000D03*
D20*
X159480000Y-66647000D03*
D19*
X150840000Y-70827000D03*
D20*
X150840000Y-66647000D03*
%TD*%
D10*
%TO.P,TP2,1,1*%
%TO.N,/V_{OUT}*%
X134493000Y-91948000D03*
%TD*%
D11*
%TO.P,TP9,1,1*%
%TO.N,GND*%
X168046400Y-88874600D03*
%TD*%
D12*
%TO.P,H2,1*%
%TO.N,N/C*%
X166243000Y-67564000D03*
%TD*%
D11*
%TO.P,TP5,1,1*%
%TO.N,GND*%
X137668000Y-91948000D03*
%TD*%
D21*
%TO.P,SW2,1,1*%
%TO.N,GND*%
X144145000Y-83074000D03*
D22*
%TO.P,SW2,2,2*%
%TO.N,/BOOT*%
X144145000Y-85074000D03*
%TD*%
D10*
%TO.P,TP1,1,1*%
%TO.N,/V_{S}*%
X128524000Y-88392000D03*
%TD*%
D11*
%TO.P,TP7,1,1*%
%TO.N,GND*%
X130606800Y-91084400D03*
%TD*%
D23*
%TO.P,R17,1*%
%TO.N,VBUS*%
X136016000Y-80010000D03*
%TO.P,R17,2*%
%TO.N,/V_{S}*%
X134366000Y-80010000D03*
%TD*%
D24*
%TO.P,R21,1*%
%TO.N,/SCL_0*%
X147193000Y-76518000D03*
%TO.P,R21,2*%
%TO.N,+3.3V*%
X147193000Y-78168000D03*
%TD*%
D25*
%TO.P,R18,1*%
%TO.N,Net-(D1-A)*%
X131826000Y-83248000D03*
%TO.P,R18,2*%
%TO.N,/V_{S}*%
X131826000Y-81598000D03*
%TD*%
D13*
%TO.P,J3,1,Pin_1*%
%TO.N,/TX*%
X163210000Y-91719000D03*
D14*
%TO.P,J3,2,Pin_2*%
%TO.N,GND*%
X165750000Y-91719000D03*
%TO.P,J3,3,Pin_3*%
%TO.N,/RX*%
X168290000Y-91719000D03*
%TD*%
D26*
%TO.P,J5,1,Pin_1*%
%TO.N,/SWC*%
X148987000Y-97608000D03*
%TO.P,J5,2,Pin_2*%
%TO.N,/SWD*%
X149987000Y-97608000D03*
%TO.P,J5,3,Pin_3*%
%TO.N,GND*%
X150987000Y-97608000D03*
D27*
%TO.P,J5,MP*%
%TO.N,N/C*%
X147687000Y-100133000D03*
X152287000Y-100133000D03*
%TD*%
D28*
%TO.P,D1,1,A*%
%TO.N,Net-(D1-A)*%
X133609500Y-83627000D03*
%TO.P,D1,2,NC*%
%TO.N,unconnected-(D1-NC-Pad2)*%
X133609500Y-81727000D03*
%TO.P,D1,3,K*%
%TO.N,VBUS*%
X135884500Y-82677000D03*
%TD*%
D24*
%TO.P,R20,1*%
%TO.N,/SDA_0*%
X148717000Y-76518000D03*
%TO.P,R20,2*%
%TO.N,+3.3V*%
X148717000Y-78168000D03*
%TD*%
D29*
%TO.N,GND*%
X154940000Y-77978000D03*
X127558800Y-69138800D03*
X161290000Y-79375000D03*
X164211000Y-72009000D03*
X138811000Y-96774000D03*
X135128000Y-98806000D03*
X147447000Y-97155000D03*
X156972000Y-90424000D03*
X154051000Y-70231000D03*
X151892000Y-75057000D03*
X133096000Y-77089000D03*
X136271000Y-70231000D03*
X157861000Y-80391000D03*
X136906000Y-84937600D03*
X165100000Y-74803000D03*
X160020000Y-93726000D03*
X130606800Y-89458800D03*
X141605000Y-92964000D03*
X141859000Y-77724000D03*
X137795000Y-97663000D03*
X152400000Y-97536000D03*
X147955000Y-75184000D03*
X140589000Y-91313000D03*
X158750000Y-72644000D03*
X163322000Y-87630000D03*
X128270000Y-99060000D03*
X156921200Y-64770000D03*
X166116000Y-77988200D03*
X163449000Y-73660000D03*
X159131000Y-73660000D03*
X129032000Y-90982800D03*
X143383000Y-84074000D03*
X130937000Y-85725000D03*
X141605000Y-96647000D03*
X152654000Y-77470000D03*
X141478000Y-89662000D03*
X148844000Y-73660000D03*
X150584800Y-80071000D03*
X136779000Y-90424000D03*
X138557000Y-70231000D03*
X166254777Y-79630500D03*
X163068000Y-81788000D03*
X159639000Y-72517000D03*
X159766000Y-95250000D03*
X147447000Y-64516000D03*
X139446000Y-73152000D03*
X142621000Y-79502000D03*
X149225000Y-93853000D03*
X130937000Y-86741000D03*
X167386000Y-92710000D03*
X159893000Y-97663000D03*
X136398000Y-71755000D03*
X160020000Y-65125600D03*
X133858000Y-77089000D03*
X150495000Y-77089000D03*
X149860000Y-74549000D03*
X164973000Y-83820000D03*
X133439800Y-79436000D03*
X137414000Y-81788000D03*
X127863600Y-90728800D03*
X144653000Y-70231000D03*
X156299800Y-79817000D03*
X146939000Y-94234000D03*
X150495000Y-75946000D03*
X156083000Y-93599000D03*
X137541000Y-84937600D03*
X144615800Y-95438000D03*
X159258000Y-100711000D03*
X162179000Y-79375000D03*
X148171800Y-82788800D03*
X137414000Y-80772000D03*
X132588000Y-98679000D03*
X141605000Y-98933000D03*
X155664800Y-80706000D03*
X138176000Y-93980000D03*
X151257000Y-91440000D03*
X145923000Y-75692000D03*
X143002000Y-72136000D03*
X140589000Y-70231000D03*
X130657600Y-92506800D03*
X159385000Y-86995000D03*
X143713200Y-91948000D03*
X136906000Y-87884000D03*
X159131000Y-81153000D03*
X127889000Y-96774000D03*
X159893000Y-83566000D03*
X147955000Y-93345000D03*
X149568800Y-80071000D03*
X130694777Y-81281500D03*
X143764000Y-90982800D03*
X165912800Y-86614000D03*
X140462000Y-77343000D03*
X151892000Y-91440000D03*
X143637000Y-73533000D03*
X144399000Y-81407000D03*
X135890000Y-72644000D03*
X168529000Y-98298000D03*
X155498800Y-66040000D03*
X132334000Y-85090000D03*
X161417000Y-73660000D03*
X137541000Y-66548000D03*
X157988000Y-92964000D03*
X148031200Y-95504000D03*
X168021000Y-95885000D03*
X164592000Y-91059000D03*
X150241000Y-99822000D03*
X163195000Y-69215000D03*
X162179000Y-97917000D03*
X149225000Y-92837000D03*
X129667000Y-82931000D03*
X131873470Y-79436998D03*
X127889000Y-83058000D03*
X167005000Y-71501000D03*
X148463000Y-64516000D03*
X167640000Y-74676000D03*
X129667000Y-97536000D03*
X143891000Y-79629000D03*
X151928000Y-72614000D03*
X154140800Y-80071000D03*
X131318000Y-69799200D03*
X127101600Y-81153000D03*
X141224000Y-73660000D03*
X127127000Y-84963000D03*
X132334000Y-77089000D03*
X136652000Y-65278000D03*
X135128000Y-84963000D03*
X145923000Y-85344000D03*
X152400000Y-66141600D03*
X146304000Y-99314000D03*
X141605000Y-85725000D03*
X135890000Y-74041000D03*
X140589000Y-66040000D03*
X147523200Y-91948000D03*
X130937000Y-84709000D03*
X161036000Y-96139000D03*
X164592000Y-92837000D03*
X151638000Y-77470000D03*
X136017000Y-75819000D03*
X133985000Y-82804000D03*
X156210000Y-70231000D03*
X152908000Y-94742000D03*
X167284400Y-88747600D03*
X149695800Y-83627000D03*
X135763000Y-81280000D03*
X137795000Y-79502000D03*
X156972000Y-98933000D03*
X160401000Y-79375000D03*
D30*
%TO.N,+3.3V*%
X157861000Y-82804000D03*
D29*
X165354000Y-82677000D03*
D30*
X159893000Y-81788000D03*
D29*
X147955000Y-78105000D03*
X144907000Y-91440000D03*
X147320000Y-87122000D03*
D30*
X160782000Y-82804000D03*
D29*
X151892000Y-93726000D03*
X152273000Y-79212500D03*
X145288000Y-88317605D03*
X161417000Y-87503000D03*
X145415000Y-80899000D03*
%TO.N,/V_{S}*%
X135001000Y-81026000D03*
D31*
%TO.N,/18V*%
X136906000Y-85979000D03*
D29*
%TO.N,+1V1*%
X158750000Y-78613000D03*
X153797000Y-93853000D03*
X150876000Y-79248000D03*
D31*
%TO.N,/FB*%
X137668000Y-78486000D03*
D29*
%TO.N,/RUN*%
X145758800Y-91374000D03*
X155321000Y-92329000D03*
X145758800Y-93406000D03*
%TO.N,/SWC*%
X154051000Y-92964000D03*
%TO.N,/SWD*%
X154813000Y-92964000D03*
%TO.N,/TX*%
X159258000Y-89408000D03*
%TO.N,/RX*%
X160020000Y-89281000D03*
%TO.N,/EN*%
X142875000Y-81026000D03*
X149314800Y-90485000D03*
%TO.N,/FLASH_CS*%
X144145000Y-89662000D03*
X146647800Y-84836000D03*
%TO.N,Net-(D4-K)*%
X134493000Y-75118000D03*
X136525000Y-75118000D03*
D31*
%TO.N,/24V*%
X136906000Y-83820000D03*
%TO.N,/V_{OUT}*%
X132715000Y-89154000D03*
X133350000Y-96393000D03*
X131953000Y-89154000D03*
X132461000Y-95631000D03*
D29*
%TO.N,/V_{G}*%
X138684000Y-75946000D03*
X136906000Y-79469103D03*
%TO.N,/SCL_1*%
X164901941Y-85386252D03*
X150622000Y-87757000D03*
%TO.N,/SDA_1*%
X150495000Y-86995000D03*
D30*
%TO.N,VBUS*%
X158115000Y-74041000D03*
D31*
X147447000Y-73279000D03*
D29*
X137287000Y-75819000D03*
D31*
X129159000Y-72898000D03*
X130175000Y-72898000D03*
X132715000Y-71755000D03*
X141986000Y-75946000D03*
X128143000Y-72898000D03*
D29*
%TO.N,/CC1*%
X138811000Y-68326000D03*
X156930000Y-74168000D03*
X149098000Y-67945000D03*
%TO.N,/CC2*%
X152781000Y-74676000D03*
X147574000Y-68072000D03*
X139446000Y-68961000D03*
%TO.N,/SDA_0*%
X146304000Y-67818000D03*
X148590000Y-86106000D03*
%TO.N,/SCL_0*%
X148590000Y-86868000D03*
X145796000Y-67056000D03*
%TO.N,/PD_INT*%
X145034000Y-65913000D03*
X148590000Y-89027000D03*
%TD*%
D32*
%TO.N,+3.3V*%
X147193000Y-78168000D02*
X147892000Y-78168000D01*
X148018000Y-78168000D02*
X148717000Y-78168000D01*
X147892000Y-78168000D02*
X147955000Y-78105000D01*
X147955000Y-78105000D02*
X148018000Y-78168000D01*
D33*
%TO.N,/V_{S}*%
X134366000Y-80010000D02*
X134366000Y-80592395D01*
X131826000Y-81598000D02*
X131826000Y-81205605D01*
X132259605Y-80772000D02*
X134327056Y-80772000D01*
X134799605Y-81026000D02*
X135001000Y-81026000D01*
X134366000Y-80592395D02*
G75*
G03*
X134492998Y-80899002I433600J-5D01*
G01*
X134327056Y-80772000D02*
G75*
G03*
X134393556Y-80744480I44J94000D01*
G01*
X131953001Y-80899001D02*
G75*
G02*
X132259605Y-80772003I306599J-306599D01*
G01*
X134493001Y-80898999D02*
G75*
G03*
X134799605Y-81025997I306599J306599D01*
G01*
X131826000Y-81205605D02*
G75*
G02*
X131952998Y-80898998I433600J5D01*
G01*
D34*
%TO.N,+1V1*%
X152870800Y-83701395D02*
X152870800Y-81722000D01*
X152908000Y-89916000D02*
X152908000Y-89460605D01*
X150302275Y-84116000D02*
X152483065Y-84116000D01*
X152511589Y-80854789D02*
X150925165Y-79268365D01*
X158750000Y-78613000D02*
X151309605Y-78613000D01*
X150876000Y-79046605D02*
X150876000Y-79248000D01*
X152908000Y-93419395D02*
X152908000Y-89916000D01*
X153797000Y-93853000D02*
X153341605Y-93853000D01*
X149822800Y-88527395D02*
X149822800Y-84568605D01*
X152312670Y-88960011D02*
X150199450Y-88960011D01*
X150199450Y-88960010D02*
G75*
G02*
X149949804Y-88833996I73150J455210D01*
G01*
X152743799Y-84007999D02*
G75*
G03*
X152870797Y-83701395I-306599J306599D01*
G01*
X152870800Y-81722000D02*
G75*
G03*
X152511585Y-80854793I-1226400J0D01*
G01*
X151003001Y-78740001D02*
G75*
G03*
X150876003Y-79046605I306599J-306599D01*
G01*
X152483065Y-84116000D02*
G75*
G03*
X152743810Y-84008010I35J368700D01*
G01*
X149822800Y-84568605D02*
G75*
G02*
X149949798Y-84261998I433600J5D01*
G01*
X152781000Y-89154000D02*
G75*
G03*
X152312670Y-88960024I-468300J-468300D01*
G01*
X153341605Y-93853000D02*
G75*
G02*
X153034998Y-93726002I-5J433600D01*
G01*
X152908000Y-89460605D02*
G75*
G03*
X152781002Y-89153998I-433600J5D01*
G01*
X149949801Y-88833999D02*
G75*
G02*
X149822803Y-88527395I306599J306599D01*
G01*
X153035001Y-93725999D02*
G75*
G02*
X152908003Y-93419395I306599J306599D01*
G01*
X151309605Y-78613000D02*
G75*
G03*
X151002998Y-78739998I-5J-433600D01*
G01*
X149949800Y-84262000D02*
G75*
G02*
X150302275Y-84115990I352500J-352500D01*
G01*
X150925165Y-79268365D02*
G75*
G03*
X150876000Y-79247992I-49165J-49135D01*
G01*
D33*
%TO.N,/RUN*%
X155448000Y-95504000D02*
X155448000Y-92635605D01*
X154940000Y-96266000D02*
X155268395Y-95937605D01*
X153945790Y-98679000D02*
X146663210Y-98679000D01*
X154775800Y-97901599D02*
X154775800Y-96662413D01*
X145758800Y-93283157D02*
X145758800Y-91374000D01*
X145758800Y-93283157D02*
X145758800Y-93406000D01*
X145758800Y-97721982D02*
X145758800Y-93406000D01*
X146663210Y-98679000D02*
G75*
G02*
X146049997Y-98425003I-10J867200D01*
G01*
X155268395Y-95937605D02*
G75*
G03*
X155448003Y-95504000I-433595J433605D01*
G01*
X154775800Y-97901599D02*
G75*
G02*
X154559000Y-98425000I-740200J-1D01*
G01*
X154775800Y-96662413D02*
G75*
G02*
X154939996Y-96265996I560600J13D01*
G01*
X146050000Y-98425000D02*
G75*
G02*
X145758808Y-97721982I703000J703000D01*
G01*
X154558999Y-98424999D02*
G75*
G02*
X153945790Y-98678995I-613199J613199D01*
G01*
X155448000Y-92635605D02*
G75*
G03*
X155321002Y-92328998I-433600J5D01*
G01*
%TO.N,/SWC*%
X154432000Y-93778605D02*
X154432000Y-95070395D01*
X148987000Y-96459582D02*
X148987000Y-97608000D01*
X154230605Y-93397605D02*
X154305000Y-93472000D01*
X153691790Y-95631000D02*
X149838210Y-95631000D01*
X154304999Y-95376999D02*
G75*
G02*
X153691790Y-95630995I-613199J613199D01*
G01*
X154432000Y-95070395D02*
G75*
G02*
X154305002Y-95377002I-433600J-5D01*
G01*
X154051000Y-92964000D02*
G75*
G03*
X154230607Y-93397603I613200J0D01*
G01*
X149225000Y-95885000D02*
G75*
G03*
X148986993Y-96459582I574600J-574600D01*
G01*
X149838210Y-95631000D02*
G75*
G03*
X149224997Y-95884997I-10J-867200D01*
G01*
X154304999Y-93472001D02*
G75*
G02*
X154431997Y-93778605I-306599J-306599D01*
G01*
%TO.N,/SWD*%
X153945790Y-96139000D02*
X153310790Y-96139000D01*
X149987000Y-96572605D02*
X149987000Y-97608000D01*
X154813000Y-92964000D02*
X154813000Y-95271790D01*
X153310790Y-96139000D02*
X150420605Y-96139000D01*
X154558999Y-95884999D02*
G75*
G02*
X153945790Y-96138995I-613199J613199D01*
G01*
X154813000Y-95271790D02*
G75*
G02*
X154559003Y-95885003I-867200J-10D01*
G01*
X150114001Y-96266001D02*
G75*
G03*
X149987003Y-96572605I306599J-306599D01*
G01*
X150420605Y-96139000D02*
G75*
G03*
X150113998Y-96265998I-5J-433600D01*
G01*
%TO.N,/TX*%
X162685336Y-91194337D02*
X163210000Y-91719000D01*
X159512000Y-90021210D02*
X159512000Y-90498395D01*
X159945605Y-90932000D02*
X162052000Y-90932000D01*
X162052000Y-90932000D02*
G75*
G02*
X162685342Y-91194331I0J-895700D01*
G01*
X159257999Y-89408001D02*
G75*
G02*
X159511995Y-90021210I-613199J-613199D01*
G01*
X159512000Y-90498395D02*
G75*
G03*
X159638998Y-90805002I433600J-5D01*
G01*
X159639001Y-90804999D02*
G75*
G03*
X159945605Y-90931997I306599J306599D01*
G01*
%TO.N,/RX*%
X160020000Y-89863395D02*
X160020000Y-89281000D01*
X167407790Y-90297000D02*
X160453605Y-90297000D01*
X168290000Y-91719000D02*
X168290000Y-91200423D01*
X168020999Y-90551001D02*
G75*
G03*
X167407790Y-90297005I-613199J-613199D01*
G01*
X168290000Y-91200423D02*
G75*
G03*
X168021007Y-90550993I-918400J23D01*
G01*
X160453605Y-90297000D02*
G75*
G02*
X160146998Y-90170002I-5J433600D01*
G01*
X160147001Y-90169999D02*
G75*
G02*
X160020003Y-89863395I306599J306599D01*
G01*
%TO.N,/EN*%
X142748000Y-89154000D02*
X142748000Y-81332605D01*
X147447000Y-90805000D02*
X147028803Y-90386803D01*
X144780000Y-90297000D02*
X143615210Y-90297000D01*
X148717000Y-90932000D02*
X147753605Y-90932000D01*
X149314800Y-90485000D02*
X149314800Y-90588204D01*
X148918395Y-90932000D02*
X148717000Y-90932000D01*
X146812000Y-90297000D02*
X144780000Y-90297000D01*
X142748000Y-89429790D02*
X142748000Y-89154000D01*
X143002001Y-90042999D02*
G75*
G02*
X142748005Y-89429790I613199J613199D01*
G01*
X147753605Y-90932000D02*
G75*
G02*
X147446998Y-90805002I-5J433600D01*
G01*
X147028803Y-90386803D02*
G75*
G03*
X146812000Y-90296999I-216803J-216797D01*
G01*
X149224999Y-90804999D02*
G75*
G02*
X148918395Y-90931997I-306599J306599D01*
G01*
X149314800Y-90588204D02*
G75*
G02*
X149224999Y-90804999I-306600J4D01*
G01*
X142748000Y-81332605D02*
G75*
G02*
X142874998Y-81025998I433600J5D01*
G01*
X143615210Y-90297000D02*
G75*
G02*
X143001997Y-90043003I-10J867200D01*
G01*
D34*
%TO.N,/FLASH_CS*%
X145504800Y-86040000D02*
X145102010Y-86040000D01*
X146647800Y-84836000D02*
X146647800Y-85606395D01*
X146214195Y-86040000D02*
X145504800Y-86040000D01*
X144234800Y-86907210D02*
X144234800Y-89445204D01*
X146520799Y-85912999D02*
G75*
G02*
X146214195Y-86039997I-306599J306599D01*
G01*
X144488801Y-86294001D02*
G75*
G03*
X144234805Y-86907210I613199J-613199D01*
G01*
X144234800Y-89445204D02*
G75*
G02*
X144144999Y-89661999I-306600J4D01*
G01*
X145102010Y-86040000D02*
G75*
G03*
X144488797Y-86293997I-10J-867200D01*
G01*
X146647800Y-85606395D02*
G75*
G02*
X146520802Y-85913002I-433600J-5D01*
G01*
D33*
%TO.N,Net-(D4-K)*%
X136525000Y-75118000D02*
X134493000Y-75118000D01*
%TO.N,/V_{G}*%
X138355605Y-75946000D02*
X138684000Y-75946000D01*
X137922000Y-76401463D02*
X137922000Y-76379605D01*
X136906000Y-79469103D02*
X136862060Y-79469103D01*
X136652000Y-77470000D02*
X136652000Y-77268605D01*
X137085605Y-76835000D02*
X137212605Y-76835000D01*
X136862060Y-79469103D02*
X136689911Y-79296954D01*
X136652000Y-79091414D02*
X136652000Y-77470000D01*
X137212605Y-76835000D02*
X137488395Y-76835000D01*
X136779001Y-76962001D02*
G75*
G02*
X137085605Y-76835003I306599J-306599D01*
G01*
X137922000Y-76379605D02*
G75*
G02*
X138048998Y-76072998I433600J5D01*
G01*
X138049001Y-76073001D02*
G75*
G02*
X138355605Y-75946003I306599J-306599D01*
G01*
X136689912Y-79296954D02*
G75*
G02*
X136652003Y-79091414I586588J214454D01*
G01*
X137794999Y-76707999D02*
G75*
G03*
X137921978Y-76401463I-305699J306199D01*
G01*
X137488395Y-76835000D02*
G75*
G03*
X137795002Y-76708002I5J433600D01*
G01*
X136652000Y-77268605D02*
G75*
G02*
X136778998Y-76961998I433600J5D01*
G01*
%TO.N,Net-(D1-A)*%
X133609500Y-83627000D02*
X132740986Y-83627000D01*
X132740986Y-83627000D02*
G75*
G02*
X131826004Y-83247996I14J1294000D01*
G01*
%TO.N,/SCL_1*%
X150622000Y-87757000D02*
X150823395Y-87757000D01*
X164161089Y-85054687D02*
X164492654Y-85386252D01*
X164492654Y-85386252D02*
X164901941Y-85386252D01*
X151219800Y-87413204D02*
X151219800Y-86294000D01*
X151653405Y-85024000D02*
X163994195Y-85024000D01*
X151219800Y-86294000D02*
X151219800Y-85457605D01*
X151219800Y-85457605D02*
G75*
G02*
X151346798Y-85150998I433600J5D01*
G01*
X150823395Y-87757000D02*
G75*
G03*
X151130002Y-87630002I5J433600D01*
G01*
X163994195Y-85024000D02*
G75*
G02*
X164161094Y-85054672I-7495J-510200D01*
G01*
X151346801Y-85151001D02*
G75*
G02*
X151653405Y-85024003I306599J-306599D01*
G01*
X151130000Y-87630000D02*
G75*
G03*
X151219801Y-87413204I-216800J216800D01*
G01*
%TO.N,/SDA_1*%
X151145405Y-84516000D02*
X164449590Y-84516000D01*
X166332800Y-85786000D02*
X167169195Y-85786000D01*
X150664674Y-86585371D02*
X150664674Y-84989038D01*
X165062800Y-84770000D02*
X165899194Y-85606394D01*
X164449590Y-84516000D02*
G75*
G02*
X165062803Y-84769997I10J-867200D01*
G01*
X165899194Y-85606394D02*
G75*
G03*
X166332800Y-85786003I433606J433594D01*
G01*
X150664674Y-84989038D02*
G75*
G02*
X150838810Y-84643010I625926J-98162D01*
G01*
X150838801Y-84643001D02*
G75*
G02*
X151145405Y-84516003I306599J-306599D01*
G01*
X150494999Y-86994999D02*
G75*
G03*
X150664661Y-86585371I-409599J409599D01*
G01*
X167169195Y-85786000D02*
G75*
G03*
X167475802Y-85659002I5J433600D01*
G01*
%TO.N,VBUS*%
X136450605Y-76454000D02*
X136853395Y-76454000D01*
X137287000Y-76020395D02*
X137287000Y-75819000D01*
X136129299Y-80123300D02*
X136016000Y-80010000D01*
X136016000Y-80010000D02*
X136016000Y-76890019D01*
X135884500Y-82677000D02*
X135964395Y-82677000D01*
X136398000Y-82243395D02*
X136398000Y-80772000D01*
X136270999Y-82549999D02*
G75*
G03*
X136397997Y-82243395I-306599J306599D01*
G01*
X136016000Y-76890019D02*
G75*
G02*
X136143994Y-76580994I437000J19D01*
G01*
X136144001Y-76581001D02*
G75*
G02*
X136450605Y-76454003I306599J-306599D01*
G01*
X136398000Y-80772000D02*
G75*
G03*
X136129299Y-80123300I-917400J0D01*
G01*
X135964395Y-82677000D02*
G75*
G03*
X136271002Y-82550002I5J433600D01*
G01*
X136853395Y-76454000D02*
G75*
G03*
X137160002Y-76327002I5J433600D01*
G01*
X137159999Y-76326999D02*
G75*
G03*
X137286997Y-76020395I-306599J306599D01*
G01*
%TO.N,/CC1*%
X139065000Y-67585790D02*
X139065000Y-65659000D01*
X139932210Y-64770000D02*
X144907000Y-64770000D01*
X149098000Y-67362605D02*
X149098000Y-67945000D01*
X149860000Y-72845395D02*
X149860000Y-68378605D01*
X144907000Y-64770000D02*
X146071790Y-64770000D01*
X149426395Y-67945000D02*
X149098000Y-67945000D01*
X139065000Y-65659000D02*
X139065000Y-65637210D01*
X146812000Y-66294000D02*
X146812000Y-66495395D01*
X147245605Y-66929000D02*
X148336000Y-66929000D01*
X156930000Y-74168000D02*
X156930000Y-74044813D01*
X148336000Y-66929000D02*
X148664395Y-66929000D01*
X138811000Y-68326000D02*
X138811000Y-68149571D01*
X138811000Y-68149571D02*
X138964803Y-67995768D01*
X156104790Y-73279000D02*
X150293605Y-73279000D01*
X146812000Y-65330605D02*
X146812000Y-66294000D01*
X139319001Y-65024001D02*
G75*
G02*
X139932210Y-64770005I613199J-613199D01*
G01*
X146071790Y-64770000D02*
G75*
G02*
X146685003Y-65023997I10J-867200D01*
G01*
X149732999Y-68072001D02*
G75*
G03*
X149426395Y-67945003I-306599J-306599D01*
G01*
X146684999Y-65024001D02*
G75*
G02*
X146811997Y-65330605I-306599J-306599D01*
G01*
X139065000Y-65637210D02*
G75*
G02*
X139318997Y-65023997I867200J10D01*
G01*
X146939001Y-66801999D02*
G75*
G03*
X147245605Y-66928997I306599J306599D01*
G01*
X138964803Y-67995768D02*
G75*
G03*
X139065012Y-67585790I-810603J415368D01*
G01*
X148664395Y-66929000D02*
G75*
G02*
X148971002Y-67055998I5J-433600D01*
G01*
X149860000Y-68378605D02*
G75*
G03*
X149733002Y-68071998I-433600J5D01*
G01*
X146812000Y-66495395D02*
G75*
G03*
X146938998Y-66802002I433600J-5D01*
G01*
X156717999Y-73533001D02*
G75*
G03*
X156104790Y-73279005I-613199J-613199D01*
G01*
X148970999Y-67056001D02*
G75*
G02*
X149097997Y-67362605I-306599J-306599D01*
G01*
X156930000Y-74044813D02*
G75*
G03*
X156718004Y-73532996I-723800J13D01*
G01*
X149987001Y-73151999D02*
G75*
G02*
X149860003Y-72845395I306599J306599D01*
G01*
X150293605Y-73279000D02*
G75*
G02*
X149986998Y-73152002I-5J433600D01*
G01*
%TO.N,/CC2*%
X146431000Y-66675000D02*
X146431000Y-66876395D01*
X146939000Y-67310000D02*
X147140395Y-67310000D01*
X152781000Y-74676000D02*
X152781000Y-74220605D01*
X152347395Y-73787000D02*
X149912605Y-73787000D01*
X146431000Y-65584605D02*
X146431000Y-66675000D01*
X149045395Y-68580000D02*
X148007605Y-68580000D01*
X147574000Y-68146395D02*
X147574000Y-68072000D01*
X149479000Y-73353395D02*
X149479000Y-69013605D01*
X146864605Y-67310000D02*
X146939000Y-67310000D01*
X145415000Y-65151000D02*
X145997395Y-65151000D01*
X139879605Y-65151000D02*
X145415000Y-65151000D01*
X147574000Y-67743605D02*
X147574000Y-68072000D01*
X139446000Y-68961000D02*
X139446000Y-65584605D01*
X149479000Y-69013605D02*
G75*
G03*
X149352002Y-68706998I-433600J5D01*
G01*
X152781000Y-74220605D02*
G75*
G03*
X152654002Y-73913998I-433600J5D01*
G01*
X149912605Y-73787000D02*
G75*
G02*
X149605998Y-73660002I-5J433600D01*
G01*
X149606001Y-73659999D02*
G75*
G02*
X149479003Y-73353395I306599J306599D01*
G01*
X147446999Y-67437001D02*
G75*
G02*
X147573997Y-67743605I-306599J-306599D01*
G01*
X147140395Y-67310000D02*
G75*
G02*
X147447002Y-67436998I5J-433600D01*
G01*
X147701001Y-68452999D02*
G75*
G02*
X147574003Y-68146395I306599J306599D01*
G01*
X148007605Y-68580000D02*
G75*
G02*
X147700998Y-68453002I-5J433600D01*
G01*
X139573001Y-65278001D02*
G75*
G02*
X139879605Y-65151003I306599J-306599D01*
G01*
X146558001Y-67182999D02*
G75*
G03*
X146864605Y-67309997I306599J306599D01*
G01*
X145997395Y-65151000D02*
G75*
G02*
X146304002Y-65277998I5J-433600D01*
G01*
X149351999Y-68707001D02*
G75*
G03*
X149045395Y-68580003I-306599J-306599D01*
G01*
X146431000Y-66876395D02*
G75*
G03*
X146557998Y-67183002I433600J-5D01*
G01*
X146303999Y-65278001D02*
G75*
G02*
X146430997Y-65584605I-306599J-306599D01*
G01*
X139446000Y-65584605D02*
G75*
G02*
X139572998Y-65277998I433600J5D01*
G01*
X152653999Y-73914001D02*
G75*
G03*
X152347395Y-73787003I-306599J-306599D01*
G01*
%TO.N,/SDA_0*%
X149479000Y-78560395D02*
X149479000Y-77776605D01*
X149352000Y-77470000D02*
X149314803Y-77432803D01*
X148209000Y-85471000D02*
X148209000Y-83745605D01*
X146177000Y-73533000D02*
X146177000Y-68124605D01*
X147447000Y-74422000D02*
X146610605Y-74422000D01*
X147849790Y-74422000D02*
X147447000Y-74422000D01*
X146177000Y-73988395D02*
X146177000Y-73533000D01*
X147626605Y-78994000D02*
X149045395Y-78994000D01*
X147193000Y-82878395D02*
X147193000Y-79427605D01*
X148717000Y-76518000D02*
X148717000Y-75289210D01*
X148881198Y-77253197D02*
X148844000Y-77216000D01*
X148590000Y-86106000D02*
X148388605Y-85904605D01*
X148717000Y-76909395D02*
X148717000Y-76518000D01*
X147775395Y-83312000D02*
X147626605Y-83312000D01*
X149351999Y-78866999D02*
G75*
G03*
X149478997Y-78560395I-306599J306599D01*
G01*
X149098000Y-77343000D02*
G75*
G02*
X148881199Y-77253196I0J306600D01*
G01*
X147626605Y-83312000D02*
G75*
G02*
X147319998Y-83185002I-5J433600D01*
G01*
X147193000Y-79427605D02*
G75*
G02*
X147319998Y-79120998I433600J5D01*
G01*
X149314803Y-77432803D02*
G75*
G03*
X149098000Y-77342999I-216803J-216797D01*
G01*
X148844001Y-77215999D02*
G75*
G02*
X148717003Y-76909395I306599J306599D01*
G01*
X149045395Y-78994000D02*
G75*
G03*
X149352002Y-78867002I5J433600D01*
G01*
X148209000Y-83745605D02*
G75*
G03*
X148082002Y-83438998I-433600J5D01*
G01*
X146610605Y-74422000D02*
G75*
G02*
X146303998Y-74295002I-5J433600D01*
G01*
X148717000Y-75289210D02*
G75*
G03*
X148463003Y-74675997I-867200J10D01*
G01*
X147320001Y-79121001D02*
G75*
G02*
X147626605Y-78994003I306599J-306599D01*
G01*
X146304001Y-74294999D02*
G75*
G02*
X146177003Y-73988395I306599J306599D01*
G01*
X146177000Y-68124605D02*
G75*
G02*
X146303998Y-67817998I433600J5D01*
G01*
X149479000Y-77776605D02*
G75*
G03*
X149352002Y-77469998I-433600J5D01*
G01*
X148081999Y-83439001D02*
G75*
G03*
X147775395Y-83312003I-306599J-306599D01*
G01*
X147320001Y-83184999D02*
G75*
G02*
X147193003Y-82878395I306599J306599D01*
G01*
X148462999Y-74676001D02*
G75*
G03*
X147849790Y-74422005I-613199J-613199D01*
G01*
X148388605Y-85904605D02*
G75*
G02*
X148208997Y-85471000I433595J433605D01*
G01*
%TO.N,/SCL_0*%
X146356605Y-76581000D02*
X147040905Y-76581000D01*
X146304000Y-74930000D02*
X146102605Y-74930000D01*
X147193000Y-76518000D02*
X147193000Y-75797210D01*
X145669000Y-74496395D02*
X145669000Y-74168000D01*
X145669000Y-74168000D02*
X145669000Y-67362605D01*
X145923000Y-78560395D02*
X145923000Y-77597000D01*
X146685000Y-79121000D02*
X146647803Y-79083803D01*
X148590000Y-86868000D02*
X148261605Y-86868000D01*
X147828000Y-86434395D02*
X147828000Y-84126605D01*
X145923000Y-77597000D02*
X145923000Y-77014605D01*
X147447000Y-83693000D02*
X147245605Y-83693000D01*
X147701000Y-83820000D02*
X147663803Y-83782803D01*
X146325790Y-74930000D02*
X146304000Y-74930000D01*
X146812000Y-83259395D02*
X146812000Y-79427605D01*
X146431000Y-78994000D02*
X146356605Y-78994000D01*
X145669000Y-67362605D02*
G75*
G02*
X145795998Y-67055998I433600J5D01*
G01*
X146939001Y-83565999D02*
G75*
G02*
X146812003Y-83259395I306599J306599D01*
G01*
X148261605Y-86868000D02*
G75*
G02*
X147954998Y-86741002I-5J433600D01*
G01*
X146050001Y-76708001D02*
G75*
G02*
X146356605Y-76581003I306599J-306599D01*
G01*
X147663803Y-83782803D02*
G75*
G03*
X147447000Y-83692999I-216803J-216797D01*
G01*
X146356605Y-78994000D02*
G75*
G02*
X146049998Y-78867002I-5J433600D01*
G01*
X147245605Y-83693000D02*
G75*
G02*
X146938998Y-83566002I-5J433600D01*
G01*
X147040905Y-76581000D02*
G75*
G03*
X147192999Y-76517999I-5J215100D01*
G01*
X147828000Y-84126605D02*
G75*
G03*
X147701002Y-83819998I-433600J5D01*
G01*
X146102605Y-74930000D02*
G75*
G02*
X145795998Y-74803002I-5J433600D01*
G01*
X145796001Y-74802999D02*
G75*
G02*
X145669003Y-74496395I306599J306599D01*
G01*
X146050001Y-78866999D02*
G75*
G02*
X145923003Y-78560395I306599J306599D01*
G01*
X146812000Y-79427605D02*
G75*
G03*
X146685002Y-79120998I-433600J5D01*
G01*
X147193000Y-75797210D02*
G75*
G03*
X146939003Y-75183997I-867200J10D01*
G01*
X146647803Y-79083803D02*
G75*
G03*
X146431000Y-78993999I-216803J-216797D01*
G01*
X145923000Y-77014605D02*
G75*
G02*
X146049998Y-76707998I433600J5D01*
G01*
X146938999Y-75184001D02*
G75*
G03*
X146325790Y-74930005I-613199J-613199D01*
G01*
X147955001Y-86740999D02*
G75*
G02*
X147828003Y-86434395I306599J306599D01*
G01*
%TO.N,/PD_INT*%
X145034000Y-67130395D02*
X145034000Y-66929000D01*
X147013395Y-84074000D02*
X146939000Y-84074000D01*
X146685000Y-88593395D02*
X146685000Y-88392000D01*
X146939000Y-84074000D02*
X146864605Y-84074000D01*
X148590000Y-89027000D02*
X147118605Y-89027000D01*
X146431000Y-83312000D02*
X146431000Y-79808605D01*
X145288000Y-78613000D02*
X145288000Y-67743605D01*
X147447000Y-85926395D02*
X147447000Y-85852000D01*
X146304000Y-79502000D02*
X146266803Y-79464803D01*
X146431000Y-83640395D02*
X146431000Y-83312000D01*
X146050000Y-79375000D02*
X145721605Y-79375000D01*
X147282802Y-86270197D02*
X147320000Y-86233000D01*
X145034000Y-66929000D02*
X145034000Y-65913000D01*
X145288000Y-78941395D02*
X145288000Y-78613000D01*
X146685000Y-88392000D02*
X146685000Y-86793605D01*
X147447000Y-85852000D02*
X147447000Y-84507605D01*
X146812000Y-86487000D02*
X146849197Y-86449803D01*
X145415001Y-79247999D02*
G75*
G02*
X145288003Y-78941395I306599J306599D01*
G01*
X146266803Y-79464803D02*
G75*
G03*
X146050000Y-79374999I-216803J-216797D01*
G01*
X146864605Y-84074000D02*
G75*
G02*
X146557998Y-83947002I-5J433600D01*
G01*
X146558001Y-83946999D02*
G75*
G02*
X146431003Y-83640395I306599J306599D01*
G01*
X146431000Y-79808605D02*
G75*
G03*
X146304002Y-79501998I-433600J5D01*
G01*
X147066000Y-86360000D02*
G75*
G03*
X147282801Y-86270196I0J306600D01*
G01*
X146849197Y-86449803D02*
G75*
G02*
X147066000Y-86359999I216803J-216797D01*
G01*
X145721605Y-79375000D02*
G75*
G02*
X145414998Y-79248002I-5J433600D01*
G01*
X147118605Y-89027000D02*
G75*
G02*
X146811998Y-88900002I-5J433600D01*
G01*
X145288000Y-67743605D02*
G75*
G03*
X145161002Y-67436998I-433600J5D01*
G01*
X146812001Y-88899999D02*
G75*
G02*
X146685003Y-88593395I306599J306599D01*
G01*
X145161001Y-67436999D02*
G75*
G02*
X145034003Y-67130395I306599J306599D01*
G01*
X147319999Y-86232999D02*
G75*
G03*
X147446997Y-85926395I-306599J306599D01*
G01*
X147319999Y-84201001D02*
G75*
G03*
X147013395Y-84074003I-306599J-306599D01*
G01*
X146685000Y-86793605D02*
G75*
G02*
X146811998Y-86486998I433600J5D01*
G01*
X147447000Y-84507605D02*
G75*
G03*
X147320002Y-84200998I-433600J5D01*
G01*
%TD*%
%TA.AperFunction,Conductor*%
%TO.N,GND*%
G36*
X154507773Y-96322504D02*
G01*
X154548698Y-96380519D01*
X154551761Y-96451450D01*
X154549282Y-96460129D01*
X154545267Y-96472486D01*
X154525299Y-96598582D01*
X154525300Y-96654433D01*
X154525300Y-97895412D01*
X154524693Y-97907762D01*
X154517107Y-97984785D01*
X154512288Y-98009012D01*
X154491626Y-98077124D01*
X154482174Y-98099942D01*
X154448621Y-98162716D01*
X154434898Y-98183255D01*
X154389747Y-98238271D01*
X154372282Y-98255736D01*
X154298009Y-98316691D01*
X154277469Y-98330415D01*
X154192740Y-98375702D01*
X154169921Y-98385154D01*
X154077978Y-98413044D01*
X154053753Y-98417862D01*
X153951902Y-98427893D01*
X153939552Y-98428500D01*
X150561487Y-98428500D01*
X150493366Y-98408498D01*
X150446873Y-98354842D01*
X150436327Y-98287977D01*
X150437032Y-98281896D01*
X150437500Y-98277865D01*
X150437499Y-96938136D01*
X150434585Y-96913009D01*
X150396843Y-96827531D01*
X150389206Y-96810234D01*
X150309767Y-96730795D01*
X150300131Y-96724194D01*
X150301294Y-96722495D01*
X150258362Y-96686224D01*
X150237510Y-96618359D01*
X150237500Y-96616783D01*
X150237500Y-96580859D01*
X150238576Y-96564425D01*
X150241574Y-96541652D01*
X150250083Y-96509895D01*
X150255685Y-96496369D01*
X150272122Y-96467898D01*
X150281027Y-96456292D01*
X150304278Y-96433042D01*
X150315896Y-96424127D01*
X150344366Y-96407689D01*
X150357893Y-96402086D01*
X150389652Y-96393577D01*
X150412446Y-96390576D01*
X150428883Y-96389500D01*
X154010273Y-96389500D01*
X154010308Y-96389495D01*
X154033753Y-96389496D01*
X154207519Y-96361976D01*
X154374840Y-96307611D01*
X154374851Y-96307605D01*
X154379416Y-96305715D01*
X154380138Y-96307459D01*
X154441980Y-96295825D01*
X154507773Y-96322504D01*
G37*
%TD.AperFunction*%
%TA.AperFunction,Conductor*%
G36*
X147855956Y-74673107D02*
G01*
X147957760Y-74683133D01*
X147981973Y-74687948D01*
X148073927Y-74715841D01*
X148096741Y-74725291D01*
X148164266Y-74761384D01*
X148181473Y-74770581D01*
X148202009Y-74784302D01*
X148275028Y-74844227D01*
X148276257Y-74845235D01*
X148293722Y-74862700D01*
X148354693Y-74936993D01*
X148368415Y-74957530D01*
X148413702Y-75042259D01*
X148423154Y-75065078D01*
X148451044Y-75157021D01*
X148455862Y-75181247D01*
X148465893Y-75283099D01*
X148466500Y-75295448D01*
X148466500Y-75850112D01*
X148446498Y-75918233D01*
X148392842Y-75964726D01*
X148358667Y-75974795D01*
X148351269Y-75975873D01*
X148340605Y-75977427D01*
X148235517Y-76028801D01*
X148235514Y-76028803D01*
X148152803Y-76111514D01*
X148152801Y-76111517D01*
X148101427Y-76216605D01*
X148091500Y-76284738D01*
X148091500Y-76751261D01*
X148101427Y-76819394D01*
X148152801Y-76924482D01*
X148152803Y-76924485D01*
X148235514Y-77007196D01*
X148235517Y-77007198D01*
X148340607Y-77058573D01*
X148408740Y-77068500D01*
X148408741Y-77068500D01*
X148409517Y-77068613D01*
X148474043Y-77098228D01*
X148507760Y-77145078D01*
X148544360Y-77233439D01*
X148544361Y-77233441D01*
X148544362Y-77233442D01*
X148619226Y-77345485D01*
X148619233Y-77345493D01*
X148627232Y-77353492D01*
X148627237Y-77353498D01*
X148631637Y-77357898D01*
X148631638Y-77357899D01*
X148676145Y-77402405D01*
X148710170Y-77464714D01*
X148705107Y-77535530D01*
X148662561Y-77592367D01*
X148596041Y-77617179D01*
X148587050Y-77617500D01*
X148408738Y-77617500D01*
X148340606Y-77627427D01*
X148229541Y-77681722D01*
X148159557Y-77693670D01*
X148138708Y-77689421D01*
X148056975Y-77665423D01*
X148019772Y-77654500D01*
X147890228Y-77654500D01*
X147890225Y-77654501D01*
X147771291Y-77689421D01*
X147700295Y-77689419D01*
X147680457Y-77681722D01*
X147609696Y-77647130D01*
X147569393Y-77627427D01*
X147523971Y-77620809D01*
X147501261Y-77617500D01*
X147501260Y-77617500D01*
X146884740Y-77617500D01*
X146884738Y-77617500D01*
X146816605Y-77627427D01*
X146711517Y-77678801D01*
X146711514Y-77678803D01*
X146628803Y-77761514D01*
X146628801Y-77761517D01*
X146577427Y-77866605D01*
X146567500Y-77934738D01*
X146567500Y-78401261D01*
X146577427Y-78469394D01*
X146623995Y-78564651D01*
X146635944Y-78634635D01*
X146608159Y-78699969D01*
X146549463Y-78739910D01*
X146492121Y-78743227D01*
X146492035Y-78744107D01*
X146486442Y-78743556D01*
X146486224Y-78743569D01*
X146485883Y-78743501D01*
X146485871Y-78743500D01*
X146485870Y-78743500D01*
X146364860Y-78743500D01*
X146348414Y-78742422D01*
X146325657Y-78739426D01*
X146293886Y-78730913D01*
X146280376Y-78725317D01*
X146251892Y-78708872D01*
X146240298Y-78699976D01*
X146217039Y-78676717D01*
X146208129Y-78665105D01*
X146191688Y-78636629D01*
X146186087Y-78623108D01*
X146177577Y-78591345D01*
X146174576Y-78568553D01*
X146173500Y-78552117D01*
X146173500Y-77022859D01*
X146174576Y-77006425D01*
X146177574Y-76983652D01*
X146186083Y-76951895D01*
X146191685Y-76938369D01*
X146208122Y-76909898D01*
X146217027Y-76898292D01*
X146240278Y-76875042D01*
X146251896Y-76866127D01*
X146280366Y-76849689D01*
X146293893Y-76844086D01*
X146325652Y-76835577D01*
X146348446Y-76832576D01*
X146364883Y-76831500D01*
X146400772Y-76831500D01*
X146504692Y-76831500D01*
X146572813Y-76851502D01*
X146617889Y-76902160D01*
X146628803Y-76924485D01*
X146711514Y-77007196D01*
X146711517Y-77007198D01*
X146816607Y-77058573D01*
X146884740Y-77068500D01*
X146884745Y-77068500D01*
X147501255Y-77068500D01*
X147501260Y-77068500D01*
X147569393Y-77058573D01*
X147674483Y-77007198D01*
X147757198Y-76924483D01*
X147808573Y-76819393D01*
X147818500Y-76751260D01*
X147818500Y-76284740D01*
X147808573Y-76216607D01*
X147757198Y-76111517D01*
X147757196Y-76111514D01*
X147674485Y-76028803D01*
X147674482Y-76028801D01*
X147569394Y-75977427D01*
X147561828Y-75976324D01*
X147551333Y-75974795D01*
X147486808Y-75945181D01*
X147448537Y-75885383D01*
X147443500Y-75850112D01*
X147443500Y-75733910D01*
X147443495Y-75733866D01*
X147443495Y-75731133D01*
X147443496Y-75709247D01*
X147415976Y-75535481D01*
X147361611Y-75368160D01*
X147281740Y-75211404D01*
X147178331Y-75069072D01*
X147153036Y-75043776D01*
X147153029Y-75043764D01*
X147053933Y-74944666D01*
X147043368Y-74936990D01*
X146993054Y-74900435D01*
X146949701Y-74844214D01*
X146943625Y-74773478D01*
X146976757Y-74710686D01*
X147038577Y-74675775D01*
X147067116Y-74672500D01*
X147397172Y-74672500D01*
X147805623Y-74672500D01*
X147843607Y-74672500D01*
X147855956Y-74673107D01*
G37*
%TD.AperFunction*%
%TA.AperFunction,Conductor*%
G36*
X145734500Y-75073203D02*
G01*
X145778560Y-75102643D01*
X145903060Y-75154212D01*
X145903062Y-75154212D01*
X145903064Y-75154213D01*
X145917182Y-75157021D01*
X146035229Y-75180501D01*
X146102608Y-75180500D01*
X146254172Y-75180500D01*
X146281623Y-75180500D01*
X146319607Y-75180500D01*
X146331956Y-75181107D01*
X146433760Y-75191133D01*
X146457973Y-75195948D01*
X146549927Y-75223841D01*
X146572741Y-75233291D01*
X146596940Y-75246226D01*
X146657473Y-75278581D01*
X146678009Y-75292302D01*
X146727970Y-75333304D01*
X146752257Y-75353235D01*
X146769722Y-75370700D01*
X146830693Y-75444993D01*
X146844415Y-75465530D01*
X146889702Y-75550259D01*
X146899154Y-75573078D01*
X146927044Y-75665021D01*
X146931862Y-75689247D01*
X146941893Y-75791099D01*
X146942500Y-75803448D01*
X146942500Y-75850112D01*
X146922498Y-75918233D01*
X146868842Y-75964726D01*
X146834667Y-75974795D01*
X146827269Y-75975873D01*
X146816605Y-75977427D01*
X146711517Y-76028801D01*
X146711514Y-76028803D01*
X146628803Y-76111514D01*
X146628801Y-76111517D01*
X146577426Y-76216606D01*
X146577426Y-76216608D01*
X146576543Y-76222669D01*
X146546927Y-76287194D01*
X146487128Y-76325464D01*
X146451860Y-76330500D01*
X146296632Y-76330500D01*
X146296608Y-76330502D01*
X146289223Y-76330502D01*
X146157063Y-76356789D01*
X146157062Y-76356790D01*
X146032560Y-76408360D01*
X145920517Y-76483224D01*
X145920514Y-76483227D01*
X145909773Y-76493966D01*
X145909761Y-76493973D01*
X145825227Y-76578507D01*
X145825224Y-76578511D01*
X145769266Y-76662260D01*
X145714789Y-76707788D01*
X145644346Y-76716637D01*
X145580302Y-76685996D01*
X145542990Y-76625594D01*
X145538500Y-76592259D01*
X145538500Y-75177970D01*
X145558502Y-75109849D01*
X145612158Y-75063356D01*
X145682432Y-75053252D01*
X145734500Y-75073203D01*
G37*
%TD.AperFunction*%
%TA.AperFunction,Conductor*%
G36*
X167566918Y-63940984D02*
G01*
X167601388Y-63943243D01*
X167814245Y-63957194D01*
X167830568Y-63959342D01*
X168069631Y-64006896D01*
X168085534Y-64011157D01*
X168316326Y-64089501D01*
X168331545Y-64095804D01*
X168550142Y-64203605D01*
X168564414Y-64211845D01*
X168628936Y-64254958D01*
X168767061Y-64347250D01*
X168780137Y-64357284D01*
X168963374Y-64517980D01*
X168975028Y-64529634D01*
X169135726Y-64712877D01*
X169145759Y-64725953D01*
X169281159Y-64928595D01*
X169289400Y-64942868D01*
X169397196Y-65161460D01*
X169403503Y-65176687D01*
X169439447Y-65282574D01*
X169481842Y-65407468D01*
X169481844Y-65407472D01*
X169486109Y-65423388D01*
X169495038Y-65468281D01*
X169533656Y-65662434D01*
X169535807Y-65678774D01*
X169552030Y-65926311D01*
X169552300Y-65934551D01*
X169552300Y-99617878D01*
X169552030Y-99626119D01*
X169535820Y-99873438D01*
X169533669Y-99889779D01*
X169486119Y-100128824D01*
X169481853Y-100144743D01*
X169403513Y-100375527D01*
X169397206Y-100390754D01*
X169289411Y-100609342D01*
X169281170Y-100623616D01*
X169145763Y-100826265D01*
X169135730Y-100839340D01*
X168975034Y-101022579D01*
X168963379Y-101034234D01*
X168780140Y-101194930D01*
X168767065Y-101204963D01*
X168564416Y-101340370D01*
X168550142Y-101348611D01*
X168331554Y-101456406D01*
X168316327Y-101462713D01*
X168085543Y-101541053D01*
X168069624Y-101545319D01*
X167830579Y-101592869D01*
X167814238Y-101595020D01*
X167566920Y-101611230D01*
X167558679Y-101611500D01*
X128458921Y-101611500D01*
X128450680Y-101611230D01*
X128203361Y-101595020D01*
X128187020Y-101592869D01*
X127947975Y-101545319D01*
X127932056Y-101541053D01*
X127701272Y-101462713D01*
X127686045Y-101456406D01*
X127630536Y-101429032D01*
X127467453Y-101348608D01*
X127453187Y-101340372D01*
X127250534Y-101204963D01*
X127237459Y-101194930D01*
X127054220Y-101034234D01*
X127042565Y-101022579D01*
X126881869Y-100839340D01*
X126871836Y-100826265D01*
X126863987Y-100814518D01*
X126736424Y-100623607D01*
X126728193Y-100609351D01*
X126620389Y-100390744D01*
X126614090Y-100375537D01*
X126535743Y-100144735D01*
X126531482Y-100128832D01*
X126483928Y-99889769D01*
X126481780Y-99873446D01*
X126465570Y-99626118D01*
X126465300Y-99617878D01*
X126465300Y-93980000D01*
X126995396Y-93980000D01*
X127015779Y-94238994D01*
X127076427Y-94491610D01*
X127175846Y-94731628D01*
X127175847Y-94731629D01*
X127311585Y-94953136D01*
X127311590Y-94953143D01*
X127480310Y-95150689D01*
X127677856Y-95319409D01*
X127677863Y-95319414D01*
X127689389Y-95326477D01*
X127899372Y-95455154D01*
X128139390Y-95554573D01*
X128392006Y-95615221D01*
X128651000Y-95635604D01*
X128709462Y-95631003D01*
X131805722Y-95631003D01*
X131824761Y-95787815D01*
X131842865Y-95835550D01*
X131880780Y-95935523D01*
X131880781Y-95935525D01*
X131880782Y-95935526D01*
X131880783Y-95935529D01*
X131970516Y-96065529D01*
X131970518Y-96065531D01*
X131986287Y-96079501D01*
X132088760Y-96170283D01*
X132228635Y-96243696D01*
X132228636Y-96243696D01*
X132228638Y-96243697D01*
X132248361Y-96248558D01*
X132382015Y-96281500D01*
X132382017Y-96281500D01*
X132539983Y-96281500D01*
X132539985Y-96281500D01*
X132539986Y-96281499D01*
X132547553Y-96280581D01*
X132547741Y-96282132D01*
X132609907Y-96284860D01*
X132667892Y-96325826D01*
X132694223Y-96388896D01*
X132713762Y-96549815D01*
X132713762Y-96549817D01*
X132713763Y-96549818D01*
X132769780Y-96697523D01*
X132769781Y-96697525D01*
X132769782Y-96697526D01*
X132769783Y-96697529D01*
X132859516Y-96827529D01*
X132859517Y-96827530D01*
X132977760Y-96932283D01*
X133117635Y-97005696D01*
X133117636Y-97005696D01*
X133117638Y-97005697D01*
X133194325Y-97024598D01*
X133271015Y-97043500D01*
X133271017Y-97043500D01*
X133428983Y-97043500D01*
X133428985Y-97043500D01*
X133582365Y-97005696D01*
X133722240Y-96932283D01*
X133840483Y-96827530D01*
X133923969Y-96706579D01*
X133930216Y-96697529D01*
X133930216Y-96697528D01*
X133930220Y-96697523D01*
X133986237Y-96549818D01*
X133986237Y-96549817D01*
X133986238Y-96549815D01*
X134005278Y-96393003D01*
X134005278Y-96392996D01*
X133986238Y-96236184D01*
X133976551Y-96210641D01*
X133930220Y-96088477D01*
X133930216Y-96088472D01*
X133930216Y-96088470D01*
X133840483Y-95958470D01*
X133840481Y-95958468D01*
X133722240Y-95853717D01*
X133582365Y-95780304D01*
X133582361Y-95780302D01*
X133428987Y-95742500D01*
X133428985Y-95742500D01*
X133271015Y-95742500D01*
X133271013Y-95742500D01*
X133263447Y-95743419D01*
X133263259Y-95741871D01*
X133201071Y-95739131D01*
X133143092Y-95698155D01*
X133116776Y-95635102D01*
X133116277Y-95630996D01*
X133110737Y-95585363D01*
X133097238Y-95474184D01*
X133089392Y-95453498D01*
X133041220Y-95326477D01*
X133041216Y-95326472D01*
X133041216Y-95326470D01*
X132951483Y-95196470D01*
X132951481Y-95196468D01*
X132833240Y-95091717D01*
X132693365Y-95018304D01*
X132693361Y-95018302D01*
X132539987Y-94980500D01*
X132539985Y-94980500D01*
X132382015Y-94980500D01*
X132382012Y-94980500D01*
X132228638Y-95018302D01*
X132228634Y-95018304D01*
X132088759Y-95091717D01*
X131970518Y-95196468D01*
X131970516Y-95196470D01*
X131880783Y-95326470D01*
X131880782Y-95326473D01*
X131880781Y-95326475D01*
X131880780Y-95326477D01*
X131865091Y-95367844D01*
X131824761Y-95474184D01*
X131805722Y-95630996D01*
X131805722Y-95631003D01*
X128709462Y-95631003D01*
X128909994Y-95615221D01*
X129162610Y-95554573D01*
X129402628Y-95455154D01*
X129624140Y-95319412D01*
X129821689Y-95150689D01*
X129990412Y-94953140D01*
X130126154Y-94731628D01*
X130225573Y-94491610D01*
X130286221Y-94238994D01*
X130306604Y-93980000D01*
X130286221Y-93721006D01*
X130225573Y-93468390D01*
X130126154Y-93228372D01*
X130003987Y-93029013D01*
X129990414Y-93006863D01*
X129990409Y-93006856D01*
X129821689Y-92809310D01*
X129624143Y-92640590D01*
X129624136Y-92640585D01*
X129476305Y-92549995D01*
X129402628Y-92504846D01*
X129162610Y-92405427D01*
X128909994Y-92344779D01*
X128651000Y-92324396D01*
X128392006Y-92344779D01*
X128139389Y-92405427D01*
X127969669Y-92475727D01*
X127926769Y-92493498D01*
X127899370Y-92504847D01*
X127677863Y-92640585D01*
X127677856Y-92640590D01*
X127480310Y-92809310D01*
X127311590Y-93006856D01*
X127311585Y-93006863D01*
X127175847Y-93228370D01*
X127175846Y-93228372D01*
X127155385Y-93277770D01*
X127076427Y-93468389D01*
X127045364Y-93597775D01*
X127015779Y-93721006D01*
X126995396Y-93980000D01*
X126465300Y-93980000D01*
X126465300Y-91948000D01*
X133337571Y-91948000D01*
X133357244Y-92160311D01*
X133415593Y-92365384D01*
X133415594Y-92365386D01*
X133415595Y-92365389D01*
X133510634Y-92556255D01*
X133633912Y-92719500D01*
X133639129Y-92726408D01*
X133796699Y-92870053D01*
X133796701Y-92870054D01*
X133977974Y-92982294D01*
X133977975Y-92982294D01*
X133977981Y-92982298D01*
X134176802Y-93059321D01*
X134386390Y-93098500D01*
X134386393Y-93098500D01*
X134599607Y-93098500D01*
X134599610Y-93098500D01*
X134809198Y-93059321D01*
X135008019Y-92982298D01*
X135189302Y-92870052D01*
X135346872Y-92726407D01*
X135475366Y-92556255D01*
X135570405Y-92365389D01*
X135628756Y-92160310D01*
X135648429Y-91948000D01*
X135628756Y-91735690D01*
X135570405Y-91530611D01*
X135525287Y-91440000D01*
X144451867Y-91440000D01*
X144470303Y-91568226D01*
X144524118Y-91686063D01*
X144608951Y-91783967D01*
X144717931Y-91854004D01*
X144842228Y-91890500D01*
X144842232Y-91890500D01*
X144971768Y-91890500D01*
X144971772Y-91890500D01*
X145096069Y-91854004D01*
X145205049Y-91783967D01*
X145266268Y-91713314D01*
X145325993Y-91674930D01*
X145396990Y-91674928D01*
X145456717Y-91713311D01*
X145456720Y-91713315D01*
X145460750Y-91717966D01*
X145464809Y-91721483D01*
X145503195Y-91781208D01*
X145508300Y-91816710D01*
X145508300Y-92772460D01*
X145504504Y-92803156D01*
X145502939Y-92809385D01*
X145498506Y-92898429D01*
X145496500Y-92915407D01*
X145487024Y-92965894D01*
X145481239Y-92986691D01*
X145468899Y-93019769D01*
X145460604Y-93037610D01*
X145438452Y-93076901D01*
X145432623Y-93086258D01*
X145409640Y-93119788D01*
X145400939Y-93131058D01*
X145375919Y-93159934D01*
X145375917Y-93159938D01*
X145322104Y-93277770D01*
X145322103Y-93277773D01*
X145313014Y-93340987D01*
X145303667Y-93406000D01*
X145322103Y-93534226D01*
X145375918Y-93652063D01*
X145400949Y-93680951D01*
X145409648Y-93692219D01*
X145432624Y-93725740D01*
X145438450Y-93735091D01*
X145456509Y-93767124D01*
X145460604Y-93774386D01*
X145468899Y-93792227D01*
X145481239Y-93825305D01*
X145487024Y-93846102D01*
X145496500Y-93896589D01*
X145498506Y-93913568D01*
X145502938Y-94002603D01*
X145502939Y-94002616D01*
X145504874Y-94010740D01*
X145508300Y-94039921D01*
X145508300Y-97783108D01*
X145508306Y-97783175D01*
X145508306Y-97819937D01*
X145538951Y-98013444D01*
X145599493Y-98199785D01*
X145599496Y-98199792D01*
X145688437Y-98374351D01*
X145688440Y-98374356D01*
X145803601Y-98532861D01*
X145835962Y-98565222D01*
X145835968Y-98565233D01*
X145872867Y-98602132D01*
X145872867Y-98602133D01*
X145935068Y-98664335D01*
X146077401Y-98767745D01*
X146077403Y-98767746D01*
X146077406Y-98767748D01*
X146234151Y-98847613D01*
X146234153Y-98847613D01*
X146234158Y-98847616D01*
X146401480Y-98901980D01*
X146575247Y-98929501D01*
X146663213Y-98929500D01*
X147021175Y-98929500D01*
X147089296Y-98949502D01*
X147135789Y-99003158D01*
X147145893Y-99073432D01*
X147116399Y-99138012D01*
X147105628Y-99147897D01*
X147105669Y-99147938D01*
X147008951Y-99244655D01*
X147008949Y-99244657D01*
X146951355Y-99357694D01*
X146951354Y-99357696D01*
X146936500Y-99451481D01*
X146936500Y-99451484D01*
X146936500Y-100814516D01*
X146951353Y-100908302D01*
X147008949Y-101021342D01*
X147098657Y-101111050D01*
X147137299Y-101130738D01*
X147211696Y-101168646D01*
X147305481Y-101183500D01*
X148068518Y-101183499D01*
X148162304Y-101168646D01*
X148275342Y-101111050D01*
X148365050Y-101021342D01*
X148422646Y-100908304D01*
X148437500Y-100814519D01*
X148437499Y-99451482D01*
X148422646Y-99357696D01*
X148393848Y-99301177D01*
X148365050Y-99244657D01*
X148268331Y-99147938D01*
X148270085Y-99146183D01*
X148235409Y-99101211D01*
X148229335Y-99030474D01*
X148262469Y-98967684D01*
X148324290Y-98932774D01*
X148352825Y-98929500D01*
X151621175Y-98929500D01*
X151689296Y-98949502D01*
X151735789Y-99003158D01*
X151745893Y-99073432D01*
X151716399Y-99138012D01*
X151705628Y-99147897D01*
X151705669Y-99147938D01*
X151608951Y-99244655D01*
X151608949Y-99244657D01*
X151551355Y-99357694D01*
X151551354Y-99357696D01*
X151536500Y-99451481D01*
X151536500Y-99451484D01*
X151536500Y-100814516D01*
X151551353Y-100908302D01*
X151608949Y-101021342D01*
X151698657Y-101111050D01*
X151737299Y-101130738D01*
X151811696Y-101168646D01*
X151905481Y-101183500D01*
X152668518Y-101183499D01*
X152762304Y-101168646D01*
X152875342Y-101111050D01*
X152965050Y-101021342D01*
X153022646Y-100908304D01*
X153037500Y-100814519D01*
X153037499Y-99451482D01*
X153022646Y-99357696D01*
X152993848Y-99301177D01*
X152965050Y-99244657D01*
X152868331Y-99147938D01*
X152870085Y-99146183D01*
X152835409Y-99101211D01*
X152829335Y-99030474D01*
X152862469Y-98967684D01*
X152924290Y-98932774D01*
X152952825Y-98929500D01*
X154010273Y-98929500D01*
X154010308Y-98929495D01*
X154033753Y-98929496D01*
X154207519Y-98901976D01*
X154374840Y-98847611D01*
X154531596Y-98767740D01*
X154673928Y-98664331D01*
X154687172Y-98651086D01*
X154687176Y-98651084D01*
X154699225Y-98639036D01*
X154699231Y-98639032D01*
X154736130Y-98602130D01*
X154736131Y-98602131D01*
X154791263Y-98546997D01*
X154882922Y-98420839D01*
X154953718Y-98281896D01*
X155001905Y-98133588D01*
X155026300Y-97979569D01*
X155026300Y-97901599D01*
X155026300Y-97857429D01*
X155026300Y-96706579D01*
X155026301Y-96706577D01*
X155026300Y-96670659D01*
X155027376Y-96654232D01*
X155034701Y-96598582D01*
X155043210Y-96566823D01*
X155061497Y-96522673D01*
X155077939Y-96494194D01*
X155112077Y-96449704D01*
X155122923Y-96437336D01*
X155480759Y-96079501D01*
X155480759Y-96079499D01*
X155493575Y-96066684D01*
X155493579Y-96066678D01*
X155493588Y-96066670D01*
X155573499Y-95956684D01*
X155635221Y-95835550D01*
X155677232Y-95706253D01*
X155698500Y-95571976D01*
X155698500Y-95504000D01*
X155698500Y-95459830D01*
X155698500Y-92927687D01*
X155700638Y-92904573D01*
X155703348Y-92890051D01*
X155703110Y-92870052D01*
X155702055Y-92781296D01*
X155702053Y-92781170D01*
X155701457Y-92726407D01*
X155701112Y-92694731D01*
X155701280Y-92686743D01*
X155704050Y-92634326D01*
X155706108Y-92617363D01*
X155712704Y-92582826D01*
X155718094Y-92563297D01*
X155736113Y-92513914D01*
X155736114Y-92513903D01*
X155737563Y-92508478D01*
X155737885Y-92508563D01*
X155745507Y-92483916D01*
X155757697Y-92457226D01*
X155776133Y-92329000D01*
X155757697Y-92200774D01*
X155703882Y-92082937D01*
X155619049Y-91985033D01*
X155619048Y-91985032D01*
X155510073Y-91914998D01*
X155510070Y-91914996D01*
X155510069Y-91914996D01*
X155510066Y-91914995D01*
X155385776Y-91878501D01*
X155385774Y-91878500D01*
X155385772Y-91878500D01*
X155256228Y-91878500D01*
X155256225Y-91878500D01*
X155256223Y-91878501D01*
X155131933Y-91914995D01*
X155131926Y-91914998D01*
X155022951Y-91985032D01*
X154938118Y-92082937D01*
X154884303Y-92200775D01*
X154865867Y-92329000D01*
X154871700Y-92369569D01*
X154861595Y-92439843D01*
X154815102Y-92493498D01*
X154756914Y-92510583D01*
X154757149Y-92512218D01*
X154748230Y-92513500D01*
X154748228Y-92513500D01*
X154748226Y-92513500D01*
X154748223Y-92513501D01*
X154623933Y-92549995D01*
X154623926Y-92549998D01*
X154514948Y-92620033D01*
X154514510Y-92620414D01*
X154513982Y-92620655D01*
X154507369Y-92624905D01*
X154506757Y-92623954D01*
X154449929Y-92649906D01*
X154379655Y-92639800D01*
X154349490Y-92620414D01*
X154349051Y-92620033D01*
X154240073Y-92549998D01*
X154240070Y-92549996D01*
X154240069Y-92549996D01*
X154152994Y-92524429D01*
X154115776Y-92513501D01*
X154115774Y-92513500D01*
X154115772Y-92513500D01*
X153986228Y-92513500D01*
X153986225Y-92513500D01*
X153986223Y-92513501D01*
X153861933Y-92549995D01*
X153861926Y-92549998D01*
X153752951Y-92620032D01*
X153695162Y-92686726D01*
X153668118Y-92717937D01*
X153614303Y-92835774D01*
X153595867Y-92964000D01*
X153614303Y-93092226D01*
X153668118Y-93210063D01*
X153683981Y-93228370D01*
X153685657Y-93230304D01*
X153715149Y-93294886D01*
X153705044Y-93365159D01*
X153658550Y-93418814D01*
X153625932Y-93433710D01*
X153607936Y-93438994D01*
X153607933Y-93438995D01*
X153607931Y-93438996D01*
X153498951Y-93509033D01*
X153498950Y-93509033D01*
X153498947Y-93509036D01*
X153492139Y-93514935D01*
X153491286Y-93513951D01*
X153439235Y-93547398D01*
X153403744Y-93552500D01*
X153399357Y-93552500D01*
X153399345Y-93552499D01*
X153349856Y-93552499D01*
X153333419Y-93551422D01*
X153323607Y-93550131D01*
X153291801Y-93541606D01*
X153290349Y-93541005D01*
X153261849Y-93524538D01*
X153260612Y-93523588D01*
X153237415Y-93500388D01*
X153236453Y-93499135D01*
X153219997Y-93470649D01*
X153219394Y-93469194D01*
X153210872Y-93437399D01*
X153209575Y-93427544D01*
X153208500Y-93411115D01*
X153208500Y-93402500D01*
X153208501Y-93371804D01*
X153208500Y-93371800D01*
X153208500Y-89876438D01*
X153208500Y-89421043D01*
X153208500Y-89411861D01*
X153208497Y-89411823D01*
X153208497Y-89408000D01*
X158802867Y-89408000D01*
X158821303Y-89536226D01*
X158875118Y-89654063D01*
X158909101Y-89693282D01*
X158959951Y-89751967D01*
X159068931Y-89822004D01*
X159092490Y-89828921D01*
X159110623Y-89835800D01*
X159125215Y-89842664D01*
X159126763Y-89843382D01*
X159127019Y-89843499D01*
X159128869Y-89844330D01*
X159128967Y-89844374D01*
X159180461Y-89867101D01*
X159234706Y-89912905D01*
X159253113Y-89957530D01*
X159256002Y-89971895D01*
X159257868Y-89984387D01*
X159260893Y-90015097D01*
X159261500Y-90027448D01*
X159261500Y-90560234D01*
X159261502Y-90560255D01*
X159261502Y-90565776D01*
X159287789Y-90697936D01*
X159287790Y-90697937D01*
X159287791Y-90697939D01*
X159339360Y-90822439D01*
X159414227Y-90934486D01*
X159414231Y-90934490D01*
X159423448Y-90943707D01*
X159423454Y-90943714D01*
X159424934Y-90945193D01*
X159424956Y-90945234D01*
X159424963Y-90945228D01*
X159509507Y-91029772D01*
X159509510Y-91029774D01*
X159509512Y-91029776D01*
X159621560Y-91104643D01*
X159746060Y-91156212D01*
X159746062Y-91156212D01*
X159746064Y-91156213D01*
X159767427Y-91160462D01*
X159878229Y-91182501D01*
X159945608Y-91182500D01*
X162007830Y-91182500D01*
X162045813Y-91182500D01*
X162058145Y-91183105D01*
X162095852Y-91186819D01*
X162161680Y-91213399D01*
X162202691Y-91271352D01*
X162209500Y-91312211D01*
X162209500Y-92583820D01*
X162218232Y-92627721D01*
X162218234Y-92627725D01*
X162251495Y-92677504D01*
X162301274Y-92710765D01*
X162301278Y-92710767D01*
X162345180Y-92719500D01*
X162345185Y-92719500D01*
X164074815Y-92719500D01*
X164074820Y-92719500D01*
X164118722Y-92710767D01*
X164168504Y-92677504D01*
X164201767Y-92627722D01*
X164210500Y-92583820D01*
X164210500Y-90854180D01*
X164201767Y-90810278D01*
X164201765Y-90810274D01*
X164161610Y-90750177D01*
X164163231Y-90749093D01*
X164136578Y-90700283D01*
X164141643Y-90629468D01*
X164184190Y-90572632D01*
X164250710Y-90547821D01*
X164259699Y-90547500D01*
X167363623Y-90547500D01*
X167401607Y-90547500D01*
X167413956Y-90548107D01*
X167515760Y-90558133D01*
X167539973Y-90562948D01*
X167631927Y-90590841D01*
X167654741Y-90600291D01*
X167709327Y-90629468D01*
X167739473Y-90645581D01*
X167760012Y-90659305D01*
X167768116Y-90665956D01*
X167808084Y-90724634D01*
X167809984Y-90795605D01*
X167773212Y-90856337D01*
X167747579Y-90874475D01*
X167731461Y-90883090D01*
X167579117Y-91008117D01*
X167454090Y-91160461D01*
X167361186Y-91334271D01*
X167303974Y-91522873D01*
X167303974Y-91522875D01*
X167284659Y-91718996D01*
X167284659Y-91719003D01*
X167303974Y-91915124D01*
X167303974Y-91915126D01*
X167361186Y-92103728D01*
X167413059Y-92200774D01*
X167454090Y-92277538D01*
X167579117Y-92429883D01*
X167731462Y-92554910D01*
X167854011Y-92620414D01*
X167891748Y-92640585D01*
X167905273Y-92647814D01*
X168093868Y-92705024D01*
X168093872Y-92705024D01*
X168093874Y-92705025D01*
X168289997Y-92724341D01*
X168290000Y-92724341D01*
X168290003Y-92724341D01*
X168486124Y-92705025D01*
X168486126Y-92705025D01*
X168486127Y-92705024D01*
X168486132Y-92705024D01*
X168674727Y-92647814D01*
X168848538Y-92554910D01*
X169000883Y-92429883D01*
X169125910Y-92277538D01*
X169218814Y-92103727D01*
X169276024Y-91915132D01*
X169276037Y-91914998D01*
X169295341Y-91719003D01*
X169295341Y-91718996D01*
X169276025Y-91522875D01*
X169276025Y-91522873D01*
X169276024Y-91522870D01*
X169276024Y-91522868D01*
X169218814Y-91334273D01*
X169125910Y-91160462D01*
X169000883Y-91008117D01*
X168848538Y-90883090D01*
X168674726Y-90790185D01*
X168674721Y-90790183D01*
X168489184Y-90733901D01*
X168429803Y-90694986D01*
X168413493Y-90670528D01*
X168371334Y-90587784D01*
X168371333Y-90587783D01*
X168371331Y-90587781D01*
X168371329Y-90587776D01*
X168282573Y-90465613D01*
X168263182Y-90438923D01*
X168235036Y-90410776D01*
X168235029Y-90410764D01*
X168135933Y-90311666D01*
X168135932Y-90311665D01*
X167993599Y-90208255D01*
X167993597Y-90208254D01*
X167993593Y-90208251D01*
X167836848Y-90128386D01*
X167836844Y-90128385D01*
X167836843Y-90128384D01*
X167836842Y-90128384D01*
X167669520Y-90074020D01*
X167495753Y-90046499D01*
X167495750Y-90046499D01*
X167407787Y-90046500D01*
X160461860Y-90046500D01*
X160445414Y-90045422D01*
X160422657Y-90042426D01*
X160390886Y-90033913D01*
X160377376Y-90028317D01*
X160348892Y-90011872D01*
X160337298Y-90002976D01*
X160314039Y-89979717D01*
X160305129Y-89968105D01*
X160288686Y-89939625D01*
X160288452Y-89939060D01*
X160283474Y-89927042D01*
X160275076Y-89861524D01*
X160275784Y-89856406D01*
X160275789Y-89856389D01*
X160278971Y-89775845D01*
X160281376Y-89755836D01*
X160289578Y-89715315D01*
X160296442Y-89692641D01*
X160307838Y-89664768D01*
X160316576Y-89647373D01*
X160339975Y-89608587D01*
X160344780Y-89601217D01*
X160353698Y-89588530D01*
X160367547Y-89568826D01*
X160375387Y-89558793D01*
X160402882Y-89527063D01*
X160456697Y-89409226D01*
X160475133Y-89281000D01*
X160456697Y-89152774D01*
X160402882Y-89034937D01*
X160318049Y-88937033D01*
X160318048Y-88937032D01*
X160209073Y-88866998D01*
X160209070Y-88866996D01*
X160209069Y-88866996D01*
X160209066Y-88866995D01*
X160084776Y-88830501D01*
X160084774Y-88830500D01*
X160084772Y-88830500D01*
X159955228Y-88830500D01*
X159955225Y-88830500D01*
X159955223Y-88830501D01*
X159830933Y-88866995D01*
X159830926Y-88866998D01*
X159721950Y-88937032D01*
X159663424Y-89004577D01*
X159603698Y-89042961D01*
X159532702Y-89042961D01*
X159500079Y-89028063D01*
X159447073Y-88993998D01*
X159447070Y-88993996D01*
X159447069Y-88993996D01*
X159442468Y-88992645D01*
X159322776Y-88957501D01*
X159322774Y-88957500D01*
X159322772Y-88957500D01*
X159193228Y-88957500D01*
X159193225Y-88957500D01*
X159193223Y-88957501D01*
X159068933Y-88993995D01*
X159068926Y-88993998D01*
X158959951Y-89064032D01*
X158883976Y-89151714D01*
X158875118Y-89161937D01*
X158821303Y-89279774D01*
X158802867Y-89408000D01*
X153208497Y-89408000D01*
X153208498Y-89388305D01*
X153206770Y-89379619D01*
X153180289Y-89246482D01*
X153180287Y-89246475D01*
X153124950Y-89112877D01*
X153044611Y-88992641D01*
X153034325Y-88982355D01*
X153034312Y-88982339D01*
X153034311Y-88982341D01*
X153030388Y-88978417D01*
X153030363Y-88978372D01*
X152939913Y-88887924D01*
X152911110Y-88866998D01*
X152860876Y-88830501D01*
X152817306Y-88798846D01*
X152817295Y-88798839D01*
X152725304Y-88751970D01*
X152682262Y-88730040D01*
X152649722Y-88719468D01*
X152538125Y-88683211D01*
X152538121Y-88683210D01*
X152388438Y-88659508D01*
X152388434Y-88659508D01*
X152312656Y-88659511D01*
X150254685Y-88659511D01*
X150197976Y-88646028D01*
X150197601Y-88645839D01*
X150175780Y-88631856D01*
X150173524Y-88630058D01*
X150152074Y-88608205D01*
X150151215Y-88607085D01*
X150134797Y-88578649D01*
X150134194Y-88577194D01*
X150125672Y-88545399D01*
X150124375Y-88535544D01*
X150123300Y-88519115D01*
X150123300Y-88519000D01*
X163817571Y-88519000D01*
X163837244Y-88731311D01*
X163895593Y-88936384D01*
X163895594Y-88936386D01*
X163895595Y-88936389D01*
X163990634Y-89127255D01*
X164113004Y-89289297D01*
X164119129Y-89297408D01*
X164276699Y-89441053D01*
X164276701Y-89441054D01*
X164457974Y-89553294D01*
X164457975Y-89553294D01*
X164457981Y-89553298D01*
X164656802Y-89630321D01*
X164866390Y-89669500D01*
X164866393Y-89669500D01*
X165079607Y-89669500D01*
X165079610Y-89669500D01*
X165289198Y-89630321D01*
X165488019Y-89553298D01*
X165669302Y-89441052D01*
X165826872Y-89297407D01*
X165955366Y-89127255D01*
X166050405Y-88936389D01*
X166108756Y-88731310D01*
X166128429Y-88519000D01*
X166108756Y-88306690D01*
X166050405Y-88101611D01*
X165955366Y-87910745D01*
X165826872Y-87740593D01*
X165780155Y-87698004D01*
X165669300Y-87596946D01*
X165669298Y-87596945D01*
X165488025Y-87484705D01*
X165488021Y-87484703D01*
X165488019Y-87484702D01*
X165354126Y-87432832D01*
X165289199Y-87407679D01*
X165236801Y-87397884D01*
X165079610Y-87368500D01*
X164866390Y-87368500D01*
X164750386Y-87390185D01*
X164656800Y-87407679D01*
X164552994Y-87447894D01*
X164457981Y-87484702D01*
X164457980Y-87484702D01*
X164457979Y-87484703D01*
X164457974Y-87484705D01*
X164276701Y-87596945D01*
X164276699Y-87596946D01*
X164119129Y-87740591D01*
X164086541Y-87783745D01*
X163990634Y-87910745D01*
X163907327Y-88078050D01*
X163895593Y-88101615D01*
X163837244Y-88306688D01*
X163817571Y-88519000D01*
X150123300Y-88519000D01*
X150123301Y-88479804D01*
X150123300Y-88479800D01*
X150123300Y-88202768D01*
X150143302Y-88134647D01*
X150196958Y-88088154D01*
X150267232Y-88078050D01*
X150317420Y-88096770D01*
X150323952Y-88100968D01*
X150432931Y-88171004D01*
X150557228Y-88207500D01*
X150557232Y-88207500D01*
X150686768Y-88207500D01*
X150686772Y-88207500D01*
X150811069Y-88171004D01*
X150920049Y-88100967D01*
X150959134Y-88055859D01*
X150971324Y-88043601D01*
X150995782Y-88022178D01*
X151024420Y-88003302D01*
X151063749Y-87984491D01*
X151067639Y-87982712D01*
X151145458Y-87948736D01*
X151145466Y-87948731D01*
X151145475Y-87948728D01*
X151151109Y-87945945D01*
X151158536Y-87942279D01*
X151159555Y-87941714D01*
X151160421Y-87941236D01*
X151160427Y-87941232D01*
X151160453Y-87941218D01*
X151172860Y-87933571D01*
X151253302Y-87878625D01*
X151271766Y-87863834D01*
X151274361Y-87861409D01*
X151290386Y-87843964D01*
X151358277Y-87757699D01*
X151364861Y-87748684D01*
X151365799Y-87747298D01*
X151368380Y-87740500D01*
X151381403Y-87715238D01*
X151406895Y-87677088D01*
X151448890Y-87575705D01*
X151463353Y-87503000D01*
X160961867Y-87503000D01*
X160980303Y-87631226D01*
X161034118Y-87749063D01*
X161116348Y-87843963D01*
X161118951Y-87846967D01*
X161218191Y-87910745D01*
X161227931Y-87917004D01*
X161352228Y-87953500D01*
X161352232Y-87953500D01*
X161481768Y-87953500D01*
X161481772Y-87953500D01*
X161606069Y-87917004D01*
X161715049Y-87846967D01*
X161799882Y-87749063D01*
X161853697Y-87631226D01*
X161872133Y-87503000D01*
X161853697Y-87374774D01*
X161799882Y-87256937D01*
X161715049Y-87159033D01*
X161715048Y-87159032D01*
X161606073Y-87088998D01*
X161606070Y-87088996D01*
X161606069Y-87088996D01*
X161606066Y-87088995D01*
X161481776Y-87052501D01*
X161481774Y-87052500D01*
X161481772Y-87052500D01*
X161352228Y-87052500D01*
X161352225Y-87052500D01*
X161352223Y-87052501D01*
X161227933Y-87088995D01*
X161227926Y-87088998D01*
X161118951Y-87159032D01*
X161078016Y-87206275D01*
X161034118Y-87256937D01*
X160980303Y-87374774D01*
X160961867Y-87503000D01*
X151463353Y-87503000D01*
X151470300Y-87468076D01*
X151470300Y-87413207D01*
X151470300Y-87369037D01*
X151470300Y-86244172D01*
X151470300Y-85465859D01*
X151471376Y-85449425D01*
X151474374Y-85426652D01*
X151482883Y-85394895D01*
X151488485Y-85381369D01*
X151504922Y-85352898D01*
X151513827Y-85341292D01*
X151537078Y-85318042D01*
X151548696Y-85309127D01*
X151577166Y-85292689D01*
X151590693Y-85287086D01*
X151622452Y-85278577D01*
X151645246Y-85275576D01*
X151661683Y-85274500D01*
X151697572Y-85274500D01*
X163974451Y-85274500D01*
X164042572Y-85294502D01*
X164063546Y-85311405D01*
X164173600Y-85421459D01*
X164182486Y-85431334D01*
X164197403Y-85449784D01*
X164199677Y-85451678D01*
X164220106Y-85468697D01*
X164228552Y-85476410D01*
X164273101Y-85520959D01*
X164273114Y-85520974D01*
X164350753Y-85598613D01*
X164350755Y-85598614D01*
X164350757Y-85598616D01*
X164385235Y-85612897D01*
X164389298Y-85614580D01*
X164442826Y-85636753D01*
X164442827Y-85636753D01*
X164460580Y-85636753D01*
X164528701Y-85656755D01*
X164544650Y-85668901D01*
X164564804Y-85686956D01*
X164564806Y-85686957D01*
X164566018Y-85688043D01*
X164577170Y-85699380D01*
X164582541Y-85705579D01*
X164603893Y-85730220D01*
X164712867Y-85800253D01*
X164712872Y-85800256D01*
X164837169Y-85836752D01*
X164837173Y-85836752D01*
X164966709Y-85836752D01*
X164966713Y-85836752D01*
X165091010Y-85800256D01*
X165199990Y-85730219D01*
X165284823Y-85632315D01*
X165299109Y-85601032D01*
X165345601Y-85547377D01*
X165413722Y-85527374D01*
X165481843Y-85547376D01*
X165502818Y-85564279D01*
X165699876Y-85761337D01*
X165699890Y-85761350D01*
X165699902Y-85761362D01*
X165722061Y-85783522D01*
X165722061Y-85783521D01*
X165770114Y-85831577D01*
X165840253Y-85882536D01*
X165863601Y-85899500D01*
X165880118Y-85911500D01*
X165970089Y-85957343D01*
X166001249Y-85973220D01*
X166130546Y-86015232D01*
X166264824Y-86036500D01*
X166282972Y-86036500D01*
X166469664Y-86036500D01*
X166537785Y-86056502D01*
X166579837Y-86105032D01*
X166581268Y-86104268D01*
X166586788Y-86114595D01*
X166677090Y-86283538D01*
X166802117Y-86435883D01*
X166954462Y-86560910D01*
X167128273Y-86653814D01*
X167316868Y-86711024D01*
X167316872Y-86711024D01*
X167316874Y-86711025D01*
X167512997Y-86730341D01*
X167513000Y-86730341D01*
X167513003Y-86730341D01*
X167709124Y-86711025D01*
X167709126Y-86711025D01*
X167709127Y-86711024D01*
X167709132Y-86711024D01*
X167897727Y-86653814D01*
X168071538Y-86560910D01*
X168223883Y-86435883D01*
X168348910Y-86283538D01*
X168441814Y-86109727D01*
X168499024Y-85921132D01*
X168502825Y-85882540D01*
X168518341Y-85725003D01*
X168518341Y-85724996D01*
X168499025Y-85528875D01*
X168499025Y-85528873D01*
X168499024Y-85528870D01*
X168499024Y-85528868D01*
X168441814Y-85340273D01*
X168348910Y-85166462D01*
X168223883Y-85014117D01*
X168071538Y-84889090D01*
X168058704Y-84882230D01*
X167897728Y-84796186D01*
X167763674Y-84755521D01*
X167709132Y-84738976D01*
X167709131Y-84738975D01*
X167709125Y-84738974D01*
X167513003Y-84719659D01*
X167512997Y-84719659D01*
X167316875Y-84738974D01*
X167316873Y-84738974D01*
X167128271Y-84796186D01*
X166954461Y-84889090D01*
X166802117Y-85014117D01*
X166677090Y-85166461D01*
X166584185Y-85340273D01*
X166584183Y-85340278D01*
X166552090Y-85446076D01*
X166513175Y-85505457D01*
X166448334Y-85534373D01*
X166431516Y-85535500D01*
X166341058Y-85535500D01*
X166324612Y-85534422D01*
X166310511Y-85532565D01*
X166255373Y-85525306D01*
X166223601Y-85516793D01*
X166166771Y-85493253D01*
X166138285Y-85476806D01*
X166113259Y-85457602D01*
X166082857Y-85434273D01*
X166070475Y-85423414D01*
X166045094Y-85398033D01*
X166045093Y-85398032D01*
X166037914Y-85390853D01*
X166037907Y-85390847D01*
X165282099Y-84635038D01*
X165282094Y-84635029D01*
X165207498Y-84560432D01*
X165177732Y-84530665D01*
X165035399Y-84427255D01*
X165035397Y-84427254D01*
X165035393Y-84427251D01*
X164878648Y-84347386D01*
X164878644Y-84347385D01*
X164878643Y-84347384D01*
X164878642Y-84347384D01*
X164711320Y-84293020D01*
X164537553Y-84265499D01*
X164537550Y-84265499D01*
X164449587Y-84265500D01*
X153178903Y-84265500D01*
X153110782Y-84245498D01*
X153064289Y-84191842D01*
X153054185Y-84121568D01*
X153074139Y-84069497D01*
X153083756Y-84055104D01*
X153087752Y-84049124D01*
X153143090Y-83915524D01*
X153171301Y-83773695D01*
X153171300Y-83701392D01*
X153171300Y-83653797D01*
X153171300Y-82804000D01*
X157305750Y-82804000D01*
X157324670Y-82947709D01*
X157380137Y-83081624D01*
X157468378Y-83196621D01*
X157583375Y-83284862D01*
X157650107Y-83312502D01*
X157717291Y-83340330D01*
X157861000Y-83359250D01*
X158004709Y-83340330D01*
X158105031Y-83298776D01*
X158138624Y-83284862D01*
X158253621Y-83196621D01*
X158341862Y-83081624D01*
X158368225Y-83017976D01*
X158397330Y-82947709D01*
X158416250Y-82804000D01*
X160226750Y-82804000D01*
X160245670Y-82947709D01*
X160301137Y-83081624D01*
X160389378Y-83196621D01*
X160504375Y-83284862D01*
X160571107Y-83312502D01*
X160638291Y-83340330D01*
X160782000Y-83359250D01*
X160925709Y-83340330D01*
X161026031Y-83298776D01*
X161059624Y-83284862D01*
X161174621Y-83196621D01*
X161183536Y-83185003D01*
X166507659Y-83185003D01*
X166526974Y-83381124D01*
X166526974Y-83381126D01*
X166584186Y-83569728D01*
X166662427Y-83716106D01*
X166677090Y-83743538D01*
X166802117Y-83895883D01*
X166954462Y-84020910D01*
X167128273Y-84113814D01*
X167316868Y-84171024D01*
X167316872Y-84171024D01*
X167316874Y-84171025D01*
X167512997Y-84190341D01*
X167513000Y-84190341D01*
X167513003Y-84190341D01*
X167709124Y-84171025D01*
X167709126Y-84171025D01*
X167709127Y-84171024D01*
X167709132Y-84171024D01*
X167897727Y-84113814D01*
X168071538Y-84020910D01*
X168223883Y-83895883D01*
X168348910Y-83743538D01*
X168441814Y-83569727D01*
X168499024Y-83381132D01*
X168500746Y-83363651D01*
X168518341Y-83185003D01*
X168518341Y-83184996D01*
X168499025Y-82988875D01*
X168499025Y-82988873D01*
X168499024Y-82988870D01*
X168499024Y-82988868D01*
X168441814Y-82800273D01*
X168348910Y-82626462D01*
X168223883Y-82474117D01*
X168071538Y-82349090D01*
X168060612Y-82343250D01*
X167897728Y-82256186D01*
X167758600Y-82213982D01*
X167709132Y-82198976D01*
X167709131Y-82198975D01*
X167709125Y-82198974D01*
X167513003Y-82179659D01*
X167512997Y-82179659D01*
X167316875Y-82198974D01*
X167316873Y-82198974D01*
X167128271Y-82256186D01*
X166954461Y-82349090D01*
X166802117Y-82474117D01*
X166677090Y-82626461D01*
X166584186Y-82800271D01*
X166526974Y-82988873D01*
X166526974Y-82988875D01*
X166507659Y-83184996D01*
X166507659Y-83185003D01*
X161183536Y-83185003D01*
X161262862Y-83081624D01*
X161289225Y-83017976D01*
X161318330Y-82947709D01*
X161337250Y-82804000D01*
X161320530Y-82677000D01*
X164898867Y-82677000D01*
X164917303Y-82805226D01*
X164971118Y-82923063D01*
X165036175Y-82998144D01*
X165055951Y-83020967D01*
X165159926Y-83087788D01*
X165164931Y-83091004D01*
X165289228Y-83127500D01*
X165289232Y-83127500D01*
X165418768Y-83127500D01*
X165418772Y-83127500D01*
X165543069Y-83091004D01*
X165652049Y-83020967D01*
X165736882Y-82923063D01*
X165790697Y-82805226D01*
X165809133Y-82677000D01*
X165790697Y-82548774D01*
X165736882Y-82430937D01*
X165652049Y-82333033D01*
X165652048Y-82333032D01*
X165543073Y-82262998D01*
X165543070Y-82262996D01*
X165543069Y-82262996D01*
X165519876Y-82256186D01*
X165418776Y-82226501D01*
X165418774Y-82226500D01*
X165418772Y-82226500D01*
X165289228Y-82226500D01*
X165289225Y-82226500D01*
X165289223Y-82226501D01*
X165164933Y-82262995D01*
X165164926Y-82262998D01*
X165055951Y-82333032D01*
X164971118Y-82430937D01*
X164917303Y-82548774D01*
X164898867Y-82677000D01*
X161320530Y-82677000D01*
X161318330Y-82660291D01*
X161297839Y-82610821D01*
X161262862Y-82526375D01*
X161174621Y-82411378D01*
X161059624Y-82323137D01*
X160925709Y-82267670D01*
X160782000Y-82248750D01*
X160638290Y-82267670D01*
X160504376Y-82323137D01*
X160465745Y-82352780D01*
X160400467Y-82378015D01*
X160387718Y-82413484D01*
X160385920Y-82415886D01*
X160301136Y-82526378D01*
X160245670Y-82660290D01*
X160226750Y-82803999D01*
X160226750Y-82804000D01*
X158416250Y-82804000D01*
X158397330Y-82660291D01*
X158376839Y-82610821D01*
X158341862Y-82526375D01*
X158253621Y-82411378D01*
X158138624Y-82323137D01*
X158004709Y-82267670D01*
X157861000Y-82248750D01*
X157717290Y-82267670D01*
X157583375Y-82323137D01*
X157468378Y-82411378D01*
X157380137Y-82526375D01*
X157324670Y-82660290D01*
X157305750Y-82803999D01*
X157305750Y-82804000D01*
X153171300Y-82804000D01*
X153171300Y-81788000D01*
X159337750Y-81788000D01*
X159356670Y-81931709D01*
X159412137Y-82065624D01*
X159500378Y-82180621D01*
X159615375Y-82268862D01*
X159699821Y-82303839D01*
X159749291Y-82324330D01*
X159893000Y-82343250D01*
X160036709Y-82324330D01*
X160170625Y-82268861D01*
X160209253Y-82239219D01*
X160274531Y-82213982D01*
X160287283Y-82178513D01*
X160289044Y-82176159D01*
X160373861Y-82065625D01*
X160380431Y-82049765D01*
X160388034Y-82031407D01*
X160429330Y-81931709D01*
X160448250Y-81788000D01*
X160429330Y-81644291D01*
X160403791Y-81582633D01*
X160373862Y-81510375D01*
X160285621Y-81395378D01*
X160170624Y-81307137D01*
X160036709Y-81251670D01*
X159893000Y-81232750D01*
X159749290Y-81251670D01*
X159615375Y-81307137D01*
X159500378Y-81395378D01*
X159412137Y-81510375D01*
X159356670Y-81644290D01*
X159337750Y-81787999D01*
X159337750Y-81788000D01*
X153171300Y-81788000D01*
X153171300Y-81774197D01*
X153171306Y-81774176D01*
X153171306Y-81621927D01*
X153171306Y-81621920D01*
X153145179Y-81423472D01*
X153093373Y-81230131D01*
X153016774Y-81045208D01*
X152916692Y-80871864D01*
X152844815Y-80778195D01*
X152794842Y-80713070D01*
X152726774Y-80645003D01*
X166507659Y-80645003D01*
X166526974Y-80841124D01*
X166526974Y-80841126D01*
X166584186Y-81029728D01*
X166626453Y-81108803D01*
X166677090Y-81203538D01*
X166802117Y-81355883D01*
X166954462Y-81480910D01*
X167128273Y-81573814D01*
X167316868Y-81631024D01*
X167316872Y-81631024D01*
X167316874Y-81631025D01*
X167512997Y-81650341D01*
X167513000Y-81650341D01*
X167513003Y-81650341D01*
X167709124Y-81631025D01*
X167709126Y-81631025D01*
X167709127Y-81631024D01*
X167709132Y-81631024D01*
X167897727Y-81573814D01*
X168071538Y-81480910D01*
X168223883Y-81355883D01*
X168348910Y-81203538D01*
X168441814Y-81029727D01*
X168499024Y-80841132D01*
X168505833Y-80772000D01*
X168518341Y-80645003D01*
X168518341Y-80644996D01*
X168499025Y-80448875D01*
X168499025Y-80448873D01*
X168499024Y-80448870D01*
X168499024Y-80448868D01*
X168441814Y-80260273D01*
X168348910Y-80086462D01*
X168223883Y-79934117D01*
X168071538Y-79809090D01*
X168055346Y-79800435D01*
X167897728Y-79716186D01*
X167722397Y-79663000D01*
X167709132Y-79658976D01*
X167709131Y-79658975D01*
X167709125Y-79658974D01*
X167513003Y-79639659D01*
X167512997Y-79639659D01*
X167316875Y-79658974D01*
X167316873Y-79658974D01*
X167128271Y-79716186D01*
X166954461Y-79809090D01*
X166802117Y-79934117D01*
X166677090Y-80086461D01*
X166584186Y-80260271D01*
X166526974Y-80448873D01*
X166526974Y-80448875D01*
X166507659Y-80644996D01*
X166507659Y-80645003D01*
X152726774Y-80645003D01*
X152724072Y-80642301D01*
X152724072Y-80642300D01*
X152724071Y-80642300D01*
X151861378Y-79779607D01*
X151827352Y-79717295D01*
X151832417Y-79646480D01*
X151859431Y-79610392D01*
X151831869Y-79634254D01*
X151761590Y-79644326D01*
X151697023Y-79614804D01*
X151690483Y-79608712D01*
X151543487Y-79461716D01*
X151527242Y-79441754D01*
X151520592Y-79431622D01*
X151520591Y-79431621D01*
X151520590Y-79431619D01*
X151454954Y-79364888D01*
X151449278Y-79359117D01*
X151445573Y-79355185D01*
X151393295Y-79297265D01*
X151385647Y-79287928D01*
X151357953Y-79250599D01*
X151347490Y-79233911D01*
X151335850Y-79211646D01*
X151326860Y-79189591D01*
X151321684Y-79172397D01*
X151317621Y-79154022D01*
X151312697Y-79119774D01*
X151299940Y-79091842D01*
X151289836Y-79021571D01*
X151319328Y-78956989D01*
X151379053Y-78918605D01*
X151414554Y-78913500D01*
X151718233Y-78913500D01*
X151786354Y-78933502D01*
X151832847Y-78987158D01*
X151842951Y-79057432D01*
X151837708Y-79075296D01*
X151838842Y-79075629D01*
X151836303Y-79084273D01*
X151827331Y-79146675D01*
X151817867Y-79212500D01*
X151836303Y-79340726D01*
X151890118Y-79458563D01*
X151890119Y-79458564D01*
X151893862Y-79466760D01*
X151890515Y-79468288D01*
X151905578Y-79519674D01*
X151886234Y-79585440D01*
X151941484Y-79564833D01*
X152010858Y-79579924D01*
X152018582Y-79584507D01*
X152083931Y-79626504D01*
X152208228Y-79663000D01*
X152208232Y-79663000D01*
X152337768Y-79663000D01*
X152337772Y-79663000D01*
X152462069Y-79626504D01*
X152571049Y-79556467D01*
X152655882Y-79458563D01*
X152709697Y-79340726D01*
X152728133Y-79212500D01*
X152709697Y-79084274D01*
X152709695Y-79084269D01*
X152707158Y-79075629D01*
X152710668Y-79074598D01*
X152703056Y-79021527D01*
X152732570Y-78956956D01*
X152792309Y-78918592D01*
X152827767Y-78913500D01*
X158121283Y-78913500D01*
X158148127Y-78916392D01*
X158158634Y-78918684D01*
X158257022Y-78920487D01*
X158265001Y-78920888D01*
X158337090Y-78926811D01*
X158351160Y-78928771D01*
X158393506Y-78937131D01*
X158413117Y-78942684D01*
X158437460Y-78951764D01*
X158457793Y-78961503D01*
X158472211Y-78970075D01*
X158475886Y-78972349D01*
X158560922Y-79026999D01*
X158560926Y-79027000D01*
X158560931Y-79027004D01*
X158685228Y-79063500D01*
X158685232Y-79063500D01*
X158814768Y-79063500D01*
X158814772Y-79063500D01*
X158939069Y-79027004D01*
X159048049Y-78956967D01*
X159132882Y-78859063D01*
X159186697Y-78741226D01*
X159205133Y-78613000D01*
X159186697Y-78484774D01*
X159132882Y-78366937D01*
X159048049Y-78269033D01*
X159048048Y-78269032D01*
X158939073Y-78198998D01*
X158939070Y-78198996D01*
X158939069Y-78198996D01*
X158939059Y-78198993D01*
X158814776Y-78162501D01*
X158814774Y-78162500D01*
X158814772Y-78162500D01*
X158685228Y-78162500D01*
X158685226Y-78162500D01*
X158685221Y-78162501D01*
X158560935Y-78198993D01*
X158560927Y-78198997D01*
X158475908Y-78253634D01*
X158472182Y-78255938D01*
X158457810Y-78264483D01*
X158437456Y-78274233D01*
X158413137Y-78283305D01*
X158393501Y-78288866D01*
X158351173Y-78297222D01*
X158337089Y-78299185D01*
X158265023Y-78305107D01*
X158257017Y-78305509D01*
X158158632Y-78307315D01*
X158158629Y-78307315D01*
X158147318Y-78309728D01*
X158121036Y-78312500D01*
X151263840Y-78312500D01*
X151263800Y-78312502D01*
X151237297Y-78312502D01*
X151095482Y-78340710D01*
X151095475Y-78340712D01*
X150961876Y-78396050D01*
X150903437Y-78435097D01*
X150894339Y-78440634D01*
X150858012Y-78460690D01*
X150858003Y-78460697D01*
X150767024Y-78537461D01*
X150767022Y-78537463D01*
X150747395Y-78557297D01*
X150744745Y-78560505D01*
X150728988Y-78583505D01*
X150694166Y-78645623D01*
X150689026Y-78654008D01*
X150659046Y-78698879D01*
X150659044Y-78698883D01*
X150603712Y-78832468D01*
X150603709Y-78832479D01*
X150599417Y-78854054D01*
X150571065Y-78911979D01*
X150497836Y-78996492D01*
X150493118Y-79001937D01*
X150439303Y-79119774D01*
X150420867Y-79248000D01*
X150439303Y-79376226D01*
X150493118Y-79494063D01*
X150539543Y-79547641D01*
X150577951Y-79591967D01*
X150655696Y-79641931D01*
X150686931Y-79662004D01*
X150811228Y-79698500D01*
X150821922Y-79698500D01*
X150847208Y-79701063D01*
X150855044Y-79702668D01*
X150875213Y-79708591D01*
X150885987Y-79712759D01*
X150899427Y-79717959D01*
X150918377Y-79727180D01*
X150951197Y-79746702D01*
X150964866Y-79756104D01*
X151015181Y-79795833D01*
X151023484Y-79802999D01*
X151090832Y-79866455D01*
X151099657Y-79872071D01*
X151121107Y-79889278D01*
X152261041Y-81029212D01*
X152261050Y-81029222D01*
X152265450Y-81033622D01*
X152265451Y-81033623D01*
X152283392Y-81051563D01*
X152295603Y-81063774D01*
X152302320Y-81071040D01*
X152387028Y-81170219D01*
X152398649Y-81186214D01*
X152464203Y-81293185D01*
X152473180Y-81310803D01*
X152521193Y-81426717D01*
X152527302Y-81445520D01*
X152556589Y-81567506D01*
X152559683Y-81587034D01*
X152569912Y-81716992D01*
X152570300Y-81726879D01*
X152570300Y-83646070D01*
X152570299Y-83646088D01*
X152570299Y-83689495D01*
X152550297Y-83757616D01*
X152496641Y-83804109D01*
X152444292Y-83815495D01*
X152425389Y-83815494D01*
X152425315Y-83815500D01*
X150360030Y-83815500D01*
X150359980Y-83815496D01*
X150354455Y-83815496D01*
X150354427Y-83815488D01*
X150239380Y-83815492D01*
X150136542Y-83831785D01*
X150115171Y-83835171D01*
X150115169Y-83835171D01*
X150115166Y-83835172D01*
X149995568Y-83874036D01*
X149883514Y-83931132D01*
X149883510Y-83931135D01*
X149781770Y-84005057D01*
X149774215Y-84012612D01*
X149774210Y-84012614D01*
X149686193Y-84100631D01*
X149686188Y-84100637D01*
X149605849Y-84220874D01*
X149552766Y-84349030D01*
X149550510Y-84354476D01*
X149549554Y-84359282D01*
X149522299Y-84496301D01*
X149522299Y-84496304D01*
X149522300Y-84533550D01*
X149522300Y-88573833D01*
X149522302Y-88573870D01*
X149522302Y-88599702D01*
X149550510Y-88741517D01*
X149550512Y-88741524D01*
X149571808Y-88792936D01*
X149605850Y-88875123D01*
X149686189Y-88995359D01*
X149686191Y-88995361D01*
X149697008Y-89006178D01*
X149701522Y-89011410D01*
X149737868Y-89047049D01*
X149738746Y-89047918D01*
X149774709Y-89083880D01*
X149780224Y-89088541D01*
X149781399Y-89089692D01*
X149830384Y-89124775D01*
X149876969Y-89158140D01*
X149876971Y-89158141D01*
X149981914Y-89211113D01*
X150093744Y-89247354D01*
X150130137Y-89253217D01*
X150142695Y-89255903D01*
X150159888Y-89260511D01*
X150165402Y-89260511D01*
X150185390Y-89262106D01*
X150198765Y-89264256D01*
X150213104Y-89262017D01*
X150232534Y-89260511D01*
X152254924Y-89260511D01*
X152254948Y-89260512D01*
X152265085Y-89260511D01*
X152265089Y-89260513D01*
X152304427Y-89260511D01*
X152320864Y-89261587D01*
X152389884Y-89270671D01*
X152421652Y-89279183D01*
X152478263Y-89302630D01*
X152506747Y-89319075D01*
X152537637Y-89342777D01*
X152555323Y-89356348D01*
X152578591Y-89379619D01*
X152579576Y-89380903D01*
X152596002Y-89409350D01*
X152596603Y-89410800D01*
X152605127Y-89442606D01*
X152605946Y-89448826D01*
X152606423Y-89452446D01*
X152607499Y-89468881D01*
X152607499Y-89518344D01*
X152607500Y-89518357D01*
X152607500Y-93465833D01*
X152607502Y-93465870D01*
X152607502Y-93491702D01*
X152635710Y-93633517D01*
X152635712Y-93633523D01*
X152691050Y-93767123D01*
X152771389Y-93887359D01*
X152771391Y-93887361D01*
X152784448Y-93900418D01*
X152784469Y-93900441D01*
X152785608Y-93901580D01*
X152785611Y-93901586D01*
X152873631Y-93989606D01*
X152873637Y-93989611D01*
X152873639Y-93989613D01*
X152993876Y-94069952D01*
X153127476Y-94125290D01*
X153127477Y-94125290D01*
X153127482Y-94125292D01*
X153181995Y-94136134D01*
X153208312Y-94144450D01*
X153223883Y-94151326D01*
X153314915Y-94171634D01*
X153319753Y-94172633D01*
X153319764Y-94172635D01*
X153320457Y-94172767D01*
X153320472Y-94172769D01*
X153320490Y-94172773D01*
X153325455Y-94173633D01*
X153410256Y-94186911D01*
X153466349Y-94195852D01*
X153480040Y-94198824D01*
X153497123Y-94203541D01*
X153523091Y-94213934D01*
X153528678Y-94216928D01*
X153532302Y-94218870D01*
X153540906Y-94223930D01*
X153602103Y-94263259D01*
X153607931Y-94267004D01*
X153732228Y-94303500D01*
X153732232Y-94303500D01*
X153861768Y-94303500D01*
X153861772Y-94303500D01*
X153986069Y-94267004D01*
X153987376Y-94266163D01*
X153988864Y-94265726D01*
X153994268Y-94263259D01*
X153994622Y-94264035D01*
X154055495Y-94246159D01*
X154123617Y-94266159D01*
X154170112Y-94319813D01*
X154181500Y-94372159D01*
X154181500Y-95062140D01*
X154180422Y-95078588D01*
X154177426Y-95101343D01*
X154168913Y-95133113D01*
X154163317Y-95146623D01*
X154146868Y-95175112D01*
X154136698Y-95188365D01*
X154116672Y-95209057D01*
X154044009Y-95268691D01*
X154023469Y-95282415D01*
X153938740Y-95327702D01*
X153915921Y-95337154D01*
X153823978Y-95365044D01*
X153799753Y-95369862D01*
X153697902Y-95379893D01*
X153685552Y-95380500D01*
X149777391Y-95380500D01*
X149777345Y-95380504D01*
X149750247Y-95380504D01*
X149695209Y-95389220D01*
X149576483Y-95408023D01*
X149409164Y-95462387D01*
X149409158Y-95462390D01*
X149252405Y-95542259D01*
X149252404Y-95542260D01*
X149110073Y-95645667D01*
X149061390Y-95694347D01*
X149061383Y-95694357D01*
X149047870Y-95707870D01*
X149036000Y-95719740D01*
X149010006Y-95745733D01*
X149009955Y-95745792D01*
X148988715Y-95767033D01*
X148890360Y-95902406D01*
X148890355Y-95902413D01*
X148814391Y-96051498D01*
X148762679Y-96210648D01*
X148736501Y-96375908D01*
X148736501Y-96399593D01*
X148736500Y-96399609D01*
X148736500Y-96459575D01*
X148736499Y-96518410D01*
X148736500Y-96518419D01*
X148736500Y-96616783D01*
X148716498Y-96684904D01*
X148672857Y-96722718D01*
X148673869Y-96724194D01*
X148664232Y-96730795D01*
X148584795Y-96810232D01*
X148584794Y-96810234D01*
X148539414Y-96913009D01*
X148536500Y-96938129D01*
X148536500Y-98277859D01*
X148536501Y-98277863D01*
X148537675Y-98287984D01*
X148525654Y-98357955D01*
X148477712Y-98410320D01*
X148412514Y-98428500D01*
X146669393Y-98428500D01*
X146657044Y-98427893D01*
X146640134Y-98426227D01*
X146555243Y-98417867D01*
X146531018Y-98413049D01*
X146522021Y-98410320D01*
X146439077Y-98385160D01*
X146416256Y-98375707D01*
X146331526Y-98330418D01*
X146310988Y-98316695D01*
X146236736Y-98255758D01*
X146219270Y-98238292D01*
X146142514Y-98144763D01*
X146128792Y-98124226D01*
X146071766Y-98017537D01*
X146062313Y-97994715D01*
X146027197Y-97878948D01*
X146022380Y-97854735D01*
X146009905Y-97728052D01*
X146009300Y-97715719D01*
X146009300Y-94039533D01*
X146013095Y-94008842D01*
X146014661Y-94002609D01*
X146014661Y-94002603D01*
X146014662Y-94002600D01*
X146019091Y-93913562D01*
X146021097Y-93896581D01*
X146030571Y-93846102D01*
X146036350Y-93825322D01*
X146048701Y-93792215D01*
X146056984Y-93774403D01*
X146079149Y-93735087D01*
X146084809Y-93726000D01*
X151436867Y-93726000D01*
X151455303Y-93854226D01*
X151509118Y-93972063D01*
X151593936Y-94069950D01*
X151593951Y-94069967D01*
X151680038Y-94125292D01*
X151702931Y-94140004D01*
X151827228Y-94176500D01*
X151827232Y-94176500D01*
X151956768Y-94176500D01*
X151956772Y-94176500D01*
X152081069Y-94140004D01*
X152190049Y-94069967D01*
X152274882Y-93972063D01*
X152328697Y-93854226D01*
X152347133Y-93726000D01*
X152328697Y-93597774D01*
X152274882Y-93479937D01*
X152190049Y-93382033D01*
X152190048Y-93382032D01*
X152081073Y-93311998D01*
X152081070Y-93311996D01*
X152081069Y-93311996D01*
X152081066Y-93311995D01*
X151956776Y-93275501D01*
X151956774Y-93275500D01*
X151956772Y-93275500D01*
X151827228Y-93275500D01*
X151827225Y-93275500D01*
X151827223Y-93275501D01*
X151702933Y-93311995D01*
X151702926Y-93311998D01*
X151593951Y-93382032D01*
X151544593Y-93438996D01*
X151509118Y-93479937D01*
X151455303Y-93597774D01*
X151436867Y-93726000D01*
X146084809Y-93726000D01*
X146084959Y-93725759D01*
X146107948Y-93692221D01*
X146116638Y-93680963D01*
X146141682Y-93652063D01*
X146195497Y-93534226D01*
X146213933Y-93406000D01*
X146195497Y-93277774D01*
X146141682Y-93159937D01*
X146141680Y-93159934D01*
X146116653Y-93131051D01*
X146107955Y-93119785D01*
X146084973Y-93086258D01*
X146079151Y-93076911D01*
X146069233Y-93059320D01*
X146056992Y-93037608D01*
X146048699Y-93019772D01*
X146036354Y-92986680D01*
X146030572Y-92965894D01*
X146021096Y-92915407D01*
X146019092Y-92898441D01*
X146019091Y-92898429D01*
X146014661Y-92809390D01*
X146014660Y-92809387D01*
X146012724Y-92801250D01*
X146009300Y-92772076D01*
X146009300Y-91816710D01*
X146029302Y-91748589D01*
X146052791Y-91721483D01*
X146056847Y-91717968D01*
X146056846Y-91717968D01*
X146056849Y-91717967D01*
X146141682Y-91620063D01*
X146195497Y-91502226D01*
X146213933Y-91374000D01*
X146195497Y-91245774D01*
X146141682Y-91127937D01*
X146056849Y-91030033D01*
X146056848Y-91030032D01*
X145947873Y-90959998D01*
X145947870Y-90959996D01*
X145947869Y-90959996D01*
X145916880Y-90950897D01*
X145823576Y-90923501D01*
X145823574Y-90923500D01*
X145823572Y-90923500D01*
X145694028Y-90923500D01*
X145694025Y-90923500D01*
X145694023Y-90923501D01*
X145569733Y-90959995D01*
X145569726Y-90959998D01*
X145460750Y-91030032D01*
X145399531Y-91100685D01*
X145339805Y-91139069D01*
X145268809Y-91139069D01*
X145209083Y-91100687D01*
X145205050Y-91096033D01*
X145096073Y-91025998D01*
X145096070Y-91025996D01*
X145096069Y-91025996D01*
X145095899Y-91025946D01*
X144971776Y-90989501D01*
X144971774Y-90989500D01*
X144971772Y-90989500D01*
X144842228Y-90989500D01*
X144842225Y-90989500D01*
X144842223Y-90989501D01*
X144717933Y-91025995D01*
X144717926Y-91025998D01*
X144608951Y-91096032D01*
X144545212Y-91169593D01*
X144524118Y-91193937D01*
X144470303Y-91311774D01*
X144451867Y-91440000D01*
X135525287Y-91440000D01*
X135475366Y-91339745D01*
X135346872Y-91169593D01*
X135275623Y-91104640D01*
X135189300Y-91025946D01*
X135189298Y-91025945D01*
X135008025Y-90913705D01*
X135008021Y-90913703D01*
X135008019Y-90913702D01*
X134854374Y-90854180D01*
X134809199Y-90836679D01*
X134733021Y-90822439D01*
X134599610Y-90797500D01*
X134386390Y-90797500D01*
X134260637Y-90821007D01*
X134176800Y-90836679D01*
X134079238Y-90874475D01*
X133977981Y-90913702D01*
X133977980Y-90913702D01*
X133977979Y-90913703D01*
X133977974Y-90913705D01*
X133796701Y-91025945D01*
X133796699Y-91025946D01*
X133639129Y-91169591D01*
X133620744Y-91193937D01*
X133510634Y-91339745D01*
X133429730Y-91502224D01*
X133415593Y-91530615D01*
X133357244Y-91735688D01*
X133337571Y-91948000D01*
X126465300Y-91948000D01*
X126465300Y-88392000D01*
X127368571Y-88392000D01*
X127388244Y-88604311D01*
X127446593Y-88809384D01*
X127446594Y-88809386D01*
X127446595Y-88809389D01*
X127541634Y-89000255D01*
X127660865Y-89158141D01*
X127670129Y-89170408D01*
X127827699Y-89314053D01*
X127827701Y-89314054D01*
X128008974Y-89426294D01*
X128008975Y-89426294D01*
X128008981Y-89426298D01*
X128207802Y-89503321D01*
X128417390Y-89542500D01*
X128417393Y-89542500D01*
X128630607Y-89542500D01*
X128630610Y-89542500D01*
X128840198Y-89503321D01*
X129039019Y-89426298D01*
X129220302Y-89314052D01*
X129377872Y-89170407D01*
X129390260Y-89154003D01*
X131297722Y-89154003D01*
X131316761Y-89310815D01*
X131334030Y-89356348D01*
X131372780Y-89458523D01*
X131372781Y-89458525D01*
X131372782Y-89458526D01*
X131372783Y-89458529D01*
X131448919Y-89568830D01*
X131462517Y-89588530D01*
X131580760Y-89693283D01*
X131720635Y-89766696D01*
X131720636Y-89766696D01*
X131720638Y-89766697D01*
X131796907Y-89785495D01*
X131874015Y-89804500D01*
X131874017Y-89804500D01*
X132031983Y-89804500D01*
X132031985Y-89804500D01*
X132185365Y-89766696D01*
X132275444Y-89719417D01*
X132345057Y-89705471D01*
X132392554Y-89719417D01*
X132482635Y-89766696D01*
X132482636Y-89766696D01*
X132482638Y-89766697D01*
X132558907Y-89785495D01*
X132636015Y-89804500D01*
X132636017Y-89804500D01*
X132793983Y-89804500D01*
X132793985Y-89804500D01*
X132947365Y-89766696D01*
X133087240Y-89693283D01*
X133205483Y-89588530D01*
X133287342Y-89469937D01*
X133295216Y-89458529D01*
X133295216Y-89458528D01*
X133295220Y-89458523D01*
X133351237Y-89310818D01*
X133351237Y-89310817D01*
X133351238Y-89310815D01*
X133370278Y-89154003D01*
X133370278Y-89153996D01*
X133351238Y-88997184D01*
X133336188Y-88957501D01*
X133295220Y-88849477D01*
X133295216Y-88849472D01*
X133295216Y-88849470D01*
X133242119Y-88772546D01*
X137918500Y-88772546D01*
X137946829Y-88951409D01*
X137946830Y-88951412D01*
X137999291Y-89112875D01*
X138002789Y-89123639D01*
X138085004Y-89284994D01*
X138085006Y-89284997D01*
X138098763Y-89303932D01*
X138191447Y-89431501D01*
X138191449Y-89431503D01*
X138191451Y-89431506D01*
X138319493Y-89559548D01*
X138319496Y-89559550D01*
X138319499Y-89559553D01*
X138466006Y-89665996D01*
X138627361Y-89748211D01*
X138799591Y-89804171D01*
X138978454Y-89832500D01*
X138978457Y-89832500D01*
X139659543Y-89832500D01*
X139659546Y-89832500D01*
X139838409Y-89804171D01*
X140010639Y-89748211D01*
X140171994Y-89665996D01*
X140318501Y-89559553D01*
X140446553Y-89431501D01*
X140552996Y-89284994D01*
X140635211Y-89123639D01*
X140691171Y-88951409D01*
X140719500Y-88772546D01*
X140719500Y-88591454D01*
X140691171Y-88412591D01*
X140635211Y-88240361D01*
X140552996Y-88079006D01*
X140446553Y-87932499D01*
X140446550Y-87932496D01*
X140446548Y-87932493D01*
X140318506Y-87804451D01*
X140318503Y-87804449D01*
X140318501Y-87804447D01*
X140171994Y-87698004D01*
X140104256Y-87663489D01*
X140052641Y-87614741D01*
X140035576Y-87545826D01*
X140058477Y-87478624D01*
X140113241Y-87434815D01*
X140245547Y-87380013D01*
X140393035Y-87281464D01*
X140518464Y-87156035D01*
X140617013Y-87008547D01*
X140684894Y-86844666D01*
X140719500Y-86670691D01*
X140719500Y-86493309D01*
X140684894Y-86319334D01*
X140617013Y-86155453D01*
X140518464Y-86007965D01*
X140518459Y-86007959D01*
X140393040Y-85882540D01*
X140393034Y-85882535D01*
X140316770Y-85831577D01*
X140245547Y-85783987D01*
X140105663Y-85726046D01*
X140081671Y-85716108D01*
X140081666Y-85716106D01*
X140028739Y-85705578D01*
X139965832Y-85672671D01*
X139930700Y-85610976D01*
X139934500Y-85540081D01*
X139976026Y-85482495D01*
X140028739Y-85458421D01*
X140081666Y-85447894D01*
X140245547Y-85380013D01*
X140393035Y-85281464D01*
X140518464Y-85156035D01*
X140617013Y-85008547D01*
X140684894Y-84844666D01*
X140719500Y-84670691D01*
X140719500Y-84493309D01*
X140684894Y-84319334D01*
X140617013Y-84155453D01*
X140518464Y-84007965D01*
X140518463Y-84007964D01*
X140518461Y-84007961D01*
X140393040Y-83882540D01*
X140393034Y-83882535D01*
X140344095Y-83849835D01*
X140245547Y-83783987D01*
X140129328Y-83735848D01*
X140102919Y-83724909D01*
X140047638Y-83680361D01*
X140025217Y-83612997D01*
X140042775Y-83544206D01*
X140094737Y-83495828D01*
X140151137Y-83482500D01*
X140235141Y-83482500D01*
X140235144Y-83482500D01*
X140319590Y-83472359D01*
X140453975Y-83419364D01*
X140569078Y-83332078D01*
X140656364Y-83216975D01*
X140709359Y-83082590D01*
X140719500Y-82998144D01*
X140719500Y-82165856D01*
X140709359Y-82081410D01*
X140703134Y-82065625D01*
X140656364Y-81947025D01*
X140656361Y-81947021D01*
X140569078Y-81831921D01*
X140453978Y-81744638D01*
X140453974Y-81744635D01*
X140319590Y-81691640D01*
X140319591Y-81691640D01*
X140245237Y-81682712D01*
X140179987Y-81654731D01*
X140140223Y-81595915D01*
X140138570Y-81524937D01*
X140175553Y-81464334D01*
X140186193Y-81455679D01*
X140318501Y-81359553D01*
X140446553Y-81231501D01*
X140552996Y-81084994D01*
X140635211Y-80923639D01*
X140691171Y-80751409D01*
X140719500Y-80572546D01*
X140719500Y-80391454D01*
X140691171Y-80212591D01*
X140635211Y-80040361D01*
X140552996Y-79879006D01*
X140446553Y-79732499D01*
X140446550Y-79732496D01*
X140446548Y-79732493D01*
X140318506Y-79604451D01*
X140318503Y-79604449D01*
X140318501Y-79604447D01*
X140171994Y-79498004D01*
X140010639Y-79415789D01*
X140010636Y-79415788D01*
X140010634Y-79415787D01*
X139838412Y-79359830D01*
X139838409Y-79359829D01*
X139659546Y-79331500D01*
X138978454Y-79331500D01*
X138799591Y-79359829D01*
X138799588Y-79359829D01*
X138799587Y-79359830D01*
X138627365Y-79415787D01*
X138627359Y-79415790D01*
X138466002Y-79498006D01*
X138319496Y-79604449D01*
X138319493Y-79604451D01*
X138191451Y-79732493D01*
X138191449Y-79732496D01*
X138085006Y-79879002D01*
X138002790Y-80040359D01*
X138002787Y-80040365D01*
X137987810Y-80086461D01*
X137946829Y-80212591D01*
X137918500Y-80391454D01*
X137918500Y-80572546D01*
X137946829Y-80751409D01*
X137946830Y-80751412D01*
X137989115Y-80881556D01*
X138002789Y-80923639D01*
X138085004Y-81084994D01*
X138191447Y-81231501D01*
X138191449Y-81231503D01*
X138191451Y-81231506D01*
X138319493Y-81359548D01*
X138319496Y-81359550D01*
X138319499Y-81359553D01*
X138407486Y-81423479D01*
X138451800Y-81455675D01*
X138495154Y-81511897D01*
X138501229Y-81582633D01*
X138468098Y-81645425D01*
X138406278Y-81680336D01*
X138392762Y-81682712D01*
X138318409Y-81691640D01*
X138184025Y-81744635D01*
X138184021Y-81744638D01*
X138068921Y-81831921D01*
X137981638Y-81947021D01*
X137981635Y-81947025D01*
X137928640Y-82081409D01*
X137918500Y-82165853D01*
X137918500Y-82998146D01*
X137928640Y-83082590D01*
X137981635Y-83216974D01*
X137981638Y-83216978D01*
X138068921Y-83332078D01*
X138184021Y-83419361D01*
X138184025Y-83419364D01*
X138318409Y-83472359D01*
X138318408Y-83472359D01*
X138341457Y-83475126D01*
X138402856Y-83482500D01*
X138402859Y-83482500D01*
X138486863Y-83482500D01*
X138554984Y-83502502D01*
X138601477Y-83556158D01*
X138611581Y-83626432D01*
X138582087Y-83691012D01*
X138535081Y-83724909D01*
X138392453Y-83783987D01*
X138244965Y-83882535D01*
X138244959Y-83882540D01*
X138119540Y-84007959D01*
X138119539Y-84007961D01*
X138119536Y-84007964D01*
X138119536Y-84007965D01*
X138045352Y-84118989D01*
X138020987Y-84155453D01*
X137953108Y-84319328D01*
X137953106Y-84319333D01*
X137918500Y-84493306D01*
X137918500Y-84670693D01*
X137948429Y-84821153D01*
X137953106Y-84844666D01*
X138020987Y-85008547D01*
X138032365Y-85025575D01*
X138119535Y-85156034D01*
X138119540Y-85156040D01*
X138244959Y-85281459D01*
X138244965Y-85281464D01*
X138392453Y-85380013D01*
X138556334Y-85447894D01*
X138609258Y-85458421D01*
X138672168Y-85491329D01*
X138707299Y-85553024D01*
X138703499Y-85623919D01*
X138661973Y-85681505D01*
X138609259Y-85705578D01*
X138579158Y-85711566D01*
X138556333Y-85716106D01*
X138556328Y-85716108D01*
X138392453Y-85783987D01*
X138244965Y-85882535D01*
X138244959Y-85882540D01*
X138119540Y-86007959D01*
X138119535Y-86007965D01*
X138020987Y-86155453D01*
X137953108Y-86319328D01*
X137953106Y-86319333D01*
X137918500Y-86493306D01*
X137918500Y-86670693D01*
X137932242Y-86739775D01*
X137953106Y-86844666D01*
X138020987Y-87008547D01*
X138072600Y-87085791D01*
X138119535Y-87156034D01*
X138119540Y-87156040D01*
X138244959Y-87281459D01*
X138244965Y-87281464D01*
X138392453Y-87380013D01*
X138392455Y-87380014D01*
X138524756Y-87434814D01*
X138580038Y-87479362D01*
X138602459Y-87546725D01*
X138584901Y-87615516D01*
X138533743Y-87663489D01*
X138466005Y-87698004D01*
X138319496Y-87804449D01*
X138319493Y-87804451D01*
X138191451Y-87932493D01*
X138191449Y-87932496D01*
X138085006Y-88079002D01*
X138002790Y-88240359D01*
X138002787Y-88240365D01*
X137977691Y-88317605D01*
X137946829Y-88412591D01*
X137918500Y-88591454D01*
X137918500Y-88772546D01*
X133242119Y-88772546D01*
X133205483Y-88719470D01*
X133205481Y-88719468D01*
X133087240Y-88614717D01*
X132947365Y-88541304D01*
X132947361Y-88541302D01*
X132793987Y-88503500D01*
X132793985Y-88503500D01*
X132636015Y-88503500D01*
X132636012Y-88503500D01*
X132482638Y-88541302D01*
X132482636Y-88541303D01*
X132392555Y-88588582D01*
X132322942Y-88602528D01*
X132275445Y-88588582D01*
X132185363Y-88541303D01*
X132185361Y-88541302D01*
X132031987Y-88503500D01*
X132031985Y-88503500D01*
X131874015Y-88503500D01*
X131874012Y-88503500D01*
X131720638Y-88541302D01*
X131720634Y-88541304D01*
X131580759Y-88614717D01*
X131462518Y-88719468D01*
X131462516Y-88719470D01*
X131372783Y-88849470D01*
X131372782Y-88849473D01*
X131372781Y-88849475D01*
X131372780Y-88849477D01*
X131358199Y-88887923D01*
X131316761Y-88997184D01*
X131297722Y-89153996D01*
X131297722Y-89154003D01*
X129390260Y-89154003D01*
X129506366Y-89000255D01*
X129601405Y-88809389D01*
X129659756Y-88604310D01*
X129679429Y-88392000D01*
X129659756Y-88179690D01*
X129601405Y-87974611D01*
X129506366Y-87783745D01*
X129377872Y-87613593D01*
X129359614Y-87596948D01*
X129220300Y-87469946D01*
X129220298Y-87469945D01*
X129039025Y-87357705D01*
X129039021Y-87357703D01*
X129039019Y-87357702D01*
X128917222Y-87310517D01*
X128840199Y-87280679D01*
X128787801Y-87270884D01*
X128630610Y-87241500D01*
X128417390Y-87241500D01*
X128291637Y-87265007D01*
X128207800Y-87280679D01*
X128059941Y-87337960D01*
X128008981Y-87357702D01*
X128008980Y-87357702D01*
X128008979Y-87357703D01*
X128008974Y-87357705D01*
X127827701Y-87469945D01*
X127827699Y-87469946D01*
X127670129Y-87613591D01*
X127606383Y-87698004D01*
X127541634Y-87783745D01*
X127478397Y-87910744D01*
X127446593Y-87974615D01*
X127388244Y-88179688D01*
X127368571Y-88392000D01*
X126465300Y-88392000D01*
X126465300Y-85979003D01*
X136250722Y-85979003D01*
X136269761Y-86135815D01*
X136297771Y-86209670D01*
X136325780Y-86283523D01*
X136325781Y-86283525D01*
X136325782Y-86283526D01*
X136325783Y-86283529D01*
X136415516Y-86413529D01*
X136415518Y-86413531D01*
X136473424Y-86464831D01*
X136533760Y-86518283D01*
X136673635Y-86591696D01*
X136673636Y-86591696D01*
X136673638Y-86591697D01*
X136749927Y-86610500D01*
X136827015Y-86629500D01*
X136827017Y-86629500D01*
X136984983Y-86629500D01*
X136984985Y-86629500D01*
X137138365Y-86591696D01*
X137278240Y-86518283D01*
X137396483Y-86413530D01*
X137486220Y-86283523D01*
X137542237Y-86135818D01*
X137542237Y-86135817D01*
X137542238Y-86135815D01*
X137561278Y-85979003D01*
X137561278Y-85978996D01*
X137542238Y-85822184D01*
X137531109Y-85792841D01*
X137486220Y-85674477D01*
X137486216Y-85674472D01*
X137486216Y-85674470D01*
X137396483Y-85544470D01*
X137396481Y-85544468D01*
X137278240Y-85439717D01*
X137138365Y-85366304D01*
X137138361Y-85366302D01*
X136984987Y-85328500D01*
X136984985Y-85328500D01*
X136827015Y-85328500D01*
X136827012Y-85328500D01*
X136673638Y-85366302D01*
X136673634Y-85366304D01*
X136533759Y-85439717D01*
X136415518Y-85544468D01*
X136415516Y-85544470D01*
X136325783Y-85674470D01*
X136325782Y-85674473D01*
X136325781Y-85674475D01*
X136325780Y-85674477D01*
X136313985Y-85705579D01*
X136269761Y-85822184D01*
X136250722Y-85978996D01*
X136250722Y-85979003D01*
X126465300Y-85979003D01*
X126465300Y-83481261D01*
X131200500Y-83481261D01*
X131210427Y-83549394D01*
X131261801Y-83654482D01*
X131261803Y-83654485D01*
X131344514Y-83737196D01*
X131344517Y-83737198D01*
X131449607Y-83788573D01*
X131517740Y-83798500D01*
X131517745Y-83798500D01*
X132134255Y-83798500D01*
X132134260Y-83798500D01*
X132159122Y-83794877D01*
X132180411Y-83791776D01*
X132238973Y-83799066D01*
X132239558Y-83797344D01*
X132243464Y-83798670D01*
X132439024Y-83851071D01*
X132439023Y-83851071D01*
X132462376Y-83854145D01*
X132639753Y-83877499D01*
X132676483Y-83877499D01*
X132676491Y-83877500D01*
X132691158Y-83877500D01*
X132730784Y-83877500D01*
X132798905Y-83897502D01*
X132836719Y-83941142D01*
X132838195Y-83940132D01*
X132844795Y-83949767D01*
X132924232Y-84029204D01*
X132924234Y-84029205D01*
X132924235Y-84029206D01*
X133027009Y-84074585D01*
X133052135Y-84077500D01*
X134166864Y-84077499D01*
X134191991Y-84074585D01*
X134294765Y-84029206D01*
X134374206Y-83949765D01*
X134419585Y-83846991D01*
X134422500Y-83821865D01*
X134422499Y-83432136D01*
X134419585Y-83407009D01*
X134393447Y-83347811D01*
X134374206Y-83304234D01*
X134294767Y-83224795D01*
X134294765Y-83224794D01*
X134191989Y-83179414D01*
X134191990Y-83179414D01*
X134166868Y-83176500D01*
X133052140Y-83176500D01*
X133052133Y-83176501D01*
X133027009Y-83179414D01*
X133027005Y-83179416D01*
X132924234Y-83224793D01*
X132844795Y-83304232D01*
X132838195Y-83313868D01*
X132836201Y-83312502D01*
X132800739Y-83354482D01*
X132732874Y-83375337D01*
X132721406Y-83374958D01*
X132587640Y-83364429D01*
X132568107Y-83361335D01*
X132548080Y-83356526D01*
X132486513Y-83321172D01*
X132453833Y-83258144D01*
X132451500Y-83234009D01*
X132451500Y-83014744D01*
X132451500Y-83014740D01*
X132441573Y-82946607D01*
X132390198Y-82841517D01*
X132390196Y-82841514D01*
X132307485Y-82758803D01*
X132307482Y-82758801D01*
X132202394Y-82707427D01*
X132134261Y-82697500D01*
X132134260Y-82697500D01*
X131517740Y-82697500D01*
X131517738Y-82697500D01*
X131449605Y-82707427D01*
X131344517Y-82758801D01*
X131344514Y-82758803D01*
X131261803Y-82841514D01*
X131261801Y-82841517D01*
X131210427Y-82946605D01*
X131200500Y-83014738D01*
X131200500Y-83481261D01*
X126465300Y-83481261D01*
X126465300Y-81831261D01*
X131200500Y-81831261D01*
X131210427Y-81899394D01*
X131261801Y-82004482D01*
X131261803Y-82004485D01*
X131344514Y-82087196D01*
X131344517Y-82087198D01*
X131449607Y-82138573D01*
X131517740Y-82148500D01*
X131517745Y-82148500D01*
X132134255Y-82148500D01*
X132134260Y-82148500D01*
X132202393Y-82138573D01*
X132307483Y-82087198D01*
X132390198Y-82004483D01*
X132441573Y-81899393D01*
X132451500Y-81831260D01*
X132451500Y-81364740D01*
X132441573Y-81296607D01*
X132396220Y-81203836D01*
X132384273Y-81133854D01*
X132412058Y-81068520D01*
X132470754Y-81028579D01*
X132509419Y-81022500D01*
X134198212Y-81022500D01*
X134266333Y-81042502D01*
X134297188Y-81070528D01*
X134301342Y-81075801D01*
X134327785Y-81141689D01*
X134314408Y-81211414D01*
X134265459Y-81262839D01*
X134196478Y-81279635D01*
X134187847Y-81278934D01*
X134173845Y-81277309D01*
X134166865Y-81276500D01*
X134166864Y-81276500D01*
X133052140Y-81276500D01*
X133052133Y-81276501D01*
X133027009Y-81279414D01*
X133027005Y-81279416D01*
X132924234Y-81324793D01*
X132844795Y-81404232D01*
X132844794Y-81404234D01*
X132799414Y-81507009D01*
X132796500Y-81532130D01*
X132796500Y-81921860D01*
X132796501Y-81921866D01*
X132799414Y-81946989D01*
X132799416Y-81946994D01*
X132844793Y-82049765D01*
X132924232Y-82129204D01*
X132924234Y-82129205D01*
X132924235Y-82129206D01*
X133027009Y-82174585D01*
X133052135Y-82177500D01*
X134166864Y-82177499D01*
X134191991Y-82174585D01*
X134294765Y-82129206D01*
X134374206Y-82049765D01*
X134419585Y-81946991D01*
X134422500Y-81921865D01*
X134422499Y-81532136D01*
X134419585Y-81507009D01*
X134375535Y-81407246D01*
X134366318Y-81336853D01*
X134396622Y-81272649D01*
X134456827Y-81235020D01*
X134527818Y-81235915D01*
X134541398Y-81240959D01*
X134549748Y-81244622D01*
X134554056Y-81246609D01*
X134594069Y-81265999D01*
X134623139Y-81285487D01*
X134641192Y-81301641D01*
X134646605Y-81306485D01*
X134657805Y-81317866D01*
X134702952Y-81369968D01*
X134791256Y-81426717D01*
X134811931Y-81440004D01*
X134936228Y-81476500D01*
X134936232Y-81476500D01*
X135065768Y-81476500D01*
X135065772Y-81476500D01*
X135190069Y-81440004D01*
X135299049Y-81369967D01*
X135383882Y-81272063D01*
X135437697Y-81154226D01*
X135456133Y-81026000D01*
X135437697Y-80897774D01*
X135383882Y-80779937D01*
X135299049Y-80682033D01*
X135299048Y-80682032D01*
X135190073Y-80611998D01*
X135190070Y-80611996D01*
X135190069Y-80611996D01*
X135147034Y-80599360D01*
X135065776Y-80575501D01*
X135065774Y-80575500D01*
X135065772Y-80575500D01*
X135015972Y-80575500D01*
X134947851Y-80555498D01*
X134901358Y-80501842D01*
X134891254Y-80431568D01*
X134902776Y-80394160D01*
X134904099Y-80391454D01*
X134906573Y-80386393D01*
X134916500Y-80318260D01*
X134916500Y-79701740D01*
X134906573Y-79633607D01*
X134855198Y-79528517D01*
X134855196Y-79528514D01*
X134772485Y-79445803D01*
X134772482Y-79445801D01*
X134667394Y-79394427D01*
X134599261Y-79384500D01*
X134599260Y-79384500D01*
X134132740Y-79384500D01*
X134132738Y-79384500D01*
X134064605Y-79394427D01*
X133959517Y-79445801D01*
X133959514Y-79445803D01*
X133876803Y-79528514D01*
X133876801Y-79528517D01*
X133825427Y-79633605D01*
X133815500Y-79701738D01*
X133815500Y-80318261D01*
X133824107Y-80377334D01*
X133814135Y-80447627D01*
X133767743Y-80501370D01*
X133699660Y-80521500D01*
X132199632Y-80521500D01*
X132199608Y-80521502D01*
X132192223Y-80521502D01*
X132060063Y-80547789D01*
X132060062Y-80547790D01*
X131935560Y-80599360D01*
X131823517Y-80674224D01*
X131823514Y-80674227D01*
X131812773Y-80684966D01*
X131812761Y-80684973D01*
X131728227Y-80769507D01*
X131728224Y-80769511D01*
X131653359Y-80881556D01*
X131616316Y-80970986D01*
X131571767Y-81026266D01*
X131518074Y-81047450D01*
X131449609Y-81057425D01*
X131449606Y-81057426D01*
X131344517Y-81108801D01*
X131344514Y-81108803D01*
X131261803Y-81191514D01*
X131261801Y-81191517D01*
X131210427Y-81296605D01*
X131200500Y-81364738D01*
X131200500Y-81831261D01*
X126465300Y-81831261D01*
X126465300Y-75118000D01*
X134037867Y-75118000D01*
X134056303Y-75246226D01*
X134110118Y-75364063D01*
X134190308Y-75456609D01*
X134194951Y-75461967D01*
X134303921Y-75531998D01*
X134303931Y-75532004D01*
X134428228Y-75568500D01*
X134428232Y-75568500D01*
X134557768Y-75568500D01*
X134557772Y-75568500D01*
X134682069Y-75532004D01*
X134791049Y-75461967D01*
X134797862Y-75456064D01*
X134798333Y-75456608D01*
X134810656Y-75445600D01*
X134812748Y-75444166D01*
X134822064Y-75438363D01*
X134861393Y-75416190D01*
X134879222Y-75407900D01*
X134912318Y-75395553D01*
X134933091Y-75389774D01*
X134983589Y-75380296D01*
X135000552Y-75378292D01*
X135089610Y-75373861D01*
X135097754Y-75371922D01*
X135126922Y-75368500D01*
X135891465Y-75368500D01*
X135922149Y-75372293D01*
X135928391Y-75373861D01*
X136000077Y-75377427D01*
X136017432Y-75378291D01*
X136034413Y-75380297D01*
X136056044Y-75384356D01*
X136084889Y-75389770D01*
X136105678Y-75395552D01*
X136138775Y-75407900D01*
X136156601Y-75416188D01*
X136195900Y-75438344D01*
X136205238Y-75444159D01*
X136207325Y-75445590D01*
X136219668Y-75456609D01*
X136220140Y-75456065D01*
X136226951Y-75461967D01*
X136335921Y-75531998D01*
X136335931Y-75532004D01*
X136460228Y-75568500D01*
X136460232Y-75568500D01*
X136589768Y-75568500D01*
X136589772Y-75568500D01*
X136692773Y-75538257D01*
X136763766Y-75538257D01*
X136823492Y-75576640D01*
X136852985Y-75641221D01*
X136850095Y-75681639D01*
X136851586Y-75681854D01*
X136850303Y-75690772D01*
X136850303Y-75690774D01*
X136834103Y-75803448D01*
X136831867Y-75819000D01*
X136850303Y-75947227D01*
X136871045Y-75992643D01*
X136873394Y-75998220D01*
X136874388Y-76000191D01*
X136876495Y-76004577D01*
X136885894Y-76025158D01*
X136895997Y-76095432D01*
X136866504Y-76160013D01*
X136806778Y-76198396D01*
X136771280Y-76203500D01*
X136390632Y-76203500D01*
X136390608Y-76203502D01*
X136383223Y-76203502D01*
X136251063Y-76229789D01*
X136251062Y-76229790D01*
X136126560Y-76281360D01*
X136014517Y-76356224D01*
X136014514Y-76356227D01*
X136003777Y-76366962D01*
X136003748Y-76366978D01*
X135918981Y-76451745D01*
X135843737Y-76564359D01*
X135791915Y-76689473D01*
X135765497Y-76822312D01*
X135765497Y-76822314D01*
X135765500Y-76884828D01*
X135765500Y-79290893D01*
X135745498Y-79359014D01*
X135694839Y-79404090D01*
X135609516Y-79445802D01*
X135609514Y-79445803D01*
X135526803Y-79528514D01*
X135526801Y-79528517D01*
X135475427Y-79633605D01*
X135465500Y-79701738D01*
X135465500Y-80318261D01*
X135475427Y-80386394D01*
X135526801Y-80491482D01*
X135526803Y-80491485D01*
X135609514Y-80574196D01*
X135609517Y-80574198D01*
X135714607Y-80625573D01*
X135782740Y-80635500D01*
X136019856Y-80635500D01*
X136087977Y-80655502D01*
X136134470Y-80709158D01*
X136145247Y-80749144D01*
X136146894Y-80765867D01*
X136147500Y-80778195D01*
X136147500Y-82100500D01*
X136127498Y-82168621D01*
X136073842Y-82215114D01*
X136021500Y-82226500D01*
X135327140Y-82226500D01*
X135327133Y-82226501D01*
X135302009Y-82229414D01*
X135302005Y-82229416D01*
X135199234Y-82274793D01*
X135119795Y-82354232D01*
X135119794Y-82354234D01*
X135074414Y-82457009D01*
X135071500Y-82482130D01*
X135071500Y-82871860D01*
X135071501Y-82871866D01*
X135074414Y-82896989D01*
X135074416Y-82896994D01*
X135119793Y-82999765D01*
X135199232Y-83079204D01*
X135199234Y-83079205D01*
X135199235Y-83079206D01*
X135302009Y-83124585D01*
X135327135Y-83127500D01*
X136374471Y-83127499D01*
X136442592Y-83147501D01*
X136489085Y-83201157D01*
X136499189Y-83271431D01*
X136469696Y-83336011D01*
X136458024Y-83347811D01*
X136415522Y-83385463D01*
X136415516Y-83385470D01*
X136325783Y-83515470D01*
X136325782Y-83515473D01*
X136269761Y-83663184D01*
X136250722Y-83819996D01*
X136250722Y-83820003D01*
X136269761Y-83976815D01*
X136289631Y-84029206D01*
X136325780Y-84124523D01*
X136325781Y-84124525D01*
X136325782Y-84124526D01*
X136325783Y-84124529D01*
X136415516Y-84254529D01*
X136415518Y-84254531D01*
X136427900Y-84265500D01*
X136533760Y-84359283D01*
X136673635Y-84432696D01*
X136673636Y-84432696D01*
X136673638Y-84432697D01*
X136750325Y-84451598D01*
X136827015Y-84470500D01*
X136827017Y-84470500D01*
X136984983Y-84470500D01*
X136984985Y-84470500D01*
X137138365Y-84432696D01*
X137278240Y-84359283D01*
X137396483Y-84254530D01*
X137486220Y-84124523D01*
X137542237Y-83976818D01*
X137542237Y-83976817D01*
X137542238Y-83976815D01*
X137561278Y-83820003D01*
X137561278Y-83819996D01*
X137542238Y-83663184D01*
X137534392Y-83642498D01*
X137486220Y-83515477D01*
X137486216Y-83515472D01*
X137486216Y-83515470D01*
X137396483Y-83385470D01*
X137396481Y-83385468D01*
X137278240Y-83280717D01*
X137138365Y-83207304D01*
X137138361Y-83207302D01*
X136984987Y-83169500D01*
X136984985Y-83169500D01*
X136827015Y-83169500D01*
X136827009Y-83169500D01*
X136792399Y-83178031D01*
X136721471Y-83174911D01*
X136663489Y-83133940D01*
X136636862Y-83068126D01*
X136646983Y-83004798D01*
X136649204Y-82999766D01*
X136649206Y-82999765D01*
X136694585Y-82896991D01*
X136697500Y-82871865D01*
X136697499Y-82482136D01*
X136694585Y-82457009D01*
X136658504Y-82375293D01*
X136649162Y-82316960D01*
X136648501Y-82316961D01*
X136648500Y-82312831D01*
X136648375Y-82312045D01*
X136648498Y-82310785D01*
X136648501Y-82310771D01*
X136648500Y-82243392D01*
X136648500Y-82226500D01*
X136648500Y-80722172D01*
X136648500Y-80712022D01*
X136648499Y-80712008D01*
X136648499Y-80680087D01*
X136647571Y-80674227D01*
X136619741Y-80498516D01*
X136595536Y-80424023D01*
X136572667Y-80353637D01*
X136566500Y-80314701D01*
X136566500Y-80007252D01*
X136586502Y-79939131D01*
X136640158Y-79892638D01*
X136710432Y-79882534D01*
X136727991Y-79886354D01*
X136841228Y-79919603D01*
X136841232Y-79919603D01*
X136970768Y-79919603D01*
X136970772Y-79919603D01*
X137095069Y-79883107D01*
X137204049Y-79813070D01*
X137288882Y-79715166D01*
X137342697Y-79597329D01*
X137361133Y-79469103D01*
X137342697Y-79340877D01*
X137314533Y-79279208D01*
X137304430Y-79208937D01*
X137333923Y-79144356D01*
X137393649Y-79105972D01*
X137459301Y-79104529D01*
X137589015Y-79136500D01*
X137589017Y-79136500D01*
X137746983Y-79136500D01*
X137746985Y-79136500D01*
X137900365Y-79098696D01*
X138040240Y-79025283D01*
X138158483Y-78920530D01*
X138248220Y-78790523D01*
X138304237Y-78642818D01*
X138304237Y-78642817D01*
X138304238Y-78642815D01*
X138323278Y-78486003D01*
X138323278Y-78485996D01*
X138304238Y-78329184D01*
X138286838Y-78283305D01*
X138248220Y-78181477D01*
X138248216Y-78181472D01*
X138248216Y-78181470D01*
X138158483Y-78051470D01*
X138158481Y-78051468D01*
X138040240Y-77946717D01*
X137900365Y-77873304D01*
X137900361Y-77873302D01*
X137746987Y-77835500D01*
X137746985Y-77835500D01*
X137589015Y-77835500D01*
X137589012Y-77835500D01*
X137435638Y-77873302D01*
X137435634Y-77873304D01*
X137295759Y-77946717D01*
X137184197Y-78045552D01*
X137177517Y-78051470D01*
X137159863Y-78077047D01*
X137132196Y-78117129D01*
X137077037Y-78161828D01*
X137006468Y-78169611D01*
X136942894Y-78138006D01*
X136906500Y-78077047D01*
X136902500Y-78045552D01*
X136902500Y-77276859D01*
X136903576Y-77260425D01*
X136906574Y-77237652D01*
X136915083Y-77205895D01*
X136920685Y-77192369D01*
X136937122Y-77163898D01*
X136946027Y-77152292D01*
X136969278Y-77129042D01*
X136980896Y-77120127D01*
X137009366Y-77103689D01*
X137022893Y-77098086D01*
X137054652Y-77089577D01*
X137077446Y-77086576D01*
X137093883Y-77085500D01*
X137555351Y-77085500D01*
X137555351Y-77085501D01*
X137555371Y-77085497D01*
X137555771Y-77085498D01*
X137555776Y-77085497D01*
X137555777Y-77085497D01*
X137687934Y-77059210D01*
X137687934Y-77059209D01*
X137687939Y-77059209D01*
X137812439Y-77007640D01*
X137924486Y-76932773D01*
X137934208Y-76923051D01*
X137947599Y-76909661D01*
X137947654Y-76909605D01*
X137971999Y-76885289D01*
X137972000Y-76885290D01*
X138019707Y-76837642D01*
X138094673Y-76725549D01*
X138146281Y-76600964D01*
X138172539Y-76468694D01*
X138172500Y-76401268D01*
X138172500Y-76401137D01*
X138172500Y-76387859D01*
X138173578Y-76371412D01*
X138174399Y-76365176D01*
X138203122Y-76300249D01*
X138262387Y-76261158D01*
X138333378Y-76260313D01*
X138381837Y-76286402D01*
X138385951Y-76289967D01*
X138490869Y-76357394D01*
X138494931Y-76360004D01*
X138619228Y-76396500D01*
X138619232Y-76396500D01*
X138748768Y-76396500D01*
X138748772Y-76396500D01*
X138873069Y-76360004D01*
X138982049Y-76289967D01*
X139066882Y-76192063D01*
X139120697Y-76074226D01*
X139139133Y-75946003D01*
X141330722Y-75946003D01*
X141349761Y-76102815D01*
X141365244Y-76143639D01*
X141405780Y-76250523D01*
X141405781Y-76250525D01*
X141405782Y-76250526D01*
X141405783Y-76250529D01*
X141494876Y-76379602D01*
X141495517Y-76380530D01*
X141613760Y-76485283D01*
X141753635Y-76558696D01*
X141753636Y-76558696D01*
X141753638Y-76558697D01*
X141786389Y-76566769D01*
X141907015Y-76596500D01*
X141907017Y-76596500D01*
X142064983Y-76596500D01*
X142064985Y-76596500D01*
X142218365Y-76558696D01*
X142358240Y-76485283D01*
X142476483Y-76380530D01*
X142558879Y-76261158D01*
X142566216Y-76250529D01*
X142566216Y-76250528D01*
X142566220Y-76250523D01*
X142622237Y-76102818D01*
X142622237Y-76102817D01*
X142622238Y-76102815D01*
X142641278Y-75946003D01*
X142641278Y-75945996D01*
X142622238Y-75789184D01*
X142614054Y-75767606D01*
X142566220Y-75641477D01*
X142566216Y-75641472D01*
X142566216Y-75641470D01*
X142476483Y-75511470D01*
X142476481Y-75511468D01*
X142358240Y-75406717D01*
X142218365Y-75333304D01*
X142218361Y-75333302D01*
X142064987Y-75295500D01*
X142064985Y-75295500D01*
X141907015Y-75295500D01*
X141907012Y-75295500D01*
X141753638Y-75333302D01*
X141753634Y-75333304D01*
X141613759Y-75406717D01*
X141495518Y-75511468D01*
X141495516Y-75511470D01*
X141405783Y-75641470D01*
X141405782Y-75641473D01*
X141349761Y-75789184D01*
X141330722Y-75945996D01*
X141330722Y-75946003D01*
X139139133Y-75946003D01*
X139139133Y-75946000D01*
X139120697Y-75817774D01*
X139066882Y-75699937D01*
X138982049Y-75602033D01*
X138982048Y-75602032D01*
X138873073Y-75531998D01*
X138873070Y-75531996D01*
X138873069Y-75531996D01*
X138873066Y-75531995D01*
X138748776Y-75495501D01*
X138748774Y-75495500D01*
X138748772Y-75495500D01*
X138619228Y-75495500D01*
X138619225Y-75495500D01*
X138619223Y-75495501D01*
X138494933Y-75531995D01*
X138494926Y-75531998D01*
X138385950Y-75602032D01*
X138379387Y-75607719D01*
X138369113Y-75617351D01*
X138341182Y-75638569D01*
X138319309Y-75651912D01*
X138305915Y-75658316D01*
X138289776Y-75666032D01*
X138277966Y-75670957D01*
X138216120Y-75693136D01*
X138212568Y-75694460D01*
X138125260Y-75728210D01*
X138118215Y-75731134D01*
X138117195Y-75731587D01*
X138110181Y-75734913D01*
X138049667Y-75765476D01*
X138041091Y-75769412D01*
X138031562Y-75773359D01*
X138031561Y-75773360D01*
X138030166Y-75774291D01*
X138017014Y-75781969D01*
X138015627Y-75782669D01*
X138011326Y-75784926D01*
X138010767Y-75785230D01*
X138005631Y-75789623D01*
X137993746Y-75798625D01*
X137927777Y-75842705D01*
X137860024Y-75863921D01*
X137791557Y-75845139D01*
X137744113Y-75792322D01*
X137733057Y-75755875D01*
X137723697Y-75690774D01*
X137669882Y-75572937D01*
X137585049Y-75475033D01*
X137585048Y-75475032D01*
X137476073Y-75404998D01*
X137476070Y-75404996D01*
X137476069Y-75404996D01*
X137476066Y-75404995D01*
X137351776Y-75368501D01*
X137351774Y-75368500D01*
X137351772Y-75368500D01*
X137222228Y-75368500D01*
X137222226Y-75368500D01*
X137222221Y-75368501D01*
X137119228Y-75398742D01*
X137048231Y-75398742D01*
X136988506Y-75360357D01*
X136959013Y-75295776D01*
X136961908Y-75255360D01*
X136960414Y-75255146D01*
X136961696Y-75246227D01*
X136961697Y-75246226D01*
X136980133Y-75118000D01*
X136961697Y-74989774D01*
X136907882Y-74871937D01*
X136823049Y-74774033D01*
X136823048Y-74774032D01*
X136714073Y-74703998D01*
X136714070Y-74703996D01*
X136714069Y-74703996D01*
X136714066Y-74703995D01*
X136589776Y-74667501D01*
X136589774Y-74667500D01*
X136589772Y-74667500D01*
X136460228Y-74667500D01*
X136460225Y-74667500D01*
X136460223Y-74667501D01*
X136335933Y-74703995D01*
X136335926Y-74703998D01*
X136226951Y-74774031D01*
X136220143Y-74779931D01*
X136219674Y-74779389D01*
X136207354Y-74790386D01*
X136205280Y-74791809D01*
X136205271Y-74791815D01*
X136195907Y-74797648D01*
X136156611Y-74819804D01*
X136156607Y-74819806D01*
X136138769Y-74828099D01*
X136105696Y-74840438D01*
X136084899Y-74846223D01*
X136034417Y-74855698D01*
X136017439Y-74857704D01*
X135928388Y-74862137D01*
X135924768Y-74862999D01*
X135920257Y-74864073D01*
X135891072Y-74867500D01*
X135126542Y-74867500D01*
X135095842Y-74863703D01*
X135089613Y-74862138D01*
X135000568Y-74857706D01*
X134983590Y-74855700D01*
X134933106Y-74846225D01*
X134912307Y-74840439D01*
X134879227Y-74828098D01*
X134861391Y-74819806D01*
X134822091Y-74797649D01*
X134812719Y-74791809D01*
X134810638Y-74790382D01*
X134798332Y-74779394D01*
X134797863Y-74779936D01*
X134791051Y-74774033D01*
X134682073Y-74703998D01*
X134682070Y-74703996D01*
X134682069Y-74703996D01*
X134682066Y-74703995D01*
X134557776Y-74667501D01*
X134557774Y-74667500D01*
X134557772Y-74667500D01*
X134428228Y-74667500D01*
X134428225Y-74667500D01*
X134428223Y-74667501D01*
X134303933Y-74703995D01*
X134303926Y-74703998D01*
X134194951Y-74774032D01*
X134134140Y-74844214D01*
X134110118Y-74871937D01*
X134056303Y-74989774D01*
X134037867Y-75118000D01*
X126465300Y-75118000D01*
X126465300Y-72898003D01*
X127487722Y-72898003D01*
X127506761Y-73054815D01*
X127534771Y-73128670D01*
X127562780Y-73202523D01*
X127562781Y-73202525D01*
X127562782Y-73202526D01*
X127562783Y-73202529D01*
X127652516Y-73332529D01*
X127652517Y-73332530D01*
X127770760Y-73437283D01*
X127910635Y-73510696D01*
X127910636Y-73510696D01*
X127910638Y-73510697D01*
X127936317Y-73517026D01*
X128064015Y-73548500D01*
X128064017Y-73548500D01*
X128221983Y-73548500D01*
X128221985Y-73548500D01*
X128375365Y-73510696D01*
X128515240Y-73437283D01*
X128567447Y-73391031D01*
X128631700Y-73360832D01*
X128702081Y-73370164D01*
X128734552Y-73391031D01*
X128786760Y-73437283D01*
X128926635Y-73510696D01*
X128926636Y-73510696D01*
X128926638Y-73510697D01*
X128952317Y-73517026D01*
X129080015Y-73548500D01*
X129080017Y-73548500D01*
X129237983Y-73548500D01*
X129237985Y-73548500D01*
X129391365Y-73510696D01*
X129531240Y-73437283D01*
X129583447Y-73391031D01*
X129647700Y-73360832D01*
X129718081Y-73370164D01*
X129750552Y-73391031D01*
X129802760Y-73437283D01*
X129942635Y-73510696D01*
X129942636Y-73510696D01*
X129942638Y-73510697D01*
X129968317Y-73517026D01*
X130096015Y-73548500D01*
X130096017Y-73548500D01*
X130253983Y-73548500D01*
X130253985Y-73548500D01*
X130407365Y-73510696D01*
X130547240Y-73437283D01*
X130665483Y-73332530D01*
X130755220Y-73202523D01*
X130811237Y-73054818D01*
X130811237Y-73054817D01*
X130811238Y-73054815D01*
X130830278Y-72898003D01*
X130830278Y-72897996D01*
X130811238Y-72741184D01*
X130803392Y-72720498D01*
X130755220Y-72593477D01*
X130755216Y-72593472D01*
X130755216Y-72593470D01*
X130665483Y-72463470D01*
X130665481Y-72463468D01*
X130547240Y-72358717D01*
X130407365Y-72285304D01*
X130407361Y-72285302D01*
X130253987Y-72247500D01*
X130253985Y-72247500D01*
X130096015Y-72247500D01*
X130096012Y-72247500D01*
X129942638Y-72285302D01*
X129942634Y-72285304D01*
X129802759Y-72358717D01*
X129750552Y-72404968D01*
X129686299Y-72435167D01*
X129615918Y-72425835D01*
X129583448Y-72404968D01*
X129531240Y-72358717D01*
X129391365Y-72285304D01*
X129391361Y-72285302D01*
X129237987Y-72247500D01*
X129237985Y-72247500D01*
X129080015Y-72247500D01*
X129080012Y-72247500D01*
X128926638Y-72285302D01*
X128926634Y-72285304D01*
X128786759Y-72358717D01*
X128734552Y-72404968D01*
X128670299Y-72435167D01*
X128599918Y-72425835D01*
X128567448Y-72404968D01*
X128515240Y-72358717D01*
X128375365Y-72285304D01*
X128375361Y-72285302D01*
X128221987Y-72247500D01*
X128221985Y-72247500D01*
X128064015Y-72247500D01*
X128064012Y-72247500D01*
X127910638Y-72285302D01*
X127910634Y-72285304D01*
X127770759Y-72358717D01*
X127652518Y-72463468D01*
X127652516Y-72463470D01*
X127562783Y-72593470D01*
X127562782Y-72593473D01*
X127506761Y-72741184D01*
X127487722Y-72897996D01*
X127487722Y-72898003D01*
X126465300Y-72898003D01*
X126465300Y-70866000D01*
X127353371Y-70866000D01*
X127373044Y-71078311D01*
X127431393Y-71283384D01*
X127431394Y-71283386D01*
X127431395Y-71283389D01*
X127526434Y-71474255D01*
X127620022Y-71598184D01*
X127654929Y-71644408D01*
X127812499Y-71788053D01*
X127812501Y-71788054D01*
X127993774Y-71900294D01*
X127993775Y-71900294D01*
X127993781Y-71900298D01*
X128192602Y-71977321D01*
X128402190Y-72016500D01*
X128402193Y-72016500D01*
X128615407Y-72016500D01*
X128615410Y-72016500D01*
X128824998Y-71977321D01*
X129023819Y-71900298D01*
X129205102Y-71788052D01*
X129241355Y-71755003D01*
X132059722Y-71755003D01*
X132078761Y-71911815D01*
X132103605Y-71977321D01*
X132134780Y-72059523D01*
X132134781Y-72059525D01*
X132134782Y-72059526D01*
X132134783Y-72059529D01*
X132224516Y-72189529D01*
X132224517Y-72189530D01*
X132342760Y-72294283D01*
X132482635Y-72367696D01*
X132482636Y-72367696D01*
X132482638Y-72367697D01*
X132559325Y-72386598D01*
X132636015Y-72405500D01*
X132636017Y-72405500D01*
X132793983Y-72405500D01*
X132793985Y-72405500D01*
X132947365Y-72367696D01*
X133087240Y-72294283D01*
X133205483Y-72189530D01*
X133295220Y-72059523D01*
X133351237Y-71911818D01*
X133351237Y-71911817D01*
X133351238Y-71911815D01*
X133370278Y-71755003D01*
X133370278Y-71754996D01*
X133351238Y-71598184D01*
X133343392Y-71577498D01*
X133295220Y-71450477D01*
X133295216Y-71450472D01*
X133295216Y-71450470D01*
X133205483Y-71320470D01*
X133205481Y-71320468D01*
X133087240Y-71215717D01*
X132947365Y-71142304D01*
X132947361Y-71142302D01*
X132793987Y-71104500D01*
X132793985Y-71104500D01*
X132636015Y-71104500D01*
X132636012Y-71104500D01*
X132482638Y-71142302D01*
X132482634Y-71142304D01*
X132342759Y-71215717D01*
X132224518Y-71320468D01*
X132224516Y-71320470D01*
X132134783Y-71450470D01*
X132134782Y-71450473D01*
X132078761Y-71598184D01*
X132059722Y-71754996D01*
X132059722Y-71755003D01*
X129241355Y-71755003D01*
X129362672Y-71644407D01*
X129491166Y-71474255D01*
X129586205Y-71283389D01*
X129644556Y-71078310D01*
X129664229Y-70866000D01*
X129644556Y-70653690D01*
X129586205Y-70448611D01*
X129491166Y-70257745D01*
X129362672Y-70087593D01*
X129348713Y-70074867D01*
X129205100Y-69943946D01*
X129205098Y-69943945D01*
X129023825Y-69831705D01*
X129023821Y-69831703D01*
X129023819Y-69831702D01*
X128902022Y-69784517D01*
X128824999Y-69754679D01*
X128772601Y-69744884D01*
X128615410Y-69715500D01*
X128402190Y-69715500D01*
X128276437Y-69739007D01*
X128192600Y-69754679D01*
X128038554Y-69814356D01*
X127993781Y-69831702D01*
X127993780Y-69831702D01*
X127993779Y-69831703D01*
X127993774Y-69831705D01*
X127812501Y-69943945D01*
X127812499Y-69943946D01*
X127654929Y-70087591D01*
X127568093Y-70202580D01*
X127526434Y-70257745D01*
X127469162Y-70372764D01*
X127431393Y-70448615D01*
X127373044Y-70653688D01*
X127353371Y-70866000D01*
X126465300Y-70866000D01*
X126465300Y-67564000D01*
X127757396Y-67564000D01*
X127777779Y-67822994D01*
X127838427Y-68075610D01*
X127937846Y-68315628D01*
X127990074Y-68400857D01*
X128073585Y-68537136D01*
X128073590Y-68537143D01*
X128242310Y-68734689D01*
X128439856Y-68903409D01*
X128439860Y-68903412D01*
X128661372Y-69039154D01*
X128901390Y-69138573D01*
X129154006Y-69199221D01*
X129413000Y-69219604D01*
X129671994Y-69199221D01*
X129924610Y-69138573D01*
X130164628Y-69039154D01*
X130386140Y-68903412D01*
X130583689Y-68734689D01*
X130752412Y-68537140D01*
X130881798Y-68326000D01*
X138355867Y-68326000D01*
X138374303Y-68454226D01*
X138428118Y-68572063D01*
X138479976Y-68631911D01*
X138512951Y-68669967D01*
X138613660Y-68734689D01*
X138621931Y-68740004D01*
X138746228Y-68776500D01*
X138746232Y-68776500D01*
X138871982Y-68776500D01*
X138940103Y-68796502D01*
X138986596Y-68850158D01*
X138996699Y-68920430D01*
X138990867Y-68961000D01*
X139009303Y-69089226D01*
X139063118Y-69207063D01*
X139147951Y-69304967D01*
X139256931Y-69375004D01*
X139381228Y-69411500D01*
X139381232Y-69411500D01*
X139510768Y-69411500D01*
X139510772Y-69411500D01*
X139635069Y-69375004D01*
X139744049Y-69304967D01*
X139828882Y-69207063D01*
X139882697Y-69089226D01*
X139901133Y-68961000D01*
X139882697Y-68832774D01*
X139828882Y-68714937D01*
X139828880Y-68714934D01*
X139803853Y-68686051D01*
X139795155Y-68674785D01*
X139772179Y-68641267D01*
X139766351Y-68631911D01*
X139759534Y-68619821D01*
X139744192Y-68592608D01*
X139735899Y-68574772D01*
X139734888Y-68572063D01*
X139723554Y-68541680D01*
X139717772Y-68520896D01*
X139708296Y-68470410D01*
X139706292Y-68453441D01*
X139701861Y-68364388D01*
X139699924Y-68356250D01*
X139696500Y-68327076D01*
X139696500Y-65592859D01*
X139697576Y-65576425D01*
X139700574Y-65553652D01*
X139709083Y-65521895D01*
X139714685Y-65508369D01*
X139731122Y-65479898D01*
X139740027Y-65468292D01*
X139763278Y-65445042D01*
X139774896Y-65436127D01*
X139803366Y-65419689D01*
X139816893Y-65414086D01*
X139848652Y-65405577D01*
X139871446Y-65402576D01*
X139887883Y-65401500D01*
X139923772Y-65401500D01*
X144605218Y-65401500D01*
X144673339Y-65421502D01*
X144719832Y-65475158D01*
X144729936Y-65545432D01*
X144700444Y-65610010D01*
X144651118Y-65666937D01*
X144597303Y-65784774D01*
X144578867Y-65913000D01*
X144597303Y-66041226D01*
X144651118Y-66159063D01*
X144676149Y-66187951D01*
X144684848Y-66199219D01*
X144707824Y-66232740D01*
X144713652Y-66242095D01*
X144735804Y-66281386D01*
X144744099Y-66299227D01*
X144756439Y-66332305D01*
X144762224Y-66353102D01*
X144771700Y-66403589D01*
X144773706Y-66420568D01*
X144778138Y-66509603D01*
X144778139Y-66509616D01*
X144780074Y-66517740D01*
X144783500Y-66546921D01*
X144783500Y-67192234D01*
X144783502Y-67192255D01*
X144783502Y-67197776D01*
X144809789Y-67329936D01*
X144809790Y-67329937D01*
X144809791Y-67329939D01*
X144861360Y-67454439D01*
X144936227Y-67566486D01*
X144936231Y-67566490D01*
X144945448Y-67575707D01*
X144945453Y-67575713D01*
X144952636Y-67582896D01*
X144952637Y-67582897D01*
X144978026Y-67608286D01*
X144988887Y-67620671D01*
X145002867Y-67638890D01*
X145019312Y-67667372D01*
X145024910Y-67680886D01*
X145033422Y-67712655D01*
X145034493Y-67720788D01*
X145036422Y-67735435D01*
X145037500Y-67751882D01*
X145037500Y-79003234D01*
X145037502Y-79003255D01*
X145037502Y-79008776D01*
X145063789Y-79140936D01*
X145063790Y-79140937D01*
X145064625Y-79142953D01*
X145115360Y-79265439D01*
X145190227Y-79377486D01*
X145190231Y-79377490D01*
X145199448Y-79386707D01*
X145199454Y-79386714D01*
X145200934Y-79388193D01*
X145200956Y-79388234D01*
X145200963Y-79388228D01*
X145285507Y-79472772D01*
X145285511Y-79472775D01*
X145285512Y-79472776D01*
X145397560Y-79547643D01*
X145522060Y-79599212D01*
X145522062Y-79599212D01*
X145522064Y-79599213D01*
X145548379Y-79604447D01*
X145654229Y-79625501D01*
X145721608Y-79625500D01*
X146005830Y-79625500D01*
X146021049Y-79625500D01*
X146089170Y-79645502D01*
X146110143Y-79662404D01*
X146120903Y-79673164D01*
X146121030Y-79673291D01*
X146131891Y-79685677D01*
X146145866Y-79703889D01*
X146162312Y-79732372D01*
X146167910Y-79745886D01*
X146176423Y-79777656D01*
X146179422Y-79800435D01*
X146180500Y-79816882D01*
X146180500Y-83702234D01*
X146180502Y-83702255D01*
X146180502Y-83707776D01*
X146206789Y-83839936D01*
X146206790Y-83839937D01*
X146209712Y-83846991D01*
X146258360Y-83964439D01*
X146333227Y-84076486D01*
X146333231Y-84076490D01*
X146342448Y-84085707D01*
X146342454Y-84085714D01*
X146343934Y-84087193D01*
X146343956Y-84087234D01*
X146343963Y-84087228D01*
X146428507Y-84171772D01*
X146428511Y-84171775D01*
X146428512Y-84171776D01*
X146475367Y-84203083D01*
X146520895Y-84257560D01*
X146529744Y-84328003D01*
X146499103Y-84392047D01*
X146465883Y-84416457D01*
X146466312Y-84417124D01*
X146349751Y-84492032D01*
X146276250Y-84576859D01*
X146264918Y-84589937D01*
X146211103Y-84707774D01*
X146204856Y-84751221D01*
X146192667Y-84836000D01*
X146211103Y-84964226D01*
X146211104Y-84964229D01*
X146259106Y-85069337D01*
X146264918Y-85082063D01*
X146279700Y-85099123D01*
X146292776Y-85117241D01*
X146299282Y-85128184D01*
X146309031Y-85148536D01*
X146318106Y-85172863D01*
X146323667Y-85192497D01*
X146332023Y-85234821D01*
X146333986Y-85248909D01*
X146339907Y-85320978D01*
X146340309Y-85328982D01*
X146340994Y-85366302D01*
X146342115Y-85427367D01*
X146344528Y-85438683D01*
X146347300Y-85464964D01*
X146347300Y-85551070D01*
X146347299Y-85551088D01*
X146347299Y-85598143D01*
X146346222Y-85614580D01*
X146344931Y-85624392D01*
X146336401Y-85656212D01*
X146335799Y-85657664D01*
X146319364Y-85686117D01*
X146318417Y-85687351D01*
X146295163Y-85710603D01*
X146293908Y-85711566D01*
X146265449Y-85728002D01*
X146263999Y-85728603D01*
X146232191Y-85737128D01*
X146227497Y-85737746D01*
X146222353Y-85738423D01*
X146205918Y-85739499D01*
X146156455Y-85739499D01*
X146156443Y-85739500D01*
X145055589Y-85739500D01*
X145055517Y-85739504D01*
X145010113Y-85739504D01*
X145002549Y-85740702D01*
X144945080Y-85749803D01*
X144874669Y-85740702D01*
X144820356Y-85694979D01*
X144799385Y-85627151D01*
X144816253Y-85562353D01*
X144816518Y-85561892D01*
X144816522Y-85561889D01*
X144903286Y-85411611D01*
X144956908Y-85246576D01*
X144975047Y-85074000D01*
X144956908Y-84901424D01*
X144919014Y-84784796D01*
X144903287Y-84736391D01*
X144893627Y-84719659D01*
X144816522Y-84586111D01*
X144700410Y-84457155D01*
X144672216Y-84436671D01*
X144560024Y-84355158D01*
X144401499Y-84284578D01*
X144231764Y-84248500D01*
X144058236Y-84248500D01*
X143888503Y-84284577D01*
X143729978Y-84355157D01*
X143729976Y-84355158D01*
X143589590Y-84457154D01*
X143473479Y-84586109D01*
X143473478Y-84586111D01*
X143449131Y-84628281D01*
X143386712Y-84736391D01*
X143333094Y-84901416D01*
X143333093Y-84901420D01*
X143333092Y-84901424D01*
X143314953Y-85074000D01*
X143333092Y-85246576D01*
X143333093Y-85246579D01*
X143333094Y-85246583D01*
X143386712Y-85411608D01*
X143395810Y-85427366D01*
X143473478Y-85561889D01*
X143589590Y-85690845D01*
X143729976Y-85792842D01*
X143888501Y-85863422D01*
X144058236Y-85899500D01*
X144154131Y-85899500D01*
X144222252Y-85919502D01*
X144268745Y-85973158D01*
X144278849Y-86043432D01*
X144249355Y-86108012D01*
X144243226Y-86114595D01*
X144211328Y-86146492D01*
X144211327Y-86146493D01*
X144103287Y-86295200D01*
X144019847Y-86458962D01*
X143963048Y-86633778D01*
X143943306Y-86758439D01*
X143935299Y-86809001D01*
X143934299Y-86815314D01*
X143934300Y-86867648D01*
X143934300Y-89043374D01*
X143929882Y-89076446D01*
X143928918Y-89079989D01*
X143928917Y-89079992D01*
X143923943Y-89151714D01*
X143920633Y-89172949D01*
X143912226Y-89207300D01*
X143903947Y-89230781D01*
X143894891Y-89250120D01*
X143883048Y-89270291D01*
X143867971Y-89291239D01*
X143857513Y-89303932D01*
X143829613Y-89333612D01*
X143823755Y-89342777D01*
X143812820Y-89357421D01*
X143762119Y-89415934D01*
X143750670Y-89441004D01*
X143708303Y-89533774D01*
X143689867Y-89662000D01*
X143708303Y-89790226D01*
X143743894Y-89868159D01*
X143753998Y-89938431D01*
X143724505Y-90003012D01*
X143664779Y-90041396D01*
X143629280Y-90046500D01*
X143621393Y-90046500D01*
X143609044Y-90045893D01*
X143573840Y-90042426D01*
X143507243Y-90035867D01*
X143483018Y-90031049D01*
X143474011Y-90028317D01*
X143391077Y-90003160D01*
X143368256Y-89993707D01*
X143283526Y-89948418D01*
X143262989Y-89934696D01*
X143203573Y-89885935D01*
X143188740Y-89873762D01*
X143171276Y-89856298D01*
X143160772Y-89843499D01*
X143110304Y-89782003D01*
X143096587Y-89761474D01*
X143060139Y-89693283D01*
X143051297Y-89676740D01*
X143041845Y-89653921D01*
X143022009Y-89588529D01*
X143013954Y-89561975D01*
X143009137Y-89537751D01*
X143008745Y-89533775D01*
X143003412Y-89479618D01*
X142999107Y-89435899D01*
X142998500Y-89423551D01*
X142998500Y-81644633D01*
X143003192Y-81615102D01*
X143002302Y-81614906D01*
X143003630Y-81608875D01*
X143003635Y-81608863D01*
X143010296Y-81553075D01*
X143020005Y-81517437D01*
X143021760Y-81513433D01*
X143040502Y-81483187D01*
X143050232Y-81471552D01*
X143064949Y-81456666D01*
X143105648Y-81421831D01*
X143107525Y-81420257D01*
X143147398Y-81387472D01*
X143159295Y-81378804D01*
X143173049Y-81369967D01*
X143257882Y-81272063D01*
X143311697Y-81154226D01*
X143330133Y-81026000D01*
X143311873Y-80899000D01*
X144959867Y-80899000D01*
X144978303Y-81027226D01*
X145032118Y-81145063D01*
X145107016Y-81231501D01*
X145116951Y-81242967D01*
X145224088Y-81311820D01*
X145225931Y-81313004D01*
X145350228Y-81349500D01*
X145350232Y-81349500D01*
X145479768Y-81349500D01*
X145479772Y-81349500D01*
X145604069Y-81313004D01*
X145713049Y-81242967D01*
X145797882Y-81145063D01*
X145851697Y-81027226D01*
X145870133Y-80899000D01*
X145851697Y-80770774D01*
X145797882Y-80652937D01*
X145713049Y-80555033D01*
X145713048Y-80555032D01*
X145604073Y-80484998D01*
X145604070Y-80484996D01*
X145604069Y-80484996D01*
X145604066Y-80484995D01*
X145479776Y-80448501D01*
X145479774Y-80448500D01*
X145479772Y-80448500D01*
X145350228Y-80448500D01*
X145350225Y-80448500D01*
X145350223Y-80448501D01*
X145225933Y-80484995D01*
X145225926Y-80484998D01*
X145116951Y-80555032D01*
X145038999Y-80644996D01*
X145032118Y-80652937D01*
X144978303Y-80770774D01*
X144959867Y-80899000D01*
X143311873Y-80899000D01*
X143311697Y-80897774D01*
X143257882Y-80779937D01*
X143173049Y-80682033D01*
X143173048Y-80682032D01*
X143064073Y-80611998D01*
X143064070Y-80611996D01*
X143064069Y-80611996D01*
X143021034Y-80599360D01*
X142939776Y-80575501D01*
X142939774Y-80575500D01*
X142939772Y-80575500D01*
X142810228Y-80575500D01*
X142810225Y-80575500D01*
X142810223Y-80575501D01*
X142685933Y-80611995D01*
X142685926Y-80611998D01*
X142576951Y-80682032D01*
X142501152Y-80769511D01*
X142492118Y-80779937D01*
X142464175Y-80841124D01*
X142438303Y-80897775D01*
X142419867Y-81026000D01*
X142438303Y-81154226D01*
X142438304Y-81154229D01*
X142450439Y-81180801D01*
X142457712Y-81205084D01*
X142458344Y-81204922D01*
X142459882Y-81210905D01*
X142459883Y-81210910D01*
X142459884Y-81210911D01*
X142471580Y-81242967D01*
X142477899Y-81260286D01*
X142483294Y-81279836D01*
X142489885Y-81314346D01*
X142491946Y-81331331D01*
X142494716Y-81383727D01*
X142494885Y-81391749D01*
X142493945Y-81478171D01*
X142493943Y-81478296D01*
X142492650Y-81587191D01*
X142495222Y-81600528D01*
X142497500Y-81624381D01*
X142497500Y-89491619D01*
X142497504Y-89491660D01*
X142497504Y-89517753D01*
X142504000Y-89558772D01*
X142525023Y-89691516D01*
X142578592Y-89856389D01*
X142579389Y-89858840D01*
X142659260Y-90015596D01*
X142750394Y-90141033D01*
X142762672Y-90157932D01*
X142787962Y-90183222D01*
X142787968Y-90183233D01*
X142824867Y-90220132D01*
X142824867Y-90220133D01*
X142887068Y-90282335D01*
X143029401Y-90385745D01*
X143029403Y-90385746D01*
X143029406Y-90385748D01*
X143186151Y-90465613D01*
X143186153Y-90465613D01*
X143186158Y-90465616D01*
X143353480Y-90519980D01*
X143527247Y-90547501D01*
X143615213Y-90547500D01*
X144730172Y-90547500D01*
X146767830Y-90547500D01*
X146783048Y-90547500D01*
X146851169Y-90567502D01*
X146872143Y-90584404D01*
X147232963Y-90945223D01*
X147232969Y-90945234D01*
X147317507Y-91029772D01*
X147317510Y-91029774D01*
X147317512Y-91029776D01*
X147429560Y-91104643D01*
X147554060Y-91156212D01*
X147554062Y-91156212D01*
X147554064Y-91156213D01*
X147575427Y-91160462D01*
X147686229Y-91182501D01*
X147753608Y-91182500D01*
X148985351Y-91182500D01*
X148985351Y-91182501D01*
X148985371Y-91182497D01*
X148985771Y-91182498D01*
X148985776Y-91182497D01*
X148985777Y-91182497D01*
X149117934Y-91156210D01*
X149117934Y-91156209D01*
X149117939Y-91156209D01*
X149242439Y-91104640D01*
X149354486Y-91029773D01*
X149354488Y-91029770D01*
X149354493Y-91029767D01*
X149355119Y-91029141D01*
X149370897Y-91013363D01*
X149402130Y-90982130D01*
X149433363Y-90950897D01*
X149433363Y-90950896D01*
X149440928Y-90943332D01*
X149440930Y-90943328D01*
X149442832Y-90941427D01*
X149443754Y-90939888D01*
X149444152Y-90939402D01*
X149446376Y-90937883D01*
X149451086Y-90933174D01*
X149451973Y-90934061D01*
X149496185Y-90903878D01*
X149495670Y-90902749D01*
X149502225Y-90899755D01*
X149502787Y-90899372D01*
X149503643Y-90899107D01*
X149503866Y-90899005D01*
X149503866Y-90899004D01*
X149503869Y-90899004D01*
X149612849Y-90828967D01*
X149697682Y-90731063D01*
X149751497Y-90613226D01*
X149769933Y-90485000D01*
X149751497Y-90356774D01*
X149697682Y-90238937D01*
X149612849Y-90141033D01*
X149612848Y-90141032D01*
X149503873Y-90070998D01*
X149503870Y-90070996D01*
X149503869Y-90070996D01*
X149503866Y-90070995D01*
X149379576Y-90034501D01*
X149379574Y-90034500D01*
X149379572Y-90034500D01*
X149250028Y-90034500D01*
X149250025Y-90034500D01*
X149250023Y-90034501D01*
X149125733Y-90070995D01*
X149125726Y-90070998D01*
X149016751Y-90141032D01*
X148931918Y-90238937D01*
X148878103Y-90356774D01*
X148862455Y-90465614D01*
X148859667Y-90485003D01*
X148867225Y-90537568D01*
X148857122Y-90607842D01*
X148810629Y-90661498D01*
X148742509Y-90681500D01*
X147761860Y-90681500D01*
X147745414Y-90680422D01*
X147722657Y-90677426D01*
X147690886Y-90668913D01*
X147677376Y-90663317D01*
X147648890Y-90646870D01*
X147630688Y-90632903D01*
X147618296Y-90622036D01*
X147167141Y-90170880D01*
X147167137Y-90170877D01*
X147167136Y-90170876D01*
X147075890Y-90109906D01*
X147062927Y-90104536D01*
X146974509Y-90067911D01*
X146974506Y-90067910D01*
X146974503Y-90067909D01*
X146920687Y-90057204D01*
X146866873Y-90046500D01*
X146866871Y-90046500D01*
X146861828Y-90046500D01*
X144829828Y-90046500D01*
X144660720Y-90046500D01*
X144592599Y-90026498D01*
X144546106Y-89972842D01*
X144536002Y-89902568D01*
X144546104Y-89868161D01*
X144581697Y-89790226D01*
X144600133Y-89662000D01*
X144581697Y-89533774D01*
X144557736Y-89481309D01*
X144553680Y-89469840D01*
X144553415Y-89469937D01*
X144542939Y-89441238D01*
X144536318Y-89403777D01*
X144536072Y-89403805D01*
X144536071Y-89403796D01*
X144535956Y-89401733D01*
X144535300Y-89398023D01*
X144535301Y-89397613D01*
X144535300Y-89397609D01*
X144535300Y-89238637D01*
X144535506Y-89231444D01*
X144536721Y-89210194D01*
X144536745Y-89209705D01*
X144536837Y-89207893D01*
X144536852Y-89207544D01*
X144536937Y-89205113D01*
X144539914Y-89096127D01*
X144539960Y-89093831D01*
X144539964Y-89093512D01*
X144537570Y-89081069D01*
X144535300Y-89057262D01*
X144535300Y-88317605D01*
X144832867Y-88317605D01*
X144851303Y-88445831D01*
X144905118Y-88563668D01*
X144976482Y-88646028D01*
X144989951Y-88661572D01*
X145098465Y-88731310D01*
X145098931Y-88731609D01*
X145223228Y-88768105D01*
X145223232Y-88768105D01*
X145352768Y-88768105D01*
X145352772Y-88768105D01*
X145477069Y-88731609D01*
X145586049Y-88661572D01*
X145670882Y-88563668D01*
X145724697Y-88445831D01*
X145743133Y-88317605D01*
X145724697Y-88189379D01*
X145670882Y-88071542D01*
X145586049Y-87973638D01*
X145586048Y-87973637D01*
X145477073Y-87903603D01*
X145477070Y-87903601D01*
X145477069Y-87903601D01*
X145414488Y-87885226D01*
X145352776Y-87867106D01*
X145352774Y-87867105D01*
X145352772Y-87867105D01*
X145223228Y-87867105D01*
X145223225Y-87867105D01*
X145223223Y-87867106D01*
X145098933Y-87903600D01*
X145098926Y-87903603D01*
X144989951Y-87973637D01*
X144947885Y-88022185D01*
X144905118Y-88071542D01*
X144851303Y-88189379D01*
X144832867Y-88317605D01*
X144535300Y-88317605D01*
X144535300Y-86954804D01*
X144535301Y-86954801D01*
X144535300Y-86913390D01*
X144535907Y-86901043D01*
X144541075Y-86848564D01*
X144544971Y-86808997D01*
X144549788Y-86784778D01*
X144574834Y-86702208D01*
X144584283Y-86679396D01*
X144624959Y-86603296D01*
X144638672Y-86582773D01*
X144693401Y-86516085D01*
X144710850Y-86498636D01*
X144777572Y-86443879D01*
X144798102Y-86430161D01*
X144874198Y-86389488D01*
X144897009Y-86380040D01*
X144979580Y-86354992D01*
X145003798Y-86350176D01*
X145055777Y-86345057D01*
X145095897Y-86341107D01*
X145108244Y-86340500D01*
X145149601Y-86340501D01*
X145149604Y-86340500D01*
X145465238Y-86340500D01*
X146166597Y-86340500D01*
X146214192Y-86340500D01*
X146253757Y-86340500D01*
X146263902Y-86340500D01*
X146263930Y-86340497D01*
X146286495Y-86340498D01*
X146359696Y-86325938D01*
X146430410Y-86332266D01*
X146486477Y-86375821D01*
X146510096Y-86442774D01*
X146500686Y-86497734D01*
X146460788Y-86594056D01*
X146460786Y-86594064D01*
X146434499Y-86726223D01*
X146434499Y-86726228D01*
X146434500Y-86763169D01*
X146434500Y-88655234D01*
X146434502Y-88655255D01*
X146434502Y-88660776D01*
X146460789Y-88792936D01*
X146460790Y-88792937D01*
X146460791Y-88792939D01*
X146512360Y-88917439D01*
X146587227Y-89029486D01*
X146587231Y-89029490D01*
X146596448Y-89038707D01*
X146596454Y-89038714D01*
X146597934Y-89040193D01*
X146597956Y-89040234D01*
X146597963Y-89040228D01*
X146682507Y-89124772D01*
X146682511Y-89124775D01*
X146682512Y-89124776D01*
X146794560Y-89199643D01*
X146919060Y-89251212D01*
X146919062Y-89251212D01*
X146919064Y-89251213D01*
X146934288Y-89254241D01*
X147051229Y-89277501D01*
X147118608Y-89277500D01*
X147956465Y-89277500D01*
X147987149Y-89281293D01*
X147993391Y-89282861D01*
X148065077Y-89286427D01*
X148082432Y-89287291D01*
X148099413Y-89289297D01*
X148121044Y-89293356D01*
X148149889Y-89298770D01*
X148170678Y-89304552D01*
X148203775Y-89316900D01*
X148221601Y-89325188D01*
X148260900Y-89347344D01*
X148270238Y-89353159D01*
X148272325Y-89354590D01*
X148284668Y-89365609D01*
X148285140Y-89365065D01*
X148291951Y-89370967D01*
X148386151Y-89431506D01*
X148400931Y-89441004D01*
X148525228Y-89477500D01*
X148525232Y-89477500D01*
X148654768Y-89477500D01*
X148654772Y-89477500D01*
X148779069Y-89441004D01*
X148888049Y-89370967D01*
X148972882Y-89273063D01*
X149026697Y-89155226D01*
X149045133Y-89027000D01*
X149026697Y-88898774D01*
X148972882Y-88780937D01*
X148888049Y-88683033D01*
X148888048Y-88683032D01*
X148779073Y-88612998D01*
X148779070Y-88612996D01*
X148779069Y-88612996D01*
X148762752Y-88608205D01*
X148654776Y-88576501D01*
X148654774Y-88576500D01*
X148654772Y-88576500D01*
X148525228Y-88576500D01*
X148525225Y-88576500D01*
X148525223Y-88576501D01*
X148400933Y-88612995D01*
X148400926Y-88612998D01*
X148291951Y-88683031D01*
X148285143Y-88688931D01*
X148284674Y-88688389D01*
X148272354Y-88699387D01*
X148270271Y-88700815D01*
X148260907Y-88706648D01*
X148232136Y-88722870D01*
X148221607Y-88728806D01*
X148203769Y-88737099D01*
X148190977Y-88741872D01*
X148170696Y-88749438D01*
X148149899Y-88755223D01*
X148099417Y-88764698D01*
X148082439Y-88766704D01*
X147993388Y-88771137D01*
X147989768Y-88771999D01*
X147985257Y-88773073D01*
X147956072Y-88776500D01*
X147126860Y-88776500D01*
X147110414Y-88775422D01*
X147087657Y-88772426D01*
X147055886Y-88763913D01*
X147042376Y-88758317D01*
X147013892Y-88741872D01*
X147002298Y-88732976D01*
X146979039Y-88709717D01*
X146970129Y-88698105D01*
X146953688Y-88669629D01*
X146948087Y-88656108D01*
X146939577Y-88624345D01*
X146936576Y-88601553D01*
X146935500Y-88585117D01*
X146935500Y-87641159D01*
X146955502Y-87573038D01*
X147009158Y-87526545D01*
X147079432Y-87516441D01*
X147122601Y-87532544D01*
X147122732Y-87532259D01*
X147126722Y-87534081D01*
X147129622Y-87535163D01*
X147130931Y-87536004D01*
X147255228Y-87572500D01*
X147255232Y-87572500D01*
X147384768Y-87572500D01*
X147384772Y-87572500D01*
X147509069Y-87536004D01*
X147618049Y-87465967D01*
X147702882Y-87368063D01*
X147756697Y-87250226D01*
X147772219Y-87142262D01*
X147801711Y-87077685D01*
X147861437Y-87039301D01*
X147932433Y-87039301D01*
X147945110Y-87043770D01*
X147947140Y-87044611D01*
X147955698Y-87048536D01*
X148013413Y-87077685D01*
X148016201Y-87079093D01*
X148023087Y-87082360D01*
X148023117Y-87082374D01*
X148024172Y-87082843D01*
X148031272Y-87085791D01*
X148031302Y-87085802D01*
X148031303Y-87085803D01*
X148118373Y-87119462D01*
X148119654Y-87119946D01*
X148120521Y-87120275D01*
X148120548Y-87120285D01*
X148120612Y-87120309D01*
X148120662Y-87120327D01*
X148120791Y-87120375D01*
X148122310Y-87120929D01*
X148183957Y-87143034D01*
X148195752Y-87147953D01*
X148225315Y-87162086D01*
X148247181Y-87175426D01*
X148267892Y-87191159D01*
X148275106Y-87196640D01*
X148285382Y-87206275D01*
X148291952Y-87211968D01*
X148400926Y-87282001D01*
X148400931Y-87282004D01*
X148525228Y-87318500D01*
X148525232Y-87318500D01*
X148654768Y-87318500D01*
X148654772Y-87318500D01*
X148779069Y-87282004D01*
X148888049Y-87211967D01*
X148972882Y-87114063D01*
X149026697Y-86996226D01*
X149045133Y-86868000D01*
X149026697Y-86739774D01*
X148972882Y-86621937D01*
X148927453Y-86569509D01*
X148897962Y-86504931D01*
X148908067Y-86434657D01*
X148927451Y-86404493D01*
X148972882Y-86352063D01*
X149026697Y-86234226D01*
X149045133Y-86106000D01*
X149026697Y-85977774D01*
X148972882Y-85859937D01*
X148888049Y-85762033D01*
X148888048Y-85762032D01*
X148779073Y-85691998D01*
X148779070Y-85691996D01*
X148779069Y-85691996D01*
X148765606Y-85688043D01*
X148654776Y-85655501D01*
X148654774Y-85655500D01*
X148654772Y-85655500D01*
X148654769Y-85655500D01*
X148649815Y-85654787D01*
X148629045Y-85652513D01*
X148626163Y-85651874D01*
X148626135Y-85651868D01*
X148626103Y-85651861D01*
X148594229Y-85645141D01*
X148571536Y-85640357D01*
X148509007Y-85606732D01*
X148483149Y-85569917D01*
X148476319Y-85555134D01*
X148465781Y-85518736D01*
X148465525Y-85516793D01*
X148462427Y-85493253D01*
X148460578Y-85479207D01*
X148459500Y-85462764D01*
X148459500Y-83681106D01*
X148459497Y-83681087D01*
X148459498Y-83678229D01*
X148437137Y-83565810D01*
X148433210Y-83546065D01*
X148433209Y-83546062D01*
X148433209Y-83546061D01*
X148381640Y-83421561D01*
X148306773Y-83309514D01*
X148306768Y-83309509D01*
X148306759Y-83309498D01*
X148296037Y-83298776D01*
X148296032Y-83298767D01*
X148211492Y-83214227D01*
X148211488Y-83214224D01*
X148201128Y-83207302D01*
X148099440Y-83139357D01*
X147974940Y-83087788D01*
X147974938Y-83087787D01*
X147974935Y-83087786D01*
X147842773Y-83061499D01*
X147842771Y-83061499D01*
X147775392Y-83061500D01*
X147634860Y-83061500D01*
X147618414Y-83060422D01*
X147595657Y-83057426D01*
X147563886Y-83048913D01*
X147550376Y-83043317D01*
X147521892Y-83026872D01*
X147510298Y-83017976D01*
X147487039Y-82994717D01*
X147478129Y-82983105D01*
X147461688Y-82954629D01*
X147456087Y-82941108D01*
X147447577Y-82909345D01*
X147444576Y-82886553D01*
X147443500Y-82870117D01*
X147443500Y-79435859D01*
X147444576Y-79419425D01*
X147447574Y-79396652D01*
X147456083Y-79364895D01*
X147461685Y-79351369D01*
X147478122Y-79322898D01*
X147487027Y-79311292D01*
X147510278Y-79288042D01*
X147521896Y-79279127D01*
X147550366Y-79262689D01*
X147563893Y-79257086D01*
X147595652Y-79248577D01*
X147618446Y-79245576D01*
X147634883Y-79244500D01*
X149112351Y-79244500D01*
X149112351Y-79244501D01*
X149112371Y-79244497D01*
X149112771Y-79244498D01*
X149112776Y-79244497D01*
X149112777Y-79244497D01*
X149244934Y-79218210D01*
X149244934Y-79218209D01*
X149244939Y-79218209D01*
X149369439Y-79166640D01*
X149481486Y-79091773D01*
X149481488Y-79091770D01*
X149481493Y-79091767D01*
X149492224Y-79081037D01*
X149492232Y-79081032D01*
X149529132Y-79044132D01*
X149576776Y-78996488D01*
X149651643Y-78884440D01*
X149703212Y-78759940D01*
X149715139Y-78699976D01*
X149729500Y-78627777D01*
X149729500Y-78627776D01*
X149729501Y-78627771D01*
X149729500Y-78560392D01*
X149729500Y-78541206D01*
X149729500Y-77726777D01*
X149729500Y-77712106D01*
X149729497Y-77712087D01*
X149729498Y-77709229D01*
X149717146Y-77647130D01*
X149703210Y-77577065D01*
X149703209Y-77577062D01*
X149701150Y-77572091D01*
X149651640Y-77452561D01*
X149576773Y-77340514D01*
X149576768Y-77340509D01*
X149576765Y-77340505D01*
X149453141Y-77216880D01*
X149453137Y-77216877D01*
X149453136Y-77216876D01*
X149361890Y-77155906D01*
X149315408Y-77136652D01*
X149260127Y-77092104D01*
X149237707Y-77024740D01*
X149255266Y-76955949D01*
X149274531Y-76931149D01*
X149281198Y-76924483D01*
X149332573Y-76819393D01*
X149342500Y-76751260D01*
X149342500Y-76284740D01*
X149332573Y-76216607D01*
X149281198Y-76111517D01*
X149281196Y-76111514D01*
X149198485Y-76028803D01*
X149198482Y-76028801D01*
X149093394Y-75977427D01*
X149085828Y-75976324D01*
X149075333Y-75974795D01*
X149010808Y-75945181D01*
X148972537Y-75885383D01*
X148967500Y-75850112D01*
X148967500Y-75225910D01*
X148967495Y-75225866D01*
X148967495Y-75223839D01*
X148967496Y-75201247D01*
X148939976Y-75027481D01*
X148885611Y-74860160D01*
X148805740Y-74703404D01*
X148702331Y-74561072D01*
X148702320Y-74561061D01*
X148677036Y-74535776D01*
X148677029Y-74535764D01*
X148577933Y-74436666D01*
X148573742Y-74433621D01*
X148435599Y-74333255D01*
X148435597Y-74333254D01*
X148435593Y-74333251D01*
X148278848Y-74253386D01*
X148278844Y-74253385D01*
X148278843Y-74253384D01*
X148278842Y-74253384D01*
X148111520Y-74199020D01*
X147937753Y-74171499D01*
X147937750Y-74171499D01*
X147849787Y-74171500D01*
X147581857Y-74171500D01*
X147513736Y-74151498D01*
X147467243Y-74097842D01*
X147457139Y-74027568D01*
X147486633Y-73962988D01*
X147546359Y-73924604D01*
X147551704Y-73923161D01*
X147679361Y-73891697D01*
X147679361Y-73891696D01*
X147679365Y-73891696D01*
X147819240Y-73818283D01*
X147937483Y-73713530D01*
X148027220Y-73583523D01*
X148083237Y-73435818D01*
X148083237Y-73435817D01*
X148083238Y-73435815D01*
X148102278Y-73279003D01*
X148102278Y-73278996D01*
X148083238Y-73122184D01*
X148057688Y-73054815D01*
X148027220Y-72974477D01*
X148027216Y-72974472D01*
X148027216Y-72974470D01*
X147937483Y-72844470D01*
X147937481Y-72844468D01*
X147819240Y-72739717D01*
X147679365Y-72666304D01*
X147679361Y-72666302D01*
X147525987Y-72628500D01*
X147525985Y-72628500D01*
X147368015Y-72628500D01*
X147368012Y-72628500D01*
X147214638Y-72666302D01*
X147214634Y-72666304D01*
X147074759Y-72739717D01*
X146956518Y-72844468D01*
X146956516Y-72844470D01*
X146866783Y-72974470D01*
X146866782Y-72974473D01*
X146866781Y-72974475D01*
X146866780Y-72974477D01*
X146855595Y-73003970D01*
X146810761Y-73122184D01*
X146791722Y-73278996D01*
X146791722Y-73279003D01*
X146810761Y-73435815D01*
X146836322Y-73503212D01*
X146866780Y-73583523D01*
X146866781Y-73583525D01*
X146866782Y-73583526D01*
X146866783Y-73583529D01*
X146956516Y-73713529D01*
X146956518Y-73713531D01*
X146995130Y-73747738D01*
X147074760Y-73818283D01*
X147214635Y-73891696D01*
X147214636Y-73891696D01*
X147214638Y-73891697D01*
X147342296Y-73923161D01*
X147403651Y-73958884D01*
X147435952Y-74022107D01*
X147428945Y-74092757D01*
X147384854Y-74148403D01*
X147317678Y-74171378D01*
X147312143Y-74171500D01*
X146618860Y-74171500D01*
X146602414Y-74170422D01*
X146579657Y-74167426D01*
X146547886Y-74158913D01*
X146534376Y-74153317D01*
X146505892Y-74136872D01*
X146494298Y-74127976D01*
X146471039Y-74104717D01*
X146462129Y-74093105D01*
X146445688Y-74064629D01*
X146440087Y-74051108D01*
X146431577Y-74019345D01*
X146428576Y-73996553D01*
X146427500Y-73980117D01*
X146427500Y-68436633D01*
X146432192Y-68407102D01*
X146431302Y-68406906D01*
X146432630Y-68400875D01*
X146432635Y-68400863D01*
X146439296Y-68345075D01*
X146449005Y-68309437D01*
X146450760Y-68305433D01*
X146469502Y-68275187D01*
X146479232Y-68263552D01*
X146493949Y-68248666D01*
X146534648Y-68213831D01*
X146536525Y-68212257D01*
X146576398Y-68179472D01*
X146588295Y-68170804D01*
X146602049Y-68161967D01*
X146686882Y-68064063D01*
X146740697Y-67946226D01*
X146759133Y-67818000D01*
X146742804Y-67704430D01*
X146752908Y-67634158D01*
X146799401Y-67580502D01*
X146867522Y-67560500D01*
X146889172Y-67560500D01*
X147096228Y-67560500D01*
X147132140Y-67560500D01*
X147148576Y-67561576D01*
X147160322Y-67563123D01*
X147225249Y-67591842D01*
X147264343Y-67651106D01*
X147265190Y-67722097D01*
X147239105Y-67770556D01*
X147236902Y-67773099D01*
X147191118Y-67825937D01*
X147137303Y-67943774D01*
X147118867Y-68072000D01*
X147137303Y-68200226D01*
X147191118Y-68318063D01*
X147231260Y-68364390D01*
X147275951Y-68415967D01*
X147384929Y-68486003D01*
X147390995Y-68488773D01*
X147443419Y-68533386D01*
X147476220Y-68582477D01*
X147476229Y-68582488D01*
X147485448Y-68591707D01*
X147485454Y-68591714D01*
X147486934Y-68593193D01*
X147486956Y-68593234D01*
X147486963Y-68593228D01*
X147571507Y-68677772D01*
X147571511Y-68677775D01*
X147571512Y-68677776D01*
X147683560Y-68752643D01*
X147808060Y-68804212D01*
X147808062Y-68804212D01*
X147808064Y-68804213D01*
X147852515Y-68813054D01*
X147940229Y-68830501D01*
X148007608Y-68830500D01*
X149001228Y-68830500D01*
X149037140Y-68830500D01*
X149053575Y-68831576D01*
X149076345Y-68834574D01*
X149108106Y-68843083D01*
X149121627Y-68848683D01*
X149150108Y-68865128D01*
X149161705Y-68874026D01*
X149184959Y-68897281D01*
X149193867Y-68908890D01*
X149210312Y-68937372D01*
X149215910Y-68950886D01*
X149224423Y-68982656D01*
X149227422Y-69005435D01*
X149228500Y-69021882D01*
X149228500Y-73415234D01*
X149228502Y-73415255D01*
X149228502Y-73420776D01*
X149254789Y-73552936D01*
X149254790Y-73552937D01*
X149258925Y-73562920D01*
X149306360Y-73677439D01*
X149381227Y-73789486D01*
X149381231Y-73789490D01*
X149390448Y-73798707D01*
X149390454Y-73798714D01*
X149391934Y-73800193D01*
X149391956Y-73800234D01*
X149391963Y-73800228D01*
X149476507Y-73884772D01*
X149476511Y-73884775D01*
X149476512Y-73884776D01*
X149588560Y-73959643D01*
X149713060Y-74011212D01*
X149713062Y-74011212D01*
X149713064Y-74011213D01*
X149753909Y-74019337D01*
X149845229Y-74037501D01*
X149912608Y-74037500D01*
X152303228Y-74037500D01*
X152339140Y-74037500D01*
X152355575Y-74038576D01*
X152378345Y-74041574D01*
X152410106Y-74050083D01*
X152423627Y-74055683D01*
X152452108Y-74072128D01*
X152463705Y-74081026D01*
X152486959Y-74104281D01*
X152495867Y-74115890D01*
X152512314Y-74144377D01*
X152517909Y-74157885D01*
X152526422Y-74189657D01*
X152528468Y-74205199D01*
X152528746Y-74209248D01*
X152528889Y-74209234D01*
X152529840Y-74218488D01*
X152530500Y-74231369D01*
X152530500Y-74233288D01*
X152510498Y-74301409D01*
X152487027Y-74328500D01*
X152482953Y-74332030D01*
X152411873Y-74414063D01*
X152398118Y-74429937D01*
X152344303Y-74547774D01*
X152325867Y-74676000D01*
X152344303Y-74804226D01*
X152398118Y-74922063D01*
X152456789Y-74989774D01*
X152482951Y-75019967D01*
X152565789Y-75073204D01*
X152591931Y-75090004D01*
X152716228Y-75126500D01*
X152716232Y-75126500D01*
X152845768Y-75126500D01*
X152845772Y-75126500D01*
X152970069Y-75090004D01*
X153079049Y-75019967D01*
X153163882Y-74922063D01*
X153217697Y-74804226D01*
X153236133Y-74676000D01*
X153217697Y-74547774D01*
X153163882Y-74429937D01*
X153143522Y-74406440D01*
X153132970Y-74392390D01*
X153119592Y-74371714D01*
X153112605Y-74359457D01*
X153096740Y-74327592D01*
X153091293Y-74314962D01*
X153075824Y-74272908D01*
X153073164Y-74264846D01*
X153071126Y-74257888D01*
X153053545Y-74197865D01*
X153052823Y-74195290D01*
X153029580Y-74108755D01*
X153025331Y-74100149D01*
X153014736Y-74068959D01*
X153005209Y-74021061D01*
X152953640Y-73896561D01*
X152878773Y-73784514D01*
X152878768Y-73784509D01*
X152878759Y-73784498D01*
X152868037Y-73773776D01*
X152868032Y-73773767D01*
X152838860Y-73744595D01*
X152804834Y-73682283D01*
X152809899Y-73611468D01*
X152852446Y-73554632D01*
X152918966Y-73529821D01*
X152927955Y-73529500D01*
X156060623Y-73529500D01*
X156098607Y-73529500D01*
X156110956Y-73530107D01*
X156212760Y-73540133D01*
X156236973Y-73544948D01*
X156328927Y-73572841D01*
X156351741Y-73582291D01*
X156411732Y-73614357D01*
X156436473Y-73627581D01*
X156457011Y-73641304D01*
X156531258Y-73702237D01*
X156548695Y-73719668D01*
X156549660Y-73720843D01*
X156566566Y-73747738D01*
X156571168Y-73757647D01*
X156581720Y-73827855D01*
X156570621Y-73864956D01*
X156550044Y-73908105D01*
X156549717Y-73908693D01*
X156547220Y-73914019D01*
X156546886Y-73914726D01*
X156546109Y-73916355D01*
X156545883Y-73916869D01*
X156516646Y-73979228D01*
X156514910Y-73983067D01*
X156514644Y-73983676D01*
X156514643Y-73983681D01*
X156514064Y-73986521D01*
X156505222Y-74013674D01*
X156493302Y-74039775D01*
X156493302Y-74039776D01*
X156474867Y-74167996D01*
X156474867Y-74167998D01*
X156474867Y-74168000D01*
X156493303Y-74296226D01*
X156547118Y-74414063D01*
X156618461Y-74496398D01*
X156631951Y-74511967D01*
X156733656Y-74577329D01*
X156740931Y-74582004D01*
X156865228Y-74618500D01*
X156865232Y-74618500D01*
X156994768Y-74618500D01*
X156994772Y-74618500D01*
X157119069Y-74582004D01*
X157228049Y-74511967D01*
X157312882Y-74414063D01*
X157366697Y-74296226D01*
X157367854Y-74288174D01*
X157397346Y-74223594D01*
X157457071Y-74185210D01*
X157528068Y-74185208D01*
X157587795Y-74223591D01*
X157608981Y-74257888D01*
X157634137Y-74318624D01*
X157722378Y-74433621D01*
X157837375Y-74521862D01*
X157921821Y-74556839D01*
X157971291Y-74577330D01*
X158115000Y-74596250D01*
X158258709Y-74577330D01*
X158359060Y-74535764D01*
X158392624Y-74521862D01*
X158507621Y-74433621D01*
X158595862Y-74318624D01*
X158634678Y-74224911D01*
X158651330Y-74184709D01*
X158670250Y-74041000D01*
X158669884Y-74038223D01*
X158664399Y-73996558D01*
X158651330Y-73897291D01*
X158619486Y-73820412D01*
X158595862Y-73763375D01*
X158507621Y-73648378D01*
X158392624Y-73560137D01*
X158258709Y-73504670D01*
X158115000Y-73485750D01*
X157971290Y-73504670D01*
X157837375Y-73560137D01*
X157722378Y-73648378D01*
X157634137Y-73763375D01*
X157578670Y-73897290D01*
X157573945Y-73933179D01*
X157545222Y-73998106D01*
X157485956Y-74037197D01*
X157414965Y-74038042D01*
X157354786Y-74000371D01*
X157334410Y-73969075D01*
X157312884Y-73921941D01*
X157312882Y-73921938D01*
X157312882Y-73921937D01*
X157228049Y-73824033D01*
X157228048Y-73824032D01*
X157228046Y-73824030D01*
X157222416Y-73820412D01*
X157201736Y-73803804D01*
X157187321Y-73789484D01*
X157184470Y-73786652D01*
X157169182Y-73768266D01*
X157148915Y-73738555D01*
X157141627Y-73726467D01*
X157110411Y-73667429D01*
X157100437Y-73648379D01*
X157065095Y-73580873D01*
X157064795Y-73580323D01*
X157062657Y-73576398D01*
X157062280Y-73575732D01*
X157062271Y-73575716D01*
X157059725Y-73571384D01*
X157059349Y-73570768D01*
X157054547Y-73562898D01*
X157049853Y-73554497D01*
X157039494Y-73534163D01*
X157027044Y-73517026D01*
X157021417Y-73508587D01*
X157018138Y-73503212D01*
X157001742Y-73476335D01*
X157001711Y-73476285D01*
X157000069Y-73473655D01*
X157000036Y-73473603D01*
X156999776Y-73473196D01*
X156988536Y-73461722D01*
X156976613Y-73447614D01*
X156949355Y-73410096D01*
X156949340Y-73410079D01*
X156932038Y-73392777D01*
X156932033Y-73392768D01*
X156832933Y-73293666D01*
X156832932Y-73293665D01*
X156690599Y-73190255D01*
X156690597Y-73190254D01*
X156690593Y-73190251D01*
X156533848Y-73110386D01*
X156533844Y-73110385D01*
X156533843Y-73110384D01*
X156533842Y-73110384D01*
X156366520Y-73056020D01*
X156192753Y-73028499D01*
X156192750Y-73028499D01*
X156104787Y-73028500D01*
X150301860Y-73028500D01*
X150285414Y-73027422D01*
X150262657Y-73024426D01*
X150230886Y-73015913D01*
X150217376Y-73010317D01*
X150188892Y-72993872D01*
X150177298Y-72984976D01*
X150154039Y-72961717D01*
X150145129Y-72950105D01*
X150128688Y-72921629D01*
X150123087Y-72908108D01*
X150114577Y-72876345D01*
X150111576Y-72853553D01*
X150110500Y-72837117D01*
X150110500Y-70372766D01*
X151694500Y-70372766D01*
X151723209Y-70479911D01*
X151733718Y-70519132D01*
X151733721Y-70519139D01*
X151809482Y-70650361D01*
X151809490Y-70650371D01*
X151916628Y-70757509D01*
X151916633Y-70757513D01*
X151916635Y-70757515D01*
X152047865Y-70833281D01*
X152194234Y-70872500D01*
X152194236Y-70872500D01*
X152345764Y-70872500D01*
X152345766Y-70872500D01*
X152492135Y-70833281D01*
X152623365Y-70757515D01*
X152730515Y-70650365D01*
X152806281Y-70519135D01*
X152845500Y-70372766D01*
X157474500Y-70372766D01*
X157503209Y-70479911D01*
X157513718Y-70519132D01*
X157513721Y-70519139D01*
X157589482Y-70650361D01*
X157589490Y-70650371D01*
X157696628Y-70757509D01*
X157696633Y-70757513D01*
X157696635Y-70757515D01*
X157827865Y-70833281D01*
X157974234Y-70872500D01*
X157974236Y-70872500D01*
X158125764Y-70872500D01*
X158125766Y-70872500D01*
X158272135Y-70833281D01*
X158403365Y-70757515D01*
X158510515Y-70650365D01*
X158586281Y-70519135D01*
X158625500Y-70372766D01*
X158625500Y-70221234D01*
X158586281Y-70074865D01*
X158510515Y-69943635D01*
X158510513Y-69943633D01*
X158510509Y-69943628D01*
X158403371Y-69836490D01*
X158403361Y-69836482D01*
X158272139Y-69760721D01*
X158272136Y-69760720D01*
X158272135Y-69760719D01*
X158272133Y-69760718D01*
X158272132Y-69760718D01*
X158232911Y-69750209D01*
X158125766Y-69721500D01*
X157974234Y-69721500D01*
X157895798Y-69742516D01*
X157827867Y-69760718D01*
X157827860Y-69760721D01*
X157696638Y-69836482D01*
X157696628Y-69836490D01*
X157589490Y-69943628D01*
X157589482Y-69943638D01*
X157513721Y-70074860D01*
X157513718Y-70074867D01*
X157488854Y-70167661D01*
X157474500Y-70221234D01*
X157474500Y-70372766D01*
X152845500Y-70372766D01*
X152845500Y-70221234D01*
X152806281Y-70074865D01*
X152730515Y-69943635D01*
X152730513Y-69943633D01*
X152730509Y-69943628D01*
X152623371Y-69836490D01*
X152623361Y-69836482D01*
X152492139Y-69760721D01*
X152492136Y-69760720D01*
X152492135Y-69760719D01*
X152492133Y-69760718D01*
X152492132Y-69760718D01*
X152452911Y-69750209D01*
X152345766Y-69721500D01*
X152194234Y-69721500D01*
X152115798Y-69742516D01*
X152047867Y-69760718D01*
X152047860Y-69760721D01*
X151916638Y-69836482D01*
X151916628Y-69836490D01*
X151809490Y-69943628D01*
X151809482Y-69943638D01*
X151733721Y-70074860D01*
X151733718Y-70074867D01*
X151708854Y-70167661D01*
X151694500Y-70221234D01*
X151694500Y-70372766D01*
X150110500Y-70372766D01*
X150110500Y-68314106D01*
X150110497Y-68314087D01*
X150110498Y-68311229D01*
X150088419Y-68200226D01*
X150084210Y-68179065D01*
X150084209Y-68179062D01*
X150084209Y-68179061D01*
X150032640Y-68054561D01*
X149957773Y-67942514D01*
X149957768Y-67942509D01*
X149957759Y-67942498D01*
X149947037Y-67931776D01*
X149947032Y-67931767D01*
X149862492Y-67847227D01*
X149862488Y-67847224D01*
X149826223Y-67822993D01*
X149750440Y-67772357D01*
X149643424Y-67728030D01*
X149625938Y-67720787D01*
X149625935Y-67720786D01*
X149515911Y-67698902D01*
X149453001Y-67665995D01*
X149445279Y-67657849D01*
X149396049Y-67601033D01*
X149396045Y-67601030D01*
X149391985Y-67597511D01*
X149370450Y-67564000D01*
X164587396Y-67564000D01*
X164607779Y-67822994D01*
X164668427Y-68075610D01*
X164767846Y-68315628D01*
X164820074Y-68400857D01*
X164903585Y-68537136D01*
X164903590Y-68537143D01*
X165072310Y-68734689D01*
X165269856Y-68903409D01*
X165269860Y-68903412D01*
X165491372Y-69039154D01*
X165731390Y-69138573D01*
X165984006Y-69199221D01*
X166243000Y-69219604D01*
X166501994Y-69199221D01*
X166754610Y-69138573D01*
X166994628Y-69039154D01*
X167216140Y-68903412D01*
X167413689Y-68734689D01*
X167582412Y-68537140D01*
X167718154Y-68315628D01*
X167817573Y-68075610D01*
X167878221Y-67822994D01*
X167898604Y-67564000D01*
X167878221Y-67305006D01*
X167817573Y-67052390D01*
X167718154Y-66812372D01*
X167582412Y-66590860D01*
X167544885Y-66546921D01*
X167413689Y-66393310D01*
X167216143Y-66224590D01*
X167216136Y-66224585D01*
X167086260Y-66144998D01*
X166994628Y-66088846D01*
X166754610Y-65989427D01*
X166501994Y-65928779D01*
X166243000Y-65908396D01*
X165984006Y-65928779D01*
X165731389Y-65989427D01*
X165491370Y-66088847D01*
X165269863Y-66224585D01*
X165269856Y-66224590D01*
X165072310Y-66393310D01*
X164903590Y-66590856D01*
X164903585Y-66590863D01*
X164802171Y-66756358D01*
X164767846Y-66812372D01*
X164760037Y-66831224D01*
X164668427Y-67052389D01*
X164627461Y-67223024D01*
X164607779Y-67305006D01*
X164587396Y-67564000D01*
X149370450Y-67564000D01*
X149353603Y-67537784D01*
X149348500Y-67502289D01*
X149348500Y-67298106D01*
X149348497Y-67298087D01*
X149348498Y-67295229D01*
X149341465Y-67259869D01*
X149322210Y-67163065D01*
X149322209Y-67163062D01*
X149316910Y-67150269D01*
X149270640Y-67038561D01*
X149195773Y-66926514D01*
X149195768Y-66926509D01*
X149195759Y-66926498D01*
X149185037Y-66915776D01*
X149185032Y-66915767D01*
X149100492Y-66831227D01*
X149100488Y-66831224D01*
X149073930Y-66813479D01*
X148988440Y-66756357D01*
X148881431Y-66712033D01*
X148863938Y-66704787D01*
X148863935Y-66704786D01*
X148731773Y-66678499D01*
X148731771Y-66678499D01*
X148664392Y-66678500D01*
X147253860Y-66678500D01*
X147237414Y-66677422D01*
X147214657Y-66674426D01*
X147182886Y-66665913D01*
X147169376Y-66660317D01*
X147140892Y-66643872D01*
X147129298Y-66634976D01*
X147106039Y-66611717D01*
X147097129Y-66600105D01*
X147080688Y-66571629D01*
X147075087Y-66558108D01*
X147066577Y-66526345D01*
X147063576Y-66503553D01*
X147062500Y-66487117D01*
X147062500Y-65266106D01*
X147062497Y-65266087D01*
X147062498Y-65263229D01*
X147051544Y-65208158D01*
X147036210Y-65131065D01*
X147036209Y-65131062D01*
X147036209Y-65131061D01*
X146984640Y-65006561D01*
X146909773Y-64894514D01*
X146909768Y-64894509D01*
X146909759Y-64894498D01*
X146899038Y-64883777D01*
X146899033Y-64883768D01*
X146830903Y-64815637D01*
X146799932Y-64784665D01*
X146657599Y-64681255D01*
X146657597Y-64681254D01*
X146657593Y-64681251D01*
X146500848Y-64601386D01*
X146500844Y-64601385D01*
X146500843Y-64601384D01*
X146500842Y-64601384D01*
X146333520Y-64547020D01*
X146159753Y-64519499D01*
X146159750Y-64519499D01*
X146071787Y-64519500D01*
X139871391Y-64519500D01*
X139871345Y-64519504D01*
X139844247Y-64519504D01*
X139789209Y-64528220D01*
X139670483Y-64547023D01*
X139503164Y-64601387D01*
X139503158Y-64601390D01*
X139346405Y-64681259D01*
X139346404Y-64681260D01*
X139204073Y-64784667D01*
X139188587Y-64800152D01*
X139178772Y-64809966D01*
X139178762Y-64809972D01*
X139079666Y-64909066D01*
X138976251Y-65051406D01*
X138896386Y-65208151D01*
X138896385Y-65208155D01*
X138842020Y-65375479D01*
X138837728Y-65402577D01*
X138815104Y-65545432D01*
X138814499Y-65549249D01*
X138814500Y-65609172D01*
X138814500Y-67579062D01*
X138814057Y-67589615D01*
X138806716Y-67676960D01*
X138803555Y-67696326D01*
X138791924Y-67743907D01*
X138779673Y-67772664D01*
X138780534Y-67773099D01*
X138777740Y-67778628D01*
X138765985Y-67808973D01*
X138722725Y-67865268D01*
X138719382Y-67867623D01*
X138718155Y-67868458D01*
X138702414Y-67877582D01*
X138658187Y-67899110D01*
X138657204Y-67899600D01*
X138636546Y-67907704D01*
X138621930Y-67911996D01*
X138621928Y-67911997D01*
X138512949Y-67982033D01*
X138434995Y-68072000D01*
X138428118Y-68079937D01*
X138374303Y-68197774D01*
X138355867Y-68326000D01*
X130881798Y-68326000D01*
X130888154Y-68315628D01*
X130987573Y-68075610D01*
X131048221Y-67822994D01*
X131068604Y-67564000D01*
X131048221Y-67305006D01*
X130987573Y-67052390D01*
X130888154Y-66812372D01*
X130752412Y-66590860D01*
X130714885Y-66546921D01*
X130583689Y-66393310D01*
X130386143Y-66224590D01*
X130386136Y-66224585D01*
X130256260Y-66144998D01*
X130164628Y-66088846D01*
X129924610Y-65989427D01*
X129671994Y-65928779D01*
X129413000Y-65908396D01*
X129154006Y-65928779D01*
X128901389Y-65989427D01*
X128661370Y-66088847D01*
X128439863Y-66224585D01*
X128439856Y-66224590D01*
X128242310Y-66393310D01*
X128073590Y-66590856D01*
X128073585Y-66590863D01*
X127972171Y-66756358D01*
X127937846Y-66812372D01*
X127930037Y-66831224D01*
X127838427Y-67052389D01*
X127797461Y-67223024D01*
X127777779Y-67305006D01*
X127757396Y-67564000D01*
X126465300Y-67564000D01*
X126465300Y-65934334D01*
X126465570Y-65926094D01*
X126473936Y-65798438D01*
X126481779Y-65678760D01*
X126483927Y-65662446D01*
X126531478Y-65423381D01*
X126535743Y-65407468D01*
X126537404Y-65402577D01*
X126614084Y-65176679D01*
X126620390Y-65161455D01*
X126728187Y-64942861D01*
X126736426Y-64928592D01*
X126871832Y-64725941D01*
X126881859Y-64712872D01*
X127042567Y-64529617D01*
X127054200Y-64517983D01*
X127237470Y-64357259D01*
X127250521Y-64347245D01*
X127453185Y-64211829D01*
X127467441Y-64203597D01*
X127686052Y-64095789D01*
X127701259Y-64089491D01*
X127932068Y-64011141D01*
X127947965Y-64006882D01*
X128187030Y-63959329D01*
X128203347Y-63957181D01*
X128450467Y-63940984D01*
X128458708Y-63940714D01*
X167558678Y-63940714D01*
X167566918Y-63940984D01*
G37*
%TD.AperFunction*%
%TD*%
%TA.AperFunction,Conductor*%
%TO.N,/SCL_0*%
G36*
X145801700Y-67061488D02*
G01*
X145984464Y-67269532D01*
X145987350Y-67278009D01*
X145983396Y-67286044D01*
X145983105Y-67286291D01*
X145927627Y-67331905D01*
X145866999Y-67383798D01*
X145816458Y-67444236D01*
X145781839Y-67523223D01*
X145773800Y-67590544D01*
X145770398Y-67619039D01*
X145770232Y-67620426D01*
X145765849Y-67628235D01*
X145758615Y-67630739D01*
X145580840Y-67630739D01*
X145572567Y-67627312D01*
X145569140Y-67619039D01*
X145569141Y-67618900D01*
X145570434Y-67510018D01*
X145571150Y-67444236D01*
X145571474Y-67414497D01*
X145567219Y-67333992D01*
X145552771Y-67258343D01*
X145526964Y-67187612D01*
X145527347Y-67178668D01*
X145533163Y-67172930D01*
X145788121Y-67058534D01*
X145797071Y-67058275D01*
X145801700Y-67061488D01*
G37*
%TD.AperFunction*%
%TD*%
%TA.AperFunction,Conductor*%
%TO.N,/SWD*%
G36*
X154819799Y-92967856D02*
G01*
X155043661Y-93127753D01*
X155048402Y-93135350D01*
X155046511Y-93143889D01*
X155003955Y-93205972D01*
X155003938Y-93206000D01*
X154964911Y-93275223D01*
X154964910Y-93275225D01*
X154936406Y-93351631D01*
X154936405Y-93351634D01*
X154918936Y-93444709D01*
X154918935Y-93444715D01*
X154913553Y-93552881D01*
X154909719Y-93560974D01*
X154901867Y-93564000D01*
X154724133Y-93564000D01*
X154715860Y-93560573D01*
X154712447Y-93552882D01*
X154710774Y-93519280D01*
X154707063Y-93444720D01*
X154689591Y-93351631D01*
X154661087Y-93275224D01*
X154622055Y-93205991D01*
X154579486Y-93143887D01*
X154577637Y-93135127D01*
X154582336Y-93127755D01*
X154806200Y-92967856D01*
X154814924Y-92965837D01*
X154819799Y-92967856D01*
G37*
%TD.AperFunction*%
%TD*%
%TA.AperFunction,Conductor*%
%TO.N,/V_{S}*%
G36*
X134907117Y-80756617D02*
G01*
X134907717Y-80758031D01*
X134998706Y-81018860D01*
X134998195Y-81027800D01*
X134994760Y-81032012D01*
X134774937Y-81199897D01*
X134766283Y-81202195D01*
X134760034Y-81199318D01*
X134735151Y-81177052D01*
X134697413Y-81143283D01*
X134697411Y-81143282D01*
X134697410Y-81143281D01*
X134617081Y-81104355D01*
X134532635Y-81067319D01*
X134530738Y-81066267D01*
X134447970Y-81009772D01*
X134445376Y-81007350D01*
X134375376Y-80918499D01*
X134372948Y-80909879D01*
X134377325Y-80902068D01*
X134378708Y-80901130D01*
X134532624Y-80812267D01*
X134541502Y-80811100D01*
X134546555Y-80813941D01*
X134601769Y-80866682D01*
X134601999Y-80866682D01*
X134673086Y-80866912D01*
X134749935Y-80831498D01*
X134827667Y-80783621D01*
X134828533Y-80783138D01*
X134891403Y-80751437D01*
X134900332Y-80750773D01*
X134907117Y-80756617D01*
G37*
%TD.AperFunction*%
%TD*%
%TA.AperFunction,Conductor*%
%TO.N,/SDA_0*%
G36*
X146309700Y-67823488D02*
G01*
X146492464Y-68031532D01*
X146495350Y-68040009D01*
X146491396Y-68048044D01*
X146491105Y-68048291D01*
X146435627Y-68093905D01*
X146374999Y-68145798D01*
X146324458Y-68206236D01*
X146289839Y-68285223D01*
X146281800Y-68352544D01*
X146278398Y-68381039D01*
X146278232Y-68382426D01*
X146273849Y-68390235D01*
X146266615Y-68392739D01*
X146088840Y-68392739D01*
X146080567Y-68389312D01*
X146077140Y-68381039D01*
X146077141Y-68380900D01*
X146078434Y-68272018D01*
X146079150Y-68206236D01*
X146079474Y-68176497D01*
X146075219Y-68095992D01*
X146060771Y-68020343D01*
X146034964Y-67949612D01*
X146035347Y-67940668D01*
X146041163Y-67934930D01*
X146296121Y-67820534D01*
X146305071Y-67820275D01*
X146309700Y-67823488D01*
G37*
%TD.AperFunction*%
%TD*%
%TA.AperFunction,Conductor*%
%TO.N,/SDA_1*%
G36*
X150760856Y-86432177D02*
G01*
X150764283Y-86440450D01*
X150764277Y-86440834D01*
X150760619Y-86552199D01*
X150760589Y-86552733D01*
X150752912Y-86650253D01*
X150748312Y-86732931D01*
X150748313Y-86732936D01*
X150753546Y-86811318D01*
X150753548Y-86811326D01*
X150772692Y-86885870D01*
X150771431Y-86894735D01*
X150765283Y-86899803D01*
X150503007Y-86993150D01*
X150494064Y-86992695D01*
X150489816Y-86989268D01*
X150322078Y-86771411D01*
X150319748Y-86762767D01*
X150324212Y-86755004D01*
X150324647Y-86754685D01*
X150384117Y-86713382D01*
X150451580Y-86666583D01*
X150509285Y-86610639D01*
X150549545Y-86534907D01*
X150563242Y-86438799D01*
X150567802Y-86431092D01*
X150574825Y-86428750D01*
X150752583Y-86428750D01*
X150760856Y-86432177D01*
G37*
%TD.AperFunction*%
%TD*%
%TA.AperFunction,Conductor*%
%TO.N,+1V1*%
G36*
X153633596Y-93622376D02*
G01*
X153633760Y-93622601D01*
X153793119Y-93846451D01*
X153795126Y-93855178D01*
X153793099Y-93860050D01*
X153632320Y-94084490D01*
X153624717Y-94089219D01*
X153617283Y-94087989D01*
X153568821Y-94062023D01*
X153568820Y-94062022D01*
X153568817Y-94062021D01*
X153506322Y-94044762D01*
X153506318Y-94044761D01*
X153434520Y-94033317D01*
X153434520Y-94033316D01*
X153349510Y-94020005D01*
X153348773Y-94019865D01*
X153257741Y-93999557D01*
X153250412Y-93994411D01*
X153248869Y-93985591D01*
X153248976Y-93985152D01*
X153320808Y-93717057D01*
X153326259Y-93709955D01*
X153333664Y-93708491D01*
X153406606Y-93718290D01*
X153474551Y-93707261D01*
X153531263Y-93681220D01*
X153580697Y-93647351D01*
X153617220Y-93620018D01*
X153625896Y-93617805D01*
X153633596Y-93622376D01*
G37*
%TD.AperFunction*%
%TD*%
%TA.AperFunction,Conductor*%
%TO.N,/CC2*%
G36*
X152873954Y-74141995D02*
G01*
X152879403Y-74149092D01*
X152903448Y-74238612D01*
X152926610Y-74317689D01*
X152950671Y-74383100D01*
X152959491Y-74400816D01*
X152980446Y-74442908D01*
X152980447Y-74442909D01*
X152980453Y-74442920D01*
X153014704Y-74495856D01*
X153016321Y-74504664D01*
X153011699Y-74511720D01*
X152788048Y-74672095D01*
X152779328Y-74674131D01*
X152774449Y-74672122D01*
X152551104Y-74513282D01*
X152546348Y-74505694D01*
X152548350Y-74496966D01*
X152548914Y-74496237D01*
X152586156Y-74451962D01*
X152586506Y-74451568D01*
X152633560Y-74400820D01*
X152633564Y-74400816D01*
X152672274Y-74345303D01*
X152692222Y-74277472D01*
X152684205Y-74199476D01*
X152686768Y-74190897D01*
X152692813Y-74186981D01*
X152865078Y-74140826D01*
X152873954Y-74141995D01*
G37*
%TD.AperFunction*%
%TD*%
%TA.AperFunction,Conductor*%
%TO.N,/RUN*%
G36*
X155328879Y-92331535D02*
G01*
X155583832Y-92445929D01*
X155589977Y-92452443D01*
X155590033Y-92460614D01*
X155564227Y-92531339D01*
X155564225Y-92531347D01*
X155549779Y-92606989D01*
X155545525Y-92687491D01*
X155545525Y-92687497D01*
X155546564Y-92783018D01*
X155547859Y-92891900D01*
X155544531Y-92900213D01*
X155536299Y-92903738D01*
X155536160Y-92903739D01*
X155358385Y-92903739D01*
X155350112Y-92900312D01*
X155346768Y-92893426D01*
X155335159Y-92796226D01*
X155335159Y-92796222D01*
X155300541Y-92717237D01*
X155249998Y-92656798D01*
X155191807Y-92606992D01*
X155189370Y-92604906D01*
X155133893Y-92559291D01*
X155129679Y-92551390D01*
X155132287Y-92542823D01*
X155132519Y-92542548D01*
X155315301Y-92334486D01*
X155323334Y-92330534D01*
X155328879Y-92331535D01*
G37*
%TD.AperFunction*%
%TD*%
%TA.AperFunction,Conductor*%
%TO.N,+1V1*%
G36*
X151162549Y-79192579D02*
G01*
X151167287Y-79198958D01*
X151185661Y-79260000D01*
X151185664Y-79260009D01*
X151219914Y-79325518D01*
X151219916Y-79325521D01*
X151219918Y-79325524D01*
X151268811Y-79391428D01*
X151268814Y-79391431D01*
X151334182Y-79463854D01*
X151409729Y-79540661D01*
X151413088Y-79548962D01*
X151409661Y-79557138D01*
X151213764Y-79753035D01*
X151205491Y-79756462D01*
X151197468Y-79753278D01*
X151121190Y-79681407D01*
X151121185Y-79681404D01*
X151121183Y-79681402D01*
X151046655Y-79622552D01*
X150977571Y-79581460D01*
X150977572Y-79581460D01*
X150977568Y-79581458D01*
X150909351Y-79555068D01*
X150848069Y-79542508D01*
X150840652Y-79537490D01*
X150838814Y-79529549D01*
X150874220Y-79255592D01*
X150878677Y-79247832D01*
X150883496Y-79245630D01*
X151153760Y-79190863D01*
X151162549Y-79192579D01*
G37*
%TD.AperFunction*%
%TD*%
%TA.AperFunction,Conductor*%
%TO.N,+1V1*%
G36*
X150974775Y-78580937D02*
G01*
X150975966Y-78582632D01*
X151114603Y-78822765D01*
X151115771Y-78831643D01*
X151112957Y-78836668D01*
X151066303Y-78885838D01*
X151066301Y-78885842D01*
X151062877Y-78951681D01*
X151062877Y-78951682D01*
X151062878Y-78951684D01*
X151089416Y-79021417D01*
X151089547Y-79021759D01*
X151089548Y-79021763D01*
X151127012Y-79089709D01*
X151127281Y-79090227D01*
X151150771Y-79138364D01*
X151151319Y-79147302D01*
X151145387Y-79154010D01*
X151144114Y-79154541D01*
X150883138Y-79245702D01*
X150874198Y-79245195D01*
X150869984Y-79241760D01*
X150701594Y-79021417D01*
X150699293Y-79012763D01*
X150701608Y-79007189D01*
X150749619Y-78944669D01*
X150779814Y-78855120D01*
X150810192Y-78757180D01*
X150811156Y-78754936D01*
X150864632Y-78659538D01*
X150867290Y-78656320D01*
X150958288Y-78579539D01*
X150966821Y-78576824D01*
X150974775Y-78580937D01*
G37*
%TD.AperFunction*%
%TD*%
%TA.AperFunction,Conductor*%
%TO.N,Net-(D4-K)*%
G36*
X134672888Y-74884486D02*
G01*
X134734992Y-74927055D01*
X134804225Y-74966087D01*
X134880632Y-74994591D01*
X134880635Y-74994592D01*
X134973707Y-75012061D01*
X134973712Y-75012061D01*
X134973720Y-75012063D01*
X135081883Y-75017446D01*
X135089974Y-75021280D01*
X135093000Y-75029132D01*
X135093000Y-75206867D01*
X135089573Y-75215140D01*
X135081881Y-75218553D01*
X134973715Y-75223935D01*
X134973709Y-75223936D01*
X134880635Y-75241405D01*
X134880632Y-75241406D01*
X134804226Y-75269910D01*
X134804224Y-75269911D01*
X134743032Y-75304409D01*
X134734992Y-75308943D01*
X134734986Y-75308947D01*
X134734973Y-75308955D01*
X134672890Y-75351511D01*
X134664129Y-75353362D01*
X134656754Y-75348661D01*
X134628393Y-75308955D01*
X134496856Y-75124799D01*
X134494837Y-75116076D01*
X134496857Y-75111200D01*
X134656756Y-74887336D01*
X134664351Y-74882597D01*
X134672888Y-74884486D01*
G37*
%TD.AperFunction*%
%TD*%
%TA.AperFunction,Conductor*%
%TO.N,VBUS*%
G36*
X137288801Y-75821804D02*
G01*
X137293012Y-75825239D01*
X137460897Y-76045061D01*
X137463195Y-76053715D01*
X137460318Y-76059964D01*
X137404282Y-76122585D01*
X137365355Y-76202916D01*
X137328321Y-76287358D01*
X137327270Y-76289255D01*
X137270771Y-76372030D01*
X137268348Y-76374624D01*
X137179499Y-76444623D01*
X137170879Y-76447051D01*
X137163068Y-76442674D01*
X137162125Y-76441283D01*
X137073268Y-76287375D01*
X137072100Y-76278497D01*
X137074938Y-76273446D01*
X137127682Y-76218228D01*
X137127912Y-76146912D01*
X137092498Y-76070063D01*
X137044623Y-75992332D01*
X137044138Y-75991464D01*
X137012438Y-75928596D01*
X137011773Y-75919666D01*
X137017617Y-75912881D01*
X137019019Y-75912286D01*
X137279862Y-75821293D01*
X137288801Y-75821804D01*
G37*
%TD.AperFunction*%
%TD*%
%TA.AperFunction,Conductor*%
%TO.N,/RX*%
G36*
X160026777Y-89284857D02*
G01*
X160229910Y-89429962D01*
X160250537Y-89444697D01*
X160255277Y-89452294D01*
X160253308Y-89460945D01*
X160211902Y-89519851D01*
X160172162Y-89585725D01*
X160142447Y-89658403D01*
X160124484Y-89747136D01*
X160120410Y-89850250D01*
X160116659Y-89858381D01*
X160108970Y-89861485D01*
X159931172Y-89865301D01*
X159922827Y-89862053D01*
X159919249Y-89854418D01*
X159912001Y-89750303D01*
X159893733Y-89660611D01*
X159865472Y-89587123D01*
X159827472Y-89520500D01*
X159786492Y-89460871D01*
X159784631Y-89452113D01*
X159789335Y-89444724D01*
X159789373Y-89444697D01*
X160013180Y-89284856D01*
X160021902Y-89282837D01*
X160026777Y-89284857D01*
G37*
%TD.AperFunction*%
%TD*%
%TA.AperFunction,Conductor*%
%TO.N,/RUN*%
G36*
X145765599Y-93409856D02*
G01*
X145989461Y-93569753D01*
X145994202Y-93577350D01*
X145992311Y-93585889D01*
X145949755Y-93647972D01*
X145949738Y-93648000D01*
X145910711Y-93717223D01*
X145910710Y-93717225D01*
X145882206Y-93793631D01*
X145882205Y-93793634D01*
X145864736Y-93886709D01*
X145864735Y-93886715D01*
X145859353Y-93994881D01*
X145855519Y-94002974D01*
X145847667Y-94006000D01*
X145669933Y-94006000D01*
X145661660Y-94002573D01*
X145658247Y-93994882D01*
X145656574Y-93961280D01*
X145652863Y-93886720D01*
X145635391Y-93793631D01*
X145606887Y-93717224D01*
X145567855Y-93647991D01*
X145525286Y-93585887D01*
X145523437Y-93577127D01*
X145528136Y-93569755D01*
X145752000Y-93409856D01*
X145760724Y-93407837D01*
X145765599Y-93409856D01*
G37*
%TD.AperFunction*%
%TD*%
%TA.AperFunction,Conductor*%
%TO.N,/SCL_1*%
G36*
X150747022Y-87485739D02*
G01*
X150748316Y-87486371D01*
X150805452Y-87518808D01*
X150806196Y-87519268D01*
X150857472Y-87553710D01*
X150877665Y-87567273D01*
X150877663Y-87567273D01*
X150948427Y-87603037D01*
X151014241Y-87604766D01*
X151014241Y-87604765D01*
X151014242Y-87604766D01*
X151064897Y-87556900D01*
X151073263Y-87553710D01*
X151078782Y-87555273D01*
X151232737Y-87644162D01*
X151238188Y-87651266D01*
X151237019Y-87660144D01*
X151236081Y-87661530D01*
X151168190Y-87747795D01*
X151165595Y-87750220D01*
X151085153Y-87805166D01*
X151083236Y-87806227D01*
X151001011Y-87842128D01*
X150922425Y-87879717D01*
X150922422Y-87879719D01*
X150860887Y-87933619D01*
X150852406Y-87936492D01*
X150845955Y-87934022D01*
X150628486Y-87763348D01*
X150624093Y-87755544D01*
X150624902Y-87749662D01*
X150625091Y-87749206D01*
X150731734Y-87492062D01*
X150738067Y-87485735D01*
X150747022Y-87485739D01*
G37*
%TD.AperFunction*%
%TD*%
%TA.AperFunction,Conductor*%
%TO.N,/FLASH_CS*%
G36*
X146654599Y-84839856D02*
G01*
X146879045Y-85000171D01*
X146883786Y-85007767D01*
X146882302Y-85015670D01*
X146849714Y-85070483D01*
X146823806Y-85139936D01*
X146823803Y-85139946D01*
X146807936Y-85220322D01*
X146799978Y-85317173D01*
X146799978Y-85317180D01*
X146798011Y-85424514D01*
X146794433Y-85432723D01*
X146786313Y-85436000D01*
X146509287Y-85436000D01*
X146501014Y-85432573D01*
X146497589Y-85424515D01*
X146495620Y-85317179D01*
X146495620Y-85317173D01*
X146487662Y-85220322D01*
X146471795Y-85139946D01*
X146471792Y-85139936D01*
X146445883Y-85070483D01*
X146413297Y-85015671D01*
X146412015Y-85006808D01*
X146416554Y-85000171D01*
X146416556Y-85000170D01*
X146641000Y-84839856D01*
X146649724Y-84837837D01*
X146654599Y-84839856D01*
G37*
%TD.AperFunction*%
%TD*%
%TA.AperFunction,Conductor*%
%TO.N,/PD_INT*%
G36*
X145040799Y-65916856D02*
G01*
X145264661Y-66076753D01*
X145269402Y-66084350D01*
X145267511Y-66092889D01*
X145224955Y-66154972D01*
X145224938Y-66155000D01*
X145185911Y-66224223D01*
X145185910Y-66224225D01*
X145157406Y-66300631D01*
X145157405Y-66300634D01*
X145139936Y-66393709D01*
X145139935Y-66393715D01*
X145134553Y-66501881D01*
X145130719Y-66509974D01*
X145122867Y-66513000D01*
X144945133Y-66513000D01*
X144936860Y-66509573D01*
X144933447Y-66501882D01*
X144931774Y-66468280D01*
X144928063Y-66393720D01*
X144910591Y-66300631D01*
X144882087Y-66224224D01*
X144843055Y-66154991D01*
X144800486Y-66092887D01*
X144798637Y-66084127D01*
X144803336Y-66076755D01*
X145027200Y-65916856D01*
X145035924Y-65914837D01*
X145040799Y-65916856D01*
G37*
%TD.AperFunction*%
%TD*%
%TA.AperFunction,Conductor*%
%TO.N,/SCL_0*%
G36*
X148453213Y-86619593D02*
G01*
X148453718Y-86620424D01*
X148586724Y-86861008D01*
X148587728Y-86869907D01*
X148584981Y-86874713D01*
X148392813Y-87077674D01*
X148384636Y-87081326D01*
X148377240Y-87078947D01*
X148318340Y-87034203D01*
X148318338Y-87034202D01*
X148318337Y-87034201D01*
X148249920Y-87001493D01*
X148249916Y-87001491D01*
X148249915Y-87001491D01*
X148174798Y-86974555D01*
X148174528Y-86974455D01*
X148087339Y-86940751D01*
X148086284Y-86940282D01*
X147991738Y-86892532D01*
X147985899Y-86885744D01*
X147986569Y-86876815D01*
X147986866Y-86876264D01*
X148075841Y-86722158D01*
X148082944Y-86716708D01*
X148089852Y-86716971D01*
X148145185Y-86736433D01*
X148171220Y-86745590D01*
X148171223Y-86745591D01*
X148248030Y-86736434D01*
X148316260Y-86700911D01*
X148380881Y-86653781D01*
X148381222Y-86653543D01*
X148436988Y-86616350D01*
X148445771Y-86614612D01*
X148453213Y-86619593D01*
G37*
%TD.AperFunction*%
%TD*%
%TA.AperFunction,Conductor*%
%TO.N,/V_{G}*%
G36*
X138486812Y-75736324D02*
G01*
X138678981Y-75939286D01*
X138682181Y-75947649D01*
X138680724Y-75952991D01*
X138547718Y-76193574D01*
X138540717Y-76199156D01*
X138531818Y-76198152D01*
X138530987Y-76197647D01*
X138475253Y-76160474D01*
X138474851Y-76160193D01*
X138410261Y-76113087D01*
X138410260Y-76113086D01*
X138342030Y-76077564D01*
X138265223Y-76068406D01*
X138265220Y-76068407D01*
X138183854Y-76097027D01*
X138174913Y-76096540D01*
X138169840Y-76091840D01*
X138156310Y-76068406D01*
X138080880Y-75937758D01*
X138079712Y-75928883D01*
X138085163Y-75921779D01*
X138085721Y-75921475D01*
X138180296Y-75873709D01*
X138181334Y-75873248D01*
X138268593Y-75839517D01*
X138268708Y-75839475D01*
X138343920Y-75812504D01*
X138412337Y-75779796D01*
X138471241Y-75735050D01*
X138479899Y-75732776D01*
X138486812Y-75736324D01*
G37*
%TD.AperFunction*%
%TD*%
%TA.AperFunction,Conductor*%
%TO.N,/CC1*%
G36*
X156868733Y-73556909D02*
G01*
X156868993Y-73557316D01*
X156926957Y-73652334D01*
X156927334Y-73653000D01*
X156972713Y-73739676D01*
X157011552Y-73813130D01*
X157055837Y-73878052D01*
X157055841Y-73878056D01*
X157055844Y-73878060D01*
X157081083Y-73903132D01*
X157110278Y-73932135D01*
X157113732Y-73940396D01*
X157111093Y-73947837D01*
X156936006Y-74162158D01*
X156928118Y-74166397D01*
X156922565Y-74165605D01*
X156663648Y-74061069D01*
X156657259Y-74054794D01*
X156657179Y-74045840D01*
X156657435Y-74045253D01*
X156687506Y-73981114D01*
X156687519Y-73981120D01*
X156687535Y-73981049D01*
X156722341Y-73908066D01*
X156743935Y-73832840D01*
X156739525Y-73750978D01*
X156700572Y-73667109D01*
X156700195Y-73658163D01*
X156704681Y-73652454D01*
X156852506Y-73553680D01*
X156861288Y-73551934D01*
X156868733Y-73556909D01*
G37*
%TD.AperFunction*%
%TD*%
%TA.AperFunction,Conductor*%
%TO.N,/CC2*%
G36*
X139543140Y-68364427D02*
G01*
X139546553Y-68372119D01*
X139551935Y-68480282D01*
X139551936Y-68480288D01*
X139569405Y-68573363D01*
X139569406Y-68573366D01*
X139597910Y-68649772D01*
X139597911Y-68649774D01*
X139636943Y-68719007D01*
X139636952Y-68719020D01*
X139636955Y-68719025D01*
X139679511Y-68781109D01*
X139681362Y-68789870D01*
X139676661Y-68797245D01*
X139452800Y-68957142D01*
X139444076Y-68959162D01*
X139439200Y-68957142D01*
X139215338Y-68797245D01*
X139210597Y-68789648D01*
X139212486Y-68781111D01*
X139255055Y-68719007D01*
X139294087Y-68649774D01*
X139322591Y-68573367D01*
X139340063Y-68480278D01*
X139345447Y-68372118D01*
X139349281Y-68364026D01*
X139357133Y-68361000D01*
X139534867Y-68361000D01*
X139543140Y-68364427D01*
G37*
%TD.AperFunction*%
%TD*%
%TA.AperFunction,Conductor*%
%TO.N,/V_{G}*%
G36*
X136750797Y-78976704D02*
G01*
X136753969Y-78982546D01*
X136770996Y-79062710D01*
X136770997Y-79062711D01*
X136820504Y-79117884D01*
X136820505Y-79117885D01*
X136843091Y-79128914D01*
X136889297Y-79151478D01*
X136965833Y-79176073D01*
X136966468Y-79176298D01*
X136995045Y-79187343D01*
X137027797Y-79200002D01*
X137034278Y-79206181D01*
X137034492Y-79215133D01*
X137034026Y-79216182D01*
X136909803Y-79462559D01*
X136903019Y-79468404D01*
X136897643Y-79468866D01*
X136624632Y-79428455D01*
X136616950Y-79423854D01*
X136614649Y-79416584D01*
X136616547Y-79341912D01*
X136602158Y-79265895D01*
X136602158Y-79265893D01*
X136580539Y-79187343D01*
X136580373Y-79186659D01*
X136572930Y-79151475D01*
X136560814Y-79094199D01*
X136560592Y-79092624D01*
X136552903Y-78985817D01*
X136555727Y-78977319D01*
X136563733Y-78973307D01*
X136564573Y-78973277D01*
X136742524Y-78973277D01*
X136750797Y-78976704D01*
G37*
%TD.AperFunction*%
%TD*%
%TA.AperFunction,Conductor*%
%TO.N,/SDA_0*%
G36*
X148329148Y-85612448D02*
G01*
X148333919Y-85617674D01*
X148373208Y-85702711D01*
X148373209Y-85702713D01*
X148435928Y-85757449D01*
X148511622Y-85786644D01*
X148511626Y-85786644D01*
X148511633Y-85786647D01*
X148567321Y-85798386D01*
X148593852Y-85803979D01*
X148594026Y-85804017D01*
X148664447Y-85820397D01*
X148671728Y-85825609D01*
X148673192Y-85834444D01*
X148672989Y-85835200D01*
X148592770Y-86098712D01*
X148587082Y-86105629D01*
X148581632Y-86107005D01*
X148300896Y-86108332D01*
X148292607Y-86104944D01*
X148289226Y-86098034D01*
X148279848Y-86020210D01*
X148253392Y-85945104D01*
X148216929Y-85869438D01*
X148216809Y-85869182D01*
X148187326Y-85804022D01*
X148176257Y-85779558D01*
X148175818Y-85778434D01*
X148140519Y-85672272D01*
X148141160Y-85663342D01*
X148147929Y-85657480D01*
X148148555Y-85657292D01*
X148320270Y-85611280D01*
X148329148Y-85612448D01*
G37*
%TD.AperFunction*%
%TD*%
%TA.AperFunction,Conductor*%
%TO.N,/PD_INT*%
G36*
X148426245Y-88796338D02*
G01*
X148586142Y-89020200D01*
X148588162Y-89028924D01*
X148586142Y-89033800D01*
X148426245Y-89257661D01*
X148418648Y-89262402D01*
X148410109Y-89260511D01*
X148348025Y-89217955D01*
X148348020Y-89217952D01*
X148348007Y-89217943D01*
X148278774Y-89178911D01*
X148278772Y-89178910D01*
X148202366Y-89150406D01*
X148202363Y-89150405D01*
X148109288Y-89132936D01*
X148109282Y-89132935D01*
X148001119Y-89127553D01*
X147993026Y-89123719D01*
X147990000Y-89115867D01*
X147990000Y-88938132D01*
X147993427Y-88929859D01*
X148001116Y-88926446D01*
X148109278Y-88921063D01*
X148109287Y-88921061D01*
X148109290Y-88921061D01*
X148202363Y-88903592D01*
X148202364Y-88903591D01*
X148202367Y-88903591D01*
X148278774Y-88875087D01*
X148348007Y-88836055D01*
X148410111Y-88793486D01*
X148418871Y-88791637D01*
X148426245Y-88796338D01*
G37*
%TD.AperFunction*%
%TD*%
%TA.AperFunction,Conductor*%
%TO.N,/FLASH_CS*%
G36*
X144381049Y-89083289D02*
G01*
X144384476Y-89091562D01*
X144384472Y-89091881D01*
X144381495Y-89200867D01*
X144381480Y-89201216D01*
X144375831Y-89300018D01*
X144374222Y-89383152D01*
X144374222Y-89383154D01*
X144383062Y-89456739D01*
X144405216Y-89517434D01*
X144404833Y-89526381D01*
X144399583Y-89531847D01*
X144152685Y-89659040D01*
X144143761Y-89659782D01*
X144138958Y-89656815D01*
X143943070Y-89456306D01*
X143939740Y-89447994D01*
X143942913Y-89440118D01*
X143983421Y-89397027D01*
X144024592Y-89339826D01*
X144056626Y-89271412D01*
X144077403Y-89186514D01*
X144082691Y-89110259D01*
X144084045Y-89090752D01*
X144088036Y-89082736D01*
X144095717Y-89079862D01*
X144372776Y-89079862D01*
X144381049Y-89083289D01*
G37*
%TD.AperFunction*%
%TD*%
%TA.AperFunction,Conductor*%
%TO.N,/TX*%
G36*
X159537386Y-89458595D02*
G01*
X159544898Y-89463466D01*
X159546939Y-89470802D01*
X159542087Y-89551348D01*
X159555325Y-89633025D01*
X159577540Y-89717793D01*
X159577661Y-89718304D01*
X159599086Y-89818127D01*
X159599302Y-89819560D01*
X159609466Y-89935481D01*
X159606775Y-89944022D01*
X159598833Y-89948158D01*
X159598044Y-89948201D01*
X159420376Y-89951740D01*
X159412036Y-89948478D01*
X159408673Y-89942348D01*
X159407292Y-89935481D01*
X159390014Y-89849549D01*
X159390012Y-89849546D01*
X159390011Y-89849544D01*
X159339919Y-89781925D01*
X159339914Y-89781920D01*
X159270395Y-89736822D01*
X159227280Y-89717793D01*
X159191657Y-89702070D01*
X159191401Y-89701953D01*
X159124802Y-89670627D01*
X159118774Y-89664005D01*
X159119195Y-89655060D01*
X159119563Y-89654342D01*
X159253888Y-89414313D01*
X159260919Y-89408768D01*
X159266223Y-89408523D01*
X159537386Y-89458595D01*
G37*
%TD.AperFunction*%
%TD*%
%TA.AperFunction,Conductor*%
%TO.N,/EN*%
G36*
X142880700Y-81031488D02*
G01*
X143063464Y-81239532D01*
X143066350Y-81248009D01*
X143062396Y-81256044D01*
X143062105Y-81256291D01*
X143006627Y-81301905D01*
X142945999Y-81353798D01*
X142895458Y-81414236D01*
X142860839Y-81493223D01*
X142852800Y-81560544D01*
X142849398Y-81589039D01*
X142849232Y-81590426D01*
X142844849Y-81598235D01*
X142837615Y-81600739D01*
X142659840Y-81600739D01*
X142651567Y-81597312D01*
X142648140Y-81589039D01*
X142648141Y-81588900D01*
X142649434Y-81480018D01*
X142650150Y-81414236D01*
X142650474Y-81384497D01*
X142646219Y-81303992D01*
X142631771Y-81228343D01*
X142605964Y-81157612D01*
X142606347Y-81148668D01*
X142612163Y-81142930D01*
X142867121Y-81028534D01*
X142876071Y-81028275D01*
X142880700Y-81031488D01*
G37*
%TD.AperFunction*%
%TD*%
%TA.AperFunction,Conductor*%
%TO.N,+1V1*%
G36*
X158585827Y-78381754D02*
G01*
X158746142Y-78606200D01*
X158748162Y-78614924D01*
X158746142Y-78619800D01*
X158585828Y-78844245D01*
X158578231Y-78848986D01*
X158570328Y-78847502D01*
X158515513Y-78814914D01*
X158446061Y-78789006D01*
X158446051Y-78789003D01*
X158365675Y-78773136D01*
X158268822Y-78765178D01*
X158161485Y-78763210D01*
X158153277Y-78759632D01*
X158150000Y-78751512D01*
X158150000Y-78474487D01*
X158153427Y-78466214D01*
X158161484Y-78462789D01*
X158268832Y-78460820D01*
X158365675Y-78452862D01*
X158446051Y-78436995D01*
X158446053Y-78436994D01*
X158446060Y-78436993D01*
X158515516Y-78411082D01*
X158570328Y-78378496D01*
X158579190Y-78377215D01*
X158585827Y-78381754D01*
G37*
%TD.AperFunction*%
%TD*%
%TA.AperFunction,Conductor*%
%TO.N,/CC1*%
G36*
X139109593Y-67869983D02*
G01*
X139116816Y-67875276D01*
X139118234Y-67883897D01*
X139097909Y-67974951D01*
X139097905Y-67974976D01*
X139085284Y-68056725D01*
X139081954Y-68126928D01*
X139081954Y-68126938D01*
X139087009Y-68194514D01*
X139087009Y-68194516D01*
X139097650Y-68257248D01*
X139095655Y-68265978D01*
X139088440Y-68270672D01*
X138818962Y-68325308D01*
X138810173Y-68323593D01*
X138806538Y-68319748D01*
X138775085Y-68265978D01*
X138667844Y-68082645D01*
X138666626Y-68073776D01*
X138672037Y-68066641D01*
X138672609Y-68066327D01*
X138726163Y-68038967D01*
X138726246Y-68038925D01*
X138788793Y-68008481D01*
X138845555Y-67969850D01*
X138892705Y-67912335D01*
X138922744Y-67834794D01*
X138928927Y-67828319D01*
X138936429Y-67827657D01*
X139109593Y-67869983D01*
G37*
%TD.AperFunction*%
%TD*%
%TA.AperFunction,Conductor*%
%TO.N,/EN*%
G36*
X149315582Y-90488181D02*
G01*
X149318715Y-90492843D01*
X149414250Y-90755195D01*
X149413861Y-90764141D01*
X149408976Y-90769404D01*
X149345015Y-90805252D01*
X149345011Y-90805255D01*
X149288708Y-90858539D01*
X149232963Y-90915685D01*
X149231575Y-90916899D01*
X149160631Y-90969722D01*
X149158022Y-90971188D01*
X149065841Y-91008385D01*
X149056887Y-91008303D01*
X149050613Y-91001913D01*
X149050165Y-91000573D01*
X149004060Y-90828500D01*
X149005229Y-90819624D01*
X149009149Y-90815560D01*
X149063565Y-90781500D01*
X149075959Y-90721306D01*
X149059062Y-90648346D01*
X149033151Y-90572036D01*
X149032791Y-90570723D01*
X149020483Y-90512685D01*
X149022119Y-90503882D01*
X149029501Y-90498814D01*
X149031355Y-90498573D01*
X149307155Y-90485160D01*
X149315582Y-90488181D01*
G37*
%TD.AperFunction*%
%TD*%
%TA.AperFunction,Conductor*%
%TO.N,/SCL_1*%
G36*
X164789701Y-85121267D02*
G01*
X164790239Y-85122369D01*
X164899269Y-85379007D01*
X164899350Y-85387962D01*
X164896042Y-85392527D01*
X164683908Y-85571363D01*
X164675374Y-85574076D01*
X164668560Y-85571133D01*
X164664929Y-85567880D01*
X164611496Y-85520014D01*
X164578961Y-85502450D01*
X164541625Y-85482294D01*
X164541615Y-85482290D01*
X164465660Y-85448165D01*
X164464690Y-85447674D01*
X164381682Y-85400668D01*
X164379958Y-85399476D01*
X164296933Y-85330310D01*
X164292770Y-85322382D01*
X164295433Y-85313832D01*
X164296138Y-85313059D01*
X164421944Y-85187253D01*
X164430216Y-85183827D01*
X164436395Y-85185592D01*
X164503722Y-85227483D01*
X164575879Y-85225732D01*
X164646094Y-85193555D01*
X164715184Y-85149264D01*
X164715800Y-85148896D01*
X164773796Y-85116713D01*
X164782691Y-85115696D01*
X164789701Y-85121267D01*
G37*
%TD.AperFunction*%
%TD*%
%TA.AperFunction,Conductor*%
%TO.N,Net-(D4-K)*%
G36*
X136361245Y-74887338D02*
G01*
X136521142Y-75111200D01*
X136523162Y-75119924D01*
X136521142Y-75124800D01*
X136361245Y-75348661D01*
X136353648Y-75353402D01*
X136345109Y-75351511D01*
X136283025Y-75308955D01*
X136283020Y-75308952D01*
X136283007Y-75308943D01*
X136213774Y-75269911D01*
X136213772Y-75269910D01*
X136137366Y-75241406D01*
X136137363Y-75241405D01*
X136044288Y-75223936D01*
X136044282Y-75223935D01*
X135936119Y-75218553D01*
X135928026Y-75214719D01*
X135925000Y-75206867D01*
X135925000Y-75029132D01*
X135928427Y-75020859D01*
X135936116Y-75017446D01*
X136044278Y-75012063D01*
X136044287Y-75012061D01*
X136044290Y-75012061D01*
X136137363Y-74994592D01*
X136137364Y-74994591D01*
X136137367Y-74994591D01*
X136213774Y-74966087D01*
X136283007Y-74927055D01*
X136345111Y-74884486D01*
X136353871Y-74882637D01*
X136361245Y-74887338D01*
G37*
%TD.AperFunction*%
%TD*%
%TA.AperFunction,Conductor*%
%TO.N,/SWC*%
G36*
X154329575Y-93007705D02*
G01*
X154337206Y-93012389D01*
X154339291Y-93021098D01*
X154339145Y-93021853D01*
X154324072Y-93088166D01*
X154324010Y-93088424D01*
X154304739Y-93165119D01*
X154297745Y-93241821D01*
X154297745Y-93241822D01*
X154316818Y-93320001D01*
X154369855Y-93393208D01*
X154371933Y-93401918D01*
X154368653Y-93408345D01*
X154242854Y-93534144D01*
X154234581Y-93537571D01*
X154226308Y-93534144D01*
X154226026Y-93533852D01*
X154153138Y-93455723D01*
X154152736Y-93455270D01*
X154136379Y-93435809D01*
X154092144Y-93383179D01*
X154092117Y-93383148D01*
X154092092Y-93383118D01*
X154039962Y-93322797D01*
X154039946Y-93322781D01*
X153984375Y-93271369D01*
X153984366Y-93271362D01*
X153922403Y-93231695D01*
X153917283Y-93224348D01*
X153918335Y-93216435D01*
X154046400Y-92970761D01*
X154053262Y-92965010D01*
X154058608Y-92964615D01*
X154329575Y-93007705D01*
G37*
%TD.AperFunction*%
%TD*%
%TA.AperFunction,Conductor*%
%TO.N,/RUN*%
G36*
X145855940Y-92809427D02*
G01*
X145859353Y-92817119D01*
X145864735Y-92925282D01*
X145864736Y-92925288D01*
X145882205Y-93018363D01*
X145882206Y-93018366D01*
X145910710Y-93094772D01*
X145910711Y-93094774D01*
X145949743Y-93164007D01*
X145949752Y-93164020D01*
X145949755Y-93164025D01*
X145992311Y-93226109D01*
X145994162Y-93234870D01*
X145989461Y-93242245D01*
X145765600Y-93402142D01*
X145756876Y-93404162D01*
X145752000Y-93402142D01*
X145528138Y-93242245D01*
X145523397Y-93234648D01*
X145525286Y-93226111D01*
X145567855Y-93164007D01*
X145606887Y-93094774D01*
X145635391Y-93018367D01*
X145652863Y-92925278D01*
X145658247Y-92817118D01*
X145662081Y-92809026D01*
X145669933Y-92806000D01*
X145847667Y-92806000D01*
X145855940Y-92809427D01*
G37*
%TD.AperFunction*%
%TD*%
M02*
